<svg width="283" height="830" viewBox="0 0 283 830" fill="none" xmlns="http://www.w3.org/2000/svg">
<g clip-path="url(#clip0_717_38)">
<path d="M-132 830C97.1982 830 283 644.198 283 415C283 185.802 97.1982 0 -132 0C-361.198 0 -547 185.802 -547 415C-547 644.198 -361.198 830 -132 830Z" fill="#384D4B" fill-opacity="0.72"/>
<path d="M-168 830C61.1982 830 247 644.198 247 415C247 185.802 61.1982 0 -168 0C-397.198 0 -583 185.802 -583 415C-583 644.198 -397.198 830 -168 830Z" fill="#384D4B" fill-opacity="0.54"/>
<path d="M93.5385 250.28C91.9145 250.28 90.5518 250.037 89.4505 249.552C88.3491 249.048 87.4998 248.404 86.9025 247.62C86.3238 246.817 86.0158 245.968 85.9785 245.072C85.9785 244.923 86.0345 244.792 86.1465 244.68C86.2771 244.549 86.4265 244.484 86.5945 244.484H88.0225C88.2465 244.484 88.4145 244.54 88.5265 244.652C88.6385 244.764 88.7131 244.895 88.7505 245.044C88.8438 245.492 89.0678 245.94 89.4225 246.388C89.7958 246.817 90.3091 247.181 90.9625 247.48C91.6345 247.76 92.4931 247.9 93.5385 247.9C95.1438 247.9 96.3198 247.62 97.0665 247.06C97.8318 246.481 98.2145 245.716 98.2145 244.764C98.2145 244.111 98.0091 243.588 97.5985 243.196C97.2065 242.785 96.5998 242.421 95.7785 242.104C94.9571 241.787 93.8931 241.441 92.5865 241.068C91.2238 240.676 90.0945 240.247 89.1985 239.78C88.3025 239.313 87.6305 238.735 87.1825 238.044C86.7531 237.353 86.5385 236.476 86.5385 235.412C86.5385 234.404 86.8091 233.508 87.3505 232.724C87.8918 231.921 88.6665 231.287 89.6745 230.82C90.7011 230.353 91.9425 230.12 93.3985 230.12C94.5558 230.12 95.5638 230.279 96.4225 230.596C97.2998 230.895 98.0278 231.305 98.6065 231.828C99.1851 232.332 99.6238 232.883 99.9225 233.48C100.221 234.059 100.38 234.628 100.399 235.188C100.399 235.319 100.352 235.449 100.259 235.58C100.165 235.692 100.016 235.748 99.8105 235.748H98.3265C98.1958 235.748 98.0558 235.711 97.9065 235.636C97.7758 235.561 97.6731 235.421 97.5985 235.216C97.4865 234.451 97.0571 233.807 96.3105 233.284C95.5638 232.761 94.5931 232.5 93.3985 232.5C92.1851 232.5 91.1958 232.733 90.4305 233.2C89.6838 233.667 89.3105 234.395 89.3105 235.384C89.3105 236.019 89.4878 236.551 89.8425 236.98C90.1971 237.391 90.7571 237.755 91.5225 238.072C92.2878 238.389 93.2865 238.725 94.5185 239.08C96.0118 239.491 97.2345 239.929 98.1865 240.396C99.1385 240.844 99.8385 241.413 100.287 242.104C100.753 242.776 100.987 243.644 100.987 244.708C100.987 245.884 100.679 246.892 100.063 247.732C99.4465 248.553 98.5785 249.188 97.4585 249.636C96.3571 250.065 95.0505 250.28 93.5385 250.28ZM92.7633 286C92.558 286 92.3993 285.944 92.2873 285.832C92.1753 285.701 92.1193 285.543 92.1193 285.356V267.044C92.1193 266.857 92.1753 266.708 92.2873 266.596C92.3993 266.465 92.558 266.4 92.7633 266.4H94.2473C94.434 266.4 94.5833 266.465 94.6953 266.596C94.826 266.708 94.8913 266.857 94.8913 267.044V285.356C94.8913 285.543 94.826 285.701 94.6953 285.832C94.5833 285.944 94.434 286 94.2473 286H92.7633ZM86.8707 322C86.6654 322 86.5067 321.944 86.3947 321.832C86.2827 321.701 86.2267 321.543 86.2267 321.356V303.072C86.2267 302.867 86.2827 302.708 86.3947 302.596C86.5067 302.465 86.6654 302.4 86.8707 302.4H88.1587C88.3827 302.4 88.5507 302.456 88.6627 302.568C88.7747 302.661 88.8401 302.736 88.8587 302.792L98.1547 317.072V303.072C98.1547 302.867 98.2107 302.708 98.3227 302.596C98.4347 302.465 98.5934 302.4 98.7987 302.4H100.143C100.348 302.4 100.507 302.465 100.619 302.596C100.75 302.708 100.815 302.867 100.815 303.072V321.328C100.815 321.515 100.75 321.673 100.619 321.804C100.507 321.935 100.358 322 100.171 322H98.8267C98.6214 322 98.4627 321.944 98.3507 321.832C98.2574 321.72 98.1921 321.645 98.1547 321.608L88.8867 307.468V321.356C88.8867 321.543 88.8214 321.701 88.6907 321.832C88.5787 321.944 88.4201 322 88.2147 322H86.8707ZM93.6792 358.28C91.9619 358.28 90.5339 357.963 89.3952 357.328C88.2752 356.693 87.4259 355.807 86.8472 354.668C86.2686 353.529 85.9512 352.204 85.8952 350.692C85.8766 349.927 85.8672 349.105 85.8672 348.228C85.8672 347.351 85.8766 346.511 85.8952 345.708C85.9512 344.196 86.2686 342.871 86.8472 341.732C87.4259 340.593 88.2752 339.707 89.3952 339.072C90.5339 338.437 91.9619 338.12 93.6792 338.12C94.9672 338.12 96.0966 338.297 97.0672 338.652C98.0379 339.007 98.8406 339.483 99.4752 340.08C100.129 340.677 100.623 341.349 100.959 342.096C101.295 342.824 101.482 343.58 101.519 344.364C101.538 344.532 101.482 344.672 101.351 344.784C101.239 344.896 101.099 344.952 100.931 344.952H99.3912C99.2232 344.952 99.0739 344.905 98.9432 344.812C98.8312 344.719 98.7472 344.551 98.6912 344.308C98.3739 342.852 97.7766 341.853 96.8992 341.312C96.0406 340.771 94.9579 340.5 93.6512 340.5C92.1579 340.5 90.9726 340.929 90.0952 341.788C89.2179 342.628 88.7419 343.981 88.6672 345.848C88.6112 347.379 88.6112 348.947 88.6672 350.552C88.7419 352.419 89.2179 353.781 90.0952 354.64C90.9726 355.48 92.1579 355.9 93.6512 355.9C94.9579 355.9 96.0406 355.629 96.8992 355.088C97.7766 354.547 98.3739 353.548 98.6912 352.092C98.7472 351.849 98.8312 351.681 98.9432 351.588C99.0739 351.495 99.2232 351.448 99.3912 351.448H100.931C101.099 351.448 101.239 351.504 101.351 351.616C101.482 351.728 101.538 351.868 101.519 352.036C101.482 352.82 101.295 353.585 100.959 354.332C100.623 355.06 100.129 355.723 99.4752 356.32C98.8406 356.917 98.0379 357.393 97.0672 357.748C96.0966 358.103 94.9672 358.28 93.6792 358.28ZM88.1012 394C87.8959 394 87.7372 393.944 87.6252 393.832C87.5132 393.701 87.4572 393.543 87.4572 393.356V375.072C87.4572 374.867 87.5132 374.708 87.6252 374.596C87.7372 374.465 87.8959 374.4 88.1012 374.4H99.6652C99.8705 374.4 100.029 374.465 100.141 374.596C100.253 374.708 100.309 374.867 100.309 375.072V376.136C100.309 376.341 100.253 376.5 100.141 376.612C100.029 376.724 99.8705 376.78 99.6652 376.78H90.1452V382.912H99.0492C99.2545 382.912 99.4132 382.977 99.5252 383.108C99.6372 383.22 99.6932 383.379 99.6932 383.584V384.62C99.6932 384.807 99.6372 384.965 99.5252 385.096C99.4132 385.208 99.2545 385.264 99.0492 385.264H90.1452V391.62H99.8892C100.095 391.62 100.253 391.676 100.365 391.788C100.477 391.9 100.533 392.059 100.533 392.264V393.356C100.533 393.543 100.477 393.701 100.365 393.832C100.253 393.944 100.095 394 99.8892 394H88.1012ZM95.2512 466C95.0645 466 94.9058 465.944 94.7752 465.832C94.6632 465.701 94.6072 465.543 94.6072 465.356V449.676L89.9592 453.26C89.8098 453.372 89.6512 453.419 89.4832 453.4C89.3152 453.381 89.1752 453.297 89.0632 453.148L88.3352 452.224C88.2232 452.056 88.1765 451.888 88.1952 451.72C88.2325 451.552 88.3258 451.412 88.4752 451.3L94.5792 446.596C94.7098 446.503 94.8312 446.447 94.9432 446.428C95.0552 446.409 95.1765 446.4 95.3072 446.4H96.7352C96.9218 446.4 97.0712 446.465 97.1832 446.596C97.2952 446.708 97.3512 446.857 97.3512 447.044V465.356C97.3512 465.543 97.2952 465.701 97.1832 465.832C97.0712 465.944 96.9218 466 96.7352 466H95.2512ZM90.6166 502C90.4486 502 90.3086 501.944 90.1966 501.832C90.1033 501.701 90.0566 501.552 90.0566 501.384C90.0566 501.291 90.0659 501.216 90.0846 501.16C90.1219 501.104 90.1499 501.057 90.1686 501.02L94.4526 495.056C93.9859 495.168 93.4819 495.224 92.9406 495.224C91.8953 495.205 90.9619 495.019 90.1406 494.664C89.3193 494.309 88.6193 493.833 88.0406 493.236C87.4619 492.62 87.0233 491.929 86.7246 491.164C86.4259 490.399 86.2766 489.596 86.2766 488.756C86.2766 487.935 86.4166 487.132 86.6966 486.348C86.9953 485.564 87.4339 484.855 88.0126 484.22C88.6099 483.585 89.3473 483.081 90.2246 482.708C91.1019 482.316 92.1379 482.12 93.3326 482.12C94.5086 482.12 95.5353 482.307 96.4126 482.68C97.3086 483.035 98.0553 483.529 98.6526 484.164C99.2686 484.78 99.7166 485.48 99.9966 486.264C100.295 487.048 100.445 487.86 100.445 488.7C100.445 489.465 100.333 490.165 100.109 490.8C99.8846 491.435 99.6139 492.004 99.2966 492.508C98.9979 493.012 98.6993 493.479 98.4006 493.908L93.0246 501.44C92.9499 501.533 92.8473 501.655 92.7166 501.804C92.5859 501.935 92.3899 502 92.1286 502H90.6166ZM93.3326 492.956C94.1166 492.956 94.8353 492.788 95.4886 492.452C96.1606 492.097 96.6926 491.612 97.0846 490.996C97.4766 490.361 97.6726 489.605 97.6726 488.728C97.6726 487.851 97.4766 487.104 97.0846 486.488C96.6926 485.853 96.1606 485.368 95.4886 485.032C94.8353 484.677 94.1166 484.5 93.3326 484.5C92.5673 484.5 91.8579 484.677 91.2046 485.032C90.5513 485.368 90.0286 485.853 89.6366 486.488C89.2446 487.104 89.0486 487.851 89.0486 488.728C89.0486 489.605 89.2446 490.361 89.6366 490.996C90.0286 491.612 90.5513 492.097 91.2046 492.452C91.8579 492.788 92.5673 492.956 93.3326 492.956ZM90.6166 538C90.4486 538 90.3086 537.944 90.1966 537.832C90.1033 537.701 90.0566 537.552 90.0566 537.384C90.0566 537.291 90.0659 537.216 90.0846 537.16C90.1219 537.104 90.1499 537.057 90.1686 537.02L94.4526 531.056C93.9859 531.168 93.4819 531.224 92.9406 531.224C91.8953 531.205 90.9619 531.019 90.1406 530.664C89.3193 530.309 88.6193 529.833 88.0406 529.236C87.4619 528.62 87.0233 527.929 86.7246 527.164C86.4259 526.399 86.2766 525.596 86.2766 524.756C86.2766 523.935 86.4166 523.132 86.6966 522.348C86.9953 521.564 87.4339 520.855 88.0126 520.22C88.6099 519.585 89.3473 519.081 90.2246 518.708C91.1019 518.316 92.1379 518.12 93.3326 518.12C94.5086 518.12 95.5353 518.307 96.4126 518.68C97.3086 519.035 98.0553 519.529 98.6526 520.164C99.2686 520.78 99.7166 521.48 99.9966 522.264C100.295 523.048 100.445 523.86 100.445 524.7C100.445 525.465 100.333 526.165 100.109 526.8C99.8846 527.435 99.6139 528.004 99.2966 528.508C98.9979 529.012 98.6993 529.479 98.4006 529.908L93.0246 537.44C92.9499 537.533 92.8473 537.655 92.7166 537.804C92.5859 537.935 92.3899 538 92.1286 538H90.6166ZM93.3326 528.956C94.1166 528.956 94.8353 528.788 95.4886 528.452C96.1606 528.097 96.6926 527.612 97.0846 526.996C97.4766 526.361 97.6726 525.605 97.6726 524.728C97.6726 523.851 97.4766 523.104 97.0846 522.488C96.6926 521.853 96.1606 521.368 95.4886 521.032C94.8353 520.677 94.1166 520.5 93.3326 520.5C92.5673 520.5 91.8579 520.677 91.2046 521.032C90.5513 521.368 90.0286 521.853 89.6366 522.488C89.2446 523.104 89.0486 523.851 89.0486 524.728C89.0486 525.605 89.2446 526.361 89.6366 526.996C90.0286 527.612 90.5513 528.097 91.2046 528.452C91.8579 528.788 92.5673 528.956 93.3326 528.956ZM90.6166 574C90.4486 574 90.3086 573.944 90.1966 573.832C90.1033 573.701 90.0566 573.552 90.0566 573.384C90.0566 573.291 90.0659 573.216 90.0846 573.16C90.1219 573.104 90.1499 573.057 90.1686 573.02L94.4526 567.056C93.9859 567.168 93.4819 567.224 92.9406 567.224C91.8953 567.205 90.9619 567.019 90.1406 566.664C89.3193 566.309 88.6193 565.833 88.0406 565.236C87.4619 564.62 87.0233 563.929 86.7246 563.164C86.4259 562.399 86.2766 561.596 86.2766 560.756C86.2766 559.935 86.4166 559.132 86.6966 558.348C86.9953 557.564 87.4339 556.855 88.0126 556.22C88.6099 555.585 89.3473 555.081 90.2246 554.708C91.1019 554.316 92.1379 554.12 93.3326 554.12C94.5086 554.12 95.5353 554.307 96.4126 554.68C97.3086 555.035 98.0553 555.529 98.6526 556.164C99.2686 556.78 99.7166 557.48 99.9966 558.264C100.295 559.048 100.445 559.86 100.445 560.7C100.445 561.465 100.333 562.165 100.109 562.8C99.8846 563.435 99.6139 564.004 99.2966 564.508C98.9979 565.012 98.6993 565.479 98.4006 565.908L93.0246 573.44C92.9499 573.533 92.8473 573.655 92.7166 573.804C92.5859 573.935 92.3899 574 92.1286 574H90.6166ZM93.3326 564.956C94.1166 564.956 94.8353 564.788 95.4886 564.452C96.1606 564.097 96.6926 563.612 97.0846 562.996C97.4766 562.361 97.6726 561.605 97.6726 560.728C97.6726 559.851 97.4766 559.104 97.0846 558.488C96.6926 557.853 96.1606 557.368 95.4886 557.032C94.8353 556.677 94.1166 556.5 93.3326 556.5C92.5673 556.5 91.8579 556.677 91.2046 557.032C90.5513 557.368 90.0286 557.853 89.6366 558.488C89.2446 559.104 89.0486 559.851 89.0486 560.728C89.0486 561.605 89.2446 562.361 89.6366 562.996C90.0286 563.612 90.5513 564.097 91.2046 564.452C91.8579 564.788 92.5673 564.956 93.3326 564.956Z" fill="white"/>
</g>
<defs>
<clipPath id="clip0_717_38">
<rect width="283" height="830" fill="white"/>
</clipPath>
</defs>
</svg>
