<svg width="283" height="830" viewBox="0 0 283 830" fill="none" xmlns="http://www.w3.org/2000/svg">
<circle cx="-132" cy="415" r="415" fill="#9C70FF" fill-opacity="0.7"/>
<circle cx="-168" cy="415" r="415" fill="#9C70FF" fill-opacity="0.22"/>
<path d="M93.5386 250.28C91.9146 250.28 90.5519 250.037 89.4506 249.552C88.3492 249.048 87.4999 248.404 86.9026 247.62C86.3239 246.817 86.0159 245.968 85.9786 245.072C85.9786 244.923 86.0346 244.792 86.1466 244.68C86.2772 244.549 86.4266 244.484 86.5946 244.484H88.0226C88.2466 244.484 88.4146 244.54 88.5266 244.652C88.6386 244.764 88.7132 244.895 88.7506 245.044C88.8439 245.492 89.0679 245.94 89.4226 246.388C89.7959 246.817 90.3092 247.181 90.9626 247.48C91.6346 247.76 92.4932 247.9 93.5386 247.9C95.1439 247.9 96.3199 247.62 97.0666 247.06C97.8319 246.481 98.2146 245.716 98.2146 244.764C98.2146 244.111 98.0092 243.588 97.5986 243.196C97.2066 242.785 96.5999 242.421 95.7786 242.104C94.9572 241.787 93.8932 241.441 92.5866 241.068C91.2239 240.676 90.0946 240.247 89.1986 239.78C88.3026 239.313 87.6306 238.735 87.1826 238.044C86.7532 237.353 86.5386 236.476 86.5386 235.412C86.5386 234.404 86.8092 233.508 87.3506 232.724C87.8919 231.921 88.6666 231.287 89.6746 230.82C90.7012 230.353 91.9426 230.12 93.3986 230.12C94.5559 230.12 95.5639 230.279 96.4226 230.596C97.2999 230.895 98.0279 231.305 98.6066 231.828C99.1852 232.332 99.6239 232.883 99.9226 233.48C100.221 234.059 100.38 234.628 100.399 235.188C100.399 235.319 100.352 235.449 100.259 235.58C100.165 235.692 100.016 235.748 99.8106 235.748H98.3266C98.1959 235.748 98.0559 235.711 97.9066 235.636C97.7759 235.561 97.6732 235.421 97.5986 235.216C97.4866 234.451 97.0572 233.807 96.3106 233.284C95.5639 232.761 94.5932 232.5 93.3986 232.5C92.1852 232.5 91.1959 232.733 90.4306 233.2C89.6839 233.667 89.3106 234.395 89.3106 235.384C89.3106 236.019 89.4879 236.551 89.8426 236.98C90.1972 237.391 90.7572 237.755 91.5226 238.072C92.2879 238.389 93.2866 238.725 94.5186 239.08C96.0119 239.491 97.2346 239.929 98.1866 240.396C99.1386 240.844 99.8386 241.413 100.287 242.104C100.753 242.776 100.987 243.644 100.987 244.708C100.987 245.884 100.679 246.892 100.063 247.732C99.4466 248.553 98.5786 249.188 97.4586 249.636C96.3572 250.065 95.0506 250.28 93.5386 250.28ZM92.7634 286C92.5581 286 92.3994 285.944 92.2874 285.832C92.1754 285.701 92.1194 285.543 92.1194 285.356V267.044C92.1194 266.857 92.1754 266.708 92.2874 266.596C92.3994 266.465 92.5581 266.4 92.7634 266.4H94.2474C94.4341 266.4 94.5834 266.465 94.6954 266.596C94.8261 266.708 94.8914 266.857 94.8914 267.044V285.356C94.8914 285.543 94.8261 285.701 94.6954 285.832C94.5834 285.944 94.4341 286 94.2474 286H92.7634ZM86.8708 322C86.6655 322 86.5068 321.944 86.3948 321.832C86.2828 321.701 86.2268 321.543 86.2268 321.356V303.072C86.2268 302.867 86.2828 302.708 86.3948 302.596C86.5068 302.465 86.6655 302.4 86.8708 302.4H88.1588C88.3828 302.4 88.5508 302.456 88.6628 302.568C88.7748 302.661 88.8402 302.736 88.8588 302.792L98.1548 317.072V303.072C98.1548 302.867 98.2108 302.708 98.3228 302.596C98.4348 302.465 98.5935 302.4 98.7988 302.4H100.143C100.348 302.4 100.507 302.465 100.619 302.596C100.75 302.708 100.815 302.867 100.815 303.072V321.328C100.815 321.515 100.75 321.673 100.619 321.804C100.507 321.935 100.358 322 100.171 322H98.8268C98.6215 322 98.4628 321.944 98.3508 321.832C98.2575 321.72 98.1922 321.645 98.1548 321.608L88.8868 307.468V321.356C88.8868 321.543 88.8215 321.701 88.6908 321.832C88.5788 321.944 88.4202 322 88.2148 322H86.8708ZM93.6793 358.28C91.962 358.28 90.534 357.963 89.3953 357.328C88.2753 356.693 87.426 355.807 86.8473 354.668C86.2687 353.529 85.9513 352.204 85.8953 350.692C85.8767 349.927 85.8673 349.105 85.8673 348.228C85.8673 347.351 85.8767 346.511 85.8953 345.708C85.9513 344.196 86.2687 342.871 86.8473 341.732C87.426 340.593 88.2753 339.707 89.3953 339.072C90.534 338.437 91.962 338.12 93.6793 338.12C94.9673 338.12 96.0967 338.297 97.0673 338.652C98.038 339.007 98.8407 339.483 99.4753 340.08C100.129 340.677 100.623 341.349 100.959 342.096C101.295 342.824 101.482 343.58 101.519 344.364C101.538 344.532 101.482 344.672 101.351 344.784C101.239 344.896 101.099 344.952 100.931 344.952H99.3913C99.2233 344.952 99.074 344.905 98.9433 344.812C98.8313 344.719 98.7473 344.551 98.6913 344.308C98.374 342.852 97.7767 341.853 96.8993 341.312C96.0407 340.771 94.958 340.5 93.6513 340.5C92.158 340.5 90.9727 340.929 90.0953 341.788C89.218 342.628 88.742 343.981 88.6673 345.848C88.6113 347.379 88.6113 348.947 88.6673 350.552C88.742 352.419 89.218 353.781 90.0953 354.64C90.9727 355.48 92.158 355.9 93.6513 355.9C94.958 355.9 96.0407 355.629 96.8993 355.088C97.7767 354.547 98.374 353.548 98.6913 352.092C98.7473 351.849 98.8313 351.681 98.9433 351.588C99.074 351.495 99.2233 351.448 99.3913 351.448H100.931C101.099 351.448 101.239 351.504 101.351 351.616C101.482 351.728 101.538 351.868 101.519 352.036C101.482 352.82 101.295 353.585 100.959 354.332C100.623 355.06 100.129 355.723 99.4753 356.32C98.8407 356.917 98.038 357.393 97.0673 357.748C96.0967 358.103 94.9673 358.28 93.6793 358.28ZM88.1013 394C87.896 394 87.7373 393.944 87.6253 393.832C87.5133 393.701 87.4573 393.543 87.4573 393.356V375.072C87.4573 374.867 87.5133 374.708 87.6253 374.596C87.7373 374.465 87.896 374.4 88.1013 374.4H99.6653C99.8706 374.4 100.029 374.465 100.141 374.596C100.253 374.708 100.309 374.867 100.309 375.072V376.136C100.309 376.341 100.253 376.5 100.141 376.612C100.029 376.724 99.8706 376.78 99.6653 376.78H90.1453V382.912H99.0493C99.2546 382.912 99.4133 382.977 99.5253 383.108C99.6373 383.22 99.6933 383.379 99.6933 383.584V384.62C99.6933 384.807 99.6373 384.965 99.5253 385.096C99.4133 385.208 99.2546 385.264 99.0493 385.264H90.1453V391.62H99.8893C100.095 391.62 100.253 391.676 100.365 391.788C100.477 391.9 100.533 392.059 100.533 392.264V393.356C100.533 393.543 100.477 393.701 100.365 393.832C100.253 393.944 100.095 394 99.8893 394H88.1013ZM95.2513 466C95.0646 466 94.9059 465.944 94.7753 465.832C94.6633 465.701 94.6073 465.543 94.6073 465.356V449.676L89.9593 453.26C89.8099 453.372 89.6513 453.419 89.4833 453.4C89.3153 453.381 89.1753 453.297 89.0633 453.148L88.3353 452.224C88.2233 452.056 88.1766 451.888 88.1953 451.72C88.2326 451.552 88.3259 451.412 88.4753 451.3L94.5793 446.596C94.7099 446.503 94.8313 446.447 94.9433 446.428C95.0553 446.409 95.1766 446.4 95.3073 446.4H96.7353C96.9219 446.4 97.0713 446.465 97.1833 446.596C97.2953 446.708 97.3513 446.857 97.3513 447.044V465.356C97.3513 465.543 97.2953 465.701 97.1833 465.832C97.0713 465.944 96.9219 466 96.7353 466H95.2513ZM90.6167 502C90.4487 502 90.3087 501.944 90.1967 501.832C90.1034 501.701 90.0567 501.552 90.0567 501.384C90.0567 501.291 90.066 501.216 90.0847 501.16C90.122 501.104 90.15 501.057 90.1687 501.02L94.4527 495.056C93.986 495.168 93.482 495.224 92.9407 495.224C91.8954 495.205 90.962 495.019 90.1407 494.664C89.3194 494.309 88.6194 493.833 88.0407 493.236C87.462 492.62 87.0234 491.929 86.7247 491.164C86.426 490.399 86.2767 489.596 86.2767 488.756C86.2767 487.935 86.4167 487.132 86.6967 486.348C86.9954 485.564 87.434 484.855 88.0127 484.22C88.61 483.585 89.3474 483.081 90.2247 482.708C91.102 482.316 92.138 482.12 93.3327 482.12C94.5087 482.12 95.5354 482.307 96.4127 482.68C97.3087 483.035 98.0554 483.529 98.6527 484.164C99.2687 484.78 99.7167 485.48 99.9967 486.264C100.295 487.048 100.445 487.86 100.445 488.7C100.445 489.465 100.333 490.165 100.109 490.8C99.8847 491.435 99.614 492.004 99.2967 492.508C98.998 493.012 98.6994 493.479 98.4007 493.908L93.0247 501.44C92.95 501.533 92.8474 501.655 92.7167 501.804C92.586 501.935 92.39 502 92.1287 502H90.6167ZM93.3327 492.956C94.1167 492.956 94.8354 492.788 95.4887 492.452C96.1607 492.097 96.6927 491.612 97.0847 490.996C97.4767 490.361 97.6727 489.605 97.6727 488.728C97.6727 487.851 97.4767 487.104 97.0847 486.488C96.6927 485.853 96.1607 485.368 95.4887 485.032C94.8354 484.677 94.1167 484.5 93.3327 484.5C92.5674 484.5 91.858 484.677 91.2047 485.032C90.5514 485.368 90.0287 485.853 89.6367 486.488C89.2447 487.104 89.0487 487.851 89.0487 488.728C89.0487 489.605 89.2447 490.361 89.6367 490.996C90.0287 491.612 90.5514 492.097 91.2047 492.452C91.858 492.788 92.5674 492.956 93.3327 492.956ZM90.6167 538C90.4487 538 90.3087 537.944 90.1967 537.832C90.1034 537.701 90.0567 537.552 90.0567 537.384C90.0567 537.291 90.066 537.216 90.0847 537.16C90.122 537.104 90.15 537.057 90.1687 537.02L94.4527 531.056C93.986 531.168 93.482 531.224 92.9407 531.224C91.8954 531.205 90.962 531.019 90.1407 530.664C89.3194 530.309 88.6194 529.833 88.0407 529.236C87.462 528.62 87.0234 527.929 86.7247 527.164C86.426 526.399 86.2767 525.596 86.2767 524.756C86.2767 523.935 86.4167 523.132 86.6967 522.348C86.9954 521.564 87.434 520.855 88.0127 520.22C88.61 519.585 89.3474 519.081 90.2247 518.708C91.102 518.316 92.138 518.12 93.3327 518.12C94.5087 518.12 95.5354 518.307 96.4127 518.68C97.3087 519.035 98.0554 519.529 98.6527 520.164C99.2687 520.78 99.7167 521.48 99.9967 522.264C100.295 523.048 100.445 523.86 100.445 524.7C100.445 525.465 100.333 526.165 100.109 526.8C99.8847 527.435 99.614 528.004 99.2967 528.508C98.998 529.012 98.6994 529.479 98.4007 529.908L93.0247 537.44C92.95 537.533 92.8474 537.655 92.7167 537.804C92.586 537.935 92.39 538 92.1287 538H90.6167ZM93.3327 528.956C94.1167 528.956 94.8354 528.788 95.4887 528.452C96.1607 528.097 96.6927 527.612 97.0847 526.996C97.4767 526.361 97.6727 525.605 97.6727 524.728C97.6727 523.851 97.4767 523.104 97.0847 522.488C96.6927 521.853 96.1607 521.368 95.4887 521.032C94.8354 520.677 94.1167 520.5 93.3327 520.5C92.5674 520.5 91.858 520.677 91.2047 521.032C90.5514 521.368 90.0287 521.853 89.6367 522.488C89.2447 523.104 89.0487 523.851 89.0487 524.728C89.0487 525.605 89.2447 526.361 89.6367 526.996C90.0287 527.612 90.5514 528.097 91.2047 528.452C91.858 528.788 92.5674 528.956 93.3327 528.956ZM90.6167 574C90.4487 574 90.3087 573.944 90.1967 573.832C90.1034 573.701 90.0567 573.552 90.0567 573.384C90.0567 573.291 90.066 573.216 90.0847 573.16C90.122 573.104 90.15 573.057 90.1687 573.02L94.4527 567.056C93.986 567.168 93.482 567.224 92.9407 567.224C91.8954 567.205 90.962 567.019 90.1407 566.664C89.3194 566.309 88.6194 565.833 88.0407 565.236C87.462 564.62 87.0234 563.929 86.7247 563.164C86.426 562.399 86.2767 561.596 86.2767 560.756C86.2767 559.935 86.4167 559.132 86.6967 558.348C86.9954 557.564 87.434 556.855 88.0127 556.22C88.61 555.585 89.3474 555.081 90.2247 554.708C91.102 554.316 92.138 554.12 93.3327 554.12C94.5087 554.12 95.5354 554.307 96.4127 554.68C97.3087 555.035 98.0554 555.529 98.6527 556.164C99.2687 556.78 99.7167 557.48 99.9967 558.264C100.295 559.048 100.445 559.86 100.445 560.7C100.445 561.465 100.333 562.165 100.109 562.8C99.8847 563.435 99.614 564.004 99.2967 564.508C98.998 565.012 98.6994 565.479 98.4007 565.908L93.0247 573.44C92.95 573.533 92.8474 573.655 92.7167 573.804C92.586 573.935 92.39 574 92.1287 574H90.6167ZM93.3327 564.956C94.1167 564.956 94.8354 564.788 95.4887 564.452C96.1607 564.097 96.6927 563.612 97.0847 562.996C97.4767 562.361 97.6727 561.605 97.6727 560.728C97.6727 559.851 97.4767 559.104 97.0847 558.488C96.6927 557.853 96.1607 557.368 95.4887 557.032C94.8354 556.677 94.1167 556.5 93.3327 556.5C92.5674 556.5 91.858 556.677 91.2047 557.032C90.5514 557.368 90.0287 557.853 89.6367 558.488C89.2447 559.104 89.0487 559.851 89.0487 560.728C89.0487 561.605 89.2447 562.361 89.6367 562.996C90.0287 563.612 90.5514 564.097 91.2047 564.452C91.858 564.788 92.5674 564.956 93.3327 564.956Z" fill="white"/>
</svg>
