<svg width="1440" height="654" viewBox="0 0 1440 654" fill="none" xmlns="http://www.w3.org/2000/svg">
<g clip-path="url(#clip0_716_37)">
<path d="M1440 0H0V654H1440V0Z" fill="#384D4B"/>
<path d="M1044.42 337.684L1020.98 215.5C1020.96 215.286 1020.87 215.086 1020.73 214.927C1020.58 214.768 1020.39 214.659 1020.18 214.617C1019.97 214.575 1019.75 214.602 1019.56 214.693C1019.36 214.784 1019.2 214.935 1019.1 215.124L922.232 355.478C922.101 355.636 922.021 355.83 922.004 356.034C921.986 356.238 922.032 356.443 922.134 356.62C922.236 356.798 922.391 356.94 922.576 357.027C922.762 357.114 922.97 357.142 923.172 357.108L1042.22 340.628C1042.56 340.591 1042.9 340.483 1043.19 340.312C1043.49 340.141 1043.75 339.91 1043.96 339.634C1044.17 339.357 1044.31 339.042 1044.39 338.706C1044.47 338.37 1044.48 338.022 1044.42 337.684Z" fill="url(#paint0_linear_716_37)"/>
<path d="M1052.64 339.259L1054.08 346.903L1059.72 375.977C1059.91 377.005 1060.21 378.012 1060.6 378.984L1061.1 379.924C1061.39 380.53 1061.73 381.116 1062.1 381.679L1062.85 382.681C1063.23 383.12 1063.6 383.621 1064.04 384.06L1065.04 384.874L1066.36 386.002L1067.86 386.879L1068.99 387.506L1070.68 388.132L1071.87 388.508H1073.88H1074.94C1075.98 388.635 1077.04 388.635 1078.08 388.508L1107.21 383.37L1114.92 382.055L1242.74 359.56C1242.83 359.504 1242.91 359.426 1242.96 359.332C1243.01 359.239 1243.04 359.134 1243.04 359.028C1243.04 358.921 1243.01 358.816 1242.96 358.723C1242.91 358.63 1242.83 358.551 1242.74 358.495L1135.72 284.746L1028.76 211.123C1028.39 210.81 1027.82 211.123 1027.89 211.749L1052.64 339.259Z" fill="url(#paint1_linear_716_37)"/>
<path d="M1241.78 367.701L1119.28 389.38C1118.95 389.447 1118.63 389.581 1118.35 389.772C1118.07 389.963 1117.82 390.209 1117.64 390.495C1117.45 390.781 1117.32 391.101 1117.26 391.437C1117.2 391.773 1117.21 392.117 1117.28 392.451L1144.22 509.496C1144.31 509.667 1144.45 509.809 1144.61 509.908C1144.78 510.008 1144.97 510.06 1145.16 510.06C1145.35 510.06 1145.54 510.008 1145.71 509.908C1145.88 509.809 1146.01 509.667 1146.1 509.496L1242.78 369.142C1242.86 368.981 1242.9 368.802 1242.88 368.623C1242.87 368.444 1242.81 368.273 1242.71 368.125C1242.6 367.978 1242.46 367.861 1242.3 367.786C1242.14 367.712 1241.96 367.682 1241.78 367.701Z" fill="url(#paint2_linear_716_37)"/>
<path d="M1109.03 391.066H1108.22L1079.08 396.141C1076.12 396.673 1073.09 396.614 1070.15 395.969C1067.22 395.324 1064.44 394.105 1061.98 392.382C1056.97 388.975 1053.53 383.726 1052.39 377.782L1046.81 348.709V347.895L929.454 364.311C929.362 364.358 929.285 364.43 929.231 364.519C929.177 364.607 929.148 364.709 929.148 364.812C929.148 364.916 929.177 365.017 929.231 365.106C929.285 365.194 929.362 365.266 929.454 365.314L1032.21 436.18L1134.97 506.984C1135.07 507.057 1135.19 507.097 1135.31 507.099C1135.43 507.101 1135.54 507.065 1135.64 506.994C1135.74 506.924 1135.81 506.825 1135.85 506.71C1135.89 506.595 1135.89 506.472 1135.85 506.357L1109.03 391.066Z" fill="url(#paint3_linear_716_37)"/>
<path d="M354.623 334.684L378.057 212.5C378.079 212.286 378.168 212.086 378.312 211.927C378.456 211.768 378.647 211.659 378.858 211.617C379.068 211.575 379.287 211.602 379.481 211.693C379.675 211.784 379.835 211.935 379.937 212.124L476.806 352.478C476.937 352.636 477.017 352.83 477.034 353.034C477.052 353.238 477.006 353.443 476.904 353.62C476.802 353.798 476.647 353.94 476.462 354.027C476.276 354.114 476.068 354.142 475.866 354.108L356.816 337.628C356.473 337.591 356.142 337.483 355.843 337.312C355.544 337.141 355.283 336.91 355.078 336.634C354.872 336.357 354.725 336.042 354.647 335.706C354.569 335.37 354.561 335.022 354.623 334.684Z" fill="url(#paint4_linear_716_37)"/>
<path d="M346.401 336.259L344.96 343.903L339.321 372.977C339.124 374.005 338.831 375.012 338.444 375.984L337.943 376.924C337.646 377.53 337.311 378.116 336.94 378.679L336.188 379.681C335.812 380.12 335.436 380.621 334.998 381.06L333.995 381.874L332.679 383.002L331.175 383.879L330.048 384.506L328.356 385.132L327.165 385.508H325.16H324.095C323.055 385.635 322.003 385.635 320.962 385.508L291.826 380.37L284.119 379.055L156.296 356.56C156.205 356.504 156.131 356.426 156.079 356.332C156.027 356.239 156 356.134 156 356.028C156 355.921 156.027 355.816 156.079 355.723C156.131 355.63 156.205 355.551 156.296 355.495L263.317 281.746L370.274 208.123C370.65 207.81 371.214 208.123 371.151 208.749L346.401 336.259Z" fill="url(#paint5_linear_716_37)"/>
<path d="M157.259 364.701L279.755 386.38C280.09 386.447 280.408 386.581 280.691 386.772C280.974 386.963 281.215 387.209 281.402 387.495C281.589 387.781 281.717 388.101 281.778 388.437C281.84 388.773 281.834 389.117 281.76 389.451L254.817 506.496C254.727 506.667 254.591 506.809 254.425 506.908C254.26 507.008 254.07 507.06 253.877 507.06C253.684 507.06 253.495 507.008 253.329 506.908C253.164 506.809 253.029 506.667 252.938 506.496L156.256 366.142C156.177 365.981 156.142 365.802 156.155 365.623C156.169 365.444 156.23 365.273 156.332 365.125C156.434 364.978 156.574 364.861 156.737 364.786C156.9 364.712 157.08 364.682 157.259 364.701Z" fill="url(#paint6_linear_716_37)"/>
<path d="M290.007 388.066H290.821L319.957 393.141C322.916 393.673 325.95 393.614 328.886 392.969C331.821 392.324 334.6 391.105 337.063 389.382C342.064 385.975 345.511 380.726 346.65 374.782L352.226 345.709V344.895L469.585 361.311C469.677 361.358 469.754 361.43 469.808 361.519C469.862 361.607 469.891 361.709 469.891 361.812C469.891 361.916 469.862 362.017 469.808 362.106C469.754 362.194 469.677 362.266 469.585 362.314L366.826 433.18L264.066 503.984C263.97 504.057 263.854 504.097 263.733 504.099C263.613 504.101 263.494 504.065 263.396 503.994C263.298 503.924 263.225 503.825 263.188 503.71C263.15 503.595 263.151 503.472 263.189 503.357L290.007 388.066Z" fill="url(#paint7_linear_716_37)"/>
<path d="M1283.93 325.954L1290.22 297.097C1290.24 297.048 1290.24 296.996 1290.22 296.948C1290.2 296.899 1290.17 296.858 1290.13 296.829C1290.09 296.8 1290.04 296.786 1289.99 296.787C1289.94 296.789 1289.89 296.807 1289.85 296.839L1255.6 318.428C1255.55 318.451 1255.52 318.485 1255.5 318.528C1255.47 318.571 1255.46 318.62 1255.47 318.669C1255.48 318.717 1255.5 318.762 1255.53 318.799C1255.56 318.835 1255.6 318.86 1255.65 318.872L1283.17 326.392C1283.25 326.416 1283.34 326.424 1283.42 326.414C1283.5 326.405 1283.58 326.379 1283.65 326.338C1283.72 326.297 1283.78 326.241 1283.83 326.175C1283.88 326.109 1283.91 326.034 1283.93 325.954Z" fill="url(#paint8_linear_716_37)"/>
<path d="M1285.57 327.065L1285.17 328.868L1283.69 335.741C1283.64 335.983 1283.61 336.231 1283.6 336.479L1283.62 336.731C1283.63 336.891 1283.65 337.05 1283.68 337.208L1283.75 337.497C1283.79 337.628 1283.82 337.772 1283.88 337.909L1284.02 338.18L1284.2 338.549L1284.45 338.881L1284.64 339.123L1284.95 339.418L1285.17 339.611L1285.61 339.798L1285.84 339.898C1286.06 340.023 1286.29 340.121 1286.53 340.191L1293.37 341.79L1295.17 342.222L1325.17 349.249C1325.2 349.246 1325.22 349.235 1325.24 349.22C1325.26 349.204 1325.28 349.184 1325.29 349.161C1325.3 349.137 1325.3 349.112 1325.3 349.087C1325.3 349.062 1325.29 349.038 1325.27 349.017L1308.8 322.925L1292.33 296.867C1292.28 296.764 1292.12 296.779 1292.08 296.922L1285.57 327.065Z" fill="url(#paint9_linear_716_37)"/>
<path d="M1324.2 350.938L1295.44 344.231C1295.36 344.214 1295.28 344.214 1295.2 344.229C1295.12 344.244 1295.05 344.275 1294.98 344.32C1294.91 344.365 1294.85 344.423 1294.81 344.491C1294.76 344.558 1294.73 344.634 1294.72 344.714L1289.67 372.778C1289.67 372.823 1289.69 372.867 1289.71 372.904C1289.74 372.941 1289.78 372.971 1289.82 372.989C1289.86 373.007 1289.91 373.013 1289.95 373.007C1290 373 1290.04 372.982 1290.08 372.953L1324.29 351.346C1324.32 351.319 1324.34 351.283 1324.36 351.243C1324.37 351.202 1324.37 351.159 1324.37 351.117C1324.36 351.076 1324.34 351.037 1324.31 351.006C1324.28 350.974 1324.24 350.951 1324.2 350.938Z" fill="url(#paint10_linear_716_37)"/>
<path d="M1293.04 343.64L1292.87 343.564L1286.03 341.951C1285.34 341.79 1284.68 341.494 1284.1 341.079C1283.52 340.664 1283.03 340.139 1282.65 339.533C1281.88 338.322 1281.62 336.854 1281.92 335.451L1283.42 328.584L1283.5 328.406L1256.35 321.03C1256.32 321.032 1256.3 321.04 1256.28 321.054C1256.26 321.069 1256.24 321.088 1256.23 321.111C1256.22 321.133 1256.22 321.158 1256.22 321.182C1256.23 321.207 1256.24 321.23 1256.25 321.249L1272.06 346.313L1287.88 371.364C1287.9 371.389 1287.92 371.409 1287.94 371.42C1287.97 371.432 1288 371.435 1288.03 371.429C1288.06 371.423 1288.08 371.408 1288.1 371.386C1288.12 371.365 1288.13 371.338 1288.13 371.309L1293.04 343.64Z" fill="url(#paint11_linear_716_37)"/>
</g>
<defs>
<linearGradient id="paint0_linear_716_37" x1="970.727" y1="285.39" x2="1045.79" y2="337.133" gradientUnits="userSpaceOnUse">
<stop stop-color="#384D4B"/>
<stop offset="1" stop-color="#82B3AE"/>
</linearGradient>
<linearGradient id="paint1_linear_716_37" x1="993.813" y1="261.425" x2="1208.73" y2="409.577" gradientUnits="userSpaceOnUse">
<stop stop-color="#384D4B"/>
<stop offset="1" stop-color="#82B3AE"/>
</linearGradient>
<linearGradient id="paint2_linear_716_37" x1="1119.45" y1="387.919" x2="1194.46" y2="439.627" gradientUnits="userSpaceOnUse">
<stop stop-color="#384D4B"/>
<stop offset="1" stop-color="#82B3AE"/>
</linearGradient>
<linearGradient id="paint3_linear_716_37" x1="951.636" y1="331.653" x2="1158.04" y2="473.936" gradientUnits="userSpaceOnUse">
<stop stop-color="#384D4B"/>
<stop offset="1" stop-color="#82B3AE"/>
</linearGradient>
<linearGradient id="paint4_linear_716_37" x1="428.312" y1="282.39" x2="353.25" y2="334.133" gradientUnits="userSpaceOnUse">
<stop stop-color="#384D4B"/>
<stop offset="1" stop-color="#82B3AE"/>
</linearGradient>
<linearGradient id="paint5_linear_716_37" x1="263.578" y1="208" x2="263.578" y2="385.603" gradientUnits="userSpaceOnUse">
<stop stop-color="#384D4B"/>
<stop offset="1" stop-color="#82B3AE"/>
</linearGradient>
<linearGradient id="paint6_linear_716_37" x1="279.59" y1="384.919" x2="204.58" y2="436.627" gradientUnits="userSpaceOnUse">
<stop stop-color="#384D4B"/>
<stop offset="1" stop-color="#82B3AE"/>
</linearGradient>
<linearGradient id="paint7_linear_716_37" x1="447.403" y1="328.653" x2="240.997" y2="470.937" gradientUnits="userSpaceOnUse">
<stop stop-color="#384D4B"/>
<stop offset="1" stop-color="#82B3AE"/>
</linearGradient>
<linearGradient id="paint8_linear_716_37" x1="1272.73" y1="307.659" x2="1284.28" y2="325.962" gradientUnits="userSpaceOnUse">
<stop stop-color="#384D4B"/>
<stop offset="1" stop-color="#82B3AE"/>
</linearGradient>
<linearGradient id="paint9_linear_716_37" x1="1280" y1="304.582" x2="1313.08" y2="356.99" gradientUnits="userSpaceOnUse">
<stop stop-color="#384D4B"/>
<stop offset="1" stop-color="#82B3AE"/>
</linearGradient>
<linearGradient id="paint10_linear_716_37" x1="1295.61" y1="343.927" x2="1307.16" y2="362.218" gradientUnits="userSpaceOnUse">
<stop stop-color="#384D4B"/>
<stop offset="1" stop-color="#82B3AE"/>
</linearGradient>
<linearGradient id="paint11_linear_716_37" x1="1264.24" y1="315.973" x2="1296" y2="366.305" gradientUnits="userSpaceOnUse">
<stop stop-color="#384D4B"/>
<stop offset="1" stop-color="#82B3AE"/>
</linearGradient>
<clipPath id="clip0_716_37">
<rect width="1440" height="654" fill="white"/>
</clipPath>
</defs>
</svg>
