<svg width="315" height="136" viewBox="0 0 315 136" fill="none" xmlns="http://www.w3.org/2000/svg">
<path d="M96.4943 121.225C96.3697 121.225 96.2639 121.187 96.1767 121.113C96.102 121.038 96.0646 120.938 96.0646 120.814V108.577C96.0646 108.44 96.102 108.335 96.1767 108.26C96.2639 108.185 96.3697 108.148 96.4943 108.148H96.9613C97.0859 108.148 97.1793 108.179 97.2415 108.241C97.3038 108.303 97.3412 108.353 97.3536 108.391L101.594 116.648L105.854 108.391C105.878 108.353 105.916 108.303 105.966 108.241C106.028 108.179 106.121 108.148 106.246 108.148H106.694C106.831 108.148 106.937 108.185 107.012 108.26C107.086 108.335 107.124 108.44 107.124 108.577V120.814C107.124 120.938 107.086 121.038 107.012 121.113C106.937 121.187 106.831 121.225 106.694 121.225H106.358C106.233 121.225 106.134 121.187 106.059 121.113C105.984 121.038 105.947 120.938 105.947 120.814V110.688L102.379 117.713C102.329 117.837 102.254 117.931 102.155 117.993C102.067 118.055 101.949 118.086 101.8 118.086H101.389C101.239 118.086 101.121 118.055 101.034 117.993C100.947 117.931 100.872 117.837 100.81 117.713L97.2415 110.688V120.814C97.2415 120.938 97.2042 121.038 97.1294 121.113C97.0547 121.187 96.9551 121.225 96.8305 121.225H96.4943ZM118.954 121.411C118.057 121.411 117.304 121.225 116.694 120.851C116.096 120.477 115.635 119.967 115.311 119.319C115 118.672 114.832 117.949 114.807 117.152C114.794 116.965 114.788 116.704 114.788 116.368C114.788 116.031 114.794 115.77 114.807 115.583C114.832 114.773 115 114.051 115.311 113.416C115.635 112.768 116.096 112.258 116.694 111.884C117.304 111.51 118.057 111.324 118.954 111.324C119.851 111.324 120.598 111.51 121.196 111.884C121.806 112.258 122.267 112.768 122.578 113.416C122.902 114.051 123.076 114.773 123.101 115.583C123.114 115.77 123.12 116.031 123.12 116.368C123.12 116.704 123.114 116.965 123.101 117.152C123.076 117.949 122.902 118.672 122.578 119.319C122.267 119.967 121.806 120.477 121.196 120.851C120.598 121.225 119.851 121.411 118.954 121.411ZM118.954 120.328C119.826 120.328 120.536 120.048 121.084 119.487C121.632 118.927 121.924 118.117 121.962 117.059C121.974 116.872 121.98 116.642 121.98 116.368C121.98 116.094 121.974 115.863 121.962 115.676C121.924 114.605 121.632 113.796 121.084 113.248C120.536 112.687 119.826 112.407 118.954 112.407C118.082 112.407 117.372 112.687 116.824 113.248C116.276 113.796 115.984 114.605 115.946 115.676C115.934 115.863 115.928 116.094 115.928 116.368C115.928 116.642 115.934 116.872 115.946 117.059C115.984 118.117 116.276 118.927 116.824 119.487C117.372 120.048 118.082 120.328 118.954 120.328ZM133.612 121.411C132.964 121.411 132.404 121.324 131.93 121.15C131.47 120.976 131.09 120.77 130.791 120.533C130.492 120.284 130.268 120.041 130.118 119.805C129.981 119.568 129.907 119.388 129.894 119.263C129.882 119.126 129.925 119.026 130.025 118.964C130.124 118.889 130.218 118.852 130.305 118.852H130.585C130.66 118.852 130.722 118.865 130.772 118.889C130.834 118.914 130.909 118.983 130.996 119.095C131.158 119.307 131.345 119.512 131.557 119.711C131.768 119.898 132.036 120.048 132.36 120.16C132.696 120.272 133.113 120.328 133.612 120.328C134.359 120.328 134.975 120.185 135.461 119.898C135.947 119.612 136.19 119.188 136.19 118.628C136.19 118.279 136.09 117.999 135.891 117.787C135.704 117.576 135.38 117.389 134.919 117.227C134.459 117.065 133.836 116.897 133.051 116.722C132.267 116.536 131.663 116.311 131.239 116.05C130.828 115.788 130.548 115.49 130.398 115.153C130.249 114.805 130.174 114.431 130.174 114.032C130.174 113.596 130.299 113.173 130.548 112.762C130.797 112.339 131.164 111.996 131.65 111.735C132.148 111.461 132.771 111.324 133.518 111.324C134.128 111.324 134.645 111.405 135.069 111.566C135.505 111.728 135.86 111.928 136.134 112.164C136.408 112.388 136.607 112.613 136.731 112.837C136.868 113.061 136.943 113.242 136.956 113.379C136.968 113.503 136.931 113.603 136.843 113.677C136.756 113.752 136.657 113.79 136.545 113.79H136.264C136.165 113.79 136.084 113.771 136.021 113.733C135.959 113.684 135.903 113.621 135.853 113.547C135.729 113.347 135.579 113.161 135.405 112.986C135.231 112.812 134.994 112.675 134.695 112.575C134.409 112.463 134.016 112.407 133.518 112.407C132.771 112.407 132.217 112.563 131.856 112.874C131.494 113.173 131.314 113.559 131.314 114.032C131.314 114.306 131.389 114.549 131.538 114.761C131.687 114.96 131.968 115.147 132.379 115.321C132.79 115.483 133.387 115.658 134.172 115.844C134.969 116.019 135.598 116.237 136.059 116.498C136.52 116.747 136.843 117.046 137.03 117.395C137.23 117.744 137.329 118.155 137.329 118.628C137.329 119.126 137.186 119.587 136.9 120.01C136.626 120.434 136.208 120.776 135.648 121.038C135.1 121.287 134.421 121.411 133.612 121.411ZM151.661 124.774C151.537 124.774 151.437 124.737 151.362 124.662C151.287 124.587 151.25 124.488 151.25 124.363V119.936C150.939 120.347 150.528 120.695 150.017 120.982C149.519 121.268 148.884 121.411 148.112 121.411C147.389 121.411 146.773 121.287 146.262 121.038C145.764 120.776 145.359 120.434 145.048 120.01C144.737 119.587 144.506 119.114 144.357 118.591C144.22 118.067 144.139 117.532 144.114 116.984C144.101 116.797 144.095 116.592 144.095 116.368C144.095 116.143 144.101 115.938 144.114 115.751C144.139 115.203 144.22 114.668 144.357 114.144C144.506 113.621 144.737 113.148 145.048 112.725C145.359 112.301 145.764 111.965 146.262 111.716C146.773 111.454 147.389 111.324 148.112 111.324C148.884 111.324 149.519 111.467 150.017 111.753C150.528 112.027 150.939 112.376 151.25 112.799V111.921C151.25 111.797 151.287 111.697 151.362 111.623C151.437 111.548 151.537 111.51 151.661 111.51H151.979C152.103 111.51 152.203 111.548 152.278 111.623C152.352 111.697 152.39 111.797 152.39 111.921V124.363C152.39 124.488 152.352 124.587 152.278 124.662C152.203 124.737 152.103 124.774 151.979 124.774H151.661ZM148.224 120.328C148.921 120.328 149.488 120.166 149.924 119.842C150.36 119.518 150.683 119.114 150.895 118.628C151.119 118.142 151.238 117.65 151.25 117.152C151.263 116.965 151.269 116.722 151.269 116.424C151.269 116.125 151.263 115.882 151.25 115.695C151.238 115.184 151.126 114.68 150.914 114.182C150.702 113.671 150.378 113.248 149.942 112.912C149.507 112.575 148.934 112.407 148.224 112.407C147.501 112.407 146.922 112.569 146.486 112.893C146.063 113.217 145.758 113.64 145.571 114.163C145.384 114.686 145.278 115.247 145.253 115.844C145.241 116.193 145.241 116.542 145.253 116.891C145.278 117.488 145.384 118.049 145.571 118.572C145.758 119.095 146.063 119.518 146.486 119.842C146.922 120.166 147.501 120.328 148.224 120.328ZM163.936 121.411C163.089 121.411 162.385 121.231 161.825 120.87C161.277 120.496 160.866 119.992 160.592 119.356C160.33 118.721 160.199 118.011 160.199 117.227V111.921C160.199 111.797 160.237 111.697 160.311 111.623C160.386 111.548 160.486 111.51 160.61 111.51H160.928C161.052 111.51 161.152 111.548 161.227 111.623C161.302 111.697 161.339 111.797 161.339 111.921V117.133C161.339 119.263 162.267 120.328 164.122 120.328C165.007 120.328 165.717 120.048 166.252 119.487C166.788 118.914 167.055 118.13 167.055 117.133V111.921C167.055 111.797 167.093 111.697 167.167 111.623C167.242 111.548 167.342 111.51 167.466 111.51H167.784C167.908 111.51 168.008 111.548 168.083 111.623C168.158 111.697 168.195 111.797 168.195 111.921V120.814C168.195 120.938 168.158 121.038 168.083 121.113C168.008 121.187 167.908 121.225 167.784 121.225H167.466C167.342 121.225 167.242 121.187 167.167 121.113C167.093 121.038 167.055 120.938 167.055 120.814V119.936C166.719 120.372 166.314 120.726 165.841 121C165.38 121.274 164.745 121.411 163.936 121.411ZM176.489 121.225C176.364 121.225 176.264 121.187 176.19 121.113C176.115 121.038 176.078 120.938 176.078 120.814V111.921C176.078 111.797 176.115 111.697 176.19 111.623C176.264 111.548 176.364 111.51 176.489 111.51H176.806C176.931 111.51 177.03 111.548 177.105 111.623C177.18 111.697 177.217 111.797 177.217 111.921V120.814C177.217 120.938 177.18 121.038 177.105 121.113C177.03 121.187 176.931 121.225 176.806 121.225H176.489ZM176.283 109.512C176.159 109.512 176.059 109.474 175.984 109.399C175.909 109.325 175.872 109.225 175.872 109.101V108.391C175.872 108.266 175.909 108.167 175.984 108.092C176.059 108.005 176.159 107.961 176.283 107.961H176.993C177.118 107.961 177.217 108.005 177.292 108.092C177.379 108.167 177.423 108.266 177.423 108.391V109.101C177.423 109.225 177.379 109.325 177.292 109.399C177.217 109.474 177.118 109.512 176.993 109.512H176.283ZM188.363 121.225C187.716 121.225 187.205 121.088 186.832 120.814C186.458 120.54 186.196 120.166 186.047 119.693C185.897 119.22 185.823 118.69 185.823 118.105V112.594H184.366C184.241 112.594 184.141 112.557 184.067 112.482C183.992 112.407 183.955 112.307 183.955 112.183V111.921C183.955 111.797 183.992 111.697 184.067 111.623C184.141 111.548 184.241 111.51 184.366 111.51H185.823V108.372C185.823 108.247 185.86 108.148 185.935 108.073C186.01 107.998 186.109 107.961 186.234 107.961H186.551C186.676 107.961 186.775 107.998 186.85 108.073C186.925 108.148 186.962 108.247 186.962 108.372V111.51H189.279C189.403 111.51 189.503 111.548 189.578 111.623C189.652 111.697 189.69 111.797 189.69 111.921V112.183C189.69 112.307 189.652 112.407 189.578 112.482C189.503 112.557 189.403 112.594 189.279 112.594H186.962V118.03C186.962 118.69 187.068 119.207 187.28 119.581C187.504 119.954 187.896 120.141 188.457 120.141H189.466C189.59 120.141 189.69 120.178 189.764 120.253C189.839 120.328 189.877 120.428 189.877 120.552V120.814C189.877 120.938 189.839 121.038 189.764 121.113C189.69 121.187 189.59 121.225 189.466 121.225H188.363ZM200.364 121.411C199.467 121.411 198.713 121.225 198.103 120.851C197.505 120.477 197.045 119.967 196.721 119.319C196.409 118.672 196.241 117.949 196.216 117.152C196.204 116.965 196.198 116.704 196.198 116.368C196.198 116.031 196.204 115.77 196.216 115.583C196.241 114.773 196.409 114.051 196.721 113.416C197.045 112.768 197.505 112.258 198.103 111.884C198.713 111.51 199.467 111.324 200.364 111.324C201.26 111.324 202.008 111.51 202.605 111.884C203.216 112.258 203.676 112.768 203.988 113.416C204.312 114.051 204.486 114.773 204.511 115.583C204.523 115.77 204.53 116.031 204.53 116.368C204.53 116.704 204.523 116.965 204.511 117.152C204.486 117.949 204.312 118.672 203.988 119.319C203.676 119.967 203.216 120.477 202.605 120.851C202.008 121.225 201.26 121.411 200.364 121.411ZM200.364 120.328C201.235 120.328 201.945 120.048 202.493 119.487C203.041 118.927 203.334 118.117 203.371 117.059C203.384 116.872 203.39 116.642 203.39 116.368C203.39 116.094 203.384 115.863 203.371 115.676C203.334 114.605 203.041 113.796 202.493 113.248C201.945 112.687 201.235 112.407 200.364 112.407C199.492 112.407 198.782 112.687 198.234 113.248C197.686 113.796 197.393 114.605 197.356 115.676C197.344 115.863 197.337 116.094 197.337 116.368C197.337 116.642 197.344 116.872 197.356 117.059C197.393 118.117 197.686 118.927 198.234 119.487C198.782 120.048 199.492 120.328 200.364 120.328ZM225.778 121.411C224.769 121.411 223.91 121.25 223.2 120.926C222.503 120.602 221.967 120.185 221.593 119.674C221.22 119.163 221.021 118.622 220.996 118.049C220.996 117.949 221.033 117.862 221.108 117.787C221.182 117.713 221.276 117.675 221.388 117.675H221.762C221.886 117.675 221.98 117.713 222.042 117.787C222.117 117.862 222.16 117.949 222.173 118.049C222.222 118.398 222.378 118.746 222.64 119.095C222.901 119.431 223.287 119.718 223.798 119.954C224.308 120.178 224.968 120.291 225.778 120.291C226.999 120.291 227.889 120.073 228.449 119.637C229.01 119.188 229.29 118.591 229.29 117.843C229.29 117.345 229.141 116.947 228.842 116.648C228.555 116.336 228.113 116.062 227.515 115.826C226.918 115.577 226.152 115.303 225.218 115.004C224.333 114.717 223.605 114.425 223.032 114.126C222.459 113.814 222.036 113.441 221.762 113.005C221.5 112.569 221.369 112.009 221.369 111.324C221.369 110.688 221.537 110.122 221.874 109.624C222.21 109.113 222.696 108.708 223.331 108.409C223.978 108.11 224.763 107.961 225.685 107.961C226.419 107.961 227.061 108.061 227.609 108.26C228.157 108.459 228.611 108.727 228.972 109.063C229.334 109.387 229.608 109.742 229.794 110.128C229.981 110.502 230.081 110.869 230.093 111.23C230.093 111.317 230.062 111.405 230 111.492C229.938 111.566 229.838 111.604 229.701 111.604H229.327C229.265 111.604 229.184 111.579 229.085 111.529C228.997 111.479 228.941 111.38 228.916 111.23C228.842 110.608 228.512 110.097 227.926 109.698C227.353 109.287 226.606 109.082 225.685 109.082C224.763 109.082 224.01 109.262 223.424 109.624C222.839 109.985 222.546 110.551 222.546 111.324C222.546 111.822 222.677 112.233 222.938 112.557C223.2 112.868 223.611 113.148 224.171 113.397C224.732 113.634 225.454 113.895 226.338 114.182C227.273 114.481 228.045 114.78 228.655 115.079C229.265 115.377 229.72 115.745 230.019 116.181C230.318 116.604 230.467 117.158 230.467 117.843C230.467 118.603 230.274 119.251 229.888 119.786C229.514 120.309 228.979 120.714 228.281 121C227.584 121.274 226.749 121.411 225.778 121.411ZM241.46 121.411C240.588 121.411 239.847 121.243 239.237 120.907C238.627 120.558 238.16 120.06 237.836 119.413C237.525 118.765 237.357 117.999 237.332 117.115C237.319 116.928 237.313 116.679 237.313 116.368C237.313 116.056 237.319 115.807 237.332 115.62C237.357 114.724 237.525 113.958 237.836 113.322C238.16 112.675 238.627 112.183 239.237 111.847C239.847 111.498 240.588 111.324 241.46 111.324C242.12 111.324 242.687 111.417 243.16 111.604C243.646 111.778 244.044 112.015 244.356 112.314C244.667 112.6 244.904 112.918 245.066 113.266C245.228 113.615 245.315 113.958 245.327 114.294C245.34 114.418 245.302 114.518 245.215 114.593C245.128 114.668 245.028 114.705 244.916 114.705H244.655C244.53 114.705 244.437 114.68 244.374 114.63C244.325 114.568 244.269 114.462 244.206 114.313C243.945 113.603 243.584 113.111 243.123 112.837C242.675 112.55 242.12 112.407 241.46 112.407C240.613 112.407 239.91 112.669 239.349 113.192C238.801 113.702 238.509 114.543 238.471 115.714C238.446 116.15 238.446 116.585 238.471 117.021C238.509 118.192 238.801 119.039 239.349 119.562C239.91 120.073 240.613 120.328 241.46 120.328C242.12 120.328 242.675 120.191 243.123 119.917C243.584 119.63 243.945 119.132 244.206 118.422C244.269 118.273 244.325 118.173 244.374 118.124C244.437 118.061 244.53 118.03 244.655 118.03H244.916C245.028 118.03 245.128 118.067 245.215 118.142C245.302 118.217 245.34 118.317 245.327 118.441C245.315 118.715 245.259 118.989 245.159 119.263C245.059 119.537 244.904 119.805 244.692 120.066C244.493 120.328 244.244 120.558 243.945 120.758C243.646 120.957 243.285 121.113 242.861 121.225C242.45 121.349 241.983 121.411 241.46 121.411ZM253.064 121.225C252.939 121.225 252.84 121.187 252.765 121.113C252.69 121.038 252.653 120.938 252.653 120.814V111.94C252.653 111.816 252.69 111.716 252.765 111.641C252.84 111.554 252.939 111.51 253.064 111.51H253.363C253.487 111.51 253.587 111.554 253.661 111.641C253.749 111.716 253.792 111.816 253.792 111.94V112.799C254.016 112.364 254.34 112.04 254.764 111.828C255.187 111.616 255.71 111.51 256.333 111.51H257.024C257.149 111.51 257.248 111.548 257.323 111.623C257.398 111.697 257.435 111.797 257.435 111.921V112.183C257.435 112.307 257.398 112.407 257.323 112.482C257.248 112.557 257.149 112.594 257.024 112.594H256.221C255.474 112.594 254.882 112.812 254.446 113.248C254.01 113.684 253.792 114.275 253.792 115.022V120.814C253.792 120.938 253.749 121.038 253.661 121.113C253.587 121.187 253.487 121.225 253.363 121.225H253.064ZM267.391 121.411C266.183 121.411 265.224 121.019 264.514 120.235C263.804 119.437 263.399 118.398 263.3 117.115C263.287 116.928 263.281 116.679 263.281 116.368C263.281 116.056 263.287 115.807 263.3 115.62C263.362 114.773 263.561 114.026 263.898 113.379C264.234 112.731 264.695 112.227 265.28 111.865C265.878 111.504 266.581 111.324 267.391 111.324C268.263 111.324 269.004 111.517 269.614 111.903C270.224 112.289 270.691 112.843 271.015 113.565C271.351 114.288 271.519 115.147 271.519 116.143V116.424C271.519 116.548 271.476 116.648 271.389 116.722C271.314 116.797 271.214 116.835 271.09 116.835H264.439C264.439 116.835 264.439 116.859 264.439 116.909C264.439 116.959 264.439 116.996 264.439 117.021C264.464 117.582 264.595 118.117 264.832 118.628C265.068 119.126 265.405 119.537 265.84 119.861C266.276 120.172 266.793 120.328 267.391 120.328C267.926 120.328 268.369 120.247 268.717 120.085C269.078 119.923 269.365 119.749 269.577 119.562C269.788 119.363 269.925 119.213 269.988 119.114C270.1 118.952 270.187 118.858 270.249 118.833C270.311 118.796 270.411 118.777 270.548 118.777H270.847C270.959 118.777 271.052 118.815 271.127 118.889C271.214 118.952 271.252 119.039 271.239 119.151C271.227 119.325 271.127 119.543 270.94 119.805C270.766 120.054 270.511 120.303 270.174 120.552C269.851 120.801 269.452 121.007 268.979 121.169C268.506 121.33 267.976 121.411 267.391 121.411ZM264.439 115.788H270.38V115.714C270.38 115.091 270.262 114.531 270.025 114.032C269.788 113.534 269.446 113.142 268.998 112.855C268.549 112.557 268.014 112.407 267.391 112.407C266.768 112.407 266.233 112.557 265.784 112.855C265.348 113.142 265.012 113.534 264.776 114.032C264.551 114.531 264.439 115.091 264.439 115.714V115.788ZM282.446 121.411C281.238 121.411 280.279 121.019 279.569 120.235C278.859 119.437 278.455 118.398 278.355 117.115C278.342 116.928 278.336 116.679 278.336 116.368C278.336 116.056 278.342 115.807 278.355 115.62C278.417 114.773 278.616 114.026 278.953 113.379C279.289 112.731 279.75 112.227 280.335 111.865C280.933 111.504 281.637 111.324 282.446 111.324C283.318 111.324 284.059 111.517 284.669 111.903C285.279 112.289 285.746 112.843 286.07 113.565C286.406 114.288 286.575 115.147 286.575 116.143V116.424C286.575 116.548 286.531 116.648 286.444 116.722C286.369 116.797 286.269 116.835 286.145 116.835H279.494C279.494 116.835 279.494 116.859 279.494 116.909C279.494 116.959 279.494 116.996 279.494 117.021C279.519 117.582 279.65 118.117 279.887 118.628C280.123 119.126 280.46 119.537 280.896 119.861C281.331 120.172 281.848 120.328 282.446 120.328C282.982 120.328 283.424 120.247 283.772 120.085C284.134 119.923 284.42 119.749 284.632 119.562C284.843 119.363 284.98 119.213 285.043 119.114C285.155 118.952 285.242 118.858 285.304 118.833C285.367 118.796 285.466 118.777 285.603 118.777H285.902C286.014 118.777 286.108 118.815 286.182 118.889C286.269 118.952 286.307 119.039 286.294 119.151C286.282 119.325 286.182 119.543 285.995 119.805C285.821 120.054 285.566 120.303 285.23 120.552C284.906 120.801 284.507 121.007 284.034 121.169C283.561 121.33 283.031 121.411 282.446 121.411ZM279.494 115.788H285.435V115.714C285.435 115.091 285.317 114.531 285.08 114.032C284.843 113.534 284.501 113.142 284.053 112.855C283.604 112.557 283.069 112.407 282.446 112.407C281.823 112.407 281.288 112.557 280.839 112.855C280.404 113.142 280.067 113.534 279.831 114.032C279.607 114.531 279.494 115.091 279.494 115.714V115.788ZM294.307 121.225C294.182 121.225 294.082 121.187 294.008 121.113C293.933 121.038 293.896 120.938 293.896 120.814V111.921C293.896 111.797 293.933 111.697 294.008 111.623C294.082 111.548 294.182 111.51 294.307 111.51H294.624C294.749 111.51 294.848 111.548 294.923 111.623C294.998 111.697 295.035 111.797 295.035 111.921V112.799C295.371 112.364 295.776 112.009 296.249 111.735C296.735 111.461 297.377 111.324 298.174 111.324C299.021 111.324 299.724 111.51 300.285 111.884C300.857 112.245 301.281 112.743 301.555 113.379C301.841 114.001 301.985 114.711 301.985 115.508V120.814C301.985 120.938 301.947 121.038 301.873 121.113C301.798 121.187 301.698 121.225 301.574 121.225H301.256C301.131 121.225 301.032 121.187 300.957 121.113C300.882 121.038 300.845 120.938 300.845 120.814V115.602C300.845 114.605 300.602 113.827 300.116 113.266C299.631 112.694 298.921 112.407 297.987 112.407C297.103 112.407 296.386 112.694 295.838 113.266C295.303 113.827 295.035 114.605 295.035 115.602V120.814C295.035 120.938 294.998 121.038 294.923 121.113C294.848 121.187 294.749 121.225 294.624 121.225H294.307Z" fill="#384D4B"/>
<path d="M96.6181 99.2246C96.1308 99.2246 95.7542 99.0917 95.4884 98.8259C95.2226 98.5158 95.0897 98.1393 95.0897 97.6963V54.3047C95.0897 53.8174 95.2226 53.4408 95.4884 53.175C95.7542 52.8649 96.1308 52.7099 96.6181 52.7099H124.062C124.549 52.7099 124.926 52.8649 125.191 53.175C125.457 53.4408 125.59 53.8174 125.59 54.3047V56.8297C125.59 57.317 125.457 57.6936 125.191 57.9594C124.926 58.2252 124.549 58.3581 124.062 58.3581H101.469V72.9106H122.6C123.087 72.9106 123.464 73.0656 123.73 73.3757C123.995 73.6415 124.128 74.018 124.128 74.5053V76.964C124.128 77.407 123.995 77.7835 123.73 78.0936C123.464 78.3594 123.087 78.4923 122.6 78.4923H101.469V93.5764H124.593C125.081 93.5764 125.457 93.7093 125.723 93.9751C125.989 94.2409 126.122 94.6174 126.122 95.1047V97.6963C126.122 98.1393 125.989 98.5158 125.723 98.8259C125.457 99.0917 125.081 99.2246 124.593 99.2246H96.6181ZM136.916 99.2246C136.429 99.2246 136.052 99.0917 135.786 98.8259C135.521 98.5158 135.388 98.1393 135.388 97.6963V54.2382C135.388 53.7952 135.521 53.4408 135.786 53.175C136.052 52.8649 136.429 52.7099 136.916 52.7099H140.438C140.881 52.7099 141.235 52.8649 141.501 53.175C141.767 53.4408 141.9 53.7952 141.9 54.2382V93.4435H164.028C164.515 93.4435 164.891 93.5985 165.157 93.9086C165.423 94.1744 165.556 94.551 165.556 95.0383V97.6963C165.556 98.1393 165.423 98.5158 165.157 98.8259C164.891 99.0917 164.515 99.2246 164.028 99.2246H136.916ZM174.359 99.2246C173.916 99.2246 173.539 99.0917 173.229 98.8259C172.963 98.5158 172.831 98.1393 172.831 97.6963V54.3047C172.831 53.8174 172.963 53.4408 173.229 53.175C173.539 52.8649 173.916 52.7099 174.359 52.7099H177.681C178.213 52.7099 178.612 52.8428 178.878 53.1086C179.143 53.3744 179.298 53.5959 179.343 53.7731L193.43 80.6187L207.584 53.7731C207.672 53.5959 207.827 53.3744 208.049 53.1086C208.315 52.8428 208.713 52.7099 209.245 52.7099H212.501C212.988 52.7099 213.365 52.8649 213.631 53.175C213.941 53.4408 214.096 53.8174 214.096 54.3047V97.6963C214.096 98.1393 213.941 98.5158 213.631 98.8259C213.365 99.0917 212.988 99.2246 212.501 99.2246H209.245C208.802 99.2246 208.425 99.0917 208.115 98.8259C207.85 98.5158 207.717 98.1393 207.717 97.6963V65.003L196.62 86.6656C196.442 87.1086 196.177 87.463 195.822 87.7288C195.468 87.9503 195.025 88.0611 194.493 88.0611H192.433C191.857 88.0611 191.392 87.9503 191.038 87.7288C190.728 87.463 190.462 87.1086 190.24 86.6656L179.143 65.003V97.6963C179.143 98.1393 178.988 98.5158 178.678 98.8259C178.412 99.0917 178.058 99.2246 177.615 99.2246H174.359ZM227.116 99.2246C226.629 99.2246 226.252 99.0917 225.987 98.8259C225.721 98.5158 225.588 98.1393 225.588 97.6963V54.3047C225.588 53.8174 225.721 53.4408 225.987 53.175C226.252 52.8649 226.629 52.7099 227.116 52.7099H254.56C255.047 52.7099 255.424 52.8649 255.69 53.175C255.955 53.4408 256.088 53.8174 256.088 54.3047V56.8297C256.088 57.317 255.955 57.6936 255.69 57.9594C255.424 58.2252 255.047 58.3581 254.56 58.3581H231.967V72.9106H253.098C253.585 72.9106 253.962 73.0656 254.228 73.3757C254.494 73.6415 254.626 74.018 254.626 74.5053V76.964C254.626 77.407 254.494 77.7835 254.228 78.0936C253.962 78.3594 253.585 78.4923 253.098 78.4923H231.967V93.5764H255.092C255.579 93.5764 255.955 93.7093 256.221 93.9751C256.487 94.2409 256.62 94.6174 256.62 95.1047V97.6963C256.62 98.1393 256.487 98.5158 256.221 98.8259C255.955 99.0917 255.579 99.2246 255.092 99.2246H227.116ZM267.414 99.2246C266.927 99.2246 266.551 99.0917 266.285 98.8259C266.019 98.5158 265.886 98.1393 265.886 97.6963V54.3047C265.886 53.8174 266.019 53.4408 266.285 53.175C266.551 52.8649 266.927 52.7099 267.414 52.7099H270.471C271.003 52.7099 271.401 52.8428 271.667 53.1086C271.933 53.3301 272.088 53.5073 272.132 53.6402L294.194 87.5295V54.3047C294.194 53.8174 294.326 53.4408 294.592 53.175C294.858 52.8649 295.235 52.7099 295.722 52.7099H298.911C299.399 52.7099 299.775 52.8649 300.041 53.175C300.351 53.4408 300.506 53.8174 300.506 54.3047V97.6298C300.506 98.0728 300.351 98.4494 300.041 98.7595C299.775 99.0696 299.421 99.2246 298.978 99.2246H295.788C295.301 99.2246 294.925 99.0917 294.659 98.8259C294.437 98.5601 294.282 98.3829 294.194 98.2943L272.199 64.7372V97.6963C272.199 98.1393 272.044 98.5158 271.734 98.8259C271.468 99.0917 271.091 99.2246 270.604 99.2246H267.414Z" fill="#384D4B"/>
<line x1="15.992" y1="64.6961" x2="49.1246" y2="35.8478" stroke="#384D4B"/>
<line x1="14.0486" y1="54.6775" x2="37.1355" y2="35.7832" stroke="#384D4B"/>
<line x1="14.9088" y1="79.7047" x2="57.0918" y2="39.8978" stroke="#384D4B"/>
<line x1="14.8413" y1="91.7153" x2="65.3946" y2="41.0184" stroke="#384D4B"/>
<line y1="-0.5" x2="87.8376" y2="-0.5" transform="matrix(0.70153 -0.71264 0.41751 0.908673 13.2715 106.704)" stroke="#384D4B"/>
<line y1="-0.5" x2="87.8376" y2="-0.5" transform="matrix(0.70153 -0.71264 0.41751 0.908673 17.6191 114.313)" stroke="#384D4B"/>
<line y1="-0.5" x2="87.8376" y2="-0.5" transform="matrix(0.70153 -0.71264 0.41751 0.908673 21.9629 121.922)" stroke="#384D4B"/>
<line x1="30.9585" y1="121.868" x2="81.9489" y2="71.8578" stroke="#384D4B"/>
<line x1="41.6771" y1="125.85" x2="83.883" y2="81.0426" stroke="#384D4B"/>
<line x1="51.6672" y1="126.9" x2="82.8228" y2="93.0422" stroke="#384D4B"/>
<line x1="19.6505" y1="35.6275" x2="85.5214" y2="63.9299" stroke="#384D4B"/>
<line x1="14.0375" y1="38.604" x2="82.5102" y2="68.767" stroke="#384D4B"/>
<line x1="18.5882" y1="48.6219" x2="85.1807" y2="76.9276" stroke="#384D4B"/>
<line x1="16.5612" y1="54.6132" x2="83.015" y2="82.9183" stroke="#384D4B"/>
<line x1="15.5268" y1="61.607" x2="80.8446" y2="88.9069" stroke="#384D4B"/>
<line x1="20.4854" y1="70.6293" x2="78.6784" y2="94.8965" stroke="#384D4B"/>
<line x1="17.4767" y1="74.6203" x2="76.5199" y2="100.891" stroke="#384D4B"/>
<line x1="17.4451" y1="81.6202" x2="74.3522" y2="106.881" stroke="#384D4B"/>
<line x1="18.4035" y1="89.6231" x2="72.1811" y2="112.87" stroke="#384D4B"/>
<line x1="15.3767" y1="94.608" x2="70.2706" y2="117.86" stroke="#384D4B"/>
<line x1="16.347" y1="101.613" x2="61.2594" y2="120.819" stroke="#384D4B"/>
<line x1="13.307" y1="107.594" x2="54.2331" y2="123.782" stroke="#384D4B"/>
<path d="M14.2679 114.596L44.3087 125.225" stroke="#384D4B"/>
<mask id="path-26-outside-1_727_3" maskUnits="userSpaceOnUse" x="10.0366" y="30.0455" width="76.4441" height="97.3475" fill="black">
<rect fill="white" x="10.0366" y="30.0455" width="76.4441" height="97.3475"/>
<path d="M14.9188 126.067C13.9269 126.062 13.1618 125.788 12.6232 125.245C12.0851 124.611 11.8182 123.844 11.8223 122.942L12.2273 34.6236C12.2319 33.6318 12.5059 32.8666 13.0494 32.3281C13.5933 31.6994 14.3612 31.3873 15.353 31.3919L46.0547 31.5327C55.3419 31.5753 62.8193 33.0072 68.487 35.8284C74.1547 38.6496 78.2834 42.8163 80.873 48.3285C83.463 53.7505 84.7849 60.429 84.8387 68.3641C84.9102 72.422 84.939 75.9838 84.9249 79.0495C84.9109 82.1151 84.8496 85.6314 84.7413 89.5984C84.5229 97.8929 83.0937 104.784 80.4536 110.272C77.9041 115.671 73.828 119.71 68.2253 122.389C62.7131 124.979 55.4036 126.253 46.2968 126.211L14.9188 126.067ZM25.1153 114.617L45.6733 114.711C51.8948 114.74 56.8579 113.906 60.5626 112.21C64.2672 110.514 66.9398 107.776 68.5802 103.996C70.3107 100.217 71.2353 95.217 71.354 88.9959C71.5467 86.2918 71.6477 83.9478 71.6568 81.9642C71.6663 79.8903 71.6756 77.8616 71.6847 75.8779C71.6942 73.8041 71.6148 71.4593 71.4464 68.8437C71.3062 60.0967 69.2619 53.6403 65.3136 49.4744C61.3657 45.2184 54.7031 43.0688 45.3258 43.0258L25.444 42.9347L25.1153 114.617Z"/>
</mask>
<path d="M14.9188 126.067C13.9269 126.062 13.1618 125.788 12.6232 125.245C12.0851 124.611 11.8182 123.844 11.8223 122.942L12.2273 34.6236C12.2319 33.6318 12.5059 32.8666 13.0494 32.3281C13.5933 31.6994 14.3612 31.3873 15.353 31.3919L46.0547 31.5327C55.3419 31.5753 62.8193 33.0072 68.487 35.8284C74.1547 38.6496 78.2834 42.8163 80.873 48.3285C83.463 53.7505 84.7849 60.429 84.8387 68.3641C84.9102 72.422 84.939 75.9838 84.9249 79.0495C84.9109 82.1151 84.8496 85.6314 84.7413 89.5984C84.5229 97.8929 83.0937 104.784 80.4536 110.272C77.9041 115.671 73.828 119.71 68.2253 122.389C62.7131 124.979 55.4036 126.253 46.2968 126.211L14.9188 126.067ZM25.1153 114.617L45.6733 114.711C51.8948 114.74 56.8579 113.906 60.5626 112.21C64.2672 110.514 66.9398 107.776 68.5802 103.996C70.3107 100.217 71.2353 95.217 71.354 88.9959C71.5467 86.2918 71.6477 83.9478 71.6568 81.9642C71.6663 79.8903 71.6756 77.8616 71.6847 75.8779C71.6942 73.8041 71.6148 71.4593 71.4464 68.8437C71.3062 60.0967 69.2619 53.6403 65.3136 49.4744C61.3657 45.2184 54.7031 43.0688 45.3258 43.0258L25.444 42.9347L25.1153 114.617Z" fill="#384D4B"/>
<path d="M12.6232 125.245L11.861 125.892L11.8859 125.921L11.9129 125.949L12.6232 125.245ZM13.0494 32.3281L13.7532 33.0384L13.7805 33.0114L13.8057 32.9823L13.0494 32.3281ZM68.487 35.8284L68.0414 36.7236L68.0414 36.7236L68.487 35.8284ZM80.873 48.3285L79.9679 48.7537L79.9706 48.7595L80.873 48.3285ZM84.8387 68.3641L83.8386 68.3709L83.8388 68.3817L84.8387 68.3641ZM84.7413 89.5984L83.7416 89.571L83.7416 89.572L84.7413 89.5984ZM80.4536 110.272L79.5524 109.839L79.5494 109.845L80.4536 110.272ZM68.2253 122.389L68.6505 123.294L68.6567 123.291L68.2253 122.389ZM25.1153 114.617L24.1153 114.613L24.1107 115.613L25.1107 115.617L25.1153 114.617ZM68.5802 103.996L67.6709 103.58L67.6668 103.589L67.6628 103.598L68.5802 103.996ZM71.354 88.9959L70.3565 88.9248L70.3547 88.9508L70.3542 88.9769L71.354 88.9959ZM71.4464 68.8437L70.4466 68.8597L70.4469 68.8838L70.4485 68.9079L71.4464 68.8437ZM65.3136 49.4744L64.5804 50.1545L64.5878 50.1623L65.3136 49.4744ZM25.444 42.9347L25.4486 41.9347L24.4486 41.9301L24.444 42.9301L25.444 42.9347ZM14.9234 125.067C14.1147 125.063 13.6347 124.845 13.3336 124.541L11.9129 125.949C12.6888 126.732 13.7392 127.062 14.9142 127.067L14.9234 125.067ZM13.3855 124.598C13.0154 124.162 12.8191 123.631 12.8223 122.946L10.8223 122.937C10.8172 124.056 11.1549 125.061 11.861 125.892L13.3855 124.598ZM12.8223 122.946L13.2273 34.6282L11.2274 34.619L10.8223 122.937L12.8223 122.946ZM13.2273 34.6282C13.231 33.8196 13.4494 33.3395 13.7532 33.0384L12.3455 31.6177C11.5625 32.3937 11.2327 33.444 11.2274 34.619L13.2273 34.6282ZM13.8057 32.9823C14.1214 32.6174 14.5865 32.3884 15.3484 32.3919L15.3576 30.3919C14.1358 30.3863 13.0652 30.7814 12.2931 31.6738L13.8057 32.9823ZM15.3484 32.3919L46.0502 32.5327L46.0593 30.5327L15.3576 30.3919L15.3484 32.3919ZM46.0502 32.5327C55.2502 32.5749 62.5596 33.9949 68.0414 36.7236L68.9326 34.9332C63.0791 32.0194 55.4337 30.5757 46.0593 30.5327L46.0502 32.5327ZM68.0414 36.7236C73.516 39.4487 77.4781 43.454 79.9679 48.7537L81.7781 47.9033C79.0886 42.1786 74.7935 37.8505 68.9326 34.9332L68.0414 36.7236ZM79.9706 48.7595C82.4805 54.0136 83.7856 60.5377 83.8387 68.3709L85.8386 68.3573C85.7842 60.3203 84.4455 53.4873 81.7753 47.8974L79.9706 48.7595ZM83.8388 68.3817C83.9103 72.4344 83.9389 75.9885 83.9249 79.0449L85.9249 79.0541C85.939 75.9791 85.9102 72.4096 85.8385 68.3465L83.8388 68.3817ZM83.9249 79.0449C83.9109 82.1012 83.8499 85.6096 83.7416 89.571L85.7409 89.6257C85.8494 85.6532 85.9108 82.1291 85.9249 79.0541L83.9249 79.0449ZM83.7416 89.572C83.5257 97.7736 82.1134 104.515 79.5525 109.839L81.3548 110.706C84.074 105.053 85.5201 98.0121 85.7409 89.6247L83.7416 89.572ZM79.5494 109.845C77.1024 115.027 73.1981 118.902 67.7939 121.487L68.6567 123.291C74.458 120.517 78.7059 116.315 81.3579 110.699L79.5494 109.845ZM67.8001 121.484C62.4722 123.987 55.3269 125.252 46.3014 125.211L46.2922 127.211C55.4804 127.253 62.954 125.97 68.6505 123.294L67.8001 121.484ZM46.3014 125.211L14.9234 125.067L14.9142 127.067L46.2922 127.211L46.3014 125.211ZM25.1107 115.617L45.6687 115.711L45.6779 113.711L25.1198 113.617L25.1107 115.617ZM45.6687 115.711C51.9662 115.74 57.0911 114.899 60.9789 113.119L60.1463 111.301C56.6247 112.913 51.8234 113.74 45.6779 113.711L45.6687 115.711ZM60.9789 113.119C64.9107 111.319 67.7601 108.398 69.4975 104.394L67.6628 103.598C66.1195 107.154 63.6238 109.708 60.1463 111.301L60.9789 113.119ZM69.4894 104.413C71.2982 100.463 72.2337 95.3114 72.3538 89.015L70.3542 88.9769C70.2369 95.1227 69.3232 99.9717 67.6709 103.58L69.4894 104.413ZM72.3515 89.067C72.5453 86.3481 72.6475 83.981 72.6567 81.9688L70.6568 81.9596C70.6478 83.9147 70.5482 86.2354 70.3565 88.9248L72.3515 89.067ZM72.6567 81.9688C72.6568 81.9647 72.6568 81.9607 72.6568 81.9566C72.6568 81.9526 72.6568 81.9485 72.6569 81.9445C72.6569 81.9404 72.6569 81.9364 72.6569 81.9323C72.6569 81.9283 72.6569 81.9242 72.657 81.9202C72.657 81.9161 72.657 81.9121 72.657 81.908C72.657 81.904 72.6571 81.8999 72.6571 81.8959C72.6571 81.8918 72.6571 81.8878 72.6571 81.8837C72.6572 81.8797 72.6572 81.8756 72.6572 81.8716C72.6572 81.8675 72.6572 81.8635 72.6572 81.8594C72.6573 81.8554 72.6573 81.8514 72.6573 81.8473C72.6573 81.8433 72.6573 81.8392 72.6574 81.8352C72.6574 81.8311 72.6574 81.8271 72.6574 81.823C72.6574 81.819 72.6574 81.8149 72.6575 81.8109C72.6575 81.8068 72.6575 81.8028 72.6575 81.7987C72.6575 81.7947 72.6576 81.7907 72.6576 81.7866C72.6576 81.7826 72.6576 81.7785 72.6576 81.7745C72.6577 81.7704 72.6577 81.7664 72.6577 81.7623C72.6577 81.7583 72.6577 81.7543 72.6577 81.7502C72.6578 81.7462 72.6578 81.7421 72.6578 81.7381C72.6578 81.734 72.6578 81.73 72.6579 81.7259C72.6579 81.7219 72.6579 81.7179 72.6579 81.7138C72.6579 81.7098 72.6579 81.7057 72.658 81.7017C72.658 81.6976 72.658 81.6936 72.658 81.6896C72.658 81.6855 72.6581 81.6815 72.6581 81.6774C72.6581 81.6734 72.6581 81.6693 72.6581 81.6653C72.6582 81.6613 72.6582 81.6572 72.6582 81.6532C72.6582 81.6491 72.6582 81.6451 72.6582 81.6411C72.6583 81.637 72.6583 81.633 72.6583 81.6289C72.6583 81.6249 72.6583 81.6209 72.6584 81.6168C72.6584 81.6128 72.6584 81.6087 72.6584 81.6047C72.6584 81.6006 72.6584 81.5966 72.6585 81.5926C72.6585 81.5885 72.6585 81.5845 72.6585 81.5805C72.6585 81.5764 72.6586 81.5724 72.6586 81.5683C72.6586 81.5643 72.6586 81.5603 72.6586 81.5562C72.6587 81.5522 72.6587 81.5481 72.6587 81.5441C72.6587 81.5401 72.6587 81.536 72.6587 81.532C72.6588 81.5279 72.6588 81.5239 72.6588 81.5199C72.6588 81.5158 72.6588 81.5118 72.6589 81.5078C72.6589 81.5037 72.6589 81.4997 72.6589 81.4956C72.6589 81.4916 72.659 81.4876 72.659 81.4835C72.659 81.4795 72.659 81.4755 72.659 81.4714C72.659 81.4674 72.6591 81.4634 72.6591 81.4593C72.6591 81.4553 72.6591 81.4512 72.6591 81.4472C72.6592 81.4432 72.6592 81.4391 72.6592 81.4351C72.6592 81.4311 72.6592 81.427 72.6592 81.423C72.6593 81.419 72.6593 81.4149 72.6593 81.4109C72.6593 81.4069 72.6593 81.4028 72.6594 81.3988C72.6594 81.3948 72.6594 81.3907 72.6594 81.3867C72.6594 81.3827 72.6594 81.3786 72.6595 81.3746C72.6595 81.3706 72.6595 81.3665 72.6595 81.3625C72.6595 81.3585 72.6596 81.3544 72.6596 81.3504C72.6596 81.3464 72.6596 81.3423 72.6596 81.3383C72.6597 81.3343 72.6597 81.3302 72.6597 81.3262C72.6597 81.3222 72.6597 81.3181 72.6597 81.3141C72.6598 81.3101 72.6598 81.306 72.6598 81.302C72.6598 81.298 72.6598 81.2939 72.6599 81.2899C72.6599 81.2859 72.6599 81.2818 72.6599 81.2778C72.6599 81.2738 72.6599 81.2698 72.66 81.2657C72.66 81.2617 72.66 81.2577 72.66 81.2536C72.66 81.2496 72.6601 81.2456 72.6601 81.2415C72.6601 81.2375 72.6601 81.2335 72.6601 81.2295C72.6602 81.2254 72.6602 81.2214 72.6602 81.2174C72.6602 81.2133 72.6602 81.2093 72.6602 81.2053C72.6603 81.2012 72.6603 81.1972 72.6603 81.1932C72.6603 81.1892 72.6603 81.1851 72.6604 81.1811C72.6604 81.1771 72.6604 81.1731 72.6604 81.169C72.6604 81.165 72.6604 81.161 72.6605 81.1569C72.6605 81.1529 72.6605 81.1489 72.6605 81.1449C72.6605 81.1408 72.6606 81.1368 72.6606 81.1328C72.6606 81.1288 72.6606 81.1247 72.6606 81.1207C72.6607 81.1167 72.6607 81.1126 72.6607 81.1086C72.6607 81.1046 72.6607 81.1006 72.6607 81.0965C72.6608 81.0925 72.6608 81.0885 72.6608 81.0845C72.6608 81.0804 72.6608 81.0764 72.6609 81.0724C72.6609 81.0684 72.6609 81.0643 72.6609 81.0603C72.6609 81.0563 72.6609 81.0523 72.661 81.0482C72.661 81.0442 72.661 81.0402 72.661 81.0362C72.661 81.0321 72.6611 81.0281 72.6611 81.0241C72.6611 81.0201 72.6611 81.0161 72.6611 81.012C72.6611 81.008 72.6612 81.004 72.6612 81C72.6612 80.9959 72.6612 80.9919 72.6612 80.9879C72.6613 80.9839 72.6613 80.9798 72.6613 80.9758C72.6613 80.9718 72.6613 80.9678 72.6614 80.9638C72.6614 80.9597 72.6614 80.9557 72.6614 80.9517C72.6614 80.9477 72.6614 80.9436 72.6615 80.9396C72.6615 80.9356 72.6615 80.9316 72.6615 80.9276C72.6615 80.9235 72.6616 80.9195 72.6616 80.9155C72.6616 80.9115 72.6616 80.9075 72.6616 80.9034C72.6616 80.8994 72.6617 80.8954 72.6617 80.8914C72.6617 80.8874 72.6617 80.8833 72.6617 80.8793C72.6618 80.8753 72.6618 80.8713 72.6618 80.8673C72.6618 80.8632 72.6618 80.8592 72.6619 80.8552C72.6619 80.8512 72.6619 80.8472 72.6619 80.8432C72.6619 80.8391 72.6619 80.8351 72.662 80.8311C72.662 80.8271 72.662 80.8231 72.662 80.819C72.662 80.815 72.6621 80.811 72.6621 80.807C72.6621 80.803 72.6621 80.799 72.6621 80.7949C72.6621 80.7909 72.6622 80.7869 72.6622 80.7829C72.6622 80.7789 72.6622 80.7749 72.6622 80.7708C72.6623 80.7668 72.6623 80.7628 72.6623 80.7588C72.6623 80.7548 72.6623 80.7508 72.6623 80.7467C72.6624 80.7427 72.6624 80.7387 72.6624 80.7347C72.6624 80.7307 72.6624 80.7267 72.6625 80.7226C72.6625 80.7186 72.6625 80.7146 72.6625 80.7106C72.6625 80.7066 72.6626 80.7026 72.6626 80.6986C72.6626 80.6945 72.6626 80.6905 72.6626 80.6865C72.6626 80.6825 72.6627 80.6785 72.6627 80.6745C72.6627 80.6705 72.6627 80.6664 72.6627 80.6624C72.6628 80.6584 72.6628 80.6544 72.6628 80.6504C72.6628 80.6464 72.6628 80.6424 72.6628 80.6384C72.6629 80.6343 72.6629 80.6303 72.6629 80.6263C72.6629 80.6223 72.6629 80.6183 72.663 80.6143C72.663 80.6103 72.663 80.6063 72.663 80.6022C72.663 80.5982 72.663 80.5942 72.6631 80.5902C72.6631 80.5862 72.6631 80.5822 72.6631 80.5782C72.6631 80.5742 72.6632 80.5702 72.6632 80.5661C72.6632 80.5621 72.6632 80.5581 72.6632 80.5541C72.6632 80.5501 72.6633 80.5461 72.6633 80.5421C72.6633 80.5381 72.6633 80.5341 72.6633 80.5301C72.6634 80.526 72.6634 80.522 72.6634 80.518C72.6634 80.514 72.6634 80.51 72.6635 80.506C72.6635 80.502 72.6635 80.498 72.6635 80.494C72.6635 80.49 72.6635 80.486 72.6636 80.482C72.6636 80.4779 72.6636 80.4739 72.6636 80.4699C72.6636 80.4659 72.6637 80.4619 72.6637 80.4579C72.6637 80.4539 72.6637 80.4499 72.6637 80.4459C72.6637 80.4419 72.6638 80.4379 72.6638 80.4339C72.6638 80.4299 72.6638 80.4258 72.6638 80.4218C72.6639 80.4178 72.6639 80.4138 72.6639 80.4098C72.6639 80.4058 72.6639 80.4018 72.6639 80.3978C72.664 80.3938 72.664 80.3898 72.664 80.3858C72.664 80.3818 72.664 80.3778 72.6641 80.3738C72.6641 80.3698 72.6641 80.3658 72.6641 80.3618C72.6641 80.3578 72.6642 80.3538 72.6642 80.3497C72.6642 80.3457 72.6642 80.3417 72.6642 80.3377C72.6642 80.3337 72.6643 80.3297 72.6643 80.3257C72.6643 80.3217 72.6643 80.3177 72.6643 80.3137C72.6644 80.3097 72.6644 80.3057 72.6644 80.3017C72.6644 80.2977 72.6644 80.2937 72.6644 80.2897C72.6645 80.2857 72.6645 80.2817 72.6645 80.2777C72.6645 80.2737 72.6645 80.2697 72.6646 80.2657C72.6646 80.2617 72.6646 80.2577 72.6646 80.2537C72.6646 80.2497 72.6646 80.2457 72.6647 80.2417C72.6647 80.2377 72.6647 80.2337 72.6647 80.2297C72.6647 80.2257 72.6648 80.2217 72.6648 80.2177C72.6648 80.2137 72.6648 80.2097 72.6648 80.2057C72.6648 80.2017 72.6649 80.1977 72.6649 80.1937C72.6649 80.1897 72.6649 80.1857 72.6649 80.1817C72.665 80.1777 72.665 80.1737 72.665 80.1697C72.665 80.1657 72.665 80.1617 72.665 80.1577C72.6651 80.1537 72.6651 80.1497 72.6651 80.1457C72.6651 80.1417 72.6651 80.1377 72.6652 80.1337C72.6652 80.1297 72.6652 80.1257 72.6652 80.1217C72.6652 80.1177 72.6653 80.1137 72.6653 80.1097C72.6653 80.1057 72.6653 80.1017 72.6653 80.0977C72.6653 80.0937 72.6654 80.0897 72.6654 80.0857C72.6654 80.0817 72.6654 80.0777 72.6654 80.0737C72.6655 80.0697 72.6655 80.0657 72.6655 80.0617C72.6655 80.0577 72.6655 80.0537 72.6655 80.0497C72.6656 80.0457 72.6656 80.0417 72.6656 80.0378C72.6656 80.0338 72.6656 80.0298 72.6657 80.0258C72.6657 80.0218 72.6657 80.0178 72.6657 80.0138C72.6657 80.0098 72.6657 80.0058 72.6658 80.0018C72.6658 79.9978 72.6658 79.9938 72.6658 79.9898C72.6658 79.9858 72.6659 79.9818 72.6659 79.9778C72.6659 79.9738 72.6659 79.9698 72.6659 79.9659C72.6659 79.9619 72.666 79.9579 72.666 79.9539C72.666 79.9499 72.666 79.9459 72.666 79.9419C72.6661 79.9379 72.6661 79.9339 72.6661 79.9299C72.6661 79.9259 72.6661 79.9219 72.6661 79.9179C72.6662 79.914 72.6662 79.91 72.6662 79.906C72.6662 79.902 72.6662 79.898 72.6663 79.894C72.6663 79.89 72.6663 79.886 72.6663 79.882C72.6663 79.878 72.6664 79.874 72.6664 79.87C72.6664 79.8661 72.6664 79.8621 72.6664 79.8581C72.6664 79.8541 72.6665 79.8501 72.6665 79.8461C72.6665 79.8421 72.6665 79.8381 72.6665 79.8341C72.6666 79.8301 72.6666 79.8262 72.6666 79.8222C72.6666 79.8182 72.6666 79.8142 72.6666 79.8102C72.6667 79.8062 72.6667 79.8022 72.6667 79.7982C72.6667 79.7942 72.6667 79.7903 72.6668 79.7863C72.6668 79.7823 72.6668 79.7783 72.6668 79.7743C72.6668 79.7703 72.6668 79.7663 72.6669 79.7623C72.6669 79.7584 72.6669 79.7544 72.6669 79.7504C72.6669 79.7464 72.667 79.7424 72.667 79.7384C72.667 79.7344 72.667 79.7304 72.667 79.7265C72.667 79.7225 72.6671 79.7185 72.6671 79.7145C72.6671 79.7105 72.6671 79.7065 72.6671 79.7025C72.6672 79.6986 72.6672 79.6946 72.6672 79.6906C72.6672 79.6866 72.6672 79.6826 72.6672 79.6786C72.6673 79.6746 72.6673 79.6707 72.6673 79.6667C72.6673 79.6627 72.6673 79.6587 72.6674 79.6547C72.6674 79.6507 72.6674 79.6468 72.6674 79.6428C72.6674 79.6388 72.6674 79.6348 72.6675 79.6308C72.6675 79.6268 72.6675 79.6228 72.6675 79.6189C72.6675 79.6149 72.6676 79.6109 72.6676 79.6069C72.6676 79.6029 72.6676 79.599 72.6676 79.595C72.6676 79.591 72.6677 79.587 72.6677 79.583C72.6677 79.579 72.6677 79.5751 72.6677 79.5711C72.6678 79.5671 72.6678 79.5631 72.6678 79.5591C72.6678 79.5551 72.6678 79.5512 72.6678 79.5472C72.6679 79.5432 72.6679 79.5392 72.6679 79.5352C72.6679 79.5313 72.6679 79.5273 72.668 79.5233C72.668 79.5193 72.668 79.5153 72.668 79.5114C72.668 79.5074 72.6681 79.5034 72.6681 79.4994C72.6681 79.4954 72.6681 79.4915 72.6681 79.4875C72.6681 79.4835 72.6682 79.4795 72.6682 79.4755C72.6682 79.4716 72.6682 79.4676 72.6682 79.4636C72.6683 79.4596 72.6683 79.4556 72.6683 79.4517C72.6683 79.4477 72.6683 79.4437 72.6683 79.4397C72.6684 79.4358 72.6684 79.4318 72.6684 79.4278C72.6684 79.4238 72.6684 79.4198 72.6685 79.4159C72.6685 79.4119 72.6685 79.4079 72.6685 79.4039C72.6685 79.4 72.6685 79.396 72.6686 79.392C72.6686 79.388 72.6686 79.384 72.6686 79.3801C72.6686 79.3761 72.6687 79.3721 72.6687 79.3681C72.6687 79.3642 72.6687 79.3602 72.6687 79.3562C72.6687 79.3522 72.6688 79.3483 72.6688 79.3443C72.6688 79.3403 72.6688 79.3363 72.6688 79.3324C72.6689 79.3284 72.6689 79.3244 72.6689 79.3204C72.6689 79.3165 72.6689 79.3125 72.6689 79.3085C72.669 79.3045 72.669 79.3006 72.669 79.2966C72.669 79.2926 72.669 79.2886 72.6691 79.2847C72.6691 79.2807 72.6691 79.2767 72.6691 79.2727C72.6691 79.2688 72.6691 79.2648 72.6692 79.2608C72.6692 79.2569 72.6692 79.2529 72.6692 79.2489C72.6692 79.2449 72.6693 79.241 72.6693 79.237C72.6693 79.233 72.6693 79.229 72.6693 79.2251C72.6693 79.2211 72.6694 79.2171 72.6694 79.2132C72.6694 79.2092 72.6694 79.2052 72.6694 79.2012C72.6695 79.1973 72.6695 79.1933 72.6695 79.1893C72.6695 79.1854 72.6695 79.1814 72.6695 79.1774C72.6696 79.1734 72.6696 79.1695 72.6696 79.1655C72.6696 79.1615 72.6696 79.1576 72.6697 79.1536C72.6697 79.1496 72.6697 79.1457 72.6697 79.1417C72.6697 79.1377 72.6697 79.1337 72.6698 79.1298C72.6698 79.1258 72.6698 79.1218 72.6698 79.1179C72.6698 79.1139 72.6699 79.1099 72.6699 79.106C72.6699 79.102 72.6699 79.098 72.6699 79.0941C72.6699 79.0901 72.67 79.0861 72.67 79.0822C72.67 79.0782 72.67 79.0742 72.67 79.0703C72.6701 79.0663 72.6701 79.0623 72.6701 79.0583C72.6701 79.0544 72.6701 79.0504 72.6701 79.0464C72.6702 79.0425 72.6702 79.0385 72.6702 79.0345C72.6702 79.0306 72.6702 79.0266 72.6703 79.0226C72.6703 79.0187 72.6703 79.0147 72.6703 79.0108C72.6703 79.0068 72.6703 79.0028 72.6704 78.9989C72.6704 78.9949 72.6704 78.9909 72.6704 78.987C72.6704 78.983 72.6705 78.979 72.6705 78.9751C72.6705 78.9711 72.6705 78.9671 72.6705 78.9632C72.6705 78.9592 72.6706 78.9552 72.6706 78.9513C72.6706 78.9473 72.6706 78.9433 72.6706 78.9394C72.6707 78.9354 72.6707 78.9315 72.6707 78.9275C72.6707 78.9235 72.6707 78.9196 72.6707 78.9156C72.6708 78.9116 72.6708 78.9077 72.6708 78.9037C72.6708 78.8998 72.6708 78.8958 72.6709 78.8918C72.6709 78.8879 72.6709 78.8839 72.6709 78.8799C72.6709 78.876 72.6709 78.872 72.671 78.8681C72.671 78.8641 72.671 78.8601 72.671 78.8562C72.671 78.8522 72.6711 78.8482 72.6711 78.8443C72.6711 78.8403 72.6711 78.8364 72.6711 78.8324C72.6711 78.8284 72.6712 78.8245 72.6712 78.8205C72.6712 78.8166 72.6712 78.8126 72.6712 78.8086C72.6713 78.8047 72.6713 78.8007 72.6713 78.7968C72.6713 78.7928 72.6713 78.7888 72.6713 78.7849C72.6714 78.7809 72.6714 78.777 72.6714 78.773C72.6714 78.769 72.6714 78.7651 72.6715 78.7611C72.6715 78.7572 72.6715 78.7532 72.6715 78.7493C72.6715 78.7453 72.6715 78.7413 72.6716 78.7374C72.6716 78.7334 72.6716 78.7295 72.6716 78.7255C72.6716 78.7215 72.6717 78.7176 72.6717 78.7136C72.6717 78.7097 72.6717 78.7057 72.6717 78.7018C72.6717 78.6978 72.6718 78.6938 72.6718 78.6899C72.6718 78.6859 72.6718 78.682 72.6718 78.678C72.6719 78.6741 72.6719 78.6701 72.6719 78.6662C72.6719 78.6622 72.6719 78.6582 72.6719 78.6543C72.672 78.6503 72.672 78.6464 72.672 78.6424C72.672 78.6385 72.672 78.6345 72.6721 78.6306C72.6721 78.6266 72.6721 78.6226 72.6721 78.6187C72.6721 78.6147 72.6721 78.6108 72.6722 78.6068C72.6722 78.6029 72.6722 78.5989 72.6722 78.595C72.6722 78.591 72.6723 78.5871 72.6723 78.5831C72.6723 78.5792 72.6723 78.5752 72.6723 78.5712C72.6723 78.5673 72.6724 78.5633 72.6724 78.5594C72.6724 78.5554 72.6724 78.5515 72.6724 78.5475C72.6725 78.5436 72.6725 78.5396 72.6725 78.5357C72.6725 78.5317 72.6725 78.5278 72.6725 78.5238C72.6726 78.5199 72.6726 78.5159 72.6726 78.512C72.6726 78.508 72.6726 78.5041 72.6727 78.5001C72.6727 78.4962 72.6727 78.4922 72.6727 78.4883C72.6727 78.4843 72.6727 78.4804 72.6728 78.4764C72.6728 78.4725 72.6728 78.4685 72.6728 78.4646C72.6728 78.4606 72.6729 78.4567 72.6729 78.4527C72.6729 78.4488 72.6729 78.4448 72.6729 78.4409C72.6729 78.4369 72.673 78.433 72.673 78.429C72.673 78.4251 72.673 78.4211 72.673 78.4172C72.6731 78.4132 72.6731 78.4093 72.6731 78.4053C72.6731 78.4014 72.6731 78.3974 72.6731 78.3935C72.6732 78.3895 72.6732 78.3856 72.6732 78.3816C72.6732 78.3777 72.6732 78.3737 72.6732 78.3698C72.6733 78.3658 72.6733 78.3619 72.6733 78.3579C72.6733 78.354 72.6733 78.3501 72.6734 78.3461C72.6734 78.3422 72.6734 78.3382 72.6734 78.3343C72.6734 78.3303 72.6734 78.3264 72.6735 78.3224C72.6735 78.3185 72.6735 78.3145 72.6735 78.3106C72.6735 78.3066 72.6736 78.3027 72.6736 78.2988C72.6736 78.2948 72.6736 78.2909 72.6736 78.2869C72.6736 78.283 72.6737 78.279 72.6737 78.2751C72.6737 78.2711 72.6737 78.2672 72.6737 78.2633C72.6738 78.2593 72.6738 78.2554 72.6738 78.2514C72.6738 78.2475 72.6738 78.2435 72.6738 78.2396C72.6739 78.2356 72.6739 78.2317 72.6739 78.2278C72.6739 78.2238 72.6739 78.2199 72.674 78.2159C72.674 78.212 72.674 78.208 72.674 78.2041C72.674 78.2002 72.674 78.1962 72.6741 78.1923C72.6741 78.1883 72.6741 78.1844 72.6741 78.1805C72.6741 78.1765 72.6742 78.1726 72.6742 78.1686C72.6742 78.1647 72.6742 78.1607 72.6742 78.1568C72.6742 78.1529 72.6743 78.1489 72.6743 78.145C72.6743 78.141 72.6743 78.1371 72.6743 78.1332C72.6744 78.1292 72.6744 78.1253 72.6744 78.1213C72.6744 78.1174 72.6744 78.1135 72.6744 78.1095C72.6745 78.1056 72.6745 78.1016 72.6745 78.0977C72.6745 78.0938 72.6745 78.0898 72.6746 78.0859C72.6746 78.0819 72.6746 78.078 72.6746 78.0741C72.6746 78.0701 72.6746 78.0662 72.6747 78.0622C72.6747 78.0583 72.6747 78.0544 72.6747 78.0504C72.6747 78.0465 72.6747 78.0426 72.6748 78.0386C72.6748 78.0347 72.6748 78.0307 72.6748 78.0268C72.6748 78.0229 72.6749 78.0189 72.6749 78.015C72.6749 78.0111 72.6749 78.0071 72.6749 78.0032C72.6749 77.9993 72.675 77.9953 72.675 77.9914C72.675 77.9874 72.675 77.9835 72.675 77.9796C72.6751 77.9756 72.6751 77.9717 72.6751 77.9678C72.6751 77.9638 72.6751 77.9599 72.6751 77.956C72.6752 77.952 72.6752 77.9481 72.6752 77.9442C72.6752 77.9402 72.6752 77.9363 72.6753 77.9323C72.6753 77.9284 72.6753 77.9245 72.6753 77.9205C72.6753 77.9166 72.6753 77.9127 72.6754 77.9087C72.6754 77.9048 72.6754 77.9009 72.6754 77.8969C72.6754 77.893 72.6755 77.8891 72.6755 77.8851C72.6755 77.8812 72.6755 77.8773 72.6755 77.8733C72.6755 77.8694 72.6756 77.8655 72.6756 77.8615C72.6756 77.8576 72.6756 77.8537 72.6756 77.8497C72.6757 77.8458 72.6757 77.8419 72.6757 77.838C72.6757 77.834 72.6757 77.8301 72.6757 77.8262C72.6758 77.8222 72.6758 77.8183 72.6758 77.8144C72.6758 77.8104 72.6758 77.8065 72.6759 77.8026C72.6759 77.7986 72.6759 77.7947 72.6759 77.7908C72.6759 77.7868 72.6759 77.7829 72.676 77.779C72.676 77.7751 72.676 77.7711 72.676 77.7672C72.676 77.7633 72.676 77.7593 72.6761 77.7554C72.6761 77.7515 72.6761 77.7475 72.6761 77.7436C72.6761 77.7397 72.6762 77.7358 72.6762 77.7318C72.6762 77.7279 72.6762 77.724 72.6762 77.72C72.6762 77.7161 72.6763 77.7122 72.6763 77.7083C72.6763 77.7043 72.6763 77.7004 72.6763 77.6965C72.6764 77.6926 72.6764 77.6886 72.6764 77.6847C72.6764 77.6808 72.6764 77.6768 72.6764 77.6729C72.6765 77.669 72.6765 77.6651 72.6765 77.6611C72.6765 77.6572 72.6765 77.6533 72.6766 77.6494C72.6766 77.6454 72.6766 77.6415 72.6766 77.6376C72.6766 77.6337 72.6766 77.6297 72.6767 77.6258C72.6767 77.6219 72.6767 77.618 72.6767 77.614C72.6767 77.6101 72.6768 77.6062 72.6768 77.6022C72.6768 77.5983 72.6768 77.5944 72.6768 77.5905C72.6768 77.5866 72.6769 77.5826 72.6769 77.5787C72.6769 77.5748 72.6769 77.5709 72.6769 77.5669C72.6769 77.563 72.677 77.5591 72.677 77.5552C72.677 77.5512 72.677 77.5473 72.677 77.5434C72.6771 77.5395 72.6771 77.5355 72.6771 77.5316C72.6771 77.5277 72.6771 77.5238 72.6771 77.5199C72.6772 77.5159 72.6772 77.512 72.6772 77.5081C72.6772 77.5042 72.6772 77.5002 72.6773 77.4963C72.6773 77.4924 72.6773 77.4885 72.6773 77.4846C72.6773 77.4806 72.6773 77.4767 72.6774 77.4728C72.6774 77.4689 72.6774 77.4649 72.6774 77.461C72.6774 77.4571 72.6775 77.4532 72.6775 77.4493C72.6775 77.4453 72.6775 77.4414 72.6775 77.4375C72.6775 77.4336 72.6776 77.4297 72.6776 77.4257C72.6776 77.4218 72.6776 77.4179 72.6776 77.414C72.6777 77.4101 72.6777 77.4061 72.6777 77.4022C72.6777 77.3983 72.6777 77.3944 72.6777 77.3905C72.6778 77.3866 72.6778 77.3826 72.6778 77.3787C72.6778 77.3748 72.6778 77.3709 72.6778 77.367C72.6779 77.363 72.6779 77.3591 72.6779 77.3552C72.6779 77.3513 72.6779 77.3474 72.678 77.3435C72.678 77.3395 72.678 77.3356 72.678 77.3317C72.678 77.3278 72.678 77.3239 72.6781 77.32C72.6781 77.316 72.6781 77.3121 72.6781 77.3082C72.6781 77.3043 72.6782 77.3004 72.6782 77.2965C72.6782 77.2925 72.6782 77.2886 72.6782 77.2847C72.6782 77.2808 72.6783 77.2769 72.6783 77.273C72.6783 77.269 72.6783 77.2651 72.6783 77.2612C72.6784 77.2573 72.6784 77.2534 72.6784 77.2495C72.6784 77.2456 72.6784 77.2416 72.6784 77.2377C72.6785 77.2338 72.6785 77.2299 72.6785 77.226C72.6785 77.2221 72.6785 77.2182 72.6785 77.2142C72.6786 77.2103 72.6786 77.2064 72.6786 77.2025C72.6786 77.1986 72.6786 77.1947 72.6787 77.1908C72.6787 77.1869 72.6787 77.1829 72.6787 77.179C72.6787 77.1751 72.6787 77.1712 72.6788 77.1673C72.6788 77.1634 72.6788 77.1595 72.6788 77.1556C72.6788 77.1516 72.6789 77.1477 72.6789 77.1438C72.6789 77.1399 72.6789 77.136 72.6789 77.1321C72.6789 77.1282 72.679 77.1243 72.679 77.1204C72.679 77.1164 72.679 77.1125 72.679 77.1086C72.6791 77.1047 72.6791 77.1008 72.6791 77.0969C72.6791 77.093 72.6791 77.0891 72.6791 77.0852C72.6792 77.0813 72.6792 77.0773 72.6792 77.0734C72.6792 77.0695 72.6792 77.0656 72.6792 77.0617C72.6793 77.0578 72.6793 77.0539 72.6793 77.05C72.6793 77.0461 72.6793 77.0422 72.6794 77.0383C72.6794 77.0343 72.6794 77.0304 72.6794 77.0265C72.6794 77.0226 72.6794 77.0187 72.6795 77.0148C72.6795 77.0109 72.6795 77.007 72.6795 77.0031C72.6795 76.9992 72.6796 76.9953 72.6796 76.9914C72.6796 76.9875 72.6796 76.9835 72.6796 76.9796C72.6796 76.9757 72.6797 76.9718 72.6797 76.9679C72.6797 76.964 72.6797 76.9601 72.6797 76.9562C72.6798 76.9523 72.6798 76.9484 72.6798 76.9445C72.6798 76.9406 72.6798 76.9367 72.6798 76.9328C72.6799 76.9289 72.6799 76.925 72.6799 76.9211C72.6799 76.9171 72.6799 76.9132 72.6799 76.9093C72.68 76.9054 72.68 76.9015 72.68 76.8976C72.68 76.8937 72.68 76.8898 72.6801 76.8859C72.6801 76.882 72.6801 76.8781 72.6801 76.8742C72.6801 76.8703 72.6801 76.8664 72.6802 76.8625C72.6802 76.8586 72.6802 76.8547 72.6802 76.8508C72.6802 76.8469 72.6803 76.843 72.6803 76.8391C72.6803 76.8352 72.6803 76.8313 72.6803 76.8274C72.6803 76.8235 72.6804 76.8196 72.6804 76.8157C72.6804 76.8118 72.6804 76.8079 72.6804 76.804C72.6804 76.8001 72.6805 76.7962 72.6805 76.7922C72.6805 76.7883 72.6805 76.7844 72.6805 76.7805C72.6806 76.7766 72.6806 76.7727 72.6806 76.7688C72.6806 76.7649 72.6806 76.761 72.6806 76.7571C72.6807 76.7532 72.6807 76.7493 72.6807 76.7454C72.6807 76.7415 72.6807 76.7376 72.6808 76.7337C72.6808 76.7298 72.6808 76.7259 72.6808 76.722C72.6808 76.7181 72.6808 76.7142 72.6809 76.7103C72.6809 76.7065 72.6809 76.7026 72.6809 76.6987C72.6809 76.6948 72.6809 76.6909 72.681 76.687C72.681 76.6831 72.681 76.6792 72.681 76.6753C72.681 76.6714 72.6811 76.6675 72.6811 76.6636C72.6811 76.6597 72.6811 76.6558 72.6811 76.6519C72.6811 76.648 72.6812 76.6441 72.6812 76.6402C72.6812 76.6363 72.6812 76.6324 72.6812 76.6285C72.6813 76.6246 72.6813 76.6207 72.6813 76.6168C72.6813 76.6129 72.6813 76.609 72.6813 76.6051C72.6814 76.6012 72.6814 76.5973 72.6814 76.5934C72.6814 76.5895 72.6814 76.5856 72.6814 76.5818C72.6815 76.5779 72.6815 76.574 72.6815 76.5701C72.6815 76.5662 72.6815 76.5623 72.6816 76.5584C72.6816 76.5545 72.6816 76.5506 72.6816 76.5467C72.6816 76.5428 72.6816 76.5389 72.6817 76.535C72.6817 76.5311 72.6817 76.5272 72.6817 76.5233C72.6817 76.5194 72.6818 76.5156 72.6818 76.5117C72.6818 76.5078 72.6818 76.5039 72.6818 76.5C72.6818 76.4961 72.6819 76.4922 72.6819 76.4883C72.6819 76.4844 72.6819 76.4805 72.6819 76.4766C72.6819 76.4727 72.682 76.4688 72.682 76.465C72.682 76.4611 72.682 76.4572 72.682 76.4533C72.6821 76.4494 72.6821 76.4455 72.6821 76.4416C72.6821 76.4377 72.6821 76.4338 72.6821 76.4299C72.6822 76.426 72.6822 76.4222 72.6822 76.4183C72.6822 76.4144 72.6822 76.4105 72.6823 76.4066C72.6823 76.4027 72.6823 76.3988 72.6823 76.3949C72.6823 76.391 72.6823 76.3871 72.6824 76.3833C72.6824 76.3794 72.6824 76.3755 72.6824 76.3716C72.6824 76.3677 72.6824 76.3638 72.6825 76.3599C72.6825 76.356 72.6825 76.3521 72.6825 76.3483C72.6825 76.3444 72.6826 76.3405 72.6826 76.3366C72.6826 76.3327 72.6826 76.3288 72.6826 76.3249C72.6826 76.321 72.6827 76.3172 72.6827 76.3133C72.6827 76.3094 72.6827 76.3055 72.6827 76.3016C72.6828 76.2977 72.6828 76.2938 72.6828 76.29C72.6828 76.2861 72.6828 76.2822 72.6828 76.2783C72.6829 76.2744 72.6829 76.2705 72.6829 76.2666C72.6829 76.2627 72.6829 76.2589 72.6829 76.255C72.683 76.2511 72.683 76.2472 72.683 76.2433C72.683 76.2394 72.683 76.2356 72.6831 76.2317C72.6831 76.2278 72.6831 76.2239 72.6831 76.22C72.6831 76.2161 72.6831 76.2122 72.6832 76.2084C72.6832 76.2045 72.6832 76.2006 72.6832 76.1967C72.6832 76.1928 72.6833 76.1889 72.6833 76.1851C72.6833 76.1812 72.6833 76.1773 72.6833 76.1734C72.6833 76.1695 72.6834 76.1656 72.6834 76.1618C72.6834 76.1579 72.6834 76.154 72.6834 76.1501C72.6834 76.1462 72.6835 76.1424 72.6835 76.1385C72.6835 76.1346 72.6835 76.1307 72.6835 76.1268C72.6836 76.1229 72.6836 76.1191 72.6836 76.1152C72.6836 76.1113 72.6836 76.1074 72.6836 76.1035C72.6837 76.0997 72.6837 76.0958 72.6837 76.0919C72.6837 76.088 72.6837 76.0841 72.6837 76.0803C72.6838 76.0764 72.6838 76.0725 72.6838 76.0686C72.6838 76.0647 72.6838 76.0609 72.6839 76.057C72.6839 76.0531 72.6839 76.0492 72.6839 76.0453C72.6839 76.0415 72.6839 76.0376 72.684 76.0337C72.684 76.0298 72.684 76.0259 72.684 76.0221C72.684 76.0182 72.6841 76.0143 72.6841 76.0104C72.6841 76.0065 72.6841 76.0027 72.6841 75.9988C72.6841 75.9949 72.6842 75.991 72.6842 75.9872C72.6842 75.9833 72.6842 75.9794 72.6842 75.9755C72.6842 75.9717 72.6843 75.9678 72.6843 75.9639C72.6843 75.96 72.6843 75.9561 72.6843 75.9523C72.6844 75.9484 72.6844 75.9445 72.6844 75.9406C72.6844 75.9368 72.6844 75.9329 72.6844 75.929C72.6845 75.9251 72.6845 75.9213 72.6845 75.9174C72.6845 75.9135 72.6845 75.9096 72.6845 75.9058C72.6846 75.9019 72.6846 75.898 72.6846 75.8941C72.6846 75.8903 72.6846 75.8864 72.6847 75.8825L70.6847 75.8733C70.6847 75.8772 70.6846 75.8811 70.6846 75.885C70.6846 75.8888 70.6846 75.8927 70.6846 75.8966C70.6846 75.9005 70.6845 75.9043 70.6845 75.9082C70.6845 75.9121 70.6845 75.916 70.6845 75.9198C70.6844 75.9237 70.6844 75.9276 70.6844 75.9315C70.6844 75.9353 70.6844 75.9392 70.6844 75.9431C70.6843 75.947 70.6843 75.9508 70.6843 75.9547C70.6843 75.9586 70.6843 75.9625 70.6843 75.9664C70.6842 75.9702 70.6842 75.9741 70.6842 75.978C70.6842 75.9819 70.6842 75.9857 70.6841 75.9896C70.6841 75.9935 70.6841 75.9974 70.6841 76.0013C70.6841 76.0051 70.6841 76.009 70.684 76.0129C70.684 76.0168 70.684 76.0206 70.684 76.0245C70.684 76.0284 70.6839 76.0323 70.6839 76.0362C70.6839 76.04 70.6839 76.0439 70.6839 76.0478C70.6839 76.0517 70.6838 76.0556 70.6838 76.0594C70.6838 76.0633 70.6838 76.0672 70.6838 76.0711C70.6838 76.075 70.6837 76.0788 70.6837 76.0827C70.6837 76.0866 70.6837 76.0905 70.6837 76.0944C70.6836 76.0982 70.6836 76.1021 70.6836 76.106C70.6836 76.1099 70.6836 76.1138 70.6836 76.1177C70.6835 76.1215 70.6835 76.1254 70.6835 76.1293C70.6835 76.1332 70.6835 76.1371 70.6835 76.1409C70.6834 76.1448 70.6834 76.1487 70.6834 76.1526C70.6834 76.1565 70.6834 76.1604 70.6833 76.1642C70.6833 76.1681 70.6833 76.172 70.6833 76.1759C70.6833 76.1798 70.6833 76.1837 70.6832 76.1875C70.6832 76.1914 70.6832 76.1953 70.6832 76.1992C70.6832 76.2031 70.6831 76.207 70.6831 76.2108C70.6831 76.2147 70.6831 76.2186 70.6831 76.2225C70.6831 76.2264 70.683 76.2303 70.683 76.2341C70.683 76.238 70.683 76.2419 70.683 76.2458C70.683 76.2497 70.6829 76.2536 70.6829 76.2575C70.6829 76.2613 70.6829 76.2652 70.6829 76.2691C70.6828 76.273 70.6828 76.2769 70.6828 76.2808C70.6828 76.2847 70.6828 76.2886 70.6828 76.2924C70.6827 76.2963 70.6827 76.3002 70.6827 76.3041C70.6827 76.308 70.6827 76.3119 70.6826 76.3158C70.6826 76.3196 70.6826 76.3235 70.6826 76.3274C70.6826 76.3313 70.6826 76.3352 70.6825 76.3391C70.6825 76.343 70.6825 76.3469 70.6825 76.3508C70.6825 76.3546 70.6825 76.3585 70.6824 76.3624C70.6824 76.3663 70.6824 76.3702 70.6824 76.3741C70.6824 76.378 70.6823 76.3819 70.6823 76.3858C70.6823 76.3896 70.6823 76.3935 70.6823 76.3974C70.6823 76.4013 70.6822 76.4052 70.6822 76.4091C70.6822 76.413 70.6822 76.4169 70.6822 76.4208C70.6821 76.4247 70.6821 76.4285 70.6821 76.4324C70.6821 76.4363 70.6821 76.4402 70.6821 76.4441C70.682 76.448 70.682 76.4519 70.682 76.4558C70.682 76.4597 70.682 76.4636 70.682 76.4675C70.6819 76.4713 70.6819 76.4752 70.6819 76.4791C70.6819 76.483 70.6819 76.4869 70.6818 76.4908C70.6818 76.4947 70.6818 76.4986 70.6818 76.5025C70.6818 76.5064 70.6818 76.5103 70.6817 76.5142C70.6817 76.5181 70.6817 76.522 70.6817 76.5258C70.6817 76.5297 70.6816 76.5336 70.6816 76.5375C70.6816 76.5414 70.6816 76.5453 70.6816 76.5492C70.6816 76.5531 70.6815 76.557 70.6815 76.5609C70.6815 76.5648 70.6815 76.5687 70.6815 76.5726C70.6815 76.5765 70.6814 76.5804 70.6814 76.5843C70.6814 76.5882 70.6814 76.5921 70.6814 76.596C70.6813 76.5998 70.6813 76.6037 70.6813 76.6076C70.6813 76.6115 70.6813 76.6154 70.6813 76.6193C70.6812 76.6232 70.6812 76.6271 70.6812 76.631C70.6812 76.6349 70.6812 76.6388 70.6811 76.6427C70.6811 76.6466 70.6811 76.6505 70.6811 76.6544C70.6811 76.6583 70.6811 76.6622 70.681 76.6661C70.681 76.67 70.681 76.6739 70.681 76.6778C70.681 76.6817 70.681 76.6856 70.6809 76.6895C70.6809 76.6934 70.6809 76.6973 70.6809 76.7012C70.6809 76.7051 70.6808 76.709 70.6808 76.7129C70.6808 76.7168 70.6808 76.7207 70.6808 76.7246C70.6808 76.7285 70.6807 76.7324 70.6807 76.7363C70.6807 76.7402 70.6807 76.7441 70.6807 76.748C70.6806 76.7519 70.6806 76.7558 70.6806 76.7597C70.6806 76.7636 70.6806 76.7675 70.6806 76.7714C70.6805 76.7753 70.6805 76.7792 70.6805 76.7831C70.6805 76.787 70.6805 76.7909 70.6805 76.7948C70.6804 76.7987 70.6804 76.8026 70.6804 76.8065C70.6804 76.8104 70.6804 76.8143 70.6803 76.8182C70.6803 76.8221 70.6803 76.826 70.6803 76.8299C70.6803 76.8338 70.6803 76.8377 70.6802 76.8416C70.6802 76.8455 70.6802 76.8494 70.6802 76.8533C70.6802 76.8572 70.6801 76.8611 70.6801 76.865C70.6801 76.8689 70.6801 76.8728 70.6801 76.8767C70.6801 76.8806 70.68 76.8845 70.68 76.8885C70.68 76.8924 70.68 76.8963 70.68 76.9002C70.68 76.9041 70.6799 76.908 70.6799 76.9119C70.6799 76.9158 70.6799 76.9197 70.6799 76.9236C70.6798 76.9275 70.6798 76.9314 70.6798 76.9353C70.6798 76.9392 70.6798 76.9431 70.6798 76.947C70.6797 76.9509 70.6797 76.9548 70.6797 76.9587C70.6797 76.9627 70.6797 76.9666 70.6796 76.9705C70.6796 76.9744 70.6796 76.9783 70.6796 76.9822C70.6796 76.9861 70.6796 76.99 70.6795 76.9939C70.6795 76.9978 70.6795 77.0017 70.6795 77.0056C70.6795 77.0095 70.6794 77.0134 70.6794 77.0174C70.6794 77.0213 70.6794 77.0252 70.6794 77.0291C70.6794 77.033 70.6793 77.0369 70.6793 77.0408C70.6793 77.0447 70.6793 77.0486 70.6793 77.0525C70.6793 77.0564 70.6792 77.0603 70.6792 77.0643C70.6792 77.0682 70.6792 77.0721 70.6792 77.076C70.6791 77.0799 70.6791 77.0838 70.6791 77.0877C70.6791 77.0916 70.6791 77.0955 70.6791 77.0994C70.679 77.1034 70.679 77.1073 70.679 77.1112C70.679 77.1151 70.679 77.119 70.6789 77.1229C70.6789 77.1268 70.6789 77.1307 70.6789 77.1346C70.6789 77.1386 70.6789 77.1425 70.6788 77.1464C70.6788 77.1503 70.6788 77.1542 70.6788 77.1581C70.6788 77.162 70.6787 77.1659 70.6787 77.1699C70.6787 77.1738 70.6787 77.1777 70.6787 77.1816C70.6787 77.1855 70.6786 77.1894 70.6786 77.1933C70.6786 77.1972 70.6786 77.2012 70.6786 77.2051C70.6786 77.209 70.6785 77.2129 70.6785 77.2168C70.6785 77.2207 70.6785 77.2246 70.6785 77.2286C70.6784 77.2325 70.6784 77.2364 70.6784 77.2403C70.6784 77.2442 70.6784 77.2481 70.6784 77.252C70.6783 77.256 70.6783 77.2599 70.6783 77.2638C70.6783 77.2677 70.6783 77.2716 70.6782 77.2755C70.6782 77.2795 70.6782 77.2834 70.6782 77.2873C70.6782 77.2912 70.6782 77.2951 70.6781 77.299C70.6781 77.3029 70.6781 77.3069 70.6781 77.3108C70.6781 77.3147 70.678 77.3186 70.678 77.3225C70.678 77.3264 70.678 77.3304 70.678 77.3343C70.678 77.3382 70.6779 77.3421 70.6779 77.346C70.6779 77.35 70.6779 77.3539 70.6779 77.3578C70.6779 77.3617 70.6778 77.3656 70.6778 77.3695C70.6778 77.3735 70.6778 77.3774 70.6778 77.3813C70.6777 77.3852 70.6777 77.3891 70.6777 77.3931C70.6777 77.397 70.6777 77.4009 70.6777 77.4048C70.6776 77.4087 70.6776 77.4127 70.6776 77.4166C70.6776 77.4205 70.6776 77.4244 70.6775 77.4283C70.6775 77.4323 70.6775 77.4362 70.6775 77.4401C70.6775 77.444 70.6775 77.4479 70.6774 77.4519C70.6774 77.4558 70.6774 77.4597 70.6774 77.4636C70.6774 77.4675 70.6773 77.4715 70.6773 77.4754C70.6773 77.4793 70.6773 77.4832 70.6773 77.4871C70.6773 77.4911 70.6772 77.495 70.6772 77.4989C70.6772 77.5028 70.6772 77.5068 70.6772 77.5107C70.6772 77.5146 70.6771 77.5185 70.6771 77.5224C70.6771 77.5264 70.6771 77.5303 70.6771 77.5342C70.677 77.5381 70.677 77.5421 70.677 77.546C70.677 77.5499 70.677 77.5538 70.677 77.5578C70.6769 77.5617 70.6769 77.5656 70.6769 77.5695C70.6769 77.5735 70.6769 77.5774 70.6768 77.5813C70.6768 77.5852 70.6768 77.5892 70.6768 77.5931C70.6768 77.597 70.6768 77.6009 70.6767 77.6049C70.6767 77.6088 70.6767 77.6127 70.6767 77.6166C70.6767 77.6206 70.6766 77.6245 70.6766 77.6284C70.6766 77.6323 70.6766 77.6363 70.6766 77.6402C70.6766 77.6441 70.6765 77.648 70.6765 77.652C70.6765 77.6559 70.6765 77.6598 70.6765 77.6637C70.6764 77.6677 70.6764 77.6716 70.6764 77.6755C70.6764 77.6795 70.6764 77.6834 70.6764 77.6873C70.6763 77.6912 70.6763 77.6952 70.6763 77.6991C70.6763 77.703 70.6763 77.7069 70.6763 77.7109C70.6762 77.7148 70.6762 77.7187 70.6762 77.7227C70.6762 77.7266 70.6762 77.7305 70.6761 77.7344C70.6761 77.7384 70.6761 77.7423 70.6761 77.7462C70.6761 77.7502 70.6761 77.7541 70.676 77.758C70.676 77.762 70.676 77.7659 70.676 77.7698C70.676 77.7737 70.6759 77.7777 70.6759 77.7816C70.6759 77.7855 70.6759 77.7895 70.6759 77.7934C70.6759 77.7973 70.6758 77.8013 70.6758 77.8052C70.6758 77.8091 70.6758 77.8131 70.6758 77.817C70.6757 77.8209 70.6757 77.8248 70.6757 77.8288C70.6757 77.8327 70.6757 77.8366 70.6757 77.8406C70.6756 77.8445 70.6756 77.8484 70.6756 77.8524C70.6756 77.8563 70.6756 77.8602 70.6755 77.8642C70.6755 77.8681 70.6755 77.872 70.6755 77.876C70.6755 77.8799 70.6755 77.8838 70.6754 77.8878C70.6754 77.8917 70.6754 77.8956 70.6754 77.8996C70.6754 77.9035 70.6753 77.9074 70.6753 77.9114C70.6753 77.9153 70.6753 77.9192 70.6753 77.9232C70.6753 77.9271 70.6752 77.931 70.6752 77.935C70.6752 77.9389 70.6752 77.9428 70.6752 77.9468C70.6752 77.9507 70.6751 77.9547 70.6751 77.9586C70.6751 77.9625 70.6751 77.9665 70.6751 77.9704C70.675 77.9743 70.675 77.9783 70.675 77.9822C70.675 77.9861 70.675 77.9901 70.675 77.994C70.6749 77.998 70.6749 78.0019 70.6749 78.0058C70.6749 78.0098 70.6749 78.0137 70.6748 78.0176C70.6748 78.0216 70.6748 78.0255 70.6748 78.0294C70.6748 78.0334 70.6748 78.0373 70.6747 78.0413C70.6747 78.0452 70.6747 78.0491 70.6747 78.0531C70.6747 78.057 70.6746 78.061 70.6746 78.0649C70.6746 78.0688 70.6746 78.0728 70.6746 78.0767C70.6746 78.0806 70.6745 78.0846 70.6745 78.0885C70.6745 78.0925 70.6745 78.0964 70.6745 78.1003C70.6744 78.1043 70.6744 78.1082 70.6744 78.1122C70.6744 78.1161 70.6744 78.12 70.6744 78.124C70.6743 78.1279 70.6743 78.1319 70.6743 78.1358C70.6743 78.1397 70.6743 78.1437 70.6742 78.1476C70.6742 78.1516 70.6742 78.1555 70.6742 78.1595C70.6742 78.1634 70.6742 78.1673 70.6741 78.1713C70.6741 78.1752 70.6741 78.1792 70.6741 78.1831C70.6741 78.187 70.674 78.191 70.674 78.1949C70.674 78.1989 70.674 78.2028 70.674 78.2068C70.674 78.2107 70.6739 78.2146 70.6739 78.2186C70.6739 78.2225 70.6739 78.2265 70.6739 78.2304C70.6738 78.2344 70.6738 78.2383 70.6738 78.2422C70.6738 78.2462 70.6738 78.2501 70.6738 78.2541C70.6737 78.258 70.6737 78.262 70.6737 78.2659C70.6737 78.2699 70.6737 78.2738 70.6737 78.2777C70.6736 78.2817 70.6736 78.2856 70.6736 78.2896C70.6736 78.2935 70.6736 78.2975 70.6735 78.3014C70.6735 78.3054 70.6735 78.3093 70.6735 78.3133C70.6735 78.3172 70.6735 78.3211 70.6734 78.3251C70.6734 78.329 70.6734 78.333 70.6734 78.3369C70.6734 78.3409 70.6733 78.3448 70.6733 78.3488C70.6733 78.3527 70.6733 78.3567 70.6733 78.3606C70.6733 78.3646 70.6732 78.3685 70.6732 78.3725C70.6732 78.3764 70.6732 78.3804 70.6732 78.3843C70.6731 78.3882 70.6731 78.3922 70.6731 78.3961C70.6731 78.4001 70.6731 78.404 70.6731 78.408C70.673 78.4119 70.673 78.4159 70.673 78.4198C70.673 78.4238 70.673 78.4277 70.6729 78.4317C70.6729 78.4356 70.6729 78.4396 70.6729 78.4435C70.6729 78.4475 70.6729 78.4514 70.6728 78.4554C70.6728 78.4593 70.6728 78.4633 70.6728 78.4672C70.6728 78.4712 70.6727 78.4751 70.6727 78.4791C70.6727 78.483 70.6727 78.487 70.6727 78.4909C70.6727 78.4949 70.6726 78.4988 70.6726 78.5028C70.6726 78.5067 70.6726 78.5107 70.6726 78.5146C70.6725 78.5186 70.6725 78.5225 70.6725 78.5265C70.6725 78.5305 70.6725 78.5344 70.6725 78.5384C70.6724 78.5423 70.6724 78.5463 70.6724 78.5502C70.6724 78.5542 70.6724 78.5581 70.6723 78.5621C70.6723 78.566 70.6723 78.57 70.6723 78.5739C70.6723 78.5779 70.6723 78.5818 70.6722 78.5858C70.6722 78.5897 70.6722 78.5937 70.6722 78.5977C70.6722 78.6016 70.6721 78.6056 70.6721 78.6095C70.6721 78.6135 70.6721 78.6174 70.6721 78.6214C70.6721 78.6253 70.672 78.6293 70.672 78.6332C70.672 78.6372 70.672 78.6412 70.672 78.6451C70.6719 78.6491 70.6719 78.653 70.6719 78.657C70.6719 78.6609 70.6719 78.6649 70.6719 78.6689C70.6718 78.6728 70.6718 78.6768 70.6718 78.6807C70.6718 78.6847 70.6718 78.6886 70.6717 78.6926C70.6717 78.6965 70.6717 78.7005 70.6717 78.7045C70.6717 78.7084 70.6717 78.7124 70.6716 78.7163C70.6716 78.7203 70.6716 78.7242 70.6716 78.7282C70.6716 78.7322 70.6715 78.7361 70.6715 78.7401C70.6715 78.744 70.6715 78.748 70.6715 78.752C70.6715 78.7559 70.6714 78.7599 70.6714 78.7638C70.6714 78.7678 70.6714 78.7718 70.6714 78.7757C70.6713 78.7797 70.6713 78.7836 70.6713 78.7876C70.6713 78.7915 70.6713 78.7955 70.6713 78.7995C70.6712 78.8034 70.6712 78.8074 70.6712 78.8113C70.6712 78.8153 70.6712 78.8193 70.6711 78.8232C70.6711 78.8272 70.6711 78.8312 70.6711 78.8351C70.6711 78.8391 70.6711 78.843 70.671 78.847C70.671 78.851 70.671 78.8549 70.671 78.8589C70.671 78.8628 70.6709 78.8668 70.6709 78.8708C70.6709 78.8747 70.6709 78.8787 70.6709 78.8827C70.6709 78.8866 70.6708 78.8906 70.6708 78.8945C70.6708 78.8985 70.6708 78.9025 70.6708 78.9064C70.6707 78.9104 70.6707 78.9144 70.6707 78.9183C70.6707 78.9223 70.6707 78.9262 70.6707 78.9302C70.6706 78.9342 70.6706 78.9381 70.6706 78.9421C70.6706 78.9461 70.6706 78.95 70.6705 78.954C70.6705 78.958 70.6705 78.9619 70.6705 78.9659C70.6705 78.9699 70.6705 78.9738 70.6704 78.9778C70.6704 78.9817 70.6704 78.9857 70.6704 78.9897C70.6704 78.9936 70.6703 78.9976 70.6703 79.0016C70.6703 79.0055 70.6703 79.0095 70.6703 79.0135C70.6703 79.0174 70.6702 79.0214 70.6702 79.0254C70.6702 79.0293 70.6702 79.0333 70.6702 79.0373C70.6701 79.0412 70.6701 79.0452 70.6701 79.0492C70.6701 79.0531 70.6701 79.0571 70.6701 79.0611C70.67 79.065 70.67 79.069 70.67 79.073C70.67 79.0769 70.67 79.0809 70.6699 79.0849C70.6699 79.0889 70.6699 79.0928 70.6699 79.0968C70.6699 79.1008 70.6699 79.1047 70.6698 79.1087C70.6698 79.1127 70.6698 79.1166 70.6698 79.1206C70.6698 79.1246 70.6697 79.1285 70.6697 79.1325C70.6697 79.1365 70.6697 79.1405 70.6697 79.1444C70.6697 79.1484 70.6696 79.1524 70.6696 79.1563C70.6696 79.1603 70.6696 79.1643 70.6696 79.1682C70.6695 79.1722 70.6695 79.1762 70.6695 79.1802C70.6695 79.1841 70.6695 79.1881 70.6695 79.1921C70.6694 79.196 70.6694 79.2 70.6694 79.204C70.6694 79.208 70.6694 79.2119 70.6693 79.2159C70.6693 79.2199 70.6693 79.2238 70.6693 79.2278C70.6693 79.2318 70.6693 79.2358 70.6692 79.2397C70.6692 79.2437 70.6692 79.2477 70.6692 79.2517C70.6692 79.2556 70.6691 79.2596 70.6691 79.2636C70.6691 79.2675 70.6691 79.2715 70.6691 79.2755C70.6691 79.2795 70.669 79.2834 70.669 79.2874C70.669 79.2914 70.669 79.2954 70.669 79.2993C70.6689 79.3033 70.6689 79.3073 70.6689 79.3113C70.6689 79.3152 70.6689 79.3192 70.6689 79.3232C70.6688 79.3272 70.6688 79.3311 70.6688 79.3351C70.6688 79.3391 70.6688 79.3431 70.6687 79.347C70.6687 79.351 70.6687 79.355 70.6687 79.359C70.6687 79.3629 70.6687 79.3669 70.6686 79.3709C70.6686 79.3749 70.6686 79.3789 70.6686 79.3828C70.6686 79.3868 70.6685 79.3908 70.6685 79.3948C70.6685 79.3987 70.6685 79.4027 70.6685 79.4067C70.6685 79.4107 70.6684 79.4146 70.6684 79.4186C70.6684 79.4226 70.6684 79.4266 70.6684 79.4306C70.6683 79.4345 70.6683 79.4385 70.6683 79.4425C70.6683 79.4465 70.6683 79.4505 70.6683 79.4544C70.6682 79.4584 70.6682 79.4624 70.6682 79.4664C70.6682 79.4703 70.6682 79.4743 70.6681 79.4783C70.6681 79.4823 70.6681 79.4863 70.6681 79.4902C70.6681 79.4942 70.6681 79.4982 70.668 79.5022C70.668 79.5062 70.668 79.5101 70.668 79.5141C70.668 79.5181 70.6679 79.5221 70.6679 79.5261C70.6679 79.53 70.6679 79.534 70.6679 79.538C70.6679 79.542 70.6678 79.546 70.6678 79.55C70.6678 79.5539 70.6678 79.5579 70.6678 79.5619C70.6677 79.5659 70.6677 79.5699 70.6677 79.5738C70.6677 79.5778 70.6677 79.5818 70.6677 79.5858C70.6676 79.5898 70.6676 79.5938 70.6676 79.5977C70.6676 79.6017 70.6676 79.6057 70.6675 79.6097C70.6675 79.6137 70.6675 79.6177 70.6675 79.6216C70.6675 79.6256 70.6675 79.6296 70.6674 79.6336C70.6674 79.6376 70.6674 79.6416 70.6674 79.6455C70.6674 79.6495 70.6673 79.6535 70.6673 79.6575C70.6673 79.6615 70.6673 79.6655 70.6673 79.6695C70.6672 79.6734 70.6672 79.6774 70.6672 79.6814C70.6672 79.6854 70.6672 79.6894 70.6672 79.6934C70.6671 79.6974 70.6671 79.7013 70.6671 79.7053C70.6671 79.7093 70.6671 79.7133 70.667 79.7173C70.667 79.7213 70.667 79.7253 70.667 79.7292C70.667 79.7332 70.667 79.7372 70.6669 79.7412C70.6669 79.7452 70.6669 79.7492 70.6669 79.7532C70.6669 79.7572 70.6668 79.7611 70.6668 79.7651C70.6668 79.7691 70.6668 79.7731 70.6668 79.7771C70.6668 79.7811 70.6667 79.7851 70.6667 79.7891C70.6667 79.7931 70.6667 79.797 70.6667 79.801C70.6666 79.805 70.6666 79.809 70.6666 79.813C70.6666 79.817 70.6666 79.821 70.6666 79.825C70.6665 79.829 70.6665 79.8329 70.6665 79.8369C70.6665 79.8409 70.6665 79.8449 70.6664 79.8489C70.6664 79.8529 70.6664 79.8569 70.6664 79.8609C70.6664 79.8649 70.6664 79.8689 70.6663 79.8728C70.6663 79.8768 70.6663 79.8808 70.6663 79.8848C70.6663 79.8888 70.6662 79.8928 70.6662 79.8968C70.6662 79.9008 70.6662 79.9048 70.6662 79.9088C70.6662 79.9128 70.6661 79.9168 70.6661 79.9207C70.6661 79.9247 70.6661 79.9287 70.6661 79.9327C70.666 79.9367 70.666 79.9407 70.666 79.9447C70.666 79.9487 70.666 79.9527 70.666 79.9567C70.6659 79.9607 70.6659 79.9647 70.6659 79.9687C70.6659 79.9727 70.6659 79.9767 70.6658 79.9806C70.6658 79.9846 70.6658 79.9886 70.6658 79.9926C70.6658 79.9966 70.6657 80.0006 70.6657 80.0046C70.6657 80.0086 70.6657 80.0126 70.6657 80.0166C70.6657 80.0206 70.6656 80.0246 70.6656 80.0286C70.6656 80.0326 70.6656 80.0366 70.6656 80.0406C70.6655 80.0446 70.6655 80.0486 70.6655 80.0526C70.6655 80.0566 70.6655 80.0605 70.6655 80.0645C70.6654 80.0685 70.6654 80.0725 70.6654 80.0765C70.6654 80.0805 70.6654 80.0845 70.6653 80.0885C70.6653 80.0925 70.6653 80.0965 70.6653 80.1005C70.6653 80.1045 70.6653 80.1085 70.6652 80.1125C70.6652 80.1165 70.6652 80.1205 70.6652 80.1245C70.6652 80.1285 70.6651 80.1325 70.6651 80.1365C70.6651 80.1405 70.6651 80.1445 70.6651 80.1485C70.6651 80.1525 70.665 80.1565 70.665 80.1605C70.665 80.1645 70.665 80.1685 70.665 80.1725C70.6649 80.1765 70.6649 80.1805 70.6649 80.1845C70.6649 80.1885 70.6649 80.1925 70.6649 80.1965C70.6648 80.2005 70.6648 80.2045 70.6648 80.2085C70.6648 80.2125 70.6648 80.2165 70.6647 80.2205C70.6647 80.2245 70.6647 80.2285 70.6647 80.2325C70.6647 80.2365 70.6646 80.2405 70.6646 80.2445C70.6646 80.2485 70.6646 80.2525 70.6646 80.2565C70.6646 80.2605 70.6645 80.2645 70.6645 80.2685C70.6645 80.2725 70.6645 80.2765 70.6645 80.2805C70.6644 80.2845 70.6644 80.2885 70.6644 80.2925C70.6644 80.2965 70.6644 80.3005 70.6644 80.3045C70.6643 80.3085 70.6643 80.3125 70.6643 80.3165C70.6643 80.3206 70.6643 80.3246 70.6642 80.3286C70.6642 80.3326 70.6642 80.3366 70.6642 80.3406C70.6642 80.3446 70.6642 80.3486 70.6641 80.3526C70.6641 80.3566 70.6641 80.3606 70.6641 80.3646C70.6641 80.3686 70.664 80.3726 70.664 80.3766C70.664 80.3806 70.664 80.3846 70.664 80.3886C70.664 80.3926 70.6639 80.3966 70.6639 80.4007C70.6639 80.4047 70.6639 80.4087 70.6639 80.4127C70.6638 80.4167 70.6638 80.4207 70.6638 80.4247C70.6638 80.4287 70.6638 80.4327 70.6637 80.4367C70.6637 80.4407 70.6637 80.4447 70.6637 80.4487C70.6637 80.4527 70.6637 80.4567 70.6636 80.4608C70.6636 80.4648 70.6636 80.4688 70.6636 80.4728C70.6636 80.4768 70.6635 80.4808 70.6635 80.4848C70.6635 80.4888 70.6635 80.4928 70.6635 80.4968C70.6635 80.5008 70.6634 80.5048 70.6634 80.5089C70.6634 80.5129 70.6634 80.5169 70.6634 80.5209C70.6633 80.5249 70.6633 80.5289 70.6633 80.5329C70.6633 80.5369 70.6633 80.5409 70.6633 80.5449C70.6632 80.549 70.6632 80.553 70.6632 80.557C70.6632 80.561 70.6632 80.565 70.6631 80.569C70.6631 80.573 70.6631 80.577 70.6631 80.581C70.6631 80.5851 70.663 80.5891 70.663 80.5931C70.663 80.5971 70.663 80.6011 70.663 80.6051C70.663 80.6091 70.6629 80.6131 70.6629 80.6171C70.6629 80.6212 70.6629 80.6252 70.6629 80.6292C70.6628 80.6332 70.6628 80.6372 70.6628 80.6412C70.6628 80.6452 70.6628 80.6492 70.6628 80.6533C70.6627 80.6573 70.6627 80.6613 70.6627 80.6653C70.6627 80.6693 70.6627 80.6733 70.6626 80.6773C70.6626 80.6814 70.6626 80.6854 70.6626 80.6894C70.6626 80.6934 70.6626 80.6974 70.6625 80.7014C70.6625 80.7054 70.6625 80.7095 70.6625 80.7135C70.6625 80.7175 70.6624 80.7215 70.6624 80.7255C70.6624 80.7295 70.6624 80.7336 70.6624 80.7376C70.6624 80.7416 70.6623 80.7456 70.6623 80.7496C70.6623 80.7536 70.6623 80.7576 70.6623 80.7617C70.6622 80.7657 70.6622 80.7697 70.6622 80.7737C70.6622 80.7777 70.6622 80.7817 70.6621 80.7858C70.6621 80.7898 70.6621 80.7938 70.6621 80.7978C70.6621 80.8018 70.6621 80.8059 70.662 80.8099C70.662 80.8139 70.662 80.8179 70.662 80.8219C70.662 80.8259 70.6619 80.83 70.6619 80.834C70.6619 80.838 70.6619 80.842 70.6619 80.846C70.6619 80.8501 70.6618 80.8541 70.6618 80.8581C70.6618 80.8621 70.6618 80.8661 70.6618 80.8701C70.6617 80.8742 70.6617 80.8782 70.6617 80.8822C70.6617 80.8862 70.6617 80.8902 70.6617 80.8943C70.6616 80.8983 70.6616 80.9023 70.6616 80.9063C70.6616 80.9103 70.6616 80.9144 70.6615 80.9184C70.6615 80.9224 70.6615 80.9264 70.6615 80.9305C70.6615 80.9345 70.6614 80.9385 70.6614 80.9425C70.6614 80.9465 70.6614 80.9506 70.6614 80.9546C70.6614 80.9586 70.6613 80.9626 70.6613 80.9666C70.6613 80.9707 70.6613 80.9747 70.6613 80.9787C70.6612 80.9827 70.6612 80.9868 70.6612 80.9908C70.6612 80.9948 70.6612 80.9988 70.6612 81.0029C70.6611 81.0069 70.6611 81.0109 70.6611 81.0149C70.6611 81.0189 70.6611 81.023 70.661 81.027C70.661 81.031 70.661 81.035 70.661 81.0391C70.661 81.0431 70.6609 81.0471 70.6609 81.0511C70.6609 81.0552 70.6609 81.0592 70.6609 81.0632C70.6609 81.0672 70.6608 81.0713 70.6608 81.0753C70.6608 81.0793 70.6608 81.0833 70.6608 81.0874C70.6607 81.0914 70.6607 81.0954 70.6607 81.0994C70.6607 81.1035 70.6607 81.1075 70.6607 81.1115C70.6606 81.1156 70.6606 81.1196 70.6606 81.1236C70.6606 81.1276 70.6606 81.1317 70.6605 81.1357C70.6605 81.1397 70.6605 81.1437 70.6605 81.1478C70.6605 81.1518 70.6605 81.1558 70.6604 81.1598C70.6604 81.1639 70.6604 81.1679 70.6604 81.1719C70.6604 81.176 70.6603 81.18 70.6603 81.184C70.6603 81.188 70.6603 81.1921 70.6603 81.1961C70.6602 81.2001 70.6602 81.2042 70.6602 81.2082C70.6602 81.2122 70.6602 81.2162 70.6602 81.2203C70.6601 81.2243 70.6601 81.2283 70.6601 81.2324C70.6601 81.2364 70.6601 81.2404 70.66 81.2445C70.66 81.2485 70.66 81.2525 70.66 81.2565C70.66 81.2606 70.66 81.2646 70.6599 81.2686C70.6599 81.2727 70.6599 81.2767 70.6599 81.2807C70.6599 81.2848 70.6598 81.2888 70.6598 81.2928C70.6598 81.2969 70.6598 81.3009 70.6598 81.3049C70.6597 81.309 70.6597 81.313 70.6597 81.317C70.6597 81.3211 70.6597 81.3251 70.6597 81.3291C70.6596 81.3331 70.6596 81.3372 70.6596 81.3412C70.6596 81.3452 70.6596 81.3493 70.6595 81.3533C70.6595 81.3573 70.6595 81.3614 70.6595 81.3654C70.6595 81.3694 70.6595 81.3735 70.6594 81.3775C70.6594 81.3815 70.6594 81.3856 70.6594 81.3896C70.6594 81.3937 70.6593 81.3977 70.6593 81.4017C70.6593 81.4058 70.6593 81.4098 70.6593 81.4138C70.6592 81.4179 70.6592 81.4219 70.6592 81.4259C70.6592 81.43 70.6592 81.434 70.6592 81.438C70.6591 81.4421 70.6591 81.4461 70.6591 81.4501C70.6591 81.4542 70.6591 81.4582 70.659 81.4623C70.659 81.4663 70.659 81.4703 70.659 81.4744C70.659 81.4784 70.659 81.4824 70.6589 81.4865C70.6589 81.4905 70.6589 81.4945 70.6589 81.4986C70.6589 81.5026 70.6588 81.5067 70.6588 81.5107C70.6588 81.5147 70.6588 81.5188 70.6588 81.5228C70.6587 81.5269 70.6587 81.5309 70.6587 81.5349C70.6587 81.539 70.6587 81.543 70.6587 81.547C70.6586 81.5511 70.6586 81.5551 70.6586 81.5592C70.6586 81.5632 70.6586 81.5672 70.6585 81.5713C70.6585 81.5753 70.6585 81.5794 70.6585 81.5834C70.6585 81.5874 70.6585 81.5915 70.6584 81.5955C70.6584 81.5996 70.6584 81.6036 70.6584 81.6076C70.6584 81.6117 70.6583 81.6157 70.6583 81.6198C70.6583 81.6238 70.6583 81.6278 70.6583 81.6319C70.6582 81.6359 70.6582 81.64 70.6582 81.644C70.6582 81.648 70.6582 81.6521 70.6582 81.6561C70.6581 81.6602 70.6581 81.6642 70.6581 81.6683C70.6581 81.6723 70.6581 81.6763 70.658 81.6804C70.658 81.6844 70.658 81.6885 70.658 81.6925C70.658 81.6966 70.658 81.7006 70.6579 81.7046C70.6579 81.7087 70.6579 81.7127 70.6579 81.7168C70.6579 81.7208 70.6578 81.7249 70.6578 81.7289C70.6578 81.7329 70.6578 81.737 70.6578 81.741C70.6577 81.7451 70.6577 81.7491 70.6577 81.7532C70.6577 81.7572 70.6577 81.7613 70.6577 81.7653C70.6576 81.7693 70.6576 81.7734 70.6576 81.7774C70.6576 81.7815 70.6576 81.7855 70.6575 81.7896C70.6575 81.7936 70.6575 81.7977 70.6575 81.8017C70.6575 81.8058 70.6575 81.8098 70.6574 81.8139C70.6574 81.8179 70.6574 81.8219 70.6574 81.826C70.6574 81.83 70.6573 81.8341 70.6573 81.8381C70.6573 81.8422 70.6573 81.8462 70.6573 81.8503C70.6572 81.8543 70.6572 81.8584 70.6572 81.8624C70.6572 81.8665 70.6572 81.8705 70.6572 81.8746C70.6571 81.8786 70.6571 81.8827 70.6571 81.8867C70.6571 81.8908 70.6571 81.8948 70.657 81.8988C70.657 81.9029 70.657 81.9069 70.657 81.911C70.657 81.915 70.6569 81.9191 70.6569 81.9231C70.6569 81.9272 70.6569 81.9312 70.6569 81.9353C70.6569 81.9393 70.6568 81.9434 70.6568 81.9474C70.6568 81.9515 70.6568 81.9555 70.6568 81.9596L72.6567 81.9688ZM72.6847 75.8825C72.6943 73.7807 72.6138 71.4124 72.4444 68.7795L70.4485 68.9079C70.6157 71.5063 70.6941 73.8275 70.6847 75.8733L72.6847 75.8825ZM72.4463 68.8277C72.3041 59.9575 70.2311 53.2091 66.0394 48.7865L64.5878 50.1623C68.2928 54.0714 70.3083 60.2358 70.4466 68.8597L72.4463 68.8277ZM66.0468 48.7943C61.8222 44.24 54.8195 42.0694 45.3304 42.0258L45.3212 44.0258C54.5867 44.0683 60.9093 46.1967 64.5805 50.1545L66.0468 48.7943ZM45.3304 42.0258L25.4486 41.9347L25.4394 43.9346L45.3212 44.0258L45.3304 42.0258ZM24.444 42.9301L24.1153 114.613L26.1152 114.622L26.444 42.9392L24.444 42.9301Z" fill="#384D4B" mask="url(#path-26-outside-1_727_3)"/>
<path d="M50.4906 85.3545L50.4907 85.3547C50.5728 85.451 50.5729 85.5976 50.4982 85.6956L50.4632 85.7271C50.3641 85.8163 50.2203 85.8054 50.1364 85.706L50.1351 85.7044L48.6431 83.9507L48.6422 83.9496C48.6048 83.9059 48.5799 83.8416 48.5802 83.773L48.5881 82.0418L48.5889 81.8717L48.4859 81.7365L47.731 80.7455L46.84 79.5758L46.8333 81.0462L46.8242 83.018C46.823 83.295 46.5989 83.517 46.322 83.5157C46.045 83.5145 45.823 83.2904 45.8243 83.0135L45.8333 81.0416L45.84 79.5712L44.9384 80.7327L44.1745 81.7167L44.0702 81.851L44.0694 82.021L44.0615 83.7523C44.0612 83.8209 44.0357 83.8849 43.9979 83.9283L43.9969 83.9294L42.4911 85.6669C42.4908 85.6672 42.4906 85.6675 42.4903 85.6677C42.4009 85.7687 42.256 85.7755 42.1585 85.6872C42.0591 85.597 42.0437 85.4256 42.1407 85.312C42.1409 85.3118 42.1411 85.3116 42.1412 85.3114L43.4624 83.7879L43.5838 83.6479L43.5847 83.4626L43.5925 81.7532C43.5928 81.6907 43.6134 81.6325 43.6491 81.5863C43.6492 81.5862 43.6492 81.5861 43.6493 81.586L45.7394 78.8961L45.8438 78.7618L45.8445 78.5916L45.8446 78.5823L45.8498 77.4493L45.0093 78.209L40.8232 81.993L40.81 82.0049L40.7978 82.0176C39.357 83.5179 36.8266 82.4924 36.8369 80.2472C36.8427 78.9827 37.742 77.9523 38.8889 77.8054L38.8889 77.8055L38.9002 77.8038L43.6849 77.0788L44.6562 76.9317L43.9656 76.233L42.6964 74.949L42.696 74.9486C42.6147 74.8666 42.5936 74.7288 42.6566 74.6181C42.6568 74.6179 42.6569 74.6176 42.6571 74.6173L43.4087 73.3197L43.5737 73.0349L43.3774 72.7708L42.1919 71.176C42.1918 71.1759 42.1917 71.1757 42.1916 71.1755C42.1028 71.0547 42.1303 70.8851 42.2367 70.802C42.3387 70.7223 42.4819 70.7384 42.565 70.8493C42.5651 70.8494 42.5652 70.8495 42.5653 70.8496L44.0546 72.8513C44.0547 72.8514 44.0548 72.8516 44.0549 72.8517C44.1203 72.9404 44.127 73.0598 44.0727 73.1544C44.0726 73.1545 44.0726 73.1546 44.0725 73.1547L43.3611 74.385L43.1698 74.7158L43.4387 74.9872L45.0003 76.5632L45.8499 77.4206L45.8554 76.2135L45.8609 75.0229C45.862 74.7919 46.0211 74.5956 46.2393 74.5397L46.3633 74.508L46.4869 74.5408C46.7047 74.5987 46.862 74.7965 46.8609 75.0275L46.8554 76.2212L46.8499 77.43L47.7077 76.5784L49.2836 75.0137L49.5554 74.7439L49.3657 74.4113L48.6632 73.1789C48.6631 73.1786 48.6629 73.1783 48.6628 73.1781C48.6096 73.0831 48.6176 72.9639 48.6836 72.876C48.6837 72.8759 48.6838 72.8758 48.6839 72.8757L50.1922 70.8868L50.1929 70.8859C50.275 70.7771 50.4167 70.7605 50.5205 70.8431C50.629 70.9295 50.6523 71.0988 50.5637 71.2151L50.5629 71.2162L49.3619 72.8013L49.1635 73.0631L49.325 73.3491L50.0621 74.6544C50.0622 74.6546 50.0623 74.6548 50.0624 74.6549C50.1245 74.7662 50.1022 74.9039 50.0201 74.9853L50.0196 74.9857L48.7388 76.258L48.0418 76.9503L49.0117 77.1064L53.7895 77.8752L53.7895 77.8754L53.8022 77.8771C54.9532 78.032 55.8424 79.0702 55.8367 80.3344C55.8264 82.5796 53.2863 83.5821 51.8593 82.0711L51.8474 82.0585L51.8346 82.0468L47.6834 78.2214L46.8498 77.4533L46.8446 78.5868L46.8445 78.5962L46.8437 78.7664L46.947 78.9017L49.0153 81.6137C49.0153 81.6138 49.0154 81.6139 49.0154 81.6139C49.0508 81.6605 49.0709 81.7189 49.0706 81.7815L49.0627 83.4908L49.0619 83.6761L49.182 83.8172L50.4906 85.3545Z" fill="#384D4B" stroke="#384D4B"/>
</svg>
