<svg width="315" height="137" viewBox="0 0 315 137" fill="none" xmlns="http://www.w3.org/2000/svg">
<path d="M97.1857 122C97.0612 122 96.9553 121.963 96.8681 121.888C96.7934 121.813 96.756 121.714 96.756 121.589V109.353C96.756 109.216 96.7934 109.11 96.8681 109.035C96.9553 108.961 97.0612 108.923 97.1857 108.923H97.6527C97.7773 108.923 97.8707 108.954 97.9329 109.017C97.9952 109.079 98.0326 109.129 98.045 109.166L102.286 117.423L106.545 109.166C106.57 109.129 106.607 109.079 106.657 109.017C106.719 108.954 106.813 108.923 106.937 108.923H107.386C107.523 108.923 107.628 108.961 107.703 109.035C107.778 109.11 107.815 109.216 107.815 109.353V121.589C107.815 121.714 107.778 121.813 107.703 121.888C107.628 121.963 107.523 122 107.386 122H107.049C106.925 122 106.825 121.963 106.75 121.888C106.676 121.813 106.638 121.714 106.638 121.589V111.464L103.07 118.488C103.02 118.612 102.946 118.706 102.846 118.768C102.759 118.83 102.641 118.862 102.491 118.862H102.08C101.931 118.862 101.812 118.83 101.725 118.768C101.638 118.706 101.563 118.612 101.501 118.488L97.9329 111.464V121.589C97.9329 121.714 97.8956 121.813 97.8208 121.888C97.7461 121.963 97.6465 122 97.522 122H97.1857ZM119.646 122.187C118.749 122.187 117.995 122 117.385 121.626C116.787 121.253 116.326 120.742 116.003 120.095C115.691 119.447 115.523 118.725 115.498 117.928C115.486 117.741 115.48 117.479 115.48 117.143C115.48 116.807 115.486 116.545 115.498 116.358C115.523 115.549 115.691 114.826 116.003 114.191C116.326 113.544 116.787 113.033 117.385 112.659C117.995 112.286 118.749 112.099 119.646 112.099C120.542 112.099 121.289 112.286 121.887 112.659C122.497 113.033 122.958 113.544 123.27 114.191C123.593 114.826 123.768 115.549 123.793 116.358C123.805 116.545 123.811 116.807 123.811 117.143C123.811 117.479 123.805 117.741 123.793 117.928C123.768 118.725 123.593 119.447 123.27 120.095C122.958 120.742 122.497 121.253 121.887 121.626C121.289 122 120.542 122.187 119.646 122.187ZM119.646 121.103C120.517 121.103 121.227 120.823 121.775 120.263C122.323 119.702 122.616 118.893 122.653 117.834C122.666 117.647 122.672 117.417 122.672 117.143C122.672 116.869 122.666 116.639 122.653 116.452C122.616 115.381 122.323 114.571 121.775 114.023C121.227 113.463 120.517 113.183 119.646 113.183C118.774 113.183 118.064 113.463 117.516 114.023C116.968 114.571 116.675 115.381 116.638 116.452C116.625 116.639 116.619 116.869 116.619 117.143C116.619 117.417 116.625 117.647 116.638 117.834C116.675 118.893 116.968 119.702 117.516 120.263C118.064 120.823 118.774 121.103 119.646 121.103ZM134.303 122.187C133.655 122.187 133.095 122.1 132.622 121.925C132.161 121.751 131.781 121.545 131.482 121.309C131.183 121.06 130.959 120.817 130.81 120.58C130.673 120.344 130.598 120.163 130.585 120.038C130.573 119.901 130.617 119.802 130.716 119.74C130.816 119.665 130.909 119.627 130.996 119.627H131.277C131.351 119.627 131.414 119.64 131.464 119.665C131.526 119.69 131.601 119.758 131.688 119.87C131.85 120.082 132.036 120.288 132.248 120.487C132.46 120.674 132.728 120.823 133.051 120.935C133.388 121.047 133.805 121.103 134.303 121.103C135.05 121.103 135.667 120.96 136.152 120.674C136.638 120.387 136.881 119.964 136.881 119.403C136.881 119.055 136.781 118.774 136.582 118.563C136.395 118.351 136.072 118.164 135.611 118.002C135.15 117.84 134.527 117.672 133.743 117.498C132.958 117.311 132.354 117.087 131.931 116.825C131.52 116.564 131.239 116.265 131.09 115.929C130.94 115.58 130.866 115.206 130.866 114.808C130.866 114.372 130.99 113.948 131.239 113.537C131.488 113.114 131.856 112.772 132.342 112.51C132.84 112.236 133.462 112.099 134.21 112.099C134.82 112.099 135.337 112.18 135.76 112.342C136.196 112.504 136.551 112.703 136.825 112.94C137.099 113.164 137.298 113.388 137.423 113.612C137.56 113.836 137.635 114.017 137.647 114.154C137.659 114.278 137.622 114.378 137.535 114.453C137.448 114.528 137.348 114.565 137.236 114.565H136.956C136.856 114.565 136.775 114.546 136.713 114.509C136.651 114.459 136.595 114.397 136.545 114.322C136.42 114.123 136.271 113.936 136.096 113.762C135.922 113.587 135.685 113.45 135.387 113.351C135.1 113.239 134.708 113.183 134.21 113.183C133.462 113.183 132.908 113.338 132.547 113.65C132.186 113.948 132.005 114.335 132.005 114.808C132.005 115.082 132.08 115.325 132.229 115.536C132.379 115.736 132.659 115.922 133.07 116.097C133.481 116.259 134.079 116.433 134.863 116.62C135.661 116.794 136.289 117.012 136.75 117.274C137.211 117.523 137.535 117.822 137.722 118.17C137.921 118.519 138.021 118.93 138.021 119.403C138.021 119.901 137.877 120.362 137.591 120.786C137.317 121.209 136.9 121.552 136.339 121.813C135.791 122.062 135.113 122.187 134.303 122.187ZM152.353 125.549C152.228 125.549 152.128 125.512 152.054 125.437C151.979 125.363 151.942 125.263 151.942 125.138V120.711C151.63 121.122 151.219 121.471 150.709 121.757C150.21 122.044 149.575 122.187 148.803 122.187C148.081 122.187 147.464 122.062 146.954 121.813C146.455 121.552 146.051 121.209 145.739 120.786C145.428 120.362 145.198 119.889 145.048 119.366C144.911 118.843 144.83 118.307 144.805 117.759C144.793 117.573 144.787 117.367 144.787 117.143C144.787 116.919 144.793 116.713 144.805 116.526C144.83 115.978 144.911 115.443 145.048 114.92C145.198 114.397 145.428 113.924 145.739 113.5C146.051 113.077 146.455 112.74 146.954 112.491C147.464 112.23 148.081 112.099 148.803 112.099C149.575 112.099 150.21 112.242 150.709 112.529C151.219 112.803 151.63 113.151 151.942 113.575V112.697C151.942 112.572 151.979 112.473 152.054 112.398C152.128 112.323 152.228 112.286 152.353 112.286H152.67C152.795 112.286 152.894 112.323 152.969 112.398C153.044 112.473 153.081 112.572 153.081 112.697V125.138C153.081 125.263 153.044 125.363 152.969 125.437C152.894 125.512 152.795 125.549 152.67 125.549H152.353ZM148.915 121.103C149.613 121.103 150.179 120.941 150.615 120.618C151.051 120.294 151.375 119.889 151.587 119.403C151.811 118.918 151.929 118.426 151.942 117.928C151.954 117.741 151.96 117.498 151.96 117.199C151.96 116.9 151.954 116.657 151.942 116.47C151.929 115.96 151.817 115.455 151.605 114.957C151.394 114.447 151.07 114.023 150.634 113.687C150.198 113.351 149.625 113.183 148.915 113.183C148.193 113.183 147.614 113.344 147.178 113.668C146.754 113.992 146.449 114.415 146.262 114.939C146.076 115.462 145.97 116.022 145.945 116.62C145.932 116.969 145.932 117.317 145.945 117.666C145.97 118.264 146.076 118.824 146.262 119.347C146.449 119.87 146.754 120.294 147.178 120.618C147.614 120.941 148.193 121.103 148.915 121.103ZM164.627 122.187C163.78 122.187 163.076 122.006 162.516 121.645C161.968 121.271 161.557 120.767 161.283 120.132C161.022 119.497 160.891 118.787 160.891 118.002V112.697C160.891 112.572 160.928 112.473 161.003 112.398C161.078 112.323 161.177 112.286 161.302 112.286H161.619C161.744 112.286 161.844 112.323 161.918 112.398C161.993 112.473 162.03 112.572 162.03 112.697V117.909C162.03 120.038 162.958 121.103 164.814 121.103C165.698 121.103 166.408 120.823 166.943 120.263C167.479 119.69 167.747 118.905 167.747 117.909V112.697C167.747 112.572 167.784 112.473 167.859 112.398C167.934 112.323 168.033 112.286 168.158 112.286H168.475C168.6 112.286 168.7 112.323 168.774 112.398C168.849 112.473 168.886 112.572 168.886 112.697V121.589C168.886 121.714 168.849 121.813 168.774 121.888C168.7 121.963 168.6 122 168.475 122H168.158C168.033 122 167.934 121.963 167.859 121.888C167.784 121.813 167.747 121.714 167.747 121.589V120.711C167.411 121.147 167.006 121.502 166.532 121.776C166.072 122.05 165.437 122.187 164.627 122.187ZM177.18 122C177.055 122 176.956 121.963 176.881 121.888C176.806 121.813 176.769 121.714 176.769 121.589V112.697C176.769 112.572 176.806 112.473 176.881 112.398C176.956 112.323 177.055 112.286 177.18 112.286H177.498C177.622 112.286 177.722 112.323 177.796 112.398C177.871 112.473 177.909 112.572 177.909 112.697V121.589C177.909 121.714 177.871 121.813 177.796 121.888C177.722 121.963 177.622 122 177.498 122H177.18ZM176.975 110.287C176.85 110.287 176.75 110.25 176.676 110.175C176.601 110.1 176.564 110 176.564 109.876V109.166C176.564 109.042 176.601 108.942 176.676 108.867C176.75 108.78 176.85 108.736 176.975 108.736H177.684C177.809 108.736 177.909 108.78 177.983 108.867C178.07 108.942 178.114 109.042 178.114 109.166V109.876C178.114 110 178.07 110.1 177.983 110.175C177.909 110.25 177.809 110.287 177.684 110.287H176.975ZM189.055 122C188.407 122 187.897 121.863 187.523 121.589C187.149 121.315 186.888 120.941 186.738 120.468C186.589 119.995 186.514 119.466 186.514 118.88V113.369H185.057C184.932 113.369 184.833 113.332 184.758 113.257C184.683 113.183 184.646 113.083 184.646 112.958V112.697C184.646 112.572 184.683 112.473 184.758 112.398C184.833 112.323 184.932 112.286 185.057 112.286H186.514V109.147C186.514 109.023 186.552 108.923 186.626 108.848C186.701 108.774 186.801 108.736 186.925 108.736H187.243C187.367 108.736 187.467 108.774 187.542 108.848C187.616 108.923 187.654 109.023 187.654 109.147V112.286H189.97C190.095 112.286 190.194 112.323 190.269 112.398C190.344 112.473 190.381 112.572 190.381 112.697V112.958C190.381 113.083 190.344 113.183 190.269 113.257C190.194 113.332 190.095 113.369 189.97 113.369H187.654V118.806C187.654 119.466 187.76 119.982 187.971 120.356C188.195 120.73 188.588 120.916 189.148 120.916H190.157C190.282 120.916 190.381 120.954 190.456 121.029C190.531 121.103 190.568 121.203 190.568 121.327V121.589C190.568 121.714 190.531 121.813 190.456 121.888C190.381 121.963 190.282 122 190.157 122H189.055ZM201.055 122.187C200.158 122.187 199.405 122 198.795 121.626C198.197 121.253 197.736 120.742 197.412 120.095C197.101 119.447 196.933 118.725 196.908 117.928C196.895 117.741 196.889 117.479 196.889 117.143C196.889 116.807 196.895 116.545 196.908 116.358C196.933 115.549 197.101 114.826 197.412 114.191C197.736 113.544 198.197 113.033 198.795 112.659C199.405 112.286 200.158 112.099 201.055 112.099C201.952 112.099 202.699 112.286 203.297 112.659C203.907 113.033 204.368 113.544 204.679 114.191C205.003 114.826 205.177 115.549 205.202 116.358C205.215 116.545 205.221 116.807 205.221 117.143C205.221 117.479 205.215 117.741 205.202 117.928C205.177 118.725 205.003 119.447 204.679 120.095C204.368 120.742 203.907 121.253 203.297 121.626C202.699 122 201.952 122.187 201.055 122.187ZM201.055 121.103C201.927 121.103 202.637 120.823 203.185 120.263C203.733 119.702 204.025 118.893 204.063 117.834C204.075 117.647 204.081 117.417 204.081 117.143C204.081 116.869 204.075 116.639 204.063 116.452C204.025 115.381 203.733 114.571 203.185 114.023C202.637 113.463 201.927 113.183 201.055 113.183C200.183 113.183 199.473 113.463 198.925 114.023C198.377 114.571 198.085 115.381 198.047 116.452C198.035 116.639 198.029 116.869 198.029 117.143C198.029 117.417 198.035 117.647 198.047 117.834C198.085 118.893 198.377 119.702 198.925 120.263C199.473 120.823 200.183 121.103 201.055 121.103ZM226.469 122.187C225.461 122.187 224.601 122.025 223.891 121.701C223.194 121.377 222.658 120.96 222.285 120.449C221.911 119.939 221.712 119.397 221.687 118.824C221.687 118.725 221.724 118.637 221.799 118.563C221.874 118.488 221.967 118.451 222.079 118.451H222.453C222.578 118.451 222.671 118.488 222.733 118.563C222.808 118.637 222.852 118.725 222.864 118.824C222.914 119.173 223.069 119.522 223.331 119.87C223.593 120.207 223.979 120.493 224.489 120.73C225 120.954 225.66 121.066 226.469 121.066C227.69 121.066 228.58 120.848 229.141 120.412C229.701 119.964 229.981 119.366 229.981 118.619C229.981 118.121 229.832 117.722 229.533 117.423C229.247 117.112 228.805 116.838 228.207 116.601C227.609 116.352 226.843 116.078 225.909 115.779C225.025 115.493 224.296 115.2 223.723 114.901C223.15 114.59 222.727 114.216 222.453 113.78C222.191 113.344 222.061 112.784 222.061 112.099C222.061 111.464 222.229 110.897 222.565 110.399C222.901 109.888 223.387 109.484 224.022 109.185C224.67 108.886 225.454 108.736 226.376 108.736C227.111 108.736 227.752 108.836 228.3 109.035C228.848 109.235 229.303 109.502 229.664 109.839C230.025 110.162 230.299 110.517 230.486 110.903C230.673 111.277 230.772 111.644 230.785 112.006C230.785 112.093 230.754 112.18 230.691 112.267C230.629 112.342 230.529 112.379 230.392 112.379H230.019C229.957 112.379 229.876 112.354 229.776 112.304C229.689 112.255 229.633 112.155 229.608 112.006C229.533 111.383 229.203 110.872 228.618 110.474C228.045 110.063 227.298 109.857 226.376 109.857C225.454 109.857 224.701 110.038 224.116 110.399C223.53 110.76 223.238 111.327 223.238 112.099C223.238 112.597 223.368 113.008 223.63 113.332C223.891 113.643 224.302 113.924 224.863 114.173C225.423 114.409 226.146 114.671 227.03 114.957C227.964 115.256 228.736 115.555 229.346 115.854C229.957 116.153 230.411 116.52 230.71 116.956C231.009 117.38 231.158 117.934 231.158 118.619C231.158 119.378 230.965 120.026 230.579 120.562C230.206 121.085 229.67 121.489 228.973 121.776C228.275 122.05 227.441 122.187 226.469 122.187ZM242.152 122.187C241.28 122.187 240.539 122.019 239.929 121.682C239.318 121.334 238.851 120.836 238.527 120.188C238.216 119.54 238.048 118.774 238.023 117.89C238.011 117.703 238.004 117.454 238.004 117.143C238.004 116.832 238.011 116.582 238.023 116.396C238.048 115.499 238.216 114.733 238.527 114.098C238.851 113.45 239.318 112.958 239.929 112.622C240.539 112.273 241.28 112.099 242.152 112.099C242.812 112.099 243.378 112.192 243.852 112.379C244.337 112.554 244.736 112.79 245.047 113.089C245.359 113.376 245.595 113.693 245.757 114.042C245.919 114.391 246.006 114.733 246.019 115.069C246.031 115.194 245.994 115.293 245.907 115.368C245.819 115.443 245.72 115.48 245.608 115.48H245.346C245.222 115.48 245.128 115.455 245.066 115.406C245.016 115.343 244.96 115.237 244.898 115.088C244.636 114.378 244.275 113.886 243.814 113.612C243.366 113.326 242.812 113.183 242.152 113.183C241.305 113.183 240.601 113.444 240.041 113.967C239.493 114.478 239.2 115.318 239.163 116.489C239.138 116.925 239.138 117.361 239.163 117.797C239.2 118.967 239.493 119.814 240.041 120.337C240.601 120.848 241.305 121.103 242.152 121.103C242.812 121.103 243.366 120.966 243.814 120.692C244.275 120.406 244.636 119.908 244.898 119.198C244.96 119.048 245.016 118.949 245.066 118.899C245.128 118.837 245.222 118.806 245.346 118.806H245.608C245.72 118.806 245.819 118.843 245.907 118.918C245.994 118.992 246.031 119.092 246.019 119.217C246.006 119.491 245.95 119.764 245.85 120.038C245.751 120.312 245.595 120.58 245.383 120.842C245.184 121.103 244.935 121.334 244.636 121.533C244.337 121.732 243.976 121.888 243.553 122C243.142 122.125 242.675 122.187 242.152 122.187ZM253.755 122C253.631 122 253.531 121.963 253.456 121.888C253.381 121.813 253.344 121.714 253.344 121.589V112.715C253.344 112.591 253.381 112.491 253.456 112.417C253.531 112.329 253.631 112.286 253.755 112.286H254.054C254.179 112.286 254.278 112.329 254.353 112.417C254.44 112.491 254.484 112.591 254.484 112.715V113.575C254.708 113.139 255.032 112.815 255.455 112.603C255.879 112.392 256.402 112.286 257.024 112.286H257.716C257.84 112.286 257.94 112.323 258.014 112.398C258.089 112.473 258.126 112.572 258.126 112.697V112.958C258.126 113.083 258.089 113.183 258.014 113.257C257.94 113.332 257.84 113.369 257.716 113.369H256.912C256.165 113.369 255.573 113.587 255.138 114.023C254.702 114.459 254.484 115.051 254.484 115.798V121.589C254.484 121.714 254.44 121.813 254.353 121.888C254.278 121.963 254.179 122 254.054 122H253.755ZM268.082 122.187C266.874 122.187 265.915 121.795 265.205 121.01C264.496 120.213 264.091 119.173 263.991 117.89C263.979 117.703 263.972 117.454 263.972 117.143C263.972 116.832 263.979 116.582 263.991 116.396C264.053 115.549 264.253 114.802 264.589 114.154C264.925 113.506 265.386 113.002 265.971 112.641C266.569 112.28 267.273 112.099 268.082 112.099C268.954 112.099 269.695 112.292 270.305 112.678C270.916 113.064 271.383 113.618 271.706 114.341C272.043 115.063 272.211 115.922 272.211 116.919V117.199C272.211 117.323 272.167 117.423 272.08 117.498C272.005 117.573 271.906 117.61 271.781 117.61H265.131C265.131 117.61 265.131 117.635 265.131 117.685C265.131 117.734 265.131 117.772 265.131 117.797C265.156 118.357 265.286 118.893 265.523 119.403C265.76 119.901 266.096 120.312 266.532 120.636C266.968 120.948 267.485 121.103 268.082 121.103C268.618 121.103 269.06 121.022 269.409 120.86C269.77 120.699 270.056 120.524 270.268 120.337C270.48 120.138 270.617 119.989 270.679 119.889C270.791 119.727 270.878 119.634 270.941 119.609C271.003 119.571 271.102 119.553 271.239 119.553H271.538C271.65 119.553 271.744 119.59 271.819 119.665C271.906 119.727 271.943 119.814 271.931 119.926C271.918 120.101 271.819 120.319 271.632 120.58C271.457 120.829 271.202 121.078 270.866 121.327C270.542 121.577 270.143 121.782 269.67 121.944C269.197 122.106 268.668 122.187 268.082 122.187ZM265.131 116.564H271.071V116.489C271.071 115.866 270.953 115.306 270.716 114.808C270.48 114.31 270.137 113.917 269.689 113.631C269.241 113.332 268.705 113.183 268.082 113.183C267.46 113.183 266.924 113.332 266.476 113.631C266.04 113.917 265.704 114.31 265.467 114.808C265.243 115.306 265.131 115.866 265.131 116.489V116.564ZM283.137 122.187C281.929 122.187 280.97 121.795 280.261 121.01C279.551 120.213 279.146 119.173 279.046 117.89C279.034 117.703 279.028 117.454 279.028 117.143C279.028 116.832 279.034 116.582 279.046 116.396C279.109 115.549 279.308 114.802 279.644 114.154C279.98 113.506 280.441 113.002 281.026 112.641C281.624 112.28 282.328 112.099 283.137 112.099C284.009 112.099 284.75 112.292 285.36 112.678C285.971 113.064 286.438 113.618 286.762 114.341C287.098 115.063 287.266 115.922 287.266 116.919V117.199C287.266 117.323 287.222 117.423 287.135 117.498C287.06 117.573 286.961 117.61 286.836 117.61H280.186C280.186 117.61 280.186 117.635 280.186 117.685C280.186 117.734 280.186 117.772 280.186 117.797C280.211 118.357 280.342 118.893 280.578 119.403C280.815 119.901 281.151 120.312 281.587 120.636C282.023 120.948 282.54 121.103 283.137 121.103C283.673 121.103 284.115 121.022 284.464 120.86C284.825 120.699 285.111 120.524 285.323 120.337C285.535 120.138 285.672 119.989 285.734 119.889C285.846 119.727 285.933 119.634 285.996 119.609C286.058 119.571 286.158 119.553 286.295 119.553H286.593C286.706 119.553 286.799 119.59 286.874 119.665C286.961 119.727 286.998 119.814 286.986 119.926C286.973 120.101 286.874 120.319 286.687 120.58C286.512 120.829 286.257 121.078 285.921 121.327C285.597 121.577 285.199 121.782 284.725 121.944C284.252 122.106 283.723 122.187 283.137 122.187ZM280.186 116.564H286.126V116.489C286.126 115.866 286.008 115.306 285.771 114.808C285.535 114.31 285.192 113.917 284.744 113.631C284.296 113.332 283.76 113.183 283.137 113.183C282.515 113.183 281.979 113.332 281.531 113.631C281.095 113.917 280.759 114.31 280.522 114.808C280.298 115.306 280.186 115.866 280.186 116.489V116.564ZM294.998 122C294.874 122 294.774 121.963 294.699 121.888C294.624 121.813 294.587 121.714 294.587 121.589V112.697C294.587 112.572 294.624 112.473 294.699 112.398C294.774 112.323 294.874 112.286 294.998 112.286H295.316C295.44 112.286 295.54 112.323 295.615 112.398C295.689 112.473 295.727 112.572 295.727 112.697V113.575C296.063 113.139 296.468 112.784 296.941 112.51C297.427 112.236 298.068 112.099 298.865 112.099C299.712 112.099 300.416 112.286 300.976 112.659C301.549 113.021 301.972 113.519 302.246 114.154C302.533 114.777 302.676 115.487 302.676 116.284V121.589C302.676 121.714 302.639 121.813 302.564 121.888C302.489 121.963 302.39 122 302.265 122H301.947C301.823 122 301.723 121.963 301.649 121.888C301.574 121.813 301.536 121.714 301.536 121.589V116.377C301.536 115.381 301.294 114.602 300.808 114.042C300.322 113.469 299.612 113.183 298.678 113.183C297.794 113.183 297.078 113.469 296.53 114.042C295.994 114.602 295.727 115.381 295.727 116.377V121.589C295.727 121.714 295.689 121.813 295.615 121.888C295.54 121.963 295.44 122 295.316 122H294.998Z" fill="white"/>
<path d="M97.3095 100C96.8222 100 96.4456 99.8671 96.1798 99.6013C95.914 99.2912 95.7811 98.9147 95.7811 98.4717V55.08C95.7811 54.5927 95.914 54.2162 96.1798 53.9504C96.4456 53.6403 96.8222 53.4853 97.3095 53.4853H124.753C125.24 53.4853 125.617 53.6403 125.883 53.9504C126.149 54.2162 126.281 54.5927 126.281 55.08V57.6051C126.281 58.0924 126.149 58.469 125.883 58.7348C125.617 59.0006 125.24 59.1335 124.753 59.1335H102.16V73.6859H123.291C123.779 73.6859 124.155 73.841 124.421 74.1511C124.687 74.4169 124.82 74.7934 124.82 75.2807V77.7394C124.82 78.1824 124.687 78.5589 124.421 78.869C124.155 79.1348 123.779 79.2677 123.291 79.2677H102.16V94.3518H125.285C125.772 94.3518 126.149 94.4847 126.414 94.7505C126.68 95.0163 126.813 95.3928 126.813 95.8801V98.4717C126.813 98.9147 126.68 99.2912 126.414 99.6013C126.149 99.8671 125.772 100 125.285 100H97.3095ZM137.608 100C137.12 100 136.744 99.8671 136.478 99.6013C136.212 99.2912 136.079 98.9147 136.079 98.4717V55.0136C136.079 54.5706 136.212 54.2162 136.478 53.9504C136.744 53.6403 137.12 53.4853 137.608 53.4853H141.129C141.572 53.4853 141.927 53.6403 142.193 53.9504C142.458 54.2162 142.591 54.5706 142.591 55.0136V94.2189H164.719C165.206 94.2189 165.583 94.3739 165.849 94.684C166.114 94.9498 166.247 95.3264 166.247 95.8137V98.4717C166.247 98.9147 166.114 99.2912 165.849 99.6013C165.583 99.8671 165.206 100 164.719 100H137.608ZM175.05 100C174.607 100 174.231 99.8671 173.921 99.6013C173.655 99.2912 173.522 98.9147 173.522 98.4717V55.08C173.522 54.5927 173.655 54.2162 173.921 53.9504C174.231 53.6403 174.607 53.4853 175.05 53.4853H178.373C178.904 53.4853 179.303 53.6182 179.569 53.884C179.835 54.1498 179.99 54.3713 180.034 54.5485L194.121 81.3941L208.275 54.5485C208.364 54.3713 208.519 54.1498 208.74 53.884C209.006 53.6182 209.405 53.4853 209.936 53.4853H213.192C213.68 53.4853 214.056 53.6403 214.322 53.9504C214.632 54.2162 214.787 54.5927 214.787 55.08V98.4717C214.787 98.9147 214.632 99.2912 214.322 99.6013C214.056 99.8671 213.68 100 213.192 100H209.936C209.493 100 209.117 99.8671 208.807 99.6013C208.541 99.2912 208.408 98.9147 208.408 98.4717V65.7784L197.311 87.441C197.134 87.884 196.868 88.2384 196.514 88.5042C196.159 88.7257 195.716 88.8365 195.185 88.8365H193.125C192.549 88.8365 192.084 88.7257 191.729 88.5042C191.419 88.2384 191.153 87.884 190.932 87.441L179.835 65.7784V98.4717C179.835 98.9147 179.68 99.2912 179.37 99.6013C179.104 99.8671 178.749 100 178.306 100H175.05ZM227.808 100C227.32 100 226.944 99.8671 226.678 99.6013C226.412 99.2912 226.279 98.9147 226.279 98.4717V55.08C226.279 54.5927 226.412 54.2162 226.678 53.9504C226.944 53.6403 227.32 53.4853 227.808 53.4853H255.251C255.739 53.4853 256.115 53.6403 256.381 53.9504C256.647 54.2162 256.78 54.5927 256.78 55.08V57.6051C256.78 58.0924 256.647 58.469 256.381 58.7348C256.115 59.0006 255.739 59.1335 255.251 59.1335H232.659V73.6859H253.79C254.277 73.6859 254.653 73.841 254.919 74.1511C255.185 74.4169 255.318 74.7934 255.318 75.2807V77.7394C255.318 78.1824 255.185 78.5589 254.919 78.869C254.653 79.1348 254.277 79.2677 253.79 79.2677H232.659V94.3518H255.783C256.27 94.3518 256.647 94.4847 256.913 94.7505C257.178 95.0163 257.311 95.3928 257.311 95.8801V98.4717C257.311 98.9147 257.178 99.2912 256.913 99.6013C256.647 99.8671 256.27 100 255.783 100H227.808ZM268.106 100C267.618 100 267.242 99.8671 266.976 99.6013C266.71 99.2912 266.577 98.9147 266.577 98.4717V55.08C266.577 54.5927 266.71 54.2162 266.976 53.9504C267.242 53.6403 267.618 53.4853 268.106 53.4853H271.162C271.694 53.4853 272.093 53.6182 272.359 53.884C272.624 54.1055 272.779 54.2827 272.824 54.4156L294.885 88.3049V55.08C294.885 54.5927 295.018 54.2162 295.284 53.9504C295.549 53.6403 295.926 53.4853 296.413 53.4853H299.603C300.09 53.4853 300.467 53.6403 300.733 53.9504C301.043 54.2162 301.198 54.5927 301.198 55.08V98.4052C301.198 98.8482 301.043 99.2248 300.733 99.5349C300.467 99.845 300.112 100 299.669 100H296.48C295.992 100 295.616 99.8671 295.35 99.6013C295.129 99.3355 294.974 99.1583 294.885 99.0697L272.89 65.5126V98.4717C272.89 98.9147 272.735 99.2912 272.425 99.6013C272.159 99.8671 271.783 100 271.295 100H268.106Z" fill="white"/>
<line x1="16.6834" y1="65.4715" x2="49.816" y2="36.6232" stroke="white"/>
<line x1="14.74" y1="55.4529" x2="37.8269" y2="36.5586" stroke="white"/>
<line x1="15.6002" y1="80.4801" x2="57.7832" y2="40.6731" stroke="white"/>
<line x1="15.5327" y1="92.4907" x2="66.086" y2="41.7938" stroke="white"/>
<line y1="-0.5" x2="87.8376" y2="-0.5" transform="matrix(0.70153 -0.71264 0.41751 0.908673 13.9629 107.479)" stroke="white"/>
<line y1="-0.5" x2="87.8376" y2="-0.5" transform="matrix(0.70153 -0.71264 0.41751 0.908673 18.3105 115.089)" stroke="white"/>
<line y1="-0.5" x2="87.8376" y2="-0.5" transform="matrix(0.70153 -0.71264 0.41751 0.908673 22.6543 122.697)" stroke="white"/>
<line x1="31.6499" y1="122.643" x2="82.6403" y2="72.6332" stroke="white"/>
<line x1="42.3685" y1="126.625" x2="84.5744" y2="81.818" stroke="white"/>
<line x1="52.3586" y1="127.675" x2="83.5142" y2="93.8176" stroke="white"/>
<line x1="20.3419" y1="36.4029" x2="86.2128" y2="64.7053" stroke="white"/>
<line x1="14.7289" y1="39.3793" x2="83.2016" y2="69.5424" stroke="white"/>
<line x1="19.2796" y1="49.3973" x2="85.8721" y2="77.703" stroke="white"/>
<line x1="17.2526" y1="55.3886" x2="83.7064" y2="83.6937" stroke="white"/>
<line x1="16.2182" y1="62.3824" x2="81.536" y2="89.6823" stroke="white"/>
<line x1="21.1768" y1="71.4047" x2="79.3698" y2="95.6719" stroke="white"/>
<line x1="18.1681" y1="75.3957" x2="77.2113" y2="101.667" stroke="white"/>
<line x1="18.1365" y1="82.3955" x2="75.0436" y2="107.657" stroke="white"/>
<line x1="19.0949" y1="90.3985" x2="72.8725" y2="113.645" stroke="white"/>
<line x1="16.0681" y1="95.3833" x2="70.962" y2="118.635" stroke="white"/>
<line x1="17.0384" y1="102.388" x2="61.9508" y2="121.594" stroke="white"/>
<line x1="13.9984" y1="108.369" x2="54.9245" y2="124.557" stroke="white"/>
<path d="M14.9593 115.372L45.0001 126.001" stroke="white"/>
<mask id="path-26-outside-1_723_43" maskUnits="userSpaceOnUse" x="10.728" y="30.8209" width="76.4441" height="97.3475" fill="black">
<rect fill="white" x="10.728" y="30.8209" width="76.4441" height="97.3475"/>
<path d="M15.6102 126.842C14.6184 126.838 13.8532 126.564 13.3147 126.02C12.7765 125.387 12.5096 124.619 12.5137 123.717L12.9188 35.399C12.9233 34.4072 13.1973 33.642 13.7408 33.1035C14.2847 32.4748 15.0526 32.1627 16.0444 32.1673L46.7462 32.3081C56.0333 32.3507 63.5108 33.7826 69.1784 36.6038C74.8461 39.425 78.9748 43.5917 81.5644 49.1039C84.1544 54.5259 85.4763 61.2044 85.5301 69.1395C85.6016 73.1974 85.6304 76.7592 85.6163 79.8249C85.6023 82.8905 85.541 86.4068 85.4327 90.3737C85.2143 98.6683 83.7851 105.56 81.145 111.048C78.5955 116.446 74.5194 120.485 68.9167 123.164C63.4045 125.754 56.095 127.028 46.9882 126.986L15.6102 126.842ZM25.8067 115.393L46.3647 115.487C52.5862 115.515 57.5493 114.682 61.254 112.985C64.9587 111.289 67.6312 108.551 69.2716 104.772C71.0021 100.993 71.9267 95.9924 72.0454 89.7713C72.2381 87.0672 72.3391 84.7232 72.3482 82.7396C72.3577 80.6657 72.367 78.637 72.3761 76.6533C72.3856 74.5795 72.3062 72.2347 72.1378 69.6191C71.9976 60.8721 69.9533 54.4156 66.005 50.2498C62.0571 45.9938 55.3945 43.8442 46.0172 43.8012L26.1354 43.71L25.8067 115.393Z"/>
</mask>
<path d="M15.6102 126.842C14.6184 126.838 13.8532 126.564 13.3147 126.02C12.7765 125.387 12.5096 124.619 12.5137 123.717L12.9188 35.399C12.9233 34.4072 13.1973 33.642 13.7408 33.1035C14.2847 32.4748 15.0526 32.1627 16.0444 32.1673L46.7462 32.3081C56.0333 32.3507 63.5108 33.7826 69.1784 36.6038C74.8461 39.425 78.9748 43.5917 81.5644 49.1039C84.1544 54.5259 85.4763 61.2044 85.5301 69.1395C85.6016 73.1974 85.6304 76.7592 85.6163 79.8249C85.6023 82.8905 85.541 86.4068 85.4327 90.3737C85.2143 98.6683 83.7851 105.56 81.145 111.048C78.5955 116.446 74.5194 120.485 68.9167 123.164C63.4045 125.754 56.095 127.028 46.9882 126.986L15.6102 126.842ZM25.8067 115.393L46.3647 115.487C52.5862 115.515 57.5493 114.682 61.254 112.985C64.9587 111.289 67.6312 108.551 69.2716 104.772C71.0021 100.993 71.9267 95.9924 72.0454 89.7713C72.2381 87.0672 72.3391 84.7232 72.3482 82.7396C72.3577 80.6657 72.367 78.637 72.3761 76.6533C72.3856 74.5795 72.3062 72.2347 72.1378 69.6191C71.9976 60.8721 69.9533 54.4156 66.005 50.2498C62.0571 45.9938 55.3945 43.8442 46.0172 43.8012L26.1354 43.71L25.8067 115.393Z" fill="white"/>
<path d="M13.3147 126.02L12.5524 126.668L12.5773 126.697L12.6043 126.724L13.3147 126.02ZM13.7408 33.1035L14.4447 33.8138L14.4719 33.7868L14.4971 33.7577L13.7408 33.1035ZM69.1784 36.6038L68.7328 37.499L69.1784 36.6038ZM81.5644 49.1039L80.6593 49.5291L80.662 49.5349L81.5644 49.1039ZM85.5301 69.1395L84.53 69.1463L84.5302 69.1571L85.5301 69.1395ZM85.4327 90.3737L84.4331 90.3464L84.433 90.3474L85.4327 90.3737ZM81.145 111.048L80.2438 110.614L80.2408 110.621L81.145 111.048ZM68.9167 123.164L69.3419 124.07L69.3481 124.067L68.9167 123.164ZM25.8067 115.393L24.8067 115.388L24.8021 116.388L25.8021 116.393L25.8067 115.393ZM69.2716 104.772L68.3623 104.355L68.3582 104.364L68.3542 104.374L69.2716 104.772ZM72.0454 89.7713L71.0479 89.7002L71.0461 89.7262L71.0456 89.7523L72.0454 89.7713ZM72.1378 69.6191L71.138 69.6351L71.1383 69.6592L71.1399 69.6833L72.1378 69.6191ZM66.005 50.2498L65.2718 50.9299L65.2792 50.9377L66.005 50.2498ZM26.1354 43.71L26.14 42.7101L25.14 42.7055L25.1354 43.7055L26.1354 43.71ZM15.6148 125.842C14.8061 125.839 14.3261 125.62 14.025 125.316L12.6043 126.724C13.3802 127.507 14.4306 127.837 15.6056 127.842L15.6148 125.842ZM14.0769 125.373C13.7068 124.937 13.5105 124.407 13.5137 123.722L11.5137 123.713C11.5086 124.831 11.8463 125.836 12.5524 126.668L14.0769 125.373ZM13.5137 123.722L13.9187 35.4036L11.9188 35.3944L11.5137 123.713L13.5137 123.722ZM13.9187 35.4036C13.9225 34.595 14.1408 34.1149 14.4447 33.8138L13.0369 32.3931C12.2539 33.169 11.9242 34.2194 11.9188 35.3944L13.9187 35.4036ZM14.4971 33.7577C14.8128 33.3928 15.2779 33.1638 16.0398 33.1673L16.049 31.1673C14.8272 31.1617 13.7566 31.5568 12.9845 32.4492L14.4971 33.7577ZM16.0398 33.1673L46.7416 33.3081L46.7507 31.3081L16.049 31.1673L16.0398 33.1673ZM46.7416 33.3081C55.9416 33.3503 63.251 34.7703 68.7328 37.499L69.6241 35.7086C63.7705 32.7948 56.1251 31.3511 46.7507 31.3081L46.7416 33.3081ZM68.7328 37.499C74.2074 40.2241 78.1695 44.2294 80.6593 49.5291L82.4695 48.6787C79.78 42.954 75.4849 38.6259 69.6241 35.7086L68.7328 37.499ZM80.662 49.5349C83.1719 54.789 84.477 61.3131 84.5301 69.1463L86.53 69.1327C86.4756 61.0957 85.1369 54.2627 82.4667 48.6728L80.662 49.5349ZM84.5302 69.1571C84.6017 73.2098 84.6303 76.7639 84.6163 79.8203L86.6163 79.8294C86.6304 76.7545 86.6016 73.185 86.5299 69.1219L84.5302 69.1571ZM84.6163 79.8203C84.6023 82.8765 84.5413 86.385 84.4331 90.3464L86.4323 90.401C86.5408 86.4286 86.6022 82.9045 86.6163 79.8294L84.6163 79.8203ZM84.433 90.3474C84.2171 98.549 82.8048 105.291 80.2439 110.614L82.0462 111.481C84.7654 105.829 86.2115 98.7875 86.4323 90.4001L84.433 90.3474ZM80.2408 110.621C77.7938 115.802 73.8895 119.678 68.4853 122.262L69.3481 124.067C75.1494 121.292 79.3973 117.09 82.0493 111.475L80.2408 110.621ZM68.4915 122.259C63.1636 124.762 56.0183 126.028 46.9928 125.986L46.9836 127.986C56.1718 128.028 63.6454 126.746 69.3419 124.07L68.4915 122.259ZM46.9928 125.986L15.6148 125.842L15.6056 127.842L46.9836 127.986L46.9928 125.986ZM25.8021 116.393L46.3601 116.487L46.3693 114.487L25.8112 114.393L25.8021 116.393ZM46.3601 116.487C52.6576 116.516 57.7825 115.675 61.6703 113.895L60.8377 112.076C57.3161 113.688 52.5148 114.515 46.3693 114.487L46.3601 116.487ZM61.6703 113.895C65.6021 112.094 68.4515 109.173 70.1889 105.17L68.3542 104.374C66.8109 107.93 64.3153 110.484 60.8377 112.076L61.6703 113.895ZM70.1808 105.188C71.9896 101.238 72.9251 96.0868 73.0452 89.7904L71.0456 89.7523C70.9283 95.8981 70.0146 100.747 68.3623 104.355L70.1808 105.188ZM73.0429 89.8424C73.2367 87.1235 73.3389 84.7564 73.3481 82.7442L71.3482 82.735C71.3392 84.6901 71.2396 87.0108 71.0479 89.7002L73.0429 89.8424ZM73.3481 82.7442C73.3482 82.7401 73.3482 82.7361 73.3482 82.732C73.3482 82.728 73.3482 82.7239 73.3483 82.7199C73.3483 82.7158 73.3483 82.7118 73.3483 82.7077C73.3483 82.7037 73.3484 82.6996 73.3484 82.6956C73.3484 82.6915 73.3484 82.6875 73.3484 82.6834C73.3484 82.6794 73.3485 82.6753 73.3485 82.6713C73.3485 82.6672 73.3485 82.6632 73.3485 82.6591C73.3486 82.6551 73.3486 82.651 73.3486 82.647C73.3486 82.6429 73.3486 82.6389 73.3487 82.6348C73.3487 82.6308 73.3487 82.6267 73.3487 82.6227C73.3487 82.6186 73.3487 82.6146 73.3488 82.6106C73.3488 82.6065 73.3488 82.6025 73.3488 82.5984C73.3488 82.5944 73.3489 82.5903 73.3489 82.5863C73.3489 82.5822 73.3489 82.5782 73.3489 82.5741C73.3489 82.5701 73.349 82.566 73.349 82.562C73.349 82.558 73.349 82.5539 73.349 82.5499C73.3491 82.5458 73.3491 82.5418 73.3491 82.5377C73.3491 82.5337 73.3491 82.5296 73.3492 82.5256C73.3492 82.5216 73.3492 82.5175 73.3492 82.5135C73.3492 82.5094 73.3492 82.5054 73.3493 82.5013C73.3493 82.4973 73.3493 82.4932 73.3493 82.4892C73.3493 82.4852 73.3494 82.4811 73.3494 82.4771C73.3494 82.473 73.3494 82.469 73.3494 82.4649C73.3494 82.4609 73.3495 82.4569 73.3495 82.4528C73.3495 82.4488 73.3495 82.4447 73.3495 82.4407C73.3496 82.4367 73.3496 82.4326 73.3496 82.4286C73.3496 82.4245 73.3496 82.4205 73.3497 82.4164C73.3497 82.4124 73.3497 82.4084 73.3497 82.4043C73.3497 82.4003 73.3497 82.3962 73.3498 82.3922C73.3498 82.3882 73.3498 82.3841 73.3498 82.3801C73.3498 82.376 73.3499 82.372 73.3499 82.368C73.3499 82.3639 73.3499 82.3599 73.3499 82.3558C73.3499 82.3518 73.35 82.3478 73.35 82.3437C73.35 82.3397 73.35 82.3356 73.35 82.3316C73.3501 82.3276 73.3501 82.3235 73.3501 82.3195C73.3501 82.3155 73.3501 82.3114 73.3502 82.3074C73.3502 82.3033 73.3502 82.2993 73.3502 82.2953C73.3502 82.2912 73.3502 82.2872 73.3503 82.2831C73.3503 82.2791 73.3503 82.2751 73.3503 82.271C73.3503 82.267 73.3504 82.263 73.3504 82.2589C73.3504 82.2549 73.3504 82.2509 73.3504 82.2468C73.3504 82.2428 73.3505 82.2387 73.3505 82.2347C73.3505 82.2307 73.3505 82.2266 73.3505 82.2226C73.3506 82.2186 73.3506 82.2145 73.3506 82.2105C73.3506 82.2065 73.3506 82.2024 73.3507 82.1984C73.3507 82.1944 73.3507 82.1903 73.3507 82.1863C73.3507 82.1823 73.3507 82.1782 73.3508 82.1742C73.3508 82.1701 73.3508 82.1661 73.3508 82.1621C73.3508 82.158 73.3509 82.154 73.3509 82.15C73.3509 82.1459 73.3509 82.1419 73.3509 82.1379C73.3509 82.1338 73.351 82.1298 73.351 82.1258C73.351 82.1217 73.351 82.1177 73.351 82.1137C73.3511 82.1097 73.3511 82.1056 73.3511 82.1016C73.3511 82.0976 73.3511 82.0935 73.3512 82.0895C73.3512 82.0855 73.3512 82.0814 73.3512 82.0774C73.3512 82.0734 73.3512 82.0693 73.3513 82.0653C73.3513 82.0613 73.3513 82.0572 73.3513 82.0532C73.3513 82.0492 73.3514 82.0451 73.3514 82.0411C73.3514 82.0371 73.3514 82.0331 73.3514 82.029C73.3514 82.025 73.3515 82.021 73.3515 82.0169C73.3515 82.0129 73.3515 82.0089 73.3515 82.0048C73.3516 82.0008 73.3516 81.9968 73.3516 81.9928C73.3516 81.9887 73.3516 81.9847 73.3517 81.9807C73.3517 81.9766 73.3517 81.9726 73.3517 81.9686C73.3517 81.9646 73.3517 81.9605 73.3518 81.9565C73.3518 81.9525 73.3518 81.9484 73.3518 81.9444C73.3518 81.9404 73.3519 81.9364 73.3519 81.9323C73.3519 81.9283 73.3519 81.9243 73.3519 81.9202C73.3519 81.9162 73.352 81.9122 73.352 81.9082C73.352 81.9041 73.352 81.9001 73.352 81.8961C73.3521 81.8921 73.3521 81.888 73.3521 81.884C73.3521 81.88 73.3521 81.876 73.3521 81.8719C73.3522 81.8679 73.3522 81.8639 73.3522 81.8599C73.3522 81.8558 73.3522 81.8518 73.3523 81.8478C73.3523 81.8438 73.3523 81.8397 73.3523 81.8357C73.3523 81.8317 73.3524 81.8277 73.3524 81.8236C73.3524 81.8196 73.3524 81.8156 73.3524 81.8116C73.3524 81.8075 73.3525 81.8035 73.3525 81.7995C73.3525 81.7955 73.3525 81.7914 73.3525 81.7874C73.3526 81.7834 73.3526 81.7794 73.3526 81.7753C73.3526 81.7713 73.3526 81.7673 73.3526 81.7633C73.3527 81.7593 73.3527 81.7552 73.3527 81.7512C73.3527 81.7472 73.3527 81.7432 73.3528 81.7391C73.3528 81.7351 73.3528 81.7311 73.3528 81.7271C73.3528 81.7231 73.3529 81.719 73.3529 81.715C73.3529 81.711 73.3529 81.707 73.3529 81.703C73.3529 81.6989 73.353 81.6949 73.353 81.6909C73.353 81.6869 73.353 81.6829 73.353 81.6788C73.3531 81.6748 73.3531 81.6708 73.3531 81.6668C73.3531 81.6627 73.3531 81.6587 73.3531 81.6547C73.3532 81.6507 73.3532 81.6467 73.3532 81.6427C73.3532 81.6386 73.3532 81.6346 73.3533 81.6306C73.3533 81.6266 73.3533 81.6226 73.3533 81.6185C73.3533 81.6145 73.3533 81.6105 73.3534 81.6065C73.3534 81.6025 73.3534 81.5984 73.3534 81.5944C73.3534 81.5904 73.3535 81.5864 73.3535 81.5824C73.3535 81.5784 73.3535 81.5743 73.3535 81.5703C73.3536 81.5663 73.3536 81.5623 73.3536 81.5583C73.3536 81.5543 73.3536 81.5502 73.3536 81.5462C73.3537 81.5422 73.3537 81.5382 73.3537 81.5342C73.3537 81.5302 73.3537 81.5261 73.3538 81.5221C73.3538 81.5181 73.3538 81.5141 73.3538 81.5101C73.3538 81.5061 73.3538 81.5021 73.3539 81.498C73.3539 81.494 73.3539 81.49 73.3539 81.486C73.3539 81.482 73.354 81.478 73.354 81.474C73.354 81.4699 73.354 81.4659 73.354 81.4619C73.354 81.4579 73.3541 81.4539 73.3541 81.4499C73.3541 81.4459 73.3541 81.4418 73.3541 81.4378C73.3542 81.4338 73.3542 81.4298 73.3542 81.4258C73.3542 81.4218 73.3542 81.4178 73.3543 81.4138C73.3543 81.4097 73.3543 81.4057 73.3543 81.4017C73.3543 81.3977 73.3543 81.3937 73.3544 81.3897C73.3544 81.3857 73.3544 81.3817 73.3544 81.3776C73.3544 81.3736 73.3545 81.3696 73.3545 81.3656C73.3545 81.3616 73.3545 81.3576 73.3545 81.3536C73.3545 81.3496 73.3546 81.3456 73.3546 81.3415C73.3546 81.3375 73.3546 81.3335 73.3546 81.3295C73.3547 81.3255 73.3547 81.3215 73.3547 81.3175C73.3547 81.3135 73.3547 81.3095 73.3547 81.3055C73.3548 81.3014 73.3548 81.2974 73.3548 81.2934C73.3548 81.2894 73.3548 81.2854 73.3549 81.2814C73.3549 81.2774 73.3549 81.2734 73.3549 81.2694C73.3549 81.2654 73.355 81.2614 73.355 81.2573C73.355 81.2533 73.355 81.2493 73.355 81.2453C73.355 81.2413 73.3551 81.2373 73.3551 81.2333C73.3551 81.2293 73.3551 81.2253 73.3551 81.2213C73.3552 81.2173 73.3552 81.2133 73.3552 81.2093C73.3552 81.2052 73.3552 81.2012 73.3552 81.1972C73.3553 81.1932 73.3553 81.1892 73.3553 81.1852C73.3553 81.1812 73.3553 81.1772 73.3554 81.1732C73.3554 81.1692 73.3554 81.1652 73.3554 81.1612C73.3554 81.1572 73.3554 81.1532 73.3555 81.1492C73.3555 81.1452 73.3555 81.1412 73.3555 81.1371C73.3555 81.1331 73.3556 81.1291 73.3556 81.1251C73.3556 81.1211 73.3556 81.1171 73.3556 81.1131C73.3556 81.1091 73.3557 81.1051 73.3557 81.1011C73.3557 81.0971 73.3557 81.0931 73.3557 81.0891C73.3558 81.0851 73.3558 81.0811 73.3558 81.0771C73.3558 81.0731 73.3558 81.0691 73.3559 81.0651C73.3559 81.0611 73.3559 81.0571 73.3559 81.0531C73.3559 81.0491 73.3559 81.0451 73.356 81.0411C73.356 81.0371 73.356 81.0331 73.356 81.0291C73.356 81.0251 73.3561 81.0211 73.3561 81.0171C73.3561 81.0131 73.3561 81.0091 73.3561 81.0051C73.3561 81.0011 73.3562 80.9971 73.3562 80.9931C73.3562 80.9891 73.3562 80.9851 73.3562 80.9811C73.3563 80.9771 73.3563 80.9731 73.3563 80.9691C73.3563 80.9651 73.3563 80.9611 73.3563 80.9571C73.3564 80.9531 73.3564 80.9491 73.3564 80.9451C73.3564 80.9411 73.3564 80.9371 73.3565 80.9331C73.3565 80.9291 73.3565 80.9251 73.3565 80.9211C73.3565 80.9171 73.3565 80.9131 73.3566 80.9091C73.3566 80.9051 73.3566 80.9011 73.3566 80.8971C73.3566 80.8931 73.3567 80.8891 73.3567 80.8851C73.3567 80.8811 73.3567 80.8771 73.3567 80.8731C73.3567 80.8691 73.3568 80.8651 73.3568 80.8611C73.3568 80.8571 73.3568 80.8531 73.3568 80.8491C73.3569 80.8451 73.3569 80.8411 73.3569 80.8371C73.3569 80.8331 73.3569 80.8291 73.357 80.8251C73.357 80.8211 73.357 80.8171 73.357 80.8131C73.357 80.8092 73.357 80.8052 73.3571 80.8012C73.3571 80.7972 73.3571 80.7932 73.3571 80.7892C73.3571 80.7852 73.3572 80.7812 73.3572 80.7772C73.3572 80.7732 73.3572 80.7692 73.3572 80.7652C73.3572 80.7612 73.3573 80.7572 73.3573 80.7532C73.3573 80.7492 73.3573 80.7452 73.3573 80.7412C73.3574 80.7373 73.3574 80.7333 73.3574 80.7293C73.3574 80.7253 73.3574 80.7213 73.3574 80.7173C73.3575 80.7133 73.3575 80.7093 73.3575 80.7053C73.3575 80.7013 73.3575 80.6973 73.3576 80.6933C73.3576 80.6893 73.3576 80.6853 73.3576 80.6814C73.3576 80.6774 73.3576 80.6734 73.3577 80.6694C73.3577 80.6654 73.3577 80.6614 73.3577 80.6574C73.3577 80.6534 73.3578 80.6494 73.3578 80.6454C73.3578 80.6415 73.3578 80.6375 73.3578 80.6335C73.3578 80.6295 73.3579 80.6255 73.3579 80.6215C73.3579 80.6175 73.3579 80.6135 73.3579 80.6095C73.358 80.6055 73.358 80.6015 73.358 80.5976C73.358 80.5936 73.358 80.5896 73.358 80.5856C73.3581 80.5816 73.3581 80.5776 73.3581 80.5736C73.3581 80.5696 73.3581 80.5656 73.3582 80.5617C73.3582 80.5577 73.3582 80.5537 73.3582 80.5497C73.3582 80.5457 73.3583 80.5417 73.3583 80.5377C73.3583 80.5337 73.3583 80.5298 73.3583 80.5258C73.3583 80.5218 73.3584 80.5178 73.3584 80.5138C73.3584 80.5098 73.3584 80.5058 73.3584 80.5018C73.3585 80.4979 73.3585 80.4939 73.3585 80.4899C73.3585 80.4859 73.3585 80.4819 73.3585 80.4779C73.3586 80.4739 73.3586 80.47 73.3586 80.466C73.3586 80.462 73.3586 80.458 73.3587 80.454C73.3587 80.45 73.3587 80.446 73.3587 80.4421C73.3587 80.4381 73.3587 80.4341 73.3588 80.4301C73.3588 80.4261 73.3588 80.4221 73.3588 80.4182C73.3588 80.4142 73.3589 80.4102 73.3589 80.4062C73.3589 80.4022 73.3589 80.3982 73.3589 80.3943C73.3589 80.3903 73.359 80.3863 73.359 80.3823C73.359 80.3783 73.359 80.3743 73.359 80.3704C73.3591 80.3664 73.3591 80.3624 73.3591 80.3584C73.3591 80.3544 73.3591 80.3504 73.3591 80.3465C73.3592 80.3425 73.3592 80.3385 73.3592 80.3345C73.3592 80.3305 73.3592 80.3266 73.3593 80.3226C73.3593 80.3186 73.3593 80.3146 73.3593 80.3106C73.3593 80.3067 73.3593 80.3027 73.3594 80.2987C73.3594 80.2947 73.3594 80.2907 73.3594 80.2867C73.3594 80.2828 73.3595 80.2788 73.3595 80.2748C73.3595 80.2708 73.3595 80.2669 73.3595 80.2629C73.3595 80.2589 73.3596 80.2549 73.3596 80.2509C73.3596 80.247 73.3596 80.243 73.3596 80.239C73.3597 80.235 73.3597 80.231 73.3597 80.2271C73.3597 80.2231 73.3597 80.2191 73.3597 80.2151C73.3598 80.2111 73.3598 80.2072 73.3598 80.2032C73.3598 80.1992 73.3598 80.1952 73.3599 80.1913C73.3599 80.1873 73.3599 80.1833 73.3599 80.1793C73.3599 80.1753 73.3599 80.1714 73.36 80.1674C73.36 80.1634 73.36 80.1594 73.36 80.1555C73.36 80.1515 73.3601 80.1475 73.3601 80.1435C73.3601 80.1396 73.3601 80.1356 73.3601 80.1316C73.3601 80.1276 73.3602 80.1236 73.3602 80.1197C73.3602 80.1157 73.3602 80.1117 73.3602 80.1077C73.3603 80.1038 73.3603 80.0998 73.3603 80.0958C73.3603 80.0918 73.3603 80.0879 73.3604 80.0839C73.3604 80.0799 73.3604 80.076 73.3604 80.072C73.3604 80.068 73.3604 80.064 73.3605 80.0601C73.3605 80.0561 73.3605 80.0521 73.3605 80.0481C73.3605 80.0442 73.3606 80.0402 73.3606 80.0362C73.3606 80.0322 73.3606 80.0283 73.3606 80.0243C73.3606 80.0203 73.3607 80.0163 73.3607 80.0124C73.3607 80.0084 73.3607 80.0044 73.3607 80.0005C73.3608 79.9965 73.3608 79.9925 73.3608 79.9885C73.3608 79.9846 73.3608 79.9806 73.3608 79.9766C73.3609 79.9727 73.3609 79.9687 73.3609 79.9647C73.3609 79.9607 73.3609 79.9568 73.361 79.9528C73.361 79.9488 73.361 79.9449 73.361 79.9409C73.361 79.9369 73.361 79.933 73.3611 79.929C73.3611 79.925 73.3611 79.921 73.3611 79.9171C73.3611 79.9131 73.3612 79.9091 73.3612 79.9052C73.3612 79.9012 73.3612 79.8972 73.3612 79.8933C73.3612 79.8893 73.3613 79.8853 73.3613 79.8814C73.3613 79.8774 73.3613 79.8734 73.3613 79.8694C73.3614 79.8655 73.3614 79.8615 73.3614 79.8575C73.3614 79.8536 73.3614 79.8496 73.3614 79.8456C73.3615 79.8417 73.3615 79.8377 73.3615 79.8337C73.3615 79.8298 73.3615 79.8258 73.3616 79.8218C73.3616 79.8179 73.3616 79.8139 73.3616 79.8099C73.3616 79.806 73.3616 79.802 73.3617 79.798C73.3617 79.7941 73.3617 79.7901 73.3617 79.7861C73.3617 79.7822 73.3618 79.7782 73.3618 79.7742C73.3618 79.7703 73.3618 79.7663 73.3618 79.7623C73.3618 79.7584 73.3619 79.7544 73.3619 79.7505C73.3619 79.7465 73.3619 79.7425 73.3619 79.7386C73.362 79.7346 73.362 79.7306 73.362 79.7267C73.362 79.7227 73.362 79.7187 73.362 79.7148C73.3621 79.7108 73.3621 79.7068 73.3621 79.7029C73.3621 79.6989 73.3621 79.695 73.3622 79.691C73.3622 79.687 73.3622 79.6831 73.3622 79.6791C73.3622 79.6751 73.3622 79.6712 73.3623 79.6672C73.3623 79.6633 73.3623 79.6593 73.3623 79.6553C73.3623 79.6514 73.3624 79.6474 73.3624 79.6434C73.3624 79.6395 73.3624 79.6355 73.3624 79.6316C73.3624 79.6276 73.3625 79.6236 73.3625 79.6197C73.3625 79.6157 73.3625 79.6118 73.3625 79.6078C73.3626 79.6038 73.3626 79.5999 73.3626 79.5959C73.3626 79.592 73.3626 79.588 73.3626 79.584C73.3627 79.5801 73.3627 79.5761 73.3627 79.5722C73.3627 79.5682 73.3627 79.5642 73.3628 79.5603C73.3628 79.5563 73.3628 79.5524 73.3628 79.5484C73.3628 79.5444 73.3628 79.5405 73.3629 79.5365C73.3629 79.5326 73.3629 79.5286 73.3629 79.5246C73.3629 79.5207 73.363 79.5167 73.363 79.5128C73.363 79.5088 73.363 79.5049 73.363 79.5009C73.363 79.4969 73.3631 79.493 73.3631 79.489C73.3631 79.4851 73.3631 79.4811 73.3631 79.4772C73.3632 79.4732 73.3632 79.4692 73.3632 79.4653C73.3632 79.4613 73.3632 79.4574 73.3632 79.4534C73.3633 79.4495 73.3633 79.4455 73.3633 79.4415C73.3633 79.4376 73.3633 79.4336 73.3634 79.4297C73.3634 79.4257 73.3634 79.4218 73.3634 79.4178C73.3634 79.4139 73.3634 79.4099 73.3635 79.406C73.3635 79.402 73.3635 79.398 73.3635 79.3941C73.3635 79.3901 73.3636 79.3862 73.3636 79.3822C73.3636 79.3783 73.3636 79.3743 73.3636 79.3704C73.3636 79.3664 73.3637 79.3624 73.3637 79.3585C73.3637 79.3545 73.3637 79.3506 73.3637 79.3466C73.3637 79.3427 73.3638 79.3387 73.3638 79.3348C73.3638 79.3308 73.3638 79.3269 73.3638 79.3229C73.3639 79.319 73.3639 79.315 73.3639 79.3111C73.3639 79.3071 73.3639 79.3032 73.3639 79.2992C73.364 79.2953 73.364 79.2913 73.364 79.2874C73.364 79.2834 73.364 79.2794 73.3641 79.2755C73.3641 79.2716 73.3641 79.2676 73.3641 79.2636C73.3641 79.2597 73.3641 79.2557 73.3642 79.2518C73.3642 79.2478 73.3642 79.2439 73.3642 79.2399C73.3642 79.236 73.3643 79.232 73.3643 79.2281C73.3643 79.2241 73.3643 79.2202 73.3643 79.2162C73.3643 79.2123 73.3644 79.2084 73.3644 79.2044C73.3644 79.2004 73.3644 79.1965 73.3644 79.1926C73.3645 79.1886 73.3645 79.1847 73.3645 79.1807C73.3645 79.1768 73.3645 79.1728 73.3645 79.1689C73.3646 79.1649 73.3646 79.161 73.3646 79.157C73.3646 79.1531 73.3646 79.1491 73.3647 79.1452C73.3647 79.1412 73.3647 79.1373 73.3647 79.1333C73.3647 79.1294 73.3647 79.1254 73.3648 79.1215C73.3648 79.1175 73.3648 79.1136 73.3648 79.1097C73.3648 79.1057 73.3649 79.1018 73.3649 79.0978C73.3649 79.0939 73.3649 79.0899 73.3649 79.086C73.3649 79.082 73.365 79.0781 73.365 79.0741C73.365 79.0702 73.365 79.0663 73.365 79.0623C73.3651 79.0584 73.3651 79.0544 73.3651 79.0505C73.3651 79.0465 73.3651 79.0426 73.3651 79.0386C73.3652 79.0347 73.3652 79.0308 73.3652 79.0268C73.3652 79.0229 73.3652 79.0189 73.3653 79.015C73.3653 79.011 73.3653 79.0071 73.3653 79.0032C73.3653 78.9992 73.3653 78.9953 73.3654 78.9913C73.3654 78.9874 73.3654 78.9834 73.3654 78.9795C73.3654 78.9756 73.3655 78.9716 73.3655 78.9677C73.3655 78.9637 73.3655 78.9598 73.3655 78.9558C73.3655 78.9519 73.3656 78.948 73.3656 78.944C73.3656 78.9401 73.3656 78.9361 73.3656 78.9322C73.3657 78.9282 73.3657 78.9243 73.3657 78.9204C73.3657 78.9164 73.3657 78.9125 73.3657 78.9086C73.3658 78.9046 73.3658 78.9007 73.3658 78.8967C73.3658 78.8928 73.3658 78.8889 73.3658 78.8849C73.3659 78.881 73.3659 78.877 73.3659 78.8731C73.3659 78.8692 73.3659 78.8652 73.366 78.8613C73.366 78.8573 73.366 78.8534 73.366 78.8495C73.366 78.8455 73.366 78.8416 73.3661 78.8376C73.3661 78.8337 73.3661 78.8298 73.3661 78.8258C73.3661 78.8219 73.3662 78.818 73.3662 78.814C73.3662 78.8101 73.3662 78.8061 73.3662 78.8022C73.3662 78.7983 73.3663 78.7943 73.3663 78.7904C73.3663 78.7865 73.3663 78.7825 73.3663 78.7786C73.3664 78.7746 73.3664 78.7707 73.3664 78.7668C73.3664 78.7628 73.3664 78.7589 73.3664 78.755C73.3665 78.751 73.3665 78.7471 73.3665 78.7432C73.3665 78.7392 73.3665 78.7353 73.3666 78.7313C73.3666 78.7274 73.3666 78.7235 73.3666 78.7195C73.3666 78.7156 73.3666 78.7117 73.3667 78.7077C73.3667 78.7038 73.3667 78.6999 73.3667 78.6959C73.3667 78.692 73.3668 78.6881 73.3668 78.6841C73.3668 78.6802 73.3668 78.6763 73.3668 78.6723C73.3668 78.6684 73.3669 78.6645 73.3669 78.6605C73.3669 78.6566 73.3669 78.6527 73.3669 78.6487C73.367 78.6448 73.367 78.6409 73.367 78.6369C73.367 78.633 73.367 78.6291 73.367 78.6251C73.3671 78.6212 73.3671 78.6173 73.3671 78.6133C73.3671 78.6094 73.3671 78.6055 73.3671 78.6015C73.3672 78.5976 73.3672 78.5937 73.3672 78.5898C73.3672 78.5858 73.3672 78.5819 73.3673 78.578C73.3673 78.574 73.3673 78.5701 73.3673 78.5662C73.3673 78.5622 73.3673 78.5583 73.3674 78.5544C73.3674 78.5504 73.3674 78.5465 73.3674 78.5426C73.3674 78.5387 73.3675 78.5347 73.3675 78.5308C73.3675 78.5269 73.3675 78.5229 73.3675 78.519C73.3675 78.5151 73.3676 78.5112 73.3676 78.5072C73.3676 78.5033 73.3676 78.4994 73.3676 78.4954C73.3677 78.4915 73.3677 78.4876 73.3677 78.4837C73.3677 78.4797 73.3677 78.4758 73.3677 78.4719C73.3678 78.4679 73.3678 78.464 73.3678 78.4601C73.3678 78.4562 73.3678 78.4522 73.3679 78.4483C73.3679 78.4444 73.3679 78.4405 73.3679 78.4365C73.3679 78.4326 73.3679 78.4287 73.368 78.4247C73.368 78.4208 73.368 78.4169 73.368 78.413C73.368 78.409 73.368 78.4051 73.3681 78.4012C73.3681 78.3973 73.3681 78.3933 73.3681 78.3894C73.3681 78.3855 73.3682 78.3816 73.3682 78.3776C73.3682 78.3737 73.3682 78.3698 73.3682 78.3659C73.3682 78.3619 73.3683 78.358 73.3683 78.3541C73.3683 78.3502 73.3683 78.3462 73.3683 78.3423C73.3684 78.3384 73.3684 78.3345 73.3684 78.3305C73.3684 78.3266 73.3684 78.3227 73.3684 78.3188C73.3685 78.3149 73.3685 78.3109 73.3685 78.307C73.3685 78.3031 73.3685 78.2992 73.3686 78.2952C73.3686 78.2913 73.3686 78.2874 73.3686 78.2835C73.3686 78.2796 73.3686 78.2756 73.3687 78.2717C73.3687 78.2678 73.3687 78.2639 73.3687 78.2599C73.3687 78.256 73.3688 78.2521 73.3688 78.2482C73.3688 78.2443 73.3688 78.2403 73.3688 78.2364C73.3688 78.2325 73.3689 78.2286 73.3689 78.2247C73.3689 78.2207 73.3689 78.2168 73.3689 78.2129C73.3689 78.209 73.369 78.2051 73.369 78.2011C73.369 78.1972 73.369 78.1933 73.369 78.1894C73.3691 78.1855 73.3691 78.1815 73.3691 78.1776C73.3691 78.1737 73.3691 78.1698 73.3691 78.1659C73.3692 78.1619 73.3692 78.158 73.3692 78.1541C73.3692 78.1502 73.3692 78.1463 73.3693 78.1424C73.3693 78.1384 73.3693 78.1345 73.3693 78.1306C73.3693 78.1267 73.3693 78.1228 73.3694 78.1188C73.3694 78.1149 73.3694 78.111 73.3694 78.1071C73.3694 78.1032 73.3695 78.0993 73.3695 78.0953C73.3695 78.0914 73.3695 78.0875 73.3695 78.0836C73.3695 78.0797 73.3696 78.0758 73.3696 78.0718C73.3696 78.0679 73.3696 78.064 73.3696 78.0601C73.3696 78.0562 73.3697 78.0523 73.3697 78.0484C73.3697 78.0444 73.3697 78.0405 73.3697 78.0366C73.3698 78.0327 73.3698 78.0288 73.3698 78.0249C73.3698 78.0209 73.3698 78.017 73.3698 78.0131C73.3699 78.0092 73.3699 78.0053 73.3699 78.0014C73.3699 77.9975 73.3699 77.9936 73.37 77.9896C73.37 77.9857 73.37 77.9818 73.37 77.9779C73.37 77.974 73.37 77.9701 73.3701 77.9662C73.3701 77.9622 73.3701 77.9583 73.3701 77.9544C73.3701 77.9505 73.3702 77.9466 73.3702 77.9427C73.3702 77.9388 73.3702 77.9349 73.3702 77.9309C73.3702 77.927 73.3703 77.9231 73.3703 77.9192C73.3703 77.9153 73.3703 77.9114 73.3703 77.9075C73.3703 77.9036 73.3704 77.8997 73.3704 77.8957C73.3704 77.8918 73.3704 77.8879 73.3704 77.884C73.3705 77.8801 73.3705 77.8762 73.3705 77.8723C73.3705 77.8684 73.3705 77.8645 73.3705 77.8605C73.3706 77.8566 73.3706 77.8527 73.3706 77.8488C73.3706 77.8449 73.3706 77.841 73.3707 77.8371C73.3707 77.8332 73.3707 77.8293 73.3707 77.8254C73.3707 77.8215 73.3707 77.8176 73.3708 77.8136C73.3708 77.8097 73.3708 77.8058 73.3708 77.8019C73.3708 77.798 73.3709 77.7941 73.3709 77.7902C73.3709 77.7863 73.3709 77.7824 73.3709 77.7785C73.3709 77.7746 73.371 77.7707 73.371 77.7667C73.371 77.7628 73.371 77.7589 73.371 77.755C73.371 77.7511 73.3711 77.7472 73.3711 77.7433C73.3711 77.7394 73.3711 77.7355 73.3711 77.7316C73.3712 77.7277 73.3712 77.7238 73.3712 77.7199C73.3712 77.716 73.3712 77.7121 73.3712 77.7082C73.3713 77.7042 73.3713 77.7003 73.3713 77.6964C73.3713 77.6925 73.3713 77.6886 73.3714 77.6847C73.3714 77.6808 73.3714 77.6769 73.3714 77.673C73.3714 77.6691 73.3714 77.6652 73.3715 77.6613C73.3715 77.6574 73.3715 77.6535 73.3715 77.6496C73.3715 77.6457 73.3716 77.6418 73.3716 77.6379C73.3716 77.634 73.3716 77.6301 73.3716 77.6262C73.3716 77.6223 73.3717 77.6184 73.3717 77.6145C73.3717 77.6106 73.3717 77.6067 73.3717 77.6028C73.3717 77.5988 73.3718 77.595 73.3718 77.5911C73.3718 77.5871 73.3718 77.5832 73.3718 77.5793C73.3719 77.5754 73.3719 77.5715 73.3719 77.5676C73.3719 77.5637 73.3719 77.5598 73.3719 77.5559C73.372 77.552 73.372 77.5481 73.372 77.5442C73.372 77.5403 73.372 77.5364 73.3721 77.5325C73.3721 77.5286 73.3721 77.5247 73.3721 77.5208C73.3721 77.5169 73.3721 77.513 73.3722 77.5091C73.3722 77.5052 73.3722 77.5013 73.3722 77.4974C73.3722 77.4935 73.3722 77.4896 73.3723 77.4857C73.3723 77.4818 73.3723 77.4779 73.3723 77.474C73.3723 77.4701 73.3724 77.4662 73.3724 77.4624C73.3724 77.4585 73.3724 77.4546 73.3724 77.4507C73.3724 77.4468 73.3725 77.4429 73.3725 77.439C73.3725 77.4351 73.3725 77.4312 73.3725 77.4273C73.3726 77.4234 73.3726 77.4195 73.3726 77.4156C73.3726 77.4117 73.3726 77.4078 73.3726 77.4039C73.3727 77.4 73.3727 77.3961 73.3727 77.3922C73.3727 77.3883 73.3727 77.3844 73.3727 77.3805C73.3728 77.3766 73.3728 77.3727 73.3728 77.3688C73.3728 77.3649 73.3728 77.361 73.3729 77.3571C73.3729 77.3532 73.3729 77.3494 73.3729 77.3455C73.3729 77.3416 73.3729 77.3377 73.373 77.3338C73.373 77.3299 73.373 77.326 73.373 77.3221C73.373 77.3182 73.3731 77.3143 73.3731 77.3104C73.3731 77.3065 73.3731 77.3026 73.3731 77.2987C73.3731 77.2948 73.3732 77.2909 73.3732 77.2871C73.3732 77.2832 73.3732 77.2793 73.3732 77.2754C73.3732 77.2715 73.3733 77.2676 73.3733 77.2637C73.3733 77.2598 73.3733 77.2559 73.3733 77.252C73.3734 77.2481 73.3734 77.2442 73.3734 77.2403C73.3734 77.2365 73.3734 77.2326 73.3734 77.2287C73.3735 77.2248 73.3735 77.2209 73.3735 77.217C73.3735 77.2131 73.3735 77.2092 73.3736 77.2053C73.3736 77.2014 73.3736 77.1975 73.3736 77.1937C73.3736 77.1898 73.3736 77.1859 73.3737 77.182C73.3737 77.1781 73.3737 77.1742 73.3737 77.1703C73.3737 77.1664 73.3737 77.1625 73.3738 77.1586C73.3738 77.1548 73.3738 77.1509 73.3738 77.147C73.3738 77.1431 73.3739 77.1392 73.3739 77.1353C73.3739 77.1314 73.3739 77.1275 73.3739 77.1236C73.3739 77.1198 73.374 77.1159 73.374 77.112C73.374 77.1081 73.374 77.1042 73.374 77.1003C73.3741 77.0964 73.3741 77.0925 73.3741 77.0887C73.3741 77.0848 73.3741 77.0809 73.3741 77.077C73.3742 77.0731 73.3742 77.0692 73.3742 77.0653C73.3742 77.0615 73.3742 77.0576 73.3742 77.0537C73.3743 77.0498 73.3743 77.0459 73.3743 77.042C73.3743 77.0381 73.3743 77.0343 73.3744 77.0304C73.3744 77.0265 73.3744 77.0226 73.3744 77.0187C73.3744 77.0148 73.3744 77.0109 73.3745 77.0071C73.3745 77.0032 73.3745 76.9993 73.3745 76.9954C73.3745 76.9915 73.3746 76.9876 73.3746 76.9838C73.3746 76.9799 73.3746 76.976 73.3746 76.9721C73.3746 76.9682 73.3747 76.9643 73.3747 76.9605C73.3747 76.9566 73.3747 76.9527 73.3747 76.9488C73.3747 76.9449 73.3748 76.941 73.3748 76.9372C73.3748 76.9333 73.3748 76.9294 73.3748 76.9255C73.3749 76.9216 73.3749 76.9177 73.3749 76.9139C73.3749 76.91 73.3749 76.9061 73.3749 76.9022C73.375 76.8983 73.375 76.8944 73.375 76.8906C73.375 76.8867 73.375 76.8828 73.375 76.8789C73.3751 76.875 73.3751 76.8712 73.3751 76.8673C73.3751 76.8634 73.3751 76.8595 73.3752 76.8556C73.3752 76.8518 73.3752 76.8479 73.3752 76.844C73.3752 76.8401 73.3752 76.8362 73.3753 76.8324C73.3753 76.8285 73.3753 76.8246 73.3753 76.8207C73.3753 76.8168 73.3754 76.813 73.3754 76.8091C73.3754 76.8052 73.3754 76.8013 73.3754 76.7975C73.3754 76.7936 73.3755 76.7897 73.3755 76.7858C73.3755 76.7819 73.3755 76.7781 73.3755 76.7742C73.3755 76.7703 73.3756 76.7664 73.3756 76.7626C73.3756 76.7587 73.3756 76.7548 73.3756 76.7509C73.3757 76.747 73.3757 76.7432 73.3757 76.7393C73.3757 76.7354 73.3757 76.7315 73.3757 76.7277C73.3758 76.7238 73.3758 76.7199 73.3758 76.716C73.3758 76.7122 73.3758 76.7083 73.3758 76.7044C73.3759 76.7005 73.3759 76.6967 73.3759 76.6928C73.3759 76.6889 73.3759 76.685 73.376 76.6811C73.376 76.6773 73.376 76.6734 73.376 76.6695C73.376 76.6657 73.376 76.6618 73.3761 76.6579L71.3761 76.6487C71.3761 76.6526 71.376 76.6565 71.376 76.6603C71.376 76.6642 71.376 76.6681 71.376 76.672C71.376 76.6759 71.3759 76.6797 71.3759 76.6836C71.3759 76.6875 71.3759 76.6914 71.3759 76.6952C71.3759 76.6991 71.3758 76.703 71.3758 76.7069C71.3758 76.7107 71.3758 76.7146 71.3758 76.7185C71.3757 76.7224 71.3757 76.7262 71.3757 76.7301C71.3757 76.734 71.3757 76.7379 71.3757 76.7417C71.3756 76.7456 71.3756 76.7495 71.3756 76.7534C71.3756 76.7573 71.3756 76.7611 71.3756 76.765C71.3755 76.7689 71.3755 76.7728 71.3755 76.7766C71.3755 76.7805 71.3755 76.7844 71.3754 76.7883C71.3754 76.7922 71.3754 76.796 71.3754 76.7999C71.3754 76.8038 71.3754 76.8077 71.3753 76.8116C71.3753 76.8154 71.3753 76.8193 71.3753 76.8232C71.3753 76.8271 71.3752 76.8309 71.3752 76.8348C71.3752 76.8387 71.3752 76.8426 71.3752 76.8465C71.3752 76.8504 71.3751 76.8542 71.3751 76.8581C71.3751 76.862 71.3751 76.8659 71.3751 76.8698C71.3751 76.8736 71.375 76.8775 71.375 76.8814C71.375 76.8853 71.375 76.8892 71.375 76.893C71.3749 76.8969 71.3749 76.9008 71.3749 76.9047C71.3749 76.9086 71.3749 76.9125 71.3749 76.9163C71.3748 76.9202 71.3748 76.9241 71.3748 76.928C71.3748 76.9319 71.3748 76.9357 71.3747 76.9396C71.3747 76.9435 71.3747 76.9474 71.3747 76.9513C71.3747 76.9552 71.3747 76.959 71.3746 76.9629C71.3746 76.9668 71.3746 76.9707 71.3746 76.9746C71.3746 76.9785 71.3746 76.9823 71.3745 76.9862C71.3745 76.9901 71.3745 76.994 71.3745 76.9979C71.3745 77.0018 71.3744 77.0057 71.3744 77.0095C71.3744 77.0134 71.3744 77.0173 71.3744 77.0212C71.3744 77.0251 71.3743 77.029 71.3743 77.0329C71.3743 77.0367 71.3743 77.0406 71.3743 77.0445C71.3743 77.0484 71.3742 77.0523 71.3742 77.0562C71.3742 77.0601 71.3742 77.0639 71.3742 77.0678C71.3741 77.0717 71.3741 77.0756 71.3741 77.0795C71.3741 77.0834 71.3741 77.0873 71.3741 77.0912C71.374 77.095 71.374 77.0989 71.374 77.1028C71.374 77.1067 71.374 77.1106 71.3739 77.1145C71.3739 77.1184 71.3739 77.1223 71.3739 77.1261C71.3739 77.13 71.3739 77.1339 71.3738 77.1378C71.3738 77.1417 71.3738 77.1456 71.3738 77.1495C71.3738 77.1534 71.3738 77.1573 71.3737 77.1611C71.3737 77.165 71.3737 77.1689 71.3737 77.1728C71.3737 77.1767 71.3736 77.1806 71.3736 77.1845C71.3736 77.1884 71.3736 77.1923 71.3736 77.1962C71.3736 77.2 71.3735 77.2039 71.3735 77.2078C71.3735 77.2117 71.3735 77.2156 71.3735 77.2195C71.3734 77.2234 71.3734 77.2273 71.3734 77.2312C71.3734 77.2351 71.3734 77.239 71.3734 77.2428C71.3733 77.2467 71.3733 77.2506 71.3733 77.2545C71.3733 77.2584 71.3733 77.2623 71.3733 77.2662C71.3732 77.2701 71.3732 77.274 71.3732 77.2779C71.3732 77.2818 71.3732 77.2857 71.3731 77.2896C71.3731 77.2935 71.3731 77.2973 71.3731 77.3012C71.3731 77.3051 71.3731 77.309 71.373 77.3129C71.373 77.3168 71.373 77.3207 71.373 77.3246C71.373 77.3285 71.3729 77.3324 71.3729 77.3363C71.3729 77.3402 71.3729 77.3441 71.3729 77.348C71.3729 77.3519 71.3728 77.3558 71.3728 77.3597C71.3728 77.3636 71.3728 77.3674 71.3728 77.3713C71.3728 77.3752 71.3727 77.3791 71.3727 77.383C71.3727 77.3869 71.3727 77.3908 71.3727 77.3947C71.3726 77.3986 71.3726 77.4025 71.3726 77.4064C71.3726 77.4103 71.3726 77.4142 71.3726 77.4181C71.3725 77.422 71.3725 77.4259 71.3725 77.4298C71.3725 77.4337 71.3725 77.4376 71.3724 77.4415C71.3724 77.4454 71.3724 77.4493 71.3724 77.4532C71.3724 77.4571 71.3724 77.461 71.3723 77.4649C71.3723 77.4688 71.3723 77.4727 71.3723 77.4766C71.3723 77.4805 71.3723 77.4844 71.3722 77.4883C71.3722 77.4922 71.3722 77.4961 71.3722 77.5C71.3722 77.5039 71.3721 77.5078 71.3721 77.5117C71.3721 77.5156 71.3721 77.5195 71.3721 77.5234C71.3721 77.5273 71.372 77.5312 71.372 77.5351C71.372 77.539 71.372 77.5429 71.372 77.5468C71.3719 77.5507 71.3719 77.5546 71.3719 77.5585C71.3719 77.5624 71.3719 77.5663 71.3719 77.5702C71.3718 77.5741 71.3718 77.578 71.3718 77.5819C71.3718 77.5858 71.3718 77.5897 71.3718 77.5936C71.3717 77.5975 71.3717 77.6014 71.3717 77.6053C71.3717 77.6092 71.3717 77.6131 71.3716 77.617C71.3716 77.6209 71.3716 77.6248 71.3716 77.6287C71.3716 77.6326 71.3716 77.6365 71.3715 77.6404C71.3715 77.6443 71.3715 77.6482 71.3715 77.6521C71.3715 77.656 71.3714 77.6599 71.3714 77.6638C71.3714 77.6677 71.3714 77.6716 71.3714 77.6756C71.3714 77.6795 71.3713 77.6834 71.3713 77.6873C71.3713 77.6912 71.3713 77.6951 71.3713 77.699C71.3712 77.7029 71.3712 77.7068 71.3712 77.7107C71.3712 77.7146 71.3712 77.7185 71.3712 77.7224C71.3711 77.7263 71.3711 77.7302 71.3711 77.7341C71.3711 77.738 71.3711 77.7419 71.3711 77.7459C71.371 77.7498 71.371 77.7537 71.371 77.7576C71.371 77.7615 71.371 77.7654 71.3709 77.7693C71.3709 77.7732 71.3709 77.7771 71.3709 77.781C71.3709 77.7849 71.3709 77.7888 71.3708 77.7927C71.3708 77.7967 71.3708 77.8006 71.3708 77.8045C71.3708 77.8084 71.3707 77.8123 71.3707 77.8162C71.3707 77.8201 71.3707 77.824 71.3707 77.8279C71.3707 77.8318 71.3706 77.8357 71.3706 77.8397C71.3706 77.8436 71.3706 77.8475 71.3706 77.8514C71.3706 77.8553 71.3705 77.8592 71.3705 77.8631C71.3705 77.867 71.3705 77.8709 71.3705 77.8748C71.3704 77.8788 71.3704 77.8827 71.3704 77.8866C71.3704 77.8905 71.3704 77.8944 71.3704 77.8983C71.3703 77.9022 71.3703 77.9061 71.3703 77.91C71.3703 77.914 71.3703 77.9179 71.3702 77.9218C71.3702 77.9257 71.3702 77.9296 71.3702 77.9335C71.3702 77.9374 71.3702 77.9413 71.3701 77.9452C71.3701 77.9492 71.3701 77.9531 71.3701 77.957C71.3701 77.9609 71.37 77.9648 71.37 77.9687C71.37 77.9726 71.37 77.9766 71.37 77.9805C71.37 77.9844 71.3699 77.9883 71.3699 77.9922C71.3699 77.9961 71.3699 78 71.3699 78.0039C71.3699 78.0079 71.3698 78.0118 71.3698 78.0157C71.3698 78.0196 71.3698 78.0235 71.3698 78.0274C71.3697 78.0314 71.3697 78.0353 71.3697 78.0392C71.3697 78.0431 71.3697 78.047 71.3697 78.0509C71.3696 78.0548 71.3696 78.0588 71.3696 78.0627C71.3696 78.0666 71.3696 78.0705 71.3695 78.0744C71.3695 78.0783 71.3695 78.0823 71.3695 78.0862C71.3695 78.0901 71.3695 78.094 71.3694 78.0979C71.3694 78.1018 71.3694 78.1058 71.3694 78.1097C71.3694 78.1136 71.3693 78.1175 71.3693 78.1214C71.3693 78.1253 71.3693 78.1293 71.3693 78.1332C71.3693 78.1371 71.3692 78.141 71.3692 78.1449C71.3692 78.1489 71.3692 78.1528 71.3692 78.1567C71.3691 78.1606 71.3691 78.1645 71.3691 78.1684C71.3691 78.1724 71.3691 78.1763 71.3691 78.1802C71.369 78.1841 71.369 78.188 71.369 78.192C71.369 78.1959 71.369 78.1998 71.369 78.2037C71.3689 78.2076 71.3689 78.2116 71.3689 78.2155C71.3689 78.2194 71.3689 78.2233 71.3688 78.2272C71.3688 78.2312 71.3688 78.2351 71.3688 78.239C71.3688 78.2429 71.3688 78.2469 71.3687 78.2508C71.3687 78.2547 71.3687 78.2586 71.3687 78.2625C71.3687 78.2665 71.3686 78.2704 71.3686 78.2743C71.3686 78.2782 71.3686 78.2822 71.3686 78.2861C71.3686 78.29 71.3685 78.2939 71.3685 78.2978C71.3685 78.3018 71.3685 78.3057 71.3685 78.3096C71.3684 78.3135 71.3684 78.3175 71.3684 78.3214C71.3684 78.3253 71.3684 78.3292 71.3684 78.3331C71.3683 78.3371 71.3683 78.341 71.3683 78.3449C71.3683 78.3488 71.3683 78.3528 71.3683 78.3567C71.3682 78.3606 71.3682 78.3645 71.3682 78.3685C71.3682 78.3724 71.3682 78.3763 71.3681 78.3802C71.3681 78.3842 71.3681 78.3881 71.3681 78.392C71.3681 78.3959 71.3681 78.3999 71.368 78.4038C71.368 78.4077 71.368 78.4117 71.368 78.4156C71.368 78.4195 71.3679 78.4234 71.3679 78.4274C71.3679 78.4313 71.3679 78.4352 71.3679 78.4391C71.3679 78.4431 71.3678 78.447 71.3678 78.4509C71.3678 78.4548 71.3678 78.4588 71.3678 78.4627C71.3677 78.4666 71.3677 78.4706 71.3677 78.4745C71.3677 78.4784 71.3677 78.4823 71.3677 78.4863C71.3676 78.4902 71.3676 78.4941 71.3676 78.4981C71.3676 78.502 71.3676 78.5059 71.3675 78.5098C71.3675 78.5138 71.3675 78.5177 71.3675 78.5216C71.3675 78.5256 71.3675 78.5295 71.3674 78.5334C71.3674 78.5373 71.3674 78.5413 71.3674 78.5452C71.3674 78.5491 71.3674 78.5531 71.3673 78.557C71.3673 78.5609 71.3673 78.5649 71.3673 78.5688C71.3673 78.5727 71.3672 78.5767 71.3672 78.5806C71.3672 78.5845 71.3672 78.5884 71.3672 78.5924C71.3672 78.5963 71.3671 78.6002 71.3671 78.6042C71.3671 78.6081 71.3671 78.612 71.3671 78.616C71.367 78.6199 71.367 78.6238 71.367 78.6278C71.367 78.6317 71.367 78.6356 71.367 78.6396C71.3669 78.6435 71.3669 78.6474 71.3669 78.6514C71.3669 78.6553 71.3669 78.6592 71.3668 78.6632C71.3668 78.6671 71.3668 78.671 71.3668 78.675C71.3668 78.6789 71.3668 78.6828 71.3667 78.6868C71.3667 78.6907 71.3667 78.6946 71.3667 78.6986C71.3667 78.7025 71.3666 78.7064 71.3666 78.7104C71.3666 78.7143 71.3666 78.7182 71.3666 78.7222C71.3666 78.7261 71.3665 78.73 71.3665 78.734C71.3665 78.7379 71.3665 78.7419 71.3665 78.7458C71.3664 78.7497 71.3664 78.7537 71.3664 78.7576C71.3664 78.7615 71.3664 78.7655 71.3664 78.7694C71.3663 78.7733 71.3663 78.7773 71.3663 78.7812C71.3663 78.7852 71.3663 78.7891 71.3662 78.793C71.3662 78.797 71.3662 78.8009 71.3662 78.8048C71.3662 78.8088 71.3662 78.8127 71.3661 78.8167C71.3661 78.8206 71.3661 78.8245 71.3661 78.8285C71.3661 78.8324 71.3661 78.8363 71.366 78.8403C71.366 78.8442 71.366 78.8482 71.366 78.8521C71.366 78.856 71.3659 78.86 71.3659 78.8639C71.3659 78.8679 71.3659 78.8718 71.3659 78.8757C71.3659 78.8797 71.3658 78.8836 71.3658 78.8876C71.3658 78.8915 71.3658 78.8954 71.3658 78.8994C71.3657 78.9033 71.3657 78.9073 71.3657 78.9112C71.3657 78.9151 71.3657 78.9191 71.3657 78.923C71.3656 78.927 71.3656 78.9309 71.3656 78.9348C71.3656 78.9388 71.3656 78.9427 71.3655 78.9467C71.3655 78.9506 71.3655 78.9546 71.3655 78.9585C71.3655 78.9624 71.3655 78.9664 71.3654 78.9703C71.3654 78.9743 71.3654 78.9782 71.3654 78.9821C71.3654 78.9861 71.3653 78.99 71.3653 78.994C71.3653 78.9979 71.3653 79.0019 71.3653 79.0058C71.3653 79.0098 71.3652 79.0137 71.3652 79.0176C71.3652 79.0216 71.3652 79.0255 71.3652 79.0295C71.3651 79.0334 71.3651 79.0374 71.3651 79.0413C71.3651 79.0453 71.3651 79.0492 71.3651 79.0531C71.365 79.0571 71.365 79.061 71.365 79.065C71.365 79.0689 71.365 79.0729 71.3649 79.0768C71.3649 79.0808 71.3649 79.0847 71.3649 79.0886C71.3649 79.0926 71.3649 79.0965 71.3648 79.1005C71.3648 79.1044 71.3648 79.1084 71.3648 79.1123C71.3648 79.1163 71.3647 79.1202 71.3647 79.1242C71.3647 79.1281 71.3647 79.1321 71.3647 79.136C71.3647 79.14 71.3646 79.1439 71.3646 79.1478C71.3646 79.1518 71.3646 79.1557 71.3646 79.1597C71.3645 79.1636 71.3645 79.1676 71.3645 79.1715C71.3645 79.1755 71.3645 79.1794 71.3645 79.1834C71.3644 79.1873 71.3644 79.1913 71.3644 79.1952C71.3644 79.1992 71.3644 79.2031 71.3644 79.2071C71.3643 79.211 71.3643 79.215 71.3643 79.2189C71.3643 79.2229 71.3643 79.2268 71.3642 79.2308C71.3642 79.2347 71.3642 79.2387 71.3642 79.2426C71.3642 79.2466 71.3642 79.2505 71.3641 79.2545C71.3641 79.2584 71.3641 79.2624 71.3641 79.2663C71.3641 79.2703 71.364 79.2742 71.364 79.2782C71.364 79.2821 71.364 79.2861 71.364 79.29C71.364 79.294 71.3639 79.2979 71.3639 79.3019C71.3639 79.3058 71.3639 79.3098 71.3639 79.3137C71.3638 79.3177 71.3638 79.3217 71.3638 79.3256C71.3638 79.3296 71.3638 79.3335 71.3638 79.3375C71.3637 79.3414 71.3637 79.3454 71.3637 79.3493C71.3637 79.3533 71.3637 79.3572 71.3636 79.3612C71.3636 79.3651 71.3636 79.3691 71.3636 79.3731C71.3636 79.377 71.3636 79.381 71.3635 79.3849C71.3635 79.3889 71.3635 79.3928 71.3635 79.3968C71.3635 79.4007 71.3634 79.4047 71.3634 79.4086C71.3634 79.4126 71.3634 79.4166 71.3634 79.4205C71.3634 79.4245 71.3633 79.4284 71.3633 79.4324C71.3633 79.4363 71.3633 79.4403 71.3633 79.4442C71.3632 79.4482 71.3632 79.4522 71.3632 79.4561C71.3632 79.4601 71.3632 79.464 71.3632 79.468C71.3631 79.4719 71.3631 79.4759 71.3631 79.4799C71.3631 79.4838 71.3631 79.4878 71.363 79.4917C71.363 79.4957 71.363 79.4996 71.363 79.5036C71.363 79.5076 71.363 79.5115 71.3629 79.5155C71.3629 79.5194 71.3629 79.5234 71.3629 79.5273C71.3629 79.5313 71.3628 79.5353 71.3628 79.5392C71.3628 79.5432 71.3628 79.5471 71.3628 79.5511C71.3628 79.5551 71.3627 79.559 71.3627 79.563C71.3627 79.5669 71.3627 79.5709 71.3627 79.5749C71.3626 79.5788 71.3626 79.5828 71.3626 79.5867C71.3626 79.5907 71.3626 79.5947 71.3626 79.5986C71.3625 79.6026 71.3625 79.6065 71.3625 79.6105C71.3625 79.6145 71.3625 79.6184 71.3624 79.6224C71.3624 79.6264 71.3624 79.6303 71.3624 79.6343C71.3624 79.6382 71.3624 79.6422 71.3623 79.6462C71.3623 79.6501 71.3623 79.6541 71.3623 79.658C71.3623 79.662 71.3622 79.666 71.3622 79.6699C71.3622 79.6739 71.3622 79.6779 71.3622 79.6818C71.3622 79.6858 71.3621 79.6897 71.3621 79.6937C71.3621 79.6977 71.3621 79.7016 71.3621 79.7056C71.362 79.7096 71.362 79.7135 71.362 79.7175C71.362 79.7215 71.362 79.7254 71.362 79.7294C71.3619 79.7334 71.3619 79.7373 71.3619 79.7413C71.3619 79.7452 71.3619 79.7492 71.3618 79.7532C71.3618 79.7571 71.3618 79.7611 71.3618 79.7651C71.3618 79.769 71.3618 79.773 71.3617 79.777C71.3617 79.7809 71.3617 79.7849 71.3617 79.7889C71.3617 79.7928 71.3616 79.7968 71.3616 79.8008C71.3616 79.8047 71.3616 79.8087 71.3616 79.8127C71.3616 79.8166 71.3615 79.8206 71.3615 79.8246C71.3615 79.8285 71.3615 79.8325 71.3615 79.8365C71.3614 79.8404 71.3614 79.8444 71.3614 79.8484C71.3614 79.8523 71.3614 79.8563 71.3614 79.8603C71.3613 79.8642 71.3613 79.8682 71.3613 79.8722C71.3613 79.8762 71.3613 79.8801 71.3612 79.8841C71.3612 79.8881 71.3612 79.892 71.3612 79.896C71.3612 79.9 71.3612 79.9039 71.3611 79.9079C71.3611 79.9119 71.3611 79.9158 71.3611 79.9198C71.3611 79.9238 71.361 79.9278 71.361 79.9317C71.361 79.9357 71.361 79.9397 71.361 79.9436C71.361 79.9476 71.3609 79.9516 71.3609 79.9555C71.3609 79.9595 71.3609 79.9635 71.3609 79.9675C71.3608 79.9714 71.3608 79.9754 71.3608 79.9794C71.3608 79.9834 71.3608 79.9873 71.3608 79.9913C71.3607 79.9953 71.3607 79.9992 71.3607 80.0032C71.3607 80.0072 71.3607 80.0112 71.3606 80.0151C71.3606 80.0191 71.3606 80.0231 71.3606 80.027C71.3606 80.031 71.3606 80.035 71.3605 80.039C71.3605 80.0429 71.3605 80.0469 71.3605 80.0509C71.3605 80.0549 71.3604 80.0588 71.3604 80.0628C71.3604 80.0668 71.3604 80.0708 71.3604 80.0747C71.3604 80.0787 71.3603 80.0827 71.3603 80.0867C71.3603 80.0906 71.3603 80.0946 71.3603 80.0986C71.3602 80.1026 71.3602 80.1065 71.3602 80.1105C71.3602 80.1145 71.3602 80.1185 71.3602 80.1224C71.3601 80.1264 71.3601 80.1304 71.3601 80.1344C71.3601 80.1383 71.3601 80.1423 71.36 80.1463C71.36 80.1503 71.36 80.1542 71.36 80.1582C71.36 80.1622 71.36 80.1662 71.3599 80.1701C71.3599 80.1741 71.3599 80.1781 71.3599 80.1821C71.3599 80.1861 71.3598 80.19 71.3598 80.194C71.3598 80.198 71.3598 80.202 71.3598 80.206C71.3598 80.2099 71.3597 80.2139 71.3597 80.2179C71.3597 80.2219 71.3597 80.2258 71.3597 80.2298C71.3596 80.2338 71.3596 80.2378 71.3596 80.2418C71.3596 80.2457 71.3596 80.2497 71.3596 80.2537C71.3595 80.2577 71.3595 80.2617 71.3595 80.2656C71.3595 80.2696 71.3595 80.2736 71.3594 80.2776C71.3594 80.2816 71.3594 80.2855 71.3594 80.2895C71.3594 80.2935 71.3593 80.2975 71.3593 80.3015C71.3593 80.3054 71.3593 80.3094 71.3593 80.3134C71.3593 80.3174 71.3592 80.3214 71.3592 80.3254C71.3592 80.3293 71.3592 80.3333 71.3592 80.3373C71.3591 80.3413 71.3591 80.3453 71.3591 80.3492C71.3591 80.3532 71.3591 80.3572 71.3591 80.3612C71.359 80.3652 71.359 80.3692 71.359 80.3731C71.359 80.3771 71.359 80.3811 71.3589 80.3851C71.3589 80.3891 71.3589 80.3931 71.3589 80.397C71.3589 80.401 71.3589 80.405 71.3588 80.409C71.3588 80.413 71.3588 80.417 71.3588 80.4209C71.3588 80.4249 71.3587 80.4289 71.3587 80.4329C71.3587 80.4369 71.3587 80.4409 71.3587 80.4448C71.3587 80.4488 71.3586 80.4528 71.3586 80.4568C71.3586 80.4608 71.3586 80.4648 71.3586 80.4688C71.3585 80.4727 71.3585 80.4767 71.3585 80.4807C71.3585 80.4847 71.3585 80.4887 71.3585 80.4927C71.3584 80.4967 71.3584 80.5006 71.3584 80.5046C71.3584 80.5086 71.3584 80.5126 71.3583 80.5166C71.3583 80.5206 71.3583 80.5246 71.3583 80.5286C71.3583 80.5325 71.3583 80.5365 71.3582 80.5405C71.3582 80.5445 71.3582 80.5485 71.3582 80.5525C71.3582 80.5565 71.3581 80.5605 71.3581 80.5645C71.3581 80.5684 71.3581 80.5724 71.3581 80.5764C71.3581 80.5804 71.358 80.5844 71.358 80.5884C71.358 80.5924 71.358 80.5964 71.358 80.6004C71.3579 80.6043 71.3579 80.6083 71.3579 80.6123C71.3579 80.6163 71.3579 80.6203 71.3579 80.6243C71.3578 80.6283 71.3578 80.6323 71.3578 80.6363C71.3578 80.6403 71.3578 80.6442 71.3577 80.6482C71.3577 80.6522 71.3577 80.6562 71.3577 80.6602C71.3577 80.6642 71.3576 80.6682 71.3576 80.6722C71.3576 80.6762 71.3576 80.6802 71.3576 80.6842C71.3576 80.6882 71.3575 80.6921 71.3575 80.6961C71.3575 80.7001 71.3575 80.7041 71.3575 80.7081C71.3574 80.7121 71.3574 80.7161 71.3574 80.7201C71.3574 80.7241 71.3574 80.7281 71.3574 80.7321C71.3573 80.7361 71.3573 80.7401 71.3573 80.7441C71.3573 80.748 71.3573 80.752 71.3572 80.756C71.3572 80.76 71.3572 80.764 71.3572 80.768C71.3572 80.772 71.3572 80.776 71.3571 80.78C71.3571 80.784 71.3571 80.788 71.3571 80.792C71.3571 80.796 71.357 80.8 71.357 80.804C71.357 80.808 71.357 80.812 71.357 80.816C71.357 80.82 71.3569 80.8239 71.3569 80.8279C71.3569 80.8319 71.3569 80.8359 71.3569 80.8399C71.3568 80.8439 71.3568 80.8479 71.3568 80.8519C71.3568 80.8559 71.3568 80.8599 71.3568 80.8639C71.3567 80.8679 71.3567 80.8719 71.3567 80.8759C71.3567 80.8799 71.3567 80.8839 71.3566 80.8879C71.3566 80.8919 71.3566 80.8959 71.3566 80.8999C71.3566 80.9039 71.3566 80.9079 71.3565 80.9119C71.3565 80.9159 71.3565 80.9199 71.3565 80.9239C71.3565 80.9279 71.3564 80.9319 71.3564 80.9359C71.3564 80.9399 71.3564 80.9439 71.3564 80.9479C71.3563 80.9519 71.3563 80.9559 71.3563 80.9599C71.3563 80.9639 71.3563 80.9679 71.3563 80.9719C71.3562 80.9759 71.3562 80.9799 71.3562 80.9839C71.3562 80.9879 71.3562 80.9919 71.3561 80.9959C71.3561 80.9999 71.3561 81.0039 71.3561 81.0079C71.3561 81.0119 71.3561 81.0159 71.356 81.0199C71.356 81.0239 71.356 81.0279 71.356 81.0319C71.356 81.0359 71.3559 81.0399 71.3559 81.0439C71.3559 81.0479 71.3559 81.0519 71.3559 81.0559C71.3559 81.0599 71.3558 81.0639 71.3558 81.0679C71.3558 81.0719 71.3558 81.0759 71.3558 81.0799C71.3557 81.0839 71.3557 81.0879 71.3557 81.0919C71.3557 81.0959 71.3557 81.0999 71.3557 81.104C71.3556 81.108 71.3556 81.112 71.3556 81.116C71.3556 81.12 71.3556 81.124 71.3555 81.128C71.3555 81.132 71.3555 81.136 71.3555 81.14C71.3555 81.144 71.3554 81.148 71.3554 81.152C71.3554 81.156 71.3554 81.16 71.3554 81.164C71.3554 81.168 71.3553 81.172 71.3553 81.176C71.3553 81.18 71.3553 81.1841 71.3553 81.1881C71.3552 81.1921 71.3552 81.1961 71.3552 81.2001C71.3552 81.2041 71.3552 81.2081 71.3552 81.2121C71.3551 81.2161 71.3551 81.2201 71.3551 81.2241C71.3551 81.2281 71.3551 81.2321 71.355 81.2361C71.355 81.2402 71.355 81.2442 71.355 81.2482C71.355 81.2522 71.355 81.2562 71.3549 81.2602C71.3549 81.2642 71.3549 81.2682 71.3549 81.2722C71.3549 81.2762 71.3548 81.2802 71.3548 81.2842C71.3548 81.2883 71.3548 81.2923 71.3548 81.2963C71.3548 81.3003 71.3547 81.3043 71.3547 81.3083C71.3547 81.3123 71.3547 81.3163 71.3547 81.3203C71.3546 81.3243 71.3546 81.3284 71.3546 81.3324C71.3546 81.3364 71.3546 81.3404 71.3545 81.3444C71.3545 81.3484 71.3545 81.3524 71.3545 81.3564C71.3545 81.3604 71.3545 81.3645 71.3544 81.3685C71.3544 81.3725 71.3544 81.3765 71.3544 81.3805C71.3544 81.3845 71.3543 81.3885 71.3543 81.3925C71.3543 81.3966 71.3543 81.4006 71.3543 81.4046C71.3543 81.4086 71.3542 81.4126 71.3542 81.4166C71.3542 81.4206 71.3542 81.4246 71.3542 81.4287C71.3541 81.4327 71.3541 81.4367 71.3541 81.4407C71.3541 81.4447 71.3541 81.4487 71.3541 81.4527C71.354 81.4567 71.354 81.4608 71.354 81.4648C71.354 81.4688 71.354 81.4728 71.3539 81.4768C71.3539 81.4808 71.3539 81.4849 71.3539 81.4889C71.3539 81.4929 71.3538 81.4969 71.3538 81.5009C71.3538 81.5049 71.3538 81.5089 71.3538 81.513C71.3538 81.517 71.3537 81.521 71.3537 81.525C71.3537 81.529 71.3537 81.533 71.3537 81.5371C71.3536 81.5411 71.3536 81.5451 71.3536 81.5491C71.3536 81.5531 71.3536 81.5571 71.3536 81.5612C71.3535 81.5652 71.3535 81.5692 71.3535 81.5732C71.3535 81.5772 71.3535 81.5812 71.3534 81.5853C71.3534 81.5893 71.3534 81.5933 71.3534 81.5973C71.3534 81.6013 71.3534 81.6054 71.3533 81.6094C71.3533 81.6134 71.3533 81.6174 71.3533 81.6214C71.3533 81.6254 71.3532 81.6295 71.3532 81.6335C71.3532 81.6375 71.3532 81.6415 71.3532 81.6455C71.3531 81.6496 71.3531 81.6536 71.3531 81.6576C71.3531 81.6616 71.3531 81.6656 71.3531 81.6697C71.353 81.6737 71.353 81.6777 71.353 81.6817C71.353 81.6857 71.353 81.6898 71.3529 81.6938C71.3529 81.6978 71.3529 81.7018 71.3529 81.7058C71.3529 81.7099 71.3529 81.7139 71.3528 81.7179C71.3528 81.7219 71.3528 81.726 71.3528 81.73C71.3528 81.734 71.3527 81.738 71.3527 81.742C71.3527 81.7461 71.3527 81.7501 71.3527 81.7541C71.3527 81.7581 71.3526 81.7622 71.3526 81.7662C71.3526 81.7702 71.3526 81.7742 71.3526 81.7782C71.3525 81.7823 71.3525 81.7863 71.3525 81.7903C71.3525 81.7943 71.3525 81.7984 71.3524 81.8024C71.3524 81.8064 71.3524 81.8104 71.3524 81.8145C71.3524 81.8185 71.3524 81.8225 71.3523 81.8265C71.3523 81.8306 71.3523 81.8346 71.3523 81.8386C71.3523 81.8426 71.3522 81.8467 71.3522 81.8507C71.3522 81.8547 71.3522 81.8587 71.3522 81.8628C71.3522 81.8668 71.3521 81.8708 71.3521 81.8748C71.3521 81.8789 71.3521 81.8829 71.3521 81.8869C71.352 81.8909 71.352 81.895 71.352 81.899C71.352 81.903 71.352 81.9071 71.3519 81.9111C71.3519 81.9151 71.3519 81.9191 71.3519 81.9232C71.3519 81.9272 71.3519 81.9312 71.3518 81.9352C71.3518 81.9393 71.3518 81.9433 71.3518 81.9473C71.3518 81.9514 71.3517 81.9554 71.3517 81.9594C71.3517 81.9634 71.3517 81.9675 71.3517 81.9715C71.3517 81.9755 71.3516 81.9796 71.3516 81.9836C71.3516 81.9876 71.3516 81.9916 71.3516 81.9957C71.3515 81.9997 71.3515 82.0037 71.3515 82.0078C71.3515 82.0118 71.3515 82.0158 71.3515 82.0199C71.3514 82.0239 71.3514 82.0279 71.3514 82.0319C71.3514 82.036 71.3514 82.04 71.3513 82.044C71.3513 82.0481 71.3513 82.0521 71.3513 82.0561C71.3513 82.0602 71.3512 82.0642 71.3512 82.0682C71.3512 82.0722 71.3512 82.0763 71.3512 82.0803C71.3512 82.0843 71.3511 82.0884 71.3511 82.0924C71.3511 82.0964 71.3511 82.1005 71.3511 82.1045C71.351 82.1085 71.351 82.1126 71.351 82.1166C71.351 82.1206 71.351 82.1247 71.351 82.1287C71.3509 82.1327 71.3509 82.1368 71.3509 82.1408C71.3509 82.1448 71.3509 82.1489 71.3508 82.1529C71.3508 82.1569 71.3508 82.161 71.3508 82.165C71.3508 82.169 71.3507 82.1731 71.3507 82.1771C71.3507 82.1812 71.3507 82.1852 71.3507 82.1892C71.3507 82.1933 71.3506 82.1973 71.3506 82.2013C71.3506 82.2054 71.3506 82.2094 71.3506 82.2134C71.3505 82.2175 71.3505 82.2215 71.3505 82.2255C71.3505 82.2296 71.3505 82.2336 71.3505 82.2376C71.3504 82.2417 71.3504 82.2457 71.3504 82.2498C71.3504 82.2538 71.3504 82.2578 71.3503 82.2619C71.3503 82.2659 71.3503 82.2699 71.3503 82.274C71.3503 82.278 71.3502 82.282 71.3502 82.2861C71.3502 82.2901 71.3502 82.2942 71.3502 82.2982C71.3502 82.3022 71.3501 82.3063 71.3501 82.3103C71.3501 82.3144 71.3501 82.3184 71.3501 82.3224C71.35 82.3265 71.35 82.3305 71.35 82.3346C71.35 82.3386 71.35 82.3426 71.35 82.3467C71.3499 82.3507 71.3499 82.3547 71.3499 82.3588C71.3499 82.3628 71.3499 82.3669 71.3498 82.3709C71.3498 82.375 71.3498 82.379 71.3498 82.383C71.3498 82.3871 71.3497 82.3911 71.3497 82.3952C71.3497 82.3992 71.3497 82.4032 71.3497 82.4073C71.3497 82.4113 71.3496 82.4154 71.3496 82.4194C71.3496 82.4234 71.3496 82.4275 71.3496 82.4315C71.3495 82.4356 71.3495 82.4396 71.3495 82.4436C71.3495 82.4477 71.3495 82.4517 71.3495 82.4558C71.3494 82.4598 71.3494 82.4639 71.3494 82.4679C71.3494 82.4719 71.3494 82.476 71.3493 82.48C71.3493 82.4841 71.3493 82.4881 71.3493 82.4922C71.3493 82.4962 71.3492 82.5002 71.3492 82.5043C71.3492 82.5083 71.3492 82.5124 71.3492 82.5164C71.3492 82.5205 71.3491 82.5245 71.3491 82.5286C71.3491 82.5326 71.3491 82.5366 71.3491 82.5407C71.349 82.5447 71.349 82.5488 71.349 82.5528C71.349 82.5569 71.349 82.5609 71.349 82.565C71.3489 82.569 71.3489 82.5731 71.3489 82.5771C71.3489 82.5811 71.3489 82.5852 71.3488 82.5892C71.3488 82.5933 71.3488 82.5973 71.3488 82.6014C71.3488 82.6054 71.3487 82.6095 71.3487 82.6135C71.3487 82.6176 71.3487 82.6216 71.3487 82.6257C71.3487 82.6297 71.3486 82.6338 71.3486 82.6378C71.3486 82.6419 71.3486 82.6459 71.3486 82.6499C71.3485 82.654 71.3485 82.658 71.3485 82.6621C71.3485 82.6661 71.3485 82.6702 71.3484 82.6742C71.3484 82.6783 71.3484 82.6823 71.3484 82.6864C71.3484 82.6904 71.3484 82.6945 71.3483 82.6985C71.3483 82.7026 71.3483 82.7066 71.3483 82.7107C71.3483 82.7147 71.3482 82.7188 71.3482 82.7228C71.3482 82.7269 71.3482 82.7309 71.3482 82.735L73.3481 82.7442ZM73.3761 76.6579C73.3857 74.5561 73.3052 72.1878 73.1358 69.5549L71.1399 69.6833C71.3071 72.2817 71.3855 74.6029 71.3761 76.6487L73.3761 76.6579ZM73.1377 69.603C72.9955 60.7329 70.9225 53.9845 66.7308 49.5619L65.2792 50.9377C68.9842 54.8468 70.9997 61.0112 71.138 69.6351L73.1377 69.603ZM66.7382 49.5697C62.5136 45.0154 55.5109 42.8448 46.0218 42.8012L46.0126 44.8012C55.2781 44.8437 61.6007 46.9721 65.2719 50.9299L66.7382 49.5697ZM46.0218 42.8012L26.14 42.7101L26.1308 44.71L46.0126 44.8012L46.0218 42.8012ZM25.1354 43.7055L24.8067 115.388L26.8067 115.397L27.1354 43.7146L25.1354 43.7055Z" fill="white" mask="url(#path-26-outside-1_723_43)"/>
<path d="M51.182 86.1299L51.1821 86.13C51.2642 86.2263 51.2643 86.373 51.1896 86.471L51.1546 86.5025C51.0555 86.5917 50.9117 86.5808 50.8278 86.4814L50.8265 86.4798L49.3345 84.7261L49.3336 84.725C49.2962 84.6813 49.2713 84.617 49.2716 84.5484L49.2795 82.8171L49.2803 82.6471L49.1773 82.5119L48.4224 81.5209L47.5314 80.3512L47.5247 81.8216L47.5157 83.7934C47.5144 84.0704 47.2903 84.2924 47.0134 84.2911C46.7364 84.2899 46.5144 84.0658 46.5157 83.7889L46.5247 81.817L46.5315 80.3466L45.6298 81.5081L44.8659 82.4921L44.7616 82.6264L44.7608 82.7964L44.7529 84.5276C44.7526 84.5963 44.7271 84.6603 44.6893 84.7037L44.6884 84.7047L43.1825 86.4423C43.1822 86.4426 43.182 86.4429 43.1817 86.4432C43.0923 86.5441 42.9474 86.5509 42.8499 86.4625C42.7505 86.3724 42.7352 86.201 42.8321 86.0874C42.8323 86.0872 42.8325 86.087 42.8327 86.0868L44.1538 84.5632L44.2752 84.4233L44.2761 84.238L44.2839 82.5286C44.2842 82.4661 44.3048 82.4078 44.3405 82.3616C44.3406 82.3615 44.3407 82.3615 44.3407 82.3614L46.4308 79.6715L46.5352 79.5372L46.5359 79.367L46.536 79.3576L46.5412 78.2247L45.7007 78.9844L41.5146 82.7684L41.5015 82.7802L41.4892 82.793C40.0484 84.2933 37.518 83.2678 37.5283 81.0226C37.5341 79.758 38.4334 78.7277 39.5803 78.5808L39.5803 78.5809L39.5917 78.5792L44.3763 77.8542L45.3476 77.7071L44.657 77.0084L43.3879 75.7244L43.3874 75.724C43.3061 75.6419 43.2851 75.5042 43.348 75.3935C43.3482 75.3932 43.3483 75.393 43.3485 75.3927L44.1001 74.095L44.2651 73.8103L44.0688 73.5461L42.8833 71.9514C42.8832 71.9512 42.8831 71.9511 42.883 71.9509C42.7942 71.8301 42.8217 71.6605 42.9281 71.5774C43.0301 71.4977 43.1733 71.5138 43.2564 71.6246C43.2565 71.6248 43.2566 71.6249 43.2567 71.625L44.746 73.6267C44.7461 73.6268 44.7462 73.6269 44.7463 73.6271C44.8117 73.7157 44.8184 73.8352 44.7641 73.9297C44.7641 73.9299 44.764 73.93 44.7639 73.9301L44.0525 75.1604L43.8612 75.4912L44.1301 75.7626L45.6917 77.3386L46.5413 78.196L46.5469 76.9889L46.5523 75.7983C46.5534 75.5673 46.7125 75.371 46.9307 75.3151L47.0547 75.2834L47.1783 75.3162C47.3961 75.3741 47.5534 75.5719 47.5523 75.8029L47.5468 76.9966L47.5413 78.2054L48.3991 77.3537L49.975 75.7891L50.2468 75.5193L50.0571 75.1866L49.3546 73.9542C49.3545 73.954 49.3543 73.9537 49.3542 73.9535C49.301 73.8585 49.309 73.7393 49.375 73.6514C49.3751 73.6513 49.3752 73.6512 49.3753 73.651L50.8836 71.6622L50.8843 71.6613C50.9664 71.5525 51.1081 71.5358 51.212 71.6185C51.3204 71.7049 51.3437 71.8742 51.2551 71.9905L51.2543 71.9916L50.0533 73.5767L49.8549 73.8385L50.0164 74.1245L50.7535 75.4298C50.7536 75.43 50.7536 75.4301 50.7537 75.4303C50.8159 75.5416 50.7936 75.6793 50.7115 75.7607L50.711 75.7611L49.4302 77.0334L48.7332 77.7257L49.7031 77.8818L54.4809 78.6506L54.4809 78.6507L54.4936 78.6525C55.6446 78.8074 56.5339 79.8456 56.5281 81.1097C56.5178 83.355 53.9777 84.3575 52.5507 82.8465L52.5388 82.8339L52.526 82.8222L48.3748 78.9968L47.5412 78.2287L47.536 79.3622L47.5359 79.3716L47.5352 79.5418L47.6384 79.6771L49.7067 82.3891C49.7068 82.3892 49.7068 82.3892 49.7068 82.3893C49.7422 82.4359 49.7623 82.4943 49.762 82.5569L49.7541 84.2662L49.7533 84.4515L49.8734 84.5926L51.182 86.1299Z" fill="white" stroke="white"/>
</svg>
