<svg width="344" height="136" viewBox="0 0 344 136" fill="none" xmlns="http://www.w3.org/2000/svg">
<path d="M94.1857 112C94.0612 112 93.9553 111.963 93.8681 111.888C93.7934 111.813 93.756 111.714 93.756 111.589V99.3529C93.756 99.2159 93.7934 99.11 93.8681 99.0353C93.9553 98.9606 94.0612 98.9232 94.1857 98.9232H94.6527C94.7773 98.9232 94.8707 98.9543 94.9329 99.0166C94.9952 99.0789 95.0326 99.1287 95.045 99.1661L99.2856 107.423L103.545 99.1661C103.57 99.1287 103.607 99.0789 103.657 99.0166C103.719 98.9543 103.813 98.9232 103.937 98.9232H104.386C104.523 98.9232 104.628 98.9606 104.703 99.0353C104.778 99.11 104.815 99.2159 104.815 99.3529V111.589C104.815 111.714 104.778 111.813 104.703 111.888C104.628 111.963 104.523 112 104.386 112H104.049C103.925 112 103.825 111.963 103.75 111.888C103.676 111.813 103.638 111.714 103.638 111.589V101.464L100.07 108.488C100.02 108.612 99.9457 108.706 99.8461 108.768C99.7589 108.83 99.6406 108.862 99.4911 108.862H99.0801C98.9307 108.862 98.8124 108.83 98.7252 108.768C98.638 108.706 98.5633 108.612 98.501 108.488L94.9329 101.464V111.589C94.9329 111.714 94.8956 111.813 94.8208 111.888C94.7461 111.963 94.6465 112 94.522 112H94.1857ZM118.7 112.187C117.804 112.187 117.05 112 116.44 111.626C115.842 111.253 115.381 110.742 115.058 110.095C114.746 109.447 114.578 108.725 114.553 107.928C114.541 107.741 114.535 107.479 114.535 107.143C114.535 106.807 114.541 106.545 114.553 106.358C114.578 105.549 114.746 104.826 115.058 104.191C115.381 103.544 115.842 103.033 116.44 102.659C117.05 102.286 117.804 102.099 118.7 102.099C119.597 102.099 120.344 102.286 120.942 102.659C121.552 103.033 122.013 103.544 122.325 104.191C122.648 104.826 122.823 105.549 122.848 106.358C122.86 106.545 122.866 106.807 122.866 107.143C122.866 107.479 122.86 107.741 122.848 107.928C122.823 108.725 122.648 109.447 122.325 110.095C122.013 110.742 121.552 111.253 120.942 111.626C120.344 112 119.597 112.187 118.7 112.187ZM118.7 111.103C119.572 111.103 120.282 110.823 120.83 110.263C121.378 109.702 121.671 108.893 121.708 107.834C121.721 107.647 121.727 107.417 121.727 107.143C121.727 106.869 121.721 106.639 121.708 106.452C121.671 105.381 121.378 104.571 120.83 104.023C120.282 103.463 119.572 103.183 118.7 103.183C117.829 103.183 117.119 103.463 116.571 104.023C116.023 104.571 115.73 105.381 115.693 106.452C115.68 106.639 115.674 106.869 115.674 107.143C115.674 107.417 115.68 107.647 115.693 107.834C115.73 108.893 116.023 109.702 116.571 110.263C117.119 110.823 117.829 111.103 118.7 111.103ZM135.413 112.187C134.765 112.187 134.205 112.1 133.732 111.925C133.271 111.751 132.891 111.545 132.592 111.309C132.293 111.06 132.069 110.817 131.92 110.58C131.783 110.344 131.708 110.163 131.695 110.038C131.683 109.901 131.726 109.802 131.826 109.74C131.926 109.665 132.019 109.627 132.106 109.627H132.387C132.461 109.627 132.524 109.64 132.573 109.665C132.636 109.69 132.71 109.758 132.798 109.87C132.959 110.082 133.146 110.288 133.358 110.487C133.57 110.674 133.837 110.823 134.161 110.935C134.498 111.047 134.915 111.103 135.413 111.103C136.16 111.103 136.777 110.96 137.262 110.674C137.748 110.387 137.991 109.964 137.991 109.403C137.991 109.055 137.891 108.774 137.692 108.563C137.505 108.351 137.181 108.164 136.721 108.002C136.26 107.84 135.637 107.672 134.852 107.498C134.068 107.311 133.464 107.087 133.04 106.825C132.629 106.564 132.349 106.265 132.2 105.929C132.05 105.58 131.976 105.206 131.976 104.808C131.976 104.372 132.1 103.948 132.349 103.537C132.598 103.114 132.966 102.772 133.451 102.51C133.95 102.236 134.572 102.099 135.319 102.099C135.93 102.099 136.447 102.18 136.87 102.342C137.306 102.504 137.661 102.703 137.935 102.94C138.209 103.164 138.408 103.388 138.533 103.612C138.67 103.836 138.744 104.017 138.757 104.154C138.769 104.278 138.732 104.378 138.645 104.453C138.558 104.528 138.458 104.565 138.346 104.565H138.066C137.966 104.565 137.885 104.546 137.823 104.509C137.76 104.459 137.704 104.397 137.655 104.322C137.53 104.123 137.381 103.936 137.206 103.762C137.032 103.587 136.795 103.45 136.496 103.351C136.21 103.239 135.818 103.183 135.319 103.183C134.572 103.183 134.018 103.338 133.657 103.65C133.296 103.948 133.115 104.335 133.115 104.808C133.115 105.082 133.19 105.325 133.339 105.536C133.489 105.736 133.769 105.922 134.18 106.097C134.591 106.259 135.189 106.433 135.973 106.62C136.77 106.794 137.399 107.012 137.86 107.274C138.321 107.523 138.645 107.822 138.832 108.17C139.031 108.519 139.13 108.93 139.13 109.403C139.13 109.901 138.987 110.362 138.701 110.786C138.427 111.209 138.01 111.552 137.449 111.813C136.901 112.062 136.222 112.187 135.413 112.187ZM155.517 115.549C155.393 115.549 155.293 115.512 155.218 115.437C155.144 115.363 155.106 115.263 155.106 115.138V110.711C154.795 111.122 154.384 111.471 153.873 111.757C153.375 112.044 152.74 112.187 151.968 112.187C151.246 112.187 150.629 112.062 150.118 111.813C149.62 111.552 149.216 111.209 148.904 110.786C148.593 110.362 148.362 109.889 148.213 109.366C148.076 108.843 147.995 108.307 147.97 107.759C147.958 107.573 147.951 107.367 147.951 107.143C147.951 106.919 147.958 106.713 147.97 106.526C147.995 105.978 148.076 105.443 148.213 104.92C148.362 104.397 148.593 103.924 148.904 103.5C149.216 103.077 149.62 102.74 150.118 102.491C150.629 102.23 151.246 102.099 151.968 102.099C152.74 102.099 153.375 102.242 153.873 102.529C154.384 102.803 154.795 103.151 155.106 103.575V102.697C155.106 102.572 155.144 102.473 155.218 102.398C155.293 102.323 155.393 102.286 155.517 102.286H155.835C155.959 102.286 156.059 102.323 156.134 102.398C156.208 102.473 156.246 102.572 156.246 102.697V115.138C156.246 115.263 156.208 115.363 156.134 115.437C156.059 115.512 155.959 115.549 155.835 115.549H155.517ZM152.08 111.103C152.777 111.103 153.344 110.941 153.78 110.618C154.216 110.294 154.54 109.889 154.751 109.403C154.976 108.918 155.094 108.426 155.106 107.928C155.119 107.741 155.125 107.498 155.125 107.199C155.125 106.9 155.119 106.657 155.106 106.47C155.094 105.96 154.982 105.455 154.77 104.957C154.558 104.447 154.235 104.023 153.799 103.687C153.363 103.351 152.79 103.183 152.08 103.183C151.358 103.183 150.778 103.344 150.343 103.668C149.919 103.992 149.614 104.415 149.427 104.939C149.24 105.462 149.135 106.022 149.11 106.62C149.097 106.969 149.097 107.317 149.11 107.666C149.135 108.264 149.24 108.824 149.427 109.347C149.614 109.87 149.919 110.294 150.343 110.618C150.778 110.941 151.358 111.103 152.08 111.103ZM169.847 112.187C169 112.187 168.296 112.006 167.736 111.645C167.188 111.271 166.777 110.767 166.503 110.132C166.241 109.497 166.11 108.787 166.11 108.002V102.697C166.11 102.572 166.148 102.473 166.223 102.398C166.297 102.323 166.397 102.286 166.521 102.286H166.839C166.964 102.286 167.063 102.323 167.138 102.398C167.213 102.473 167.25 102.572 167.25 102.697V107.909C167.25 110.038 168.178 111.103 170.034 111.103C170.918 111.103 171.628 110.823 172.163 110.263C172.699 109.69 172.966 108.905 172.966 107.909V102.697C172.966 102.572 173.004 102.473 173.079 102.398C173.153 102.323 173.253 102.286 173.377 102.286H173.695C173.82 102.286 173.919 102.323 173.994 102.398C174.069 102.473 174.106 102.572 174.106 102.697V111.589C174.106 111.714 174.069 111.813 173.994 111.888C173.919 111.963 173.82 112 173.695 112H173.377C173.253 112 173.153 111.963 173.079 111.888C173.004 111.813 172.966 111.714 172.966 111.589V110.711C172.63 111.147 172.225 111.502 171.752 111.776C171.291 112.05 170.656 112.187 169.847 112.187ZM184.455 112C184.33 112 184.23 111.963 184.156 111.888C184.081 111.813 184.044 111.714 184.044 111.589V102.697C184.044 102.572 184.081 102.473 184.156 102.398C184.23 102.323 184.33 102.286 184.455 102.286H184.772C184.897 102.286 184.996 102.323 185.071 102.398C185.146 102.473 185.183 102.572 185.183 102.697V111.589C185.183 111.714 185.146 111.813 185.071 111.888C184.996 111.963 184.897 112 184.772 112H184.455ZM184.249 100.287C184.125 100.287 184.025 100.25 183.95 100.175C183.876 100.1 183.838 100 183.838 99.876V99.1661C183.838 99.0415 183.876 98.9419 183.95 98.8672C184.025 98.78 184.125 98.7364 184.249 98.7364H184.959C185.084 98.7364 185.183 98.78 185.258 98.8672C185.345 98.9419 185.389 99.0415 185.389 99.1661V99.876C185.389 100 185.345 100.1 185.258 100.175C185.183 100.25 185.084 100.287 184.959 100.287H184.249ZM198.384 112C197.737 112 197.226 111.863 196.852 111.589C196.479 111.315 196.217 110.941 196.068 110.468C195.918 109.995 195.844 109.466 195.844 108.88V103.369H194.387C194.262 103.369 194.162 103.332 194.088 103.257C194.013 103.183 193.976 103.083 193.976 102.958V102.697C193.976 102.572 194.013 102.473 194.088 102.398C194.162 102.323 194.262 102.286 194.387 102.286H195.844V99.1474C195.844 99.0228 195.881 98.9232 195.956 98.8485C196.03 98.7738 196.13 98.7364 196.255 98.7364H196.572C196.697 98.7364 196.796 98.7738 196.871 98.8485C196.946 98.9232 196.983 99.0228 196.983 99.1474V102.286H199.3C199.424 102.286 199.524 102.323 199.599 102.398C199.673 102.473 199.711 102.572 199.711 102.697V102.958C199.711 103.083 199.673 103.183 199.599 103.257C199.524 103.332 199.424 103.369 199.3 103.369H196.983V108.806C196.983 109.466 197.089 109.982 197.301 110.356C197.525 110.73 197.917 110.916 198.478 110.916H199.487C199.611 110.916 199.711 110.954 199.785 111.029C199.86 111.103 199.897 111.203 199.897 111.327V111.589C199.897 111.714 199.86 111.813 199.785 111.888C199.711 111.963 199.611 112 199.487 112H198.384ZM212.44 112.187C211.543 112.187 210.789 112 210.179 111.626C209.581 111.253 209.121 110.742 208.797 110.095C208.485 109.447 208.317 108.725 208.292 107.928C208.28 107.741 208.274 107.479 208.274 107.143C208.274 106.807 208.28 106.545 208.292 106.358C208.317 105.549 208.485 104.826 208.797 104.191C209.121 103.544 209.581 103.033 210.179 102.659C210.789 102.286 211.543 102.099 212.44 102.099C213.336 102.099 214.083 102.286 214.681 102.659C215.292 103.033 215.752 103.544 216.064 104.191C216.387 104.826 216.562 105.549 216.587 106.358C216.599 106.545 216.605 106.807 216.605 107.143C216.605 107.479 216.599 107.741 216.587 107.928C216.562 108.725 216.387 109.447 216.064 110.095C215.752 110.742 215.292 111.253 214.681 111.626C214.083 112 213.336 112.187 212.44 112.187ZM212.44 111.103C213.311 111.103 214.021 110.823 214.569 110.263C215.117 109.702 215.41 108.893 215.447 107.834C215.46 107.647 215.466 107.417 215.466 107.143C215.466 106.869 215.46 106.639 215.447 106.452C215.41 105.381 215.117 104.571 214.569 104.023C214.021 103.463 213.311 103.183 212.44 103.183C211.568 103.183 210.858 103.463 210.31 104.023C209.762 104.571 209.469 105.381 209.432 106.452C209.419 106.639 209.413 106.869 209.413 107.143C209.413 107.417 209.419 107.647 209.432 107.834C209.469 108.893 209.762 109.702 210.31 110.263C210.858 110.823 211.568 111.103 212.44 111.103ZM241.964 112.187C240.955 112.187 240.096 112.025 239.386 111.701C238.688 111.377 238.153 110.96 237.779 110.449C237.406 109.939 237.206 109.397 237.181 108.824C237.181 108.725 237.219 108.637 237.293 108.563C237.368 108.488 237.462 108.451 237.574 108.451H237.947C238.072 108.451 238.165 108.488 238.228 108.563C238.302 108.637 238.346 108.725 238.358 108.824C238.408 109.173 238.564 109.522 238.825 109.87C239.087 110.207 239.473 110.493 239.984 110.73C240.494 110.954 241.154 111.066 241.964 111.066C243.184 111.066 244.075 110.848 244.635 110.412C245.196 109.964 245.476 109.366 245.476 108.619C245.476 108.121 245.326 107.722 245.027 107.423C244.741 107.112 244.299 106.838 243.701 106.601C243.103 106.352 242.337 106.078 241.403 105.779C240.519 105.493 239.79 105.2 239.218 104.901C238.645 104.59 238.221 104.216 237.947 103.78C237.686 103.344 237.555 102.784 237.555 102.099C237.555 101.464 237.723 100.897 238.059 100.399C238.396 99.8884 238.881 99.4836 239.517 99.1847C240.164 98.8859 240.949 98.7364 241.87 98.7364C242.605 98.7364 243.246 98.836 243.794 99.0353C244.342 99.2346 244.797 99.5023 245.158 99.8386C245.519 100.162 245.793 100.517 245.98 100.903C246.167 101.277 246.267 101.644 246.279 102.006C246.279 102.093 246.248 102.18 246.186 102.267C246.123 102.342 246.024 102.379 245.887 102.379H245.513C245.451 102.379 245.37 102.354 245.27 102.304C245.183 102.255 245.127 102.155 245.102 102.006C245.027 101.383 244.697 100.872 244.112 100.474C243.539 100.063 242.792 99.8573 241.87 99.8573C240.949 99.8573 240.195 100.038 239.61 100.399C239.025 100.76 238.732 101.327 238.732 102.099C238.732 102.597 238.863 103.008 239.124 103.332C239.386 103.643 239.797 103.924 240.357 104.173C240.918 104.409 241.64 104.671 242.524 104.957C243.458 105.256 244.23 105.555 244.841 105.854C245.451 106.153 245.905 106.52 246.204 106.956C246.503 107.38 246.653 107.934 246.653 108.619C246.653 109.378 246.46 110.026 246.074 110.562C245.7 111.085 245.164 111.489 244.467 111.776C243.77 112.05 242.935 112.187 241.964 112.187ZM259.701 112.187C258.829 112.187 258.088 112.019 257.478 111.682C256.868 111.334 256.401 110.836 256.077 110.188C255.765 109.54 255.597 108.774 255.572 107.89C255.56 107.703 255.554 107.454 255.554 107.143C255.554 106.832 255.56 106.582 255.572 106.396C255.597 105.499 255.765 104.733 256.077 104.098C256.401 103.45 256.868 102.958 257.478 102.622C258.088 102.273 258.829 102.099 259.701 102.099C260.361 102.099 260.928 102.192 261.401 102.379C261.887 102.554 262.285 102.79 262.596 103.089C262.908 103.376 263.144 103.693 263.306 104.042C263.468 104.391 263.555 104.733 263.568 105.069C263.58 105.194 263.543 105.293 263.456 105.368C263.369 105.443 263.269 105.48 263.157 105.48H262.895C262.771 105.48 262.677 105.455 262.615 105.406C262.565 105.343 262.509 105.237 262.447 105.088C262.185 104.378 261.824 103.886 261.363 103.612C260.915 103.326 260.361 103.183 259.701 103.183C258.854 103.183 258.15 103.444 257.59 103.967C257.042 104.478 256.749 105.318 256.712 106.489C256.687 106.925 256.687 107.361 256.712 107.797C256.749 108.967 257.042 109.814 257.59 110.337C258.15 110.848 258.854 111.103 259.701 111.103C260.361 111.103 260.915 110.966 261.363 110.692C261.824 110.406 262.185 109.908 262.447 109.198C262.509 109.048 262.565 108.949 262.615 108.899C262.677 108.837 262.771 108.806 262.895 108.806H263.157C263.269 108.806 263.369 108.843 263.456 108.918C263.543 108.992 263.58 109.092 263.568 109.217C263.555 109.491 263.499 109.764 263.4 110.038C263.3 110.312 263.144 110.58 262.933 110.842C262.733 111.103 262.484 111.334 262.185 111.533C261.887 111.732 261.525 111.888 261.102 112C260.691 112.125 260.224 112.187 259.701 112.187ZM273.359 112C273.235 112 273.135 111.963 273.06 111.888C272.986 111.813 272.948 111.714 272.948 111.589V102.715C272.948 102.591 272.986 102.491 273.06 102.417C273.135 102.329 273.235 102.286 273.359 102.286H273.658C273.783 102.286 273.882 102.329 273.957 102.417C274.044 102.491 274.088 102.591 274.088 102.715V103.575C274.312 103.139 274.636 102.815 275.059 102.603C275.483 102.392 276.006 102.286 276.628 102.286H277.32C277.444 102.286 277.544 102.323 277.619 102.398C277.693 102.473 277.731 102.572 277.731 102.697V102.958C277.731 103.083 277.693 103.183 277.619 103.257C277.544 103.332 277.444 103.369 277.32 103.369H276.516C275.769 103.369 275.178 103.587 274.742 104.023C274.306 104.459 274.088 105.051 274.088 105.798V111.589C274.088 111.714 274.044 111.813 273.957 111.888C273.882 111.963 273.783 112 273.658 112H273.359ZM289.741 112.187C288.533 112.187 287.574 111.795 286.865 111.01C286.155 110.213 285.75 109.173 285.65 107.89C285.638 107.703 285.632 107.454 285.632 107.143C285.632 106.832 285.638 106.582 285.65 106.396C285.713 105.549 285.912 104.802 286.248 104.154C286.584 103.506 287.045 103.002 287.63 102.641C288.228 102.28 288.932 102.099 289.741 102.099C290.613 102.099 291.354 102.292 291.964 102.678C292.575 103.064 293.042 103.618 293.366 104.341C293.702 105.063 293.87 105.922 293.87 106.919V107.199C293.87 107.323 293.826 107.423 293.739 107.498C293.664 107.573 293.565 107.61 293.44 107.61H286.79C286.79 107.61 286.79 107.635 286.79 107.685C286.79 107.734 286.79 107.772 286.79 107.797C286.815 108.357 286.945 108.893 287.182 109.403C287.419 109.901 287.755 110.312 288.191 110.636C288.627 110.948 289.144 111.103 289.741 111.103C290.277 111.103 290.719 111.022 291.068 110.86C291.429 110.699 291.715 110.524 291.927 110.337C292.139 110.138 292.276 109.989 292.338 109.889C292.45 109.727 292.537 109.634 292.6 109.609C292.662 109.571 292.762 109.553 292.899 109.553H293.197C293.31 109.553 293.403 109.59 293.478 109.665C293.565 109.727 293.602 109.814 293.59 109.926C293.577 110.101 293.478 110.319 293.291 110.58C293.116 110.829 292.861 111.078 292.525 111.327C292.201 111.577 291.803 111.782 291.329 111.944C290.856 112.106 290.327 112.187 289.741 112.187ZM286.79 106.564H292.73V106.489C292.73 105.866 292.612 105.306 292.375 104.808C292.139 104.31 291.796 103.917 291.348 103.631C290.9 103.332 290.364 103.183 289.741 103.183C289.119 103.183 288.583 103.332 288.135 103.631C287.699 103.917 287.363 104.31 287.126 104.808C286.902 105.306 286.79 105.866 286.79 106.489V106.564ZM306.851 112.187C305.643 112.187 304.684 111.795 303.975 111.01C303.265 110.213 302.86 109.173 302.76 107.89C302.748 107.703 302.742 107.454 302.742 107.143C302.742 106.832 302.748 106.582 302.76 106.396C302.823 105.549 303.022 104.802 303.358 104.154C303.694 103.506 304.155 103.002 304.74 102.641C305.338 102.28 306.042 102.099 306.851 102.099C307.723 102.099 308.464 102.292 309.074 102.678C309.685 103.064 310.152 103.618 310.476 104.341C310.812 105.063 310.98 105.922 310.98 106.919V107.199C310.98 107.323 310.936 107.423 310.849 107.498C310.774 107.573 310.675 107.61 310.55 107.61H303.9C303.9 107.61 303.9 107.635 303.9 107.685C303.9 107.734 303.9 107.772 303.9 107.797C303.925 108.357 304.055 108.893 304.292 109.403C304.529 109.901 304.865 110.312 305.301 110.636C305.737 110.948 306.254 111.103 306.851 111.103C307.387 111.103 307.829 111.022 308.178 110.86C308.539 110.699 308.825 110.524 309.037 110.337C309.249 110.138 309.386 109.989 309.448 109.889C309.56 109.727 309.647 109.634 309.71 109.609C309.772 109.571 309.872 109.553 310.009 109.553H310.307C310.42 109.553 310.513 109.59 310.588 109.665C310.675 109.727 310.712 109.814 310.7 109.926C310.687 110.101 310.588 110.319 310.401 110.58C310.226 110.829 309.971 111.078 309.635 111.327C309.311 111.577 308.913 111.782 308.439 111.944C307.966 112.106 307.437 112.187 306.851 112.187ZM303.9 106.564H309.84V106.489C309.84 105.866 309.722 105.306 309.485 104.808C309.249 104.31 308.906 103.917 308.458 103.631C308.01 103.332 307.474 103.183 306.851 103.183C306.229 103.183 305.693 103.332 305.245 103.631C304.809 103.917 304.473 104.31 304.236 104.808C304.012 105.306 303.9 105.866 303.9 106.489V106.564ZM320.767 112C320.642 112 320.543 111.963 320.468 111.888C320.393 111.813 320.356 111.714 320.356 111.589V102.697C320.356 102.572 320.393 102.473 320.468 102.398C320.543 102.323 320.642 102.286 320.767 102.286H321.085C321.209 102.286 321.309 102.323 321.383 102.398C321.458 102.473 321.496 102.572 321.496 102.697V103.575C321.832 103.139 322.237 102.784 322.71 102.51C323.196 102.236 323.837 102.099 324.634 102.099C325.481 102.099 326.185 102.286 326.745 102.659C327.318 103.021 327.741 103.519 328.015 104.154C328.302 104.777 328.445 105.487 328.445 106.284V111.589C328.445 111.714 328.408 111.813 328.333 111.888C328.258 111.963 328.158 112 328.034 112H327.716C327.592 112 327.492 111.963 327.417 111.888C327.343 111.813 327.305 111.714 327.305 111.589V106.377C327.305 105.381 327.063 104.602 326.577 104.042C326.091 103.469 325.381 103.183 324.447 103.183C323.563 103.183 322.847 103.469 322.299 104.042C321.763 104.602 321.496 105.381 321.496 106.377V111.589C321.496 111.714 321.458 111.813 321.383 111.888C321.309 111.963 321.209 112 321.085 112H320.767Z" fill="#384D4B"/>
<path d="M94.6181 90.2246C94.1308 90.2246 93.7542 90.0917 93.4884 89.8259C93.2226 89.5158 93.0897 89.1393 93.0897 88.6963V45.3047C93.0897 44.8174 93.2226 44.4408 93.4884 44.175C93.7542 43.8649 94.1308 43.7099 94.6181 43.7099H122.062C122.549 43.7099 122.926 43.8649 123.191 44.175C123.457 44.4408 123.59 44.8174 123.59 45.3047V47.8297C123.59 48.317 123.457 48.6936 123.191 48.9594C122.926 49.2252 122.549 49.3581 122.062 49.3581H99.4689V63.9106H120.6C121.087 63.9106 121.464 64.0656 121.73 64.3757C121.995 64.6415 122.128 65.018 122.128 65.5053V67.964C122.128 68.407 121.995 68.7835 121.73 69.0936C121.464 69.3594 121.087 69.4923 120.6 69.4923H99.4689V84.5764H122.593C123.081 84.5764 123.457 84.7093 123.723 84.9751C123.989 85.2409 124.122 85.6174 124.122 86.1047V88.6963C124.122 89.1393 123.989 89.5158 123.723 89.8259C123.457 90.0917 123.081 90.2246 122.593 90.2246H94.6181ZM142.226 90.2246C141.738 90.2246 141.362 90.0917 141.096 89.8259C140.83 89.5158 140.697 89.1393 140.697 88.6963V45.2382C140.697 44.7952 140.83 44.4408 141.096 44.175C141.362 43.8649 141.738 43.7099 142.226 43.7099H145.747C146.19 43.7099 146.545 43.8649 146.811 44.175C147.076 44.4408 147.209 44.7952 147.209 45.2382V84.4435H169.337C169.824 84.4435 170.201 84.5985 170.467 84.9086C170.732 85.1744 170.865 85.551 170.865 86.0383V88.6963C170.865 89.1393 170.732 89.5158 170.467 89.8259C170.201 90.0917 169.824 90.2246 169.337 90.2246H142.226ZM186.978 90.2246C186.535 90.2246 186.158 90.0917 185.848 89.8259C185.582 89.5158 185.45 89.1393 185.45 88.6963V45.3047C185.45 44.8174 185.582 44.4408 185.848 44.175C186.158 43.8649 186.535 43.7099 186.978 43.7099H190.3C190.832 43.7099 191.231 43.8428 191.496 44.1086C191.762 44.3744 191.917 44.5959 191.962 44.7731L206.049 71.6187L220.203 44.7731C220.291 44.5959 220.446 44.3744 220.668 44.1086C220.934 43.8428 221.332 43.7099 221.864 43.7099H225.12C225.607 43.7099 225.984 43.8649 226.25 44.175C226.56 44.4408 226.715 44.8174 226.715 45.3047V88.6963C226.715 89.1393 226.56 89.5158 226.25 89.8259C225.984 90.0917 225.607 90.2246 225.12 90.2246H221.864C221.421 90.2246 221.044 90.0917 220.734 89.8259C220.468 89.5158 220.336 89.1393 220.336 88.6963V56.003L209.238 77.6656C209.061 78.1086 208.795 78.463 208.441 78.7288C208.087 78.9503 207.644 79.0611 207.112 79.0611H205.052C204.476 79.0611 204.011 78.9503 203.657 78.7288C203.347 78.463 203.081 78.1086 202.859 77.6656L191.762 56.003V88.6963C191.762 89.1393 191.607 89.5158 191.297 89.8259C191.031 90.0917 190.677 90.2246 190.234 90.2246H186.978ZM247.045 90.2246C246.557 90.2246 246.181 90.0917 245.915 89.8259C245.649 89.5158 245.516 89.1393 245.516 88.6963V45.3047C245.516 44.8174 245.649 44.4408 245.915 44.175C246.181 43.8649 246.557 43.7099 247.045 43.7099H274.488C274.976 43.7099 275.352 43.8649 275.618 44.175C275.884 44.4408 276.017 44.8174 276.017 45.3047V47.8297C276.017 48.317 275.884 48.6936 275.618 48.9594C275.352 49.2252 274.976 49.3581 274.488 49.3581H251.895V63.9106H273.026C273.514 63.9106 273.89 64.0656 274.156 64.3757C274.422 64.6415 274.555 65.018 274.555 65.5053V67.964C274.555 68.407 274.422 68.7835 274.156 69.0936C273.89 69.3594 273.514 69.4923 273.026 69.4923H251.895V84.5764H275.02C275.507 84.5764 275.884 84.7093 276.15 84.9751C276.415 85.2409 276.548 85.6174 276.548 86.1047V88.6963C276.548 89.1393 276.415 89.5158 276.15 89.8259C275.884 90.0917 275.507 90.2246 275.02 90.2246H247.045ZM294.652 90.2246C294.165 90.2246 293.788 90.0917 293.523 89.8259C293.257 89.5158 293.124 89.1393 293.124 88.6963V45.3047C293.124 44.8174 293.257 44.4408 293.523 44.175C293.788 43.8649 294.165 43.7099 294.652 43.7099H297.709C298.24 43.7099 298.639 43.8428 298.905 44.1086C299.171 44.3301 299.326 44.5073 299.37 44.6402L321.431 78.5295V45.3047C321.431 44.8174 321.564 44.4408 321.83 44.175C322.096 43.8649 322.472 43.7099 322.96 43.7099H326.149C326.637 43.7099 327.013 43.8649 327.279 44.175C327.589 44.4408 327.744 44.8174 327.744 45.3047V88.6298C327.744 89.0728 327.589 89.4494 327.279 89.7595C327.013 90.0696 326.659 90.2246 326.216 90.2246H323.026C322.539 90.2246 322.162 90.0917 321.897 89.8259C321.675 89.5601 321.52 89.3829 321.431 89.2943L299.437 55.7372V88.6963C299.437 89.1393 299.282 89.5158 298.971 89.8259C298.706 90.0917 298.329 90.2246 297.842 90.2246H294.652Z" fill="#384D4B"/>
<line x1="15.992" y1="64.6961" x2="49.1246" y2="35.8478" stroke="#384D4B"/>
<line x1="14.0486" y1="54.6775" x2="37.1355" y2="35.7832" stroke="#384D4B"/>
<line x1="14.9088" y1="79.7047" x2="57.0918" y2="39.8978" stroke="#384D4B"/>
<line x1="14.8413" y1="91.7153" x2="65.3946" y2="41.0184" stroke="#384D4B"/>
<line y1="-0.5" x2="87.8376" y2="-0.5" transform="matrix(0.70153 -0.71264 0.41751 0.908673 13.2715 106.704)" stroke="#384D4B"/>
<line y1="-0.5" x2="87.8376" y2="-0.5" transform="matrix(0.70153 -0.71264 0.41751 0.908673 17.6191 114.313)" stroke="#384D4B"/>
<line y1="-0.5" x2="87.8376" y2="-0.5" transform="matrix(0.70153 -0.71264 0.41751 0.908673 21.9629 121.922)" stroke="#384D4B"/>
<line x1="30.9585" y1="121.868" x2="81.9489" y2="71.8578" stroke="#384D4B"/>
<line x1="41.6771" y1="125.85" x2="83.883" y2="81.0426" stroke="#384D4B"/>
<line x1="51.6672" y1="126.9" x2="82.8228" y2="93.0422" stroke="#384D4B"/>
<line x1="19.6505" y1="35.6275" x2="85.5214" y2="63.9299" stroke="#384D4B"/>
<line x1="14.0375" y1="38.604" x2="82.5102" y2="68.767" stroke="#384D4B"/>
<line x1="18.5882" y1="48.6219" x2="85.1807" y2="76.9276" stroke="#384D4B"/>
<line x1="16.5612" y1="54.6132" x2="83.015" y2="82.9183" stroke="#384D4B"/>
<line x1="15.5268" y1="61.607" x2="80.8446" y2="88.9069" stroke="#384D4B"/>
<line x1="20.4854" y1="70.6293" x2="78.6784" y2="94.8965" stroke="#384D4B"/>
<line x1="17.4767" y1="74.6203" x2="76.5199" y2="100.891" stroke="#384D4B"/>
<line x1="17.4451" y1="81.6202" x2="74.3522" y2="106.881" stroke="#384D4B"/>
<line x1="18.4035" y1="89.6231" x2="72.1811" y2="112.87" stroke="#384D4B"/>
<line x1="15.3767" y1="94.608" x2="70.2706" y2="117.86" stroke="#384D4B"/>
<line x1="16.347" y1="101.613" x2="61.2594" y2="120.819" stroke="#384D4B"/>
<line x1="13.307" y1="107.594" x2="54.2331" y2="123.782" stroke="#384D4B"/>
<path d="M14.2679 114.596L44.3087 125.225" stroke="#384D4B"/>
<mask id="path-26-outside-1_727_3" maskUnits="userSpaceOnUse" x="10.0366" y="30.0455" width="76.4441" height="97.3475" fill="black">
<rect fill="white" x="10.0366" y="30.0455" width="76.4441" height="97.3475"/>
<path d="M14.9188 126.067C13.9269 126.062 13.1618 125.788 12.6232 125.245C12.0851 124.611 11.8182 123.844 11.8223 122.942L12.2273 34.6236C12.2319 33.6318 12.5059 32.8666 13.0494 32.3281C13.5933 31.6994 14.3612 31.3873 15.353 31.3919L46.0547 31.5327C55.3419 31.5753 62.8193 33.0072 68.487 35.8284C74.1547 38.6496 78.2834 42.8163 80.873 48.3285C83.463 53.7505 84.7849 60.429 84.8387 68.3641C84.9102 72.422 84.939 75.9838 84.9249 79.0495C84.9109 82.1151 84.8496 85.6314 84.7413 89.5984C84.5229 97.8929 83.0937 104.784 80.4536 110.272C77.9041 115.671 73.828 119.71 68.2253 122.389C62.7131 124.979 55.4036 126.253 46.2968 126.211L14.9188 126.067ZM25.1153 114.617L45.6733 114.711C51.8948 114.74 56.8579 113.906 60.5626 112.21C64.2672 110.514 66.9398 107.776 68.5802 103.996C70.3107 100.217 71.2353 95.217 71.354 88.9959C71.5467 86.2918 71.6477 83.9478 71.6568 81.9642C71.6663 79.8903 71.6756 77.8616 71.6847 75.8779C71.6942 73.8041 71.6148 71.4593 71.4464 68.8437C71.3062 60.0967 69.2619 53.6403 65.3136 49.4744C61.3657 45.2184 54.7031 43.0688 45.3258 43.0258L25.444 42.9347L25.1153 114.617Z"/>
</mask>
<path d="M14.9188 126.067C13.9269 126.062 13.1618 125.788 12.6232 125.245C12.0851 124.611 11.8182 123.844 11.8223 122.942L12.2273 34.6236C12.2319 33.6318 12.5059 32.8666 13.0494 32.3281C13.5933 31.6994 14.3612 31.3873 15.353 31.3919L46.0547 31.5327C55.3419 31.5753 62.8193 33.0072 68.487 35.8284C74.1547 38.6496 78.2834 42.8163 80.873 48.3285C83.463 53.7505 84.7849 60.429 84.8387 68.3641C84.9102 72.422 84.939 75.9838 84.9249 79.0495C84.9109 82.1151 84.8496 85.6314 84.7413 89.5984C84.5229 97.8929 83.0937 104.784 80.4536 110.272C77.9041 115.671 73.828 119.71 68.2253 122.389C62.7131 124.979 55.4036 126.253 46.2968 126.211L14.9188 126.067ZM25.1153 114.617L45.6733 114.711C51.8948 114.74 56.8579 113.906 60.5626 112.21C64.2672 110.514 66.9398 107.776 68.5802 103.996C70.3107 100.217 71.2353 95.217 71.354 88.9959C71.5467 86.2918 71.6477 83.9478 71.6568 81.9642C71.6663 79.8903 71.6756 77.8616 71.6847 75.8779C71.6942 73.8041 71.6148 71.4593 71.4464 68.8437C71.3062 60.0967 69.2619 53.6403 65.3136 49.4744C61.3657 45.2184 54.7031 43.0688 45.3258 43.0258L25.444 42.9347L25.1153 114.617Z" fill="#384D4B"/>
<path d="M12.6232 125.245L11.861 125.892L11.8859 125.921L11.9129 125.949L12.6232 125.245ZM13.0494 32.3281L13.7532 33.0384L13.7805 33.0114L13.8057 32.9823L13.0494 32.3281ZM68.487 35.8284L68.0414 36.7236L68.0414 36.7236L68.487 35.8284ZM80.873 48.3285L79.9679 48.7537L79.9706 48.7595L80.873 48.3285ZM84.8387 68.3641L83.8386 68.3709L83.8388 68.3817L84.8387 68.3641ZM84.7413 89.5984L83.7416 89.571L83.7416 89.572L84.7413 89.5984ZM80.4536 110.272L79.5524 109.839L79.5494 109.845L80.4536 110.272ZM68.2253 122.389L68.6505 123.294L68.6567 123.291L68.2253 122.389ZM25.1153 114.617L24.1153 114.613L24.1107 115.613L25.1107 115.617L25.1153 114.617ZM68.5802 103.996L67.6709 103.58L67.6668 103.589L67.6628 103.598L68.5802 103.996ZM71.354 88.9959L70.3565 88.9248L70.3547 88.9508L70.3542 88.9769L71.354 88.9959ZM71.4464 68.8437L70.4466 68.8597L70.4469 68.8838L70.4485 68.9079L71.4464 68.8437ZM65.3136 49.4744L64.5804 50.1545L64.5878 50.1623L65.3136 49.4744ZM25.444 42.9347L25.4486 41.9347L24.4486 41.9301L24.444 42.9301L25.444 42.9347ZM14.9234 125.067C14.1147 125.063 13.6347 124.845 13.3336 124.541L11.9129 125.949C12.6888 126.732 13.7392 127.062 14.9142 127.067L14.9234 125.067ZM13.3855 124.598C13.0154 124.162 12.8191 123.631 12.8223 122.946L10.8223 122.937C10.8172 124.056 11.1549 125.061 11.861 125.892L13.3855 124.598ZM12.8223 122.946L13.2273 34.6282L11.2274 34.619L10.8223 122.937L12.8223 122.946ZM13.2273 34.6282C13.231 33.8196 13.4494 33.3395 13.7532 33.0384L12.3455 31.6177C11.5625 32.3937 11.2327 33.444 11.2274 34.619L13.2273 34.6282ZM13.8057 32.9823C14.1214 32.6174 14.5865 32.3884 15.3484 32.3919L15.3576 30.3919C14.1358 30.3863 13.0652 30.7814 12.2931 31.6738L13.8057 32.9823ZM15.3484 32.3919L46.0502 32.5327L46.0593 30.5327L15.3576 30.3919L15.3484 32.3919ZM46.0502 32.5327C55.2502 32.5749 62.5596 33.9949 68.0414 36.7236L68.9326 34.9332C63.0791 32.0194 55.4337 30.5757 46.0593 30.5327L46.0502 32.5327ZM68.0414 36.7236C73.516 39.4487 77.4781 43.454 79.9679 48.7537L81.7781 47.9033C79.0886 42.1786 74.7935 37.8505 68.9326 34.9332L68.0414 36.7236ZM79.9706 48.7595C82.4805 54.0136 83.7856 60.5377 83.8387 68.3709L85.8386 68.3573C85.7842 60.3203 84.4455 53.4873 81.7753 47.8974L79.9706 48.7595ZM83.8388 68.3817C83.9103 72.4344 83.9389 75.9885 83.9249 79.0449L85.9249 79.0541C85.939 75.9791 85.9102 72.4096 85.8385 68.3465L83.8388 68.3817ZM83.9249 79.0449C83.9109 82.1012 83.8499 85.6096 83.7416 89.571L85.7409 89.6257C85.8494 85.6532 85.9108 82.1291 85.9249 79.0541L83.9249 79.0449ZM83.7416 89.572C83.5257 97.7736 82.1134 104.515 79.5525 109.839L81.3548 110.706C84.074 105.053 85.5201 98.0121 85.7409 89.6247L83.7416 89.572ZM79.5494 109.845C77.1024 115.027 73.1981 118.902 67.7939 121.487L68.6567 123.291C74.458 120.517 78.7059 116.315 81.3579 110.699L79.5494 109.845ZM67.8001 121.484C62.4722 123.987 55.3269 125.252 46.3014 125.211L46.2922 127.211C55.4804 127.253 62.954 125.97 68.6505 123.294L67.8001 121.484ZM46.3014 125.211L14.9234 125.067L14.9142 127.067L46.2922 127.211L46.3014 125.211ZM25.1107 115.617L45.6687 115.711L45.6779 113.711L25.1198 113.617L25.1107 115.617ZM45.6687 115.711C51.9662 115.74 57.0911 114.899 60.9789 113.119L60.1463 111.301C56.6247 112.913 51.8234 113.74 45.6779 113.711L45.6687 115.711ZM60.9789 113.119C64.9107 111.319 67.7601 108.398 69.4975 104.394L67.6628 103.598C66.1195 107.154 63.6238 109.708 60.1463 111.301L60.9789 113.119ZM69.4894 104.413C71.2982 100.463 72.2337 95.3114 72.3538 89.015L70.3542 88.9769C70.2369 95.1227 69.3232 99.9717 67.6709 103.58L69.4894 104.413ZM72.3515 89.067C72.5453 86.3481 72.6475 83.981 72.6567 81.9688L70.6568 81.9596C70.6478 83.9147 70.5482 86.2354 70.3565 88.9248L72.3515 89.067ZM72.6567 81.9688C72.6568 81.9647 72.6568 81.9607 72.6568 81.9566C72.6568 81.9526 72.6568 81.9485 72.6569 81.9445C72.6569 81.9404 72.6569 81.9364 72.6569 81.9323C72.6569 81.9283 72.6569 81.9242 72.657 81.9202C72.657 81.9161 72.657 81.9121 72.657 81.908C72.657 81.904 72.6571 81.8999 72.6571 81.8959C72.6571 81.8918 72.6571 81.8878 72.6571 81.8837C72.6572 81.8797 72.6572 81.8756 72.6572 81.8716C72.6572 81.8675 72.6572 81.8635 72.6572 81.8594C72.6573 81.8554 72.6573 81.8514 72.6573 81.8473C72.6573 81.8433 72.6573 81.8392 72.6574 81.8352C72.6574 81.8311 72.6574 81.8271 72.6574 81.823C72.6574 81.819 72.6574 81.8149 72.6575 81.8109C72.6575 81.8068 72.6575 81.8028 72.6575 81.7987C72.6575 81.7947 72.6576 81.7907 72.6576 81.7866C72.6576 81.7826 72.6576 81.7785 72.6576 81.7745C72.6577 81.7704 72.6577 81.7664 72.6577 81.7623C72.6577 81.7583 72.6577 81.7543 72.6577 81.7502C72.6578 81.7462 72.6578 81.7421 72.6578 81.7381C72.6578 81.734 72.6578 81.73 72.6579 81.7259C72.6579 81.7219 72.6579 81.7179 72.6579 81.7138C72.6579 81.7098 72.6579 81.7057 72.658 81.7017C72.658 81.6976 72.658 81.6936 72.658 81.6896C72.658 81.6855 72.6581 81.6815 72.6581 81.6774C72.6581 81.6734 72.6581 81.6693 72.6581 81.6653C72.6582 81.6613 72.6582 81.6572 72.6582 81.6532C72.6582 81.6491 72.6582 81.6451 72.6582 81.6411C72.6583 81.637 72.6583 81.633 72.6583 81.6289C72.6583 81.6249 72.6583 81.6209 72.6584 81.6168C72.6584 81.6128 72.6584 81.6087 72.6584 81.6047C72.6584 81.6006 72.6584 81.5966 72.6585 81.5926C72.6585 81.5885 72.6585 81.5845 72.6585 81.5805C72.6585 81.5764 72.6586 81.5724 72.6586 81.5683C72.6586 81.5643 72.6586 81.5603 72.6586 81.5562C72.6587 81.5522 72.6587 81.5481 72.6587 81.5441C72.6587 81.5401 72.6587 81.536 72.6587 81.532C72.6588 81.5279 72.6588 81.5239 72.6588 81.5199C72.6588 81.5158 72.6588 81.5118 72.6589 81.5078C72.6589 81.5037 72.6589 81.4997 72.6589 81.4956C72.6589 81.4916 72.659 81.4876 72.659 81.4835C72.659 81.4795 72.659 81.4755 72.659 81.4714C72.659 81.4674 72.6591 81.4634 72.6591 81.4593C72.6591 81.4553 72.6591 81.4512 72.6591 81.4472C72.6592 81.4432 72.6592 81.4391 72.6592 81.4351C72.6592 81.4311 72.6592 81.427 72.6592 81.423C72.6593 81.419 72.6593 81.4149 72.6593 81.4109C72.6593 81.4069 72.6593 81.4028 72.6594 81.3988C72.6594 81.3948 72.6594 81.3907 72.6594 81.3867C72.6594 81.3827 72.6594 81.3786 72.6595 81.3746C72.6595 81.3706 72.6595 81.3665 72.6595 81.3625C72.6595 81.3585 72.6596 81.3544 72.6596 81.3504C72.6596 81.3464 72.6596 81.3423 72.6596 81.3383C72.6597 81.3343 72.6597 81.3302 72.6597 81.3262C72.6597 81.3222 72.6597 81.3181 72.6597 81.3141C72.6598 81.3101 72.6598 81.306 72.6598 81.302C72.6598 81.298 72.6598 81.2939 72.6599 81.2899C72.6599 81.2859 72.6599 81.2818 72.6599 81.2778C72.6599 81.2738 72.6599 81.2698 72.66 81.2657C72.66 81.2617 72.66 81.2577 72.66 81.2536C72.66 81.2496 72.6601 81.2456 72.6601 81.2415C72.6601 81.2375 72.6601 81.2335 72.6601 81.2295C72.6602 81.2254 72.6602 81.2214 72.6602 81.2174C72.6602 81.2133 72.6602 81.2093 72.6602 81.2053C72.6603 81.2012 72.6603 81.1972 72.6603 81.1932C72.6603 81.1892 72.6603 81.1851 72.6604 81.1811C72.6604 81.1771 72.6604 81.1731 72.6604 81.169C72.6604 81.165 72.6604 81.161 72.6605 81.1569C72.6605 81.1529 72.6605 81.1489 72.6605 81.1449C72.6605 81.1408 72.6606 81.1368 72.6606 81.1328C72.6606 81.1288 72.6606 81.1247 72.6606 81.1207C72.6607 81.1167 72.6607 81.1126 72.6607 81.1086C72.6607 81.1046 72.6607 81.1006 72.6607 81.0965C72.6608 81.0925 72.6608 81.0885 72.6608 81.0845C72.6608 81.0804 72.6608 81.0764 72.6609 81.0724C72.6609 81.0684 72.6609 81.0643 72.6609 81.0603C72.6609 81.0563 72.6609 81.0523 72.661 81.0482C72.661 81.0442 72.661 81.0402 72.661 81.0362C72.661 81.0321 72.6611 81.0281 72.6611 81.0241C72.6611 81.0201 72.6611 81.0161 72.6611 81.012C72.6611 81.008 72.6612 81.004 72.6612 81C72.6612 80.9959 72.6612 80.9919 72.6612 80.9879C72.6613 80.9839 72.6613 80.9798 72.6613 80.9758C72.6613 80.9718 72.6613 80.9678 72.6614 80.9638C72.6614 80.9597 72.6614 80.9557 72.6614 80.9517C72.6614 80.9477 72.6614 80.9436 72.6615 80.9396C72.6615 80.9356 72.6615 80.9316 72.6615 80.9276C72.6615 80.9235 72.6616 80.9195 72.6616 80.9155C72.6616 80.9115 72.6616 80.9075 72.6616 80.9034C72.6616 80.8994 72.6617 80.8954 72.6617 80.8914C72.6617 80.8874 72.6617 80.8833 72.6617 80.8793C72.6618 80.8753 72.6618 80.8713 72.6618 80.8673C72.6618 80.8632 72.6618 80.8592 72.6619 80.8552C72.6619 80.8512 72.6619 80.8472 72.6619 80.8432C72.6619 80.8391 72.6619 80.8351 72.662 80.8311C72.662 80.8271 72.662 80.8231 72.662 80.819C72.662 80.815 72.6621 80.811 72.6621 80.807C72.6621 80.803 72.6621 80.799 72.6621 80.7949C72.6621 80.7909 72.6622 80.7869 72.6622 80.7829C72.6622 80.7789 72.6622 80.7749 72.6622 80.7708C72.6623 80.7668 72.6623 80.7628 72.6623 80.7588C72.6623 80.7548 72.6623 80.7508 72.6623 80.7467C72.6624 80.7427 72.6624 80.7387 72.6624 80.7347C72.6624 80.7307 72.6624 80.7267 72.6625 80.7226C72.6625 80.7186 72.6625 80.7146 72.6625 80.7106C72.6625 80.7066 72.6626 80.7026 72.6626 80.6986C72.6626 80.6945 72.6626 80.6905 72.6626 80.6865C72.6626 80.6825 72.6627 80.6785 72.6627 80.6745C72.6627 80.6705 72.6627 80.6664 72.6627 80.6624C72.6628 80.6584 72.6628 80.6544 72.6628 80.6504C72.6628 80.6464 72.6628 80.6424 72.6628 80.6384C72.6629 80.6343 72.6629 80.6303 72.6629 80.6263C72.6629 80.6223 72.6629 80.6183 72.663 80.6143C72.663 80.6103 72.663 80.6063 72.663 80.6022C72.663 80.5982 72.663 80.5942 72.6631 80.5902C72.6631 80.5862 72.6631 80.5822 72.6631 80.5782C72.6631 80.5742 72.6632 80.5702 72.6632 80.5661C72.6632 80.5621 72.6632 80.5581 72.6632 80.5541C72.6632 80.5501 72.6633 80.5461 72.6633 80.5421C72.6633 80.5381 72.6633 80.5341 72.6633 80.5301C72.6634 80.526 72.6634 80.522 72.6634 80.518C72.6634 80.514 72.6634 80.51 72.6635 80.506C72.6635 80.502 72.6635 80.498 72.6635 80.494C72.6635 80.49 72.6635 80.486 72.6636 80.482C72.6636 80.4779 72.6636 80.4739 72.6636 80.4699C72.6636 80.4659 72.6637 80.4619 72.6637 80.4579C72.6637 80.4539 72.6637 80.4499 72.6637 80.4459C72.6637 80.4419 72.6638 80.4379 72.6638 80.4339C72.6638 80.4299 72.6638 80.4258 72.6638 80.4218C72.6639 80.4178 72.6639 80.4138 72.6639 80.4098C72.6639 80.4058 72.6639 80.4018 72.6639 80.3978C72.664 80.3938 72.664 80.3898 72.664 80.3858C72.664 80.3818 72.664 80.3778 72.6641 80.3738C72.6641 80.3698 72.6641 80.3658 72.6641 80.3618C72.6641 80.3578 72.6642 80.3538 72.6642 80.3497C72.6642 80.3457 72.6642 80.3417 72.6642 80.3377C72.6642 80.3337 72.6643 80.3297 72.6643 80.3257C72.6643 80.3217 72.6643 80.3177 72.6643 80.3137C72.6644 80.3097 72.6644 80.3057 72.6644 80.3017C72.6644 80.2977 72.6644 80.2937 72.6644 80.2897C72.6645 80.2857 72.6645 80.2817 72.6645 80.2777C72.6645 80.2737 72.6645 80.2697 72.6646 80.2657C72.6646 80.2617 72.6646 80.2577 72.6646 80.2537C72.6646 80.2497 72.6646 80.2457 72.6647 80.2417C72.6647 80.2377 72.6647 80.2337 72.6647 80.2297C72.6647 80.2257 72.6648 80.2217 72.6648 80.2177C72.6648 80.2137 72.6648 80.2097 72.6648 80.2057C72.6648 80.2017 72.6649 80.1977 72.6649 80.1937C72.6649 80.1897 72.6649 80.1857 72.6649 80.1817C72.665 80.1777 72.665 80.1737 72.665 80.1697C72.665 80.1657 72.665 80.1617 72.665 80.1577C72.6651 80.1537 72.6651 80.1497 72.6651 80.1457C72.6651 80.1417 72.6651 80.1377 72.6652 80.1337C72.6652 80.1297 72.6652 80.1257 72.6652 80.1217C72.6652 80.1177 72.6653 80.1137 72.6653 80.1097C72.6653 80.1057 72.6653 80.1017 72.6653 80.0977C72.6653 80.0937 72.6654 80.0897 72.6654 80.0857C72.6654 80.0817 72.6654 80.0777 72.6654 80.0737C72.6655 80.0697 72.6655 80.0657 72.6655 80.0617C72.6655 80.0577 72.6655 80.0537 72.6655 80.0497C72.6656 80.0457 72.6656 80.0417 72.6656 80.0378C72.6656 80.0338 72.6656 80.0298 72.6657 80.0258C72.6657 80.0218 72.6657 80.0178 72.6657 80.0138C72.6657 80.0098 72.6657 80.0058 72.6658 80.0018C72.6658 79.9978 72.6658 79.9938 72.6658 79.9898C72.6658 79.9858 72.6659 79.9818 72.6659 79.9778C72.6659 79.9738 72.6659 79.9698 72.6659 79.9659C72.6659 79.9619 72.666 79.9579 72.666 79.9539C72.666 79.9499 72.666 79.9459 72.666 79.9419C72.6661 79.9379 72.6661 79.9339 72.6661 79.9299C72.6661 79.9259 72.6661 79.9219 72.6661 79.9179C72.6662 79.914 72.6662 79.91 72.6662 79.906C72.6662 79.902 72.6662 79.898 72.6663 79.894C72.6663 79.89 72.6663 79.886 72.6663 79.882C72.6663 79.878 72.6664 79.874 72.6664 79.87C72.6664 79.8661 72.6664 79.8621 72.6664 79.8581C72.6664 79.8541 72.6665 79.8501 72.6665 79.8461C72.6665 79.8421 72.6665 79.8381 72.6665 79.8341C72.6666 79.8301 72.6666 79.8262 72.6666 79.8222C72.6666 79.8182 72.6666 79.8142 72.6666 79.8102C72.6667 79.8062 72.6667 79.8022 72.6667 79.7982C72.6667 79.7942 72.6667 79.7903 72.6668 79.7863C72.6668 79.7823 72.6668 79.7783 72.6668 79.7743C72.6668 79.7703 72.6668 79.7663 72.6669 79.7623C72.6669 79.7584 72.6669 79.7544 72.6669 79.7504C72.6669 79.7464 72.667 79.7424 72.667 79.7384C72.667 79.7344 72.667 79.7304 72.667 79.7265C72.667 79.7225 72.6671 79.7185 72.6671 79.7145C72.6671 79.7105 72.6671 79.7065 72.6671 79.7025C72.6672 79.6986 72.6672 79.6946 72.6672 79.6906C72.6672 79.6866 72.6672 79.6826 72.6672 79.6786C72.6673 79.6746 72.6673 79.6707 72.6673 79.6667C72.6673 79.6627 72.6673 79.6587 72.6674 79.6547C72.6674 79.6507 72.6674 79.6468 72.6674 79.6428C72.6674 79.6388 72.6674 79.6348 72.6675 79.6308C72.6675 79.6268 72.6675 79.6228 72.6675 79.6189C72.6675 79.6149 72.6676 79.6109 72.6676 79.6069C72.6676 79.6029 72.6676 79.599 72.6676 79.595C72.6676 79.591 72.6677 79.587 72.6677 79.583C72.6677 79.579 72.6677 79.5751 72.6677 79.5711C72.6678 79.5671 72.6678 79.5631 72.6678 79.5591C72.6678 79.5551 72.6678 79.5512 72.6678 79.5472C72.6679 79.5432 72.6679 79.5392 72.6679 79.5352C72.6679 79.5313 72.6679 79.5273 72.668 79.5233C72.668 79.5193 72.668 79.5153 72.668 79.5114C72.668 79.5074 72.6681 79.5034 72.6681 79.4994C72.6681 79.4954 72.6681 79.4915 72.6681 79.4875C72.6681 79.4835 72.6682 79.4795 72.6682 79.4755C72.6682 79.4716 72.6682 79.4676 72.6682 79.4636C72.6683 79.4596 72.6683 79.4556 72.6683 79.4517C72.6683 79.4477 72.6683 79.4437 72.6683 79.4397C72.6684 79.4358 72.6684 79.4318 72.6684 79.4278C72.6684 79.4238 72.6684 79.4198 72.6685 79.4159C72.6685 79.4119 72.6685 79.4079 72.6685 79.4039C72.6685 79.4 72.6685 79.396 72.6686 79.392C72.6686 79.388 72.6686 79.384 72.6686 79.3801C72.6686 79.3761 72.6687 79.3721 72.6687 79.3681C72.6687 79.3642 72.6687 79.3602 72.6687 79.3562C72.6687 79.3522 72.6688 79.3483 72.6688 79.3443C72.6688 79.3403 72.6688 79.3363 72.6688 79.3324C72.6689 79.3284 72.6689 79.3244 72.6689 79.3204C72.6689 79.3165 72.6689 79.3125 72.6689 79.3085C72.669 79.3045 72.669 79.3006 72.669 79.2966C72.669 79.2926 72.669 79.2886 72.6691 79.2847C72.6691 79.2807 72.6691 79.2767 72.6691 79.2727C72.6691 79.2688 72.6691 79.2648 72.6692 79.2608C72.6692 79.2569 72.6692 79.2529 72.6692 79.2489C72.6692 79.2449 72.6693 79.241 72.6693 79.237C72.6693 79.233 72.6693 79.229 72.6693 79.2251C72.6693 79.2211 72.6694 79.2171 72.6694 79.2132C72.6694 79.2092 72.6694 79.2052 72.6694 79.2012C72.6695 79.1973 72.6695 79.1933 72.6695 79.1893C72.6695 79.1854 72.6695 79.1814 72.6695 79.1774C72.6696 79.1734 72.6696 79.1695 72.6696 79.1655C72.6696 79.1615 72.6696 79.1576 72.6697 79.1536C72.6697 79.1496 72.6697 79.1457 72.6697 79.1417C72.6697 79.1377 72.6697 79.1337 72.6698 79.1298C72.6698 79.1258 72.6698 79.1218 72.6698 79.1179C72.6698 79.1139 72.6699 79.1099 72.6699 79.106C72.6699 79.102 72.6699 79.098 72.6699 79.0941C72.6699 79.0901 72.67 79.0861 72.67 79.0822C72.67 79.0782 72.67 79.0742 72.67 79.0703C72.6701 79.0663 72.6701 79.0623 72.6701 79.0583C72.6701 79.0544 72.6701 79.0504 72.6701 79.0464C72.6702 79.0425 72.6702 79.0385 72.6702 79.0345C72.6702 79.0306 72.6702 79.0266 72.6703 79.0226C72.6703 79.0187 72.6703 79.0147 72.6703 79.0108C72.6703 79.0068 72.6703 79.0028 72.6704 78.9989C72.6704 78.9949 72.6704 78.9909 72.6704 78.987C72.6704 78.983 72.6705 78.979 72.6705 78.9751C72.6705 78.9711 72.6705 78.9671 72.6705 78.9632C72.6705 78.9592 72.6706 78.9552 72.6706 78.9513C72.6706 78.9473 72.6706 78.9433 72.6706 78.9394C72.6707 78.9354 72.6707 78.9315 72.6707 78.9275C72.6707 78.9235 72.6707 78.9196 72.6707 78.9156C72.6708 78.9116 72.6708 78.9077 72.6708 78.9037C72.6708 78.8998 72.6708 78.8958 72.6709 78.8918C72.6709 78.8879 72.6709 78.8839 72.6709 78.8799C72.6709 78.876 72.6709 78.872 72.671 78.8681C72.671 78.8641 72.671 78.8601 72.671 78.8562C72.671 78.8522 72.6711 78.8482 72.6711 78.8443C72.6711 78.8403 72.6711 78.8364 72.6711 78.8324C72.6711 78.8284 72.6712 78.8245 72.6712 78.8205C72.6712 78.8166 72.6712 78.8126 72.6712 78.8086C72.6713 78.8047 72.6713 78.8007 72.6713 78.7968C72.6713 78.7928 72.6713 78.7888 72.6713 78.7849C72.6714 78.7809 72.6714 78.777 72.6714 78.773C72.6714 78.769 72.6714 78.7651 72.6715 78.7611C72.6715 78.7572 72.6715 78.7532 72.6715 78.7493C72.6715 78.7453 72.6715 78.7413 72.6716 78.7374C72.6716 78.7334 72.6716 78.7295 72.6716 78.7255C72.6716 78.7215 72.6717 78.7176 72.6717 78.7136C72.6717 78.7097 72.6717 78.7057 72.6717 78.7018C72.6717 78.6978 72.6718 78.6938 72.6718 78.6899C72.6718 78.6859 72.6718 78.682 72.6718 78.678C72.6719 78.6741 72.6719 78.6701 72.6719 78.6662C72.6719 78.6622 72.6719 78.6582 72.6719 78.6543C72.672 78.6503 72.672 78.6464 72.672 78.6424C72.672 78.6385 72.672 78.6345 72.6721 78.6306C72.6721 78.6266 72.6721 78.6226 72.6721 78.6187C72.6721 78.6147 72.6721 78.6108 72.6722 78.6068C72.6722 78.6029 72.6722 78.5989 72.6722 78.595C72.6722 78.591 72.6723 78.5871 72.6723 78.5831C72.6723 78.5792 72.6723 78.5752 72.6723 78.5712C72.6723 78.5673 72.6724 78.5633 72.6724 78.5594C72.6724 78.5554 72.6724 78.5515 72.6724 78.5475C72.6725 78.5436 72.6725 78.5396 72.6725 78.5357C72.6725 78.5317 72.6725 78.5278 72.6725 78.5238C72.6726 78.5199 72.6726 78.5159 72.6726 78.512C72.6726 78.508 72.6726 78.5041 72.6727 78.5001C72.6727 78.4962 72.6727 78.4922 72.6727 78.4883C72.6727 78.4843 72.6727 78.4804 72.6728 78.4764C72.6728 78.4725 72.6728 78.4685 72.6728 78.4646C72.6728 78.4606 72.6729 78.4567 72.6729 78.4527C72.6729 78.4488 72.6729 78.4448 72.6729 78.4409C72.6729 78.4369 72.673 78.433 72.673 78.429C72.673 78.4251 72.673 78.4211 72.673 78.4172C72.6731 78.4132 72.6731 78.4093 72.6731 78.4053C72.6731 78.4014 72.6731 78.3974 72.6731 78.3935C72.6732 78.3895 72.6732 78.3856 72.6732 78.3816C72.6732 78.3777 72.6732 78.3737 72.6732 78.3698C72.6733 78.3658 72.6733 78.3619 72.6733 78.3579C72.6733 78.354 72.6733 78.3501 72.6734 78.3461C72.6734 78.3422 72.6734 78.3382 72.6734 78.3343C72.6734 78.3303 72.6734 78.3264 72.6735 78.3224C72.6735 78.3185 72.6735 78.3145 72.6735 78.3106C72.6735 78.3066 72.6736 78.3027 72.6736 78.2988C72.6736 78.2948 72.6736 78.2909 72.6736 78.2869C72.6736 78.283 72.6737 78.279 72.6737 78.2751C72.6737 78.2711 72.6737 78.2672 72.6737 78.2633C72.6738 78.2593 72.6738 78.2554 72.6738 78.2514C72.6738 78.2475 72.6738 78.2435 72.6738 78.2396C72.6739 78.2356 72.6739 78.2317 72.6739 78.2278C72.6739 78.2238 72.6739 78.2199 72.674 78.2159C72.674 78.212 72.674 78.208 72.674 78.2041C72.674 78.2002 72.674 78.1962 72.6741 78.1923C72.6741 78.1883 72.6741 78.1844 72.6741 78.1805C72.6741 78.1765 72.6742 78.1726 72.6742 78.1686C72.6742 78.1647 72.6742 78.1607 72.6742 78.1568C72.6742 78.1529 72.6743 78.1489 72.6743 78.145C72.6743 78.141 72.6743 78.1371 72.6743 78.1332C72.6744 78.1292 72.6744 78.1253 72.6744 78.1213C72.6744 78.1174 72.6744 78.1135 72.6744 78.1095C72.6745 78.1056 72.6745 78.1016 72.6745 78.0977C72.6745 78.0938 72.6745 78.0898 72.6746 78.0859C72.6746 78.0819 72.6746 78.078 72.6746 78.0741C72.6746 78.0701 72.6746 78.0662 72.6747 78.0622C72.6747 78.0583 72.6747 78.0544 72.6747 78.0504C72.6747 78.0465 72.6747 78.0426 72.6748 78.0386C72.6748 78.0347 72.6748 78.0307 72.6748 78.0268C72.6748 78.0229 72.6749 78.0189 72.6749 78.015C72.6749 78.0111 72.6749 78.0071 72.6749 78.0032C72.6749 77.9993 72.675 77.9953 72.675 77.9914C72.675 77.9874 72.675 77.9835 72.675 77.9796C72.6751 77.9756 72.6751 77.9717 72.6751 77.9678C72.6751 77.9638 72.6751 77.9599 72.6751 77.956C72.6752 77.952 72.6752 77.9481 72.6752 77.9442C72.6752 77.9402 72.6752 77.9363 72.6753 77.9323C72.6753 77.9284 72.6753 77.9245 72.6753 77.9205C72.6753 77.9166 72.6753 77.9127 72.6754 77.9087C72.6754 77.9048 72.6754 77.9009 72.6754 77.8969C72.6754 77.893 72.6755 77.8891 72.6755 77.8851C72.6755 77.8812 72.6755 77.8773 72.6755 77.8733C72.6755 77.8694 72.6756 77.8655 72.6756 77.8615C72.6756 77.8576 72.6756 77.8537 72.6756 77.8497C72.6757 77.8458 72.6757 77.8419 72.6757 77.838C72.6757 77.834 72.6757 77.8301 72.6757 77.8262C72.6758 77.8222 72.6758 77.8183 72.6758 77.8144C72.6758 77.8104 72.6758 77.8065 72.6759 77.8026C72.6759 77.7986 72.6759 77.7947 72.6759 77.7908C72.6759 77.7868 72.6759 77.7829 72.676 77.779C72.676 77.7751 72.676 77.7711 72.676 77.7672C72.676 77.7633 72.676 77.7593 72.6761 77.7554C72.6761 77.7515 72.6761 77.7475 72.6761 77.7436C72.6761 77.7397 72.6762 77.7358 72.6762 77.7318C72.6762 77.7279 72.6762 77.724 72.6762 77.72C72.6762 77.7161 72.6763 77.7122 72.6763 77.7083C72.6763 77.7043 72.6763 77.7004 72.6763 77.6965C72.6764 77.6926 72.6764 77.6886 72.6764 77.6847C72.6764 77.6808 72.6764 77.6768 72.6764 77.6729C72.6765 77.669 72.6765 77.6651 72.6765 77.6611C72.6765 77.6572 72.6765 77.6533 72.6766 77.6494C72.6766 77.6454 72.6766 77.6415 72.6766 77.6376C72.6766 77.6337 72.6766 77.6297 72.6767 77.6258C72.6767 77.6219 72.6767 77.618 72.6767 77.614C72.6767 77.6101 72.6768 77.6062 72.6768 77.6022C72.6768 77.5983 72.6768 77.5944 72.6768 77.5905C72.6768 77.5866 72.6769 77.5826 72.6769 77.5787C72.6769 77.5748 72.6769 77.5709 72.6769 77.5669C72.6769 77.563 72.677 77.5591 72.677 77.5552C72.677 77.5512 72.677 77.5473 72.677 77.5434C72.6771 77.5395 72.6771 77.5355 72.6771 77.5316C72.6771 77.5277 72.6771 77.5238 72.6771 77.5199C72.6772 77.5159 72.6772 77.512 72.6772 77.5081C72.6772 77.5042 72.6772 77.5002 72.6773 77.4963C72.6773 77.4924 72.6773 77.4885 72.6773 77.4846C72.6773 77.4806 72.6773 77.4767 72.6774 77.4728C72.6774 77.4689 72.6774 77.4649 72.6774 77.461C72.6774 77.4571 72.6775 77.4532 72.6775 77.4493C72.6775 77.4453 72.6775 77.4414 72.6775 77.4375C72.6775 77.4336 72.6776 77.4297 72.6776 77.4257C72.6776 77.4218 72.6776 77.4179 72.6776 77.414C72.6777 77.4101 72.6777 77.4061 72.6777 77.4022C72.6777 77.3983 72.6777 77.3944 72.6777 77.3905C72.6778 77.3866 72.6778 77.3826 72.6778 77.3787C72.6778 77.3748 72.6778 77.3709 72.6778 77.367C72.6779 77.363 72.6779 77.3591 72.6779 77.3552C72.6779 77.3513 72.6779 77.3474 72.678 77.3435C72.678 77.3395 72.678 77.3356 72.678 77.3317C72.678 77.3278 72.678 77.3239 72.6781 77.32C72.6781 77.316 72.6781 77.3121 72.6781 77.3082C72.6781 77.3043 72.6782 77.3004 72.6782 77.2965C72.6782 77.2925 72.6782 77.2886 72.6782 77.2847C72.6782 77.2808 72.6783 77.2769 72.6783 77.273C72.6783 77.269 72.6783 77.2651 72.6783 77.2612C72.6784 77.2573 72.6784 77.2534 72.6784 77.2495C72.6784 77.2456 72.6784 77.2416 72.6784 77.2377C72.6785 77.2338 72.6785 77.2299 72.6785 77.226C72.6785 77.2221 72.6785 77.2182 72.6785 77.2142C72.6786 77.2103 72.6786 77.2064 72.6786 77.2025C72.6786 77.1986 72.6786 77.1947 72.6787 77.1908C72.6787 77.1869 72.6787 77.1829 72.6787 77.179C72.6787 77.1751 72.6787 77.1712 72.6788 77.1673C72.6788 77.1634 72.6788 77.1595 72.6788 77.1556C72.6788 77.1516 72.6789 77.1477 72.6789 77.1438C72.6789 77.1399 72.6789 77.136 72.6789 77.1321C72.6789 77.1282 72.679 77.1243 72.679 77.1204C72.679 77.1164 72.679 77.1125 72.679 77.1086C72.6791 77.1047 72.6791 77.1008 72.6791 77.0969C72.6791 77.093 72.6791 77.0891 72.6791 77.0852C72.6792 77.0813 72.6792 77.0773 72.6792 77.0734C72.6792 77.0695 72.6792 77.0656 72.6792 77.0617C72.6793 77.0578 72.6793 77.0539 72.6793 77.05C72.6793 77.0461 72.6793 77.0422 72.6794 77.0383C72.6794 77.0343 72.6794 77.0304 72.6794 77.0265C72.6794 77.0226 72.6794 77.0187 72.6795 77.0148C72.6795 77.0109 72.6795 77.007 72.6795 77.0031C72.6795 76.9992 72.6796 76.9953 72.6796 76.9914C72.6796 76.9875 72.6796 76.9835 72.6796 76.9796C72.6796 76.9757 72.6797 76.9718 72.6797 76.9679C72.6797 76.964 72.6797 76.9601 72.6797 76.9562C72.6798 76.9523 72.6798 76.9484 72.6798 76.9445C72.6798 76.9406 72.6798 76.9367 72.6798 76.9328C72.6799 76.9289 72.6799 76.925 72.6799 76.9211C72.6799 76.9171 72.6799 76.9132 72.6799 76.9093C72.68 76.9054 72.68 76.9015 72.68 76.8976C72.68 76.8937 72.68 76.8898 72.6801 76.8859C72.6801 76.882 72.6801 76.8781 72.6801 76.8742C72.6801 76.8703 72.6801 76.8664 72.6802 76.8625C72.6802 76.8586 72.6802 76.8547 72.6802 76.8508C72.6802 76.8469 72.6803 76.843 72.6803 76.8391C72.6803 76.8352 72.6803 76.8313 72.6803 76.8274C72.6803 76.8235 72.6804 76.8196 72.6804 76.8157C72.6804 76.8118 72.6804 76.8079 72.6804 76.804C72.6804 76.8001 72.6805 76.7962 72.6805 76.7922C72.6805 76.7883 72.6805 76.7844 72.6805 76.7805C72.6806 76.7766 72.6806 76.7727 72.6806 76.7688C72.6806 76.7649 72.6806 76.761 72.6806 76.7571C72.6807 76.7532 72.6807 76.7493 72.6807 76.7454C72.6807 76.7415 72.6807 76.7376 72.6808 76.7337C72.6808 76.7298 72.6808 76.7259 72.6808 76.722C72.6808 76.7181 72.6808 76.7142 72.6809 76.7103C72.6809 76.7065 72.6809 76.7026 72.6809 76.6987C72.6809 76.6948 72.6809 76.6909 72.681 76.687C72.681 76.6831 72.681 76.6792 72.681 76.6753C72.681 76.6714 72.6811 76.6675 72.6811 76.6636C72.6811 76.6597 72.6811 76.6558 72.6811 76.6519C72.6811 76.648 72.6812 76.6441 72.6812 76.6402C72.6812 76.6363 72.6812 76.6324 72.6812 76.6285C72.6813 76.6246 72.6813 76.6207 72.6813 76.6168C72.6813 76.6129 72.6813 76.609 72.6813 76.6051C72.6814 76.6012 72.6814 76.5973 72.6814 76.5934C72.6814 76.5895 72.6814 76.5856 72.6814 76.5818C72.6815 76.5779 72.6815 76.574 72.6815 76.5701C72.6815 76.5662 72.6815 76.5623 72.6816 76.5584C72.6816 76.5545 72.6816 76.5506 72.6816 76.5467C72.6816 76.5428 72.6816 76.5389 72.6817 76.535C72.6817 76.5311 72.6817 76.5272 72.6817 76.5233C72.6817 76.5194 72.6818 76.5156 72.6818 76.5117C72.6818 76.5078 72.6818 76.5039 72.6818 76.5C72.6818 76.4961 72.6819 76.4922 72.6819 76.4883C72.6819 76.4844 72.6819 76.4805 72.6819 76.4766C72.6819 76.4727 72.682 76.4688 72.682 76.465C72.682 76.4611 72.682 76.4572 72.682 76.4533C72.6821 76.4494 72.6821 76.4455 72.6821 76.4416C72.6821 76.4377 72.6821 76.4338 72.6821 76.4299C72.6822 76.426 72.6822 76.4222 72.6822 76.4183C72.6822 76.4144 72.6822 76.4105 72.6823 76.4066C72.6823 76.4027 72.6823 76.3988 72.6823 76.3949C72.6823 76.391 72.6823 76.3871 72.6824 76.3833C72.6824 76.3794 72.6824 76.3755 72.6824 76.3716C72.6824 76.3677 72.6824 76.3638 72.6825 76.3599C72.6825 76.356 72.6825 76.3521 72.6825 76.3483C72.6825 76.3444 72.6826 76.3405 72.6826 76.3366C72.6826 76.3327 72.6826 76.3288 72.6826 76.3249C72.6826 76.321 72.6827 76.3172 72.6827 76.3133C72.6827 76.3094 72.6827 76.3055 72.6827 76.3016C72.6828 76.2977 72.6828 76.2938 72.6828 76.29C72.6828 76.2861 72.6828 76.2822 72.6828 76.2783C72.6829 76.2744 72.6829 76.2705 72.6829 76.2666C72.6829 76.2627 72.6829 76.2589 72.6829 76.255C72.683 76.2511 72.683 76.2472 72.683 76.2433C72.683 76.2394 72.683 76.2356 72.6831 76.2317C72.6831 76.2278 72.6831 76.2239 72.6831 76.22C72.6831 76.2161 72.6831 76.2122 72.6832 76.2084C72.6832 76.2045 72.6832 76.2006 72.6832 76.1967C72.6832 76.1928 72.6833 76.1889 72.6833 76.1851C72.6833 76.1812 72.6833 76.1773 72.6833 76.1734C72.6833 76.1695 72.6834 76.1656 72.6834 76.1618C72.6834 76.1579 72.6834 76.154 72.6834 76.1501C72.6834 76.1462 72.6835 76.1424 72.6835 76.1385C72.6835 76.1346 72.6835 76.1307 72.6835 76.1268C72.6836 76.1229 72.6836 76.1191 72.6836 76.1152C72.6836 76.1113 72.6836 76.1074 72.6836 76.1035C72.6837 76.0997 72.6837 76.0958 72.6837 76.0919C72.6837 76.088 72.6837 76.0841 72.6837 76.0803C72.6838 76.0764 72.6838 76.0725 72.6838 76.0686C72.6838 76.0647 72.6838 76.0609 72.6839 76.057C72.6839 76.0531 72.6839 76.0492 72.6839 76.0453C72.6839 76.0415 72.6839 76.0376 72.684 76.0337C72.684 76.0298 72.684 76.0259 72.684 76.0221C72.684 76.0182 72.6841 76.0143 72.6841 76.0104C72.6841 76.0065 72.6841 76.0027 72.6841 75.9988C72.6841 75.9949 72.6842 75.991 72.6842 75.9872C72.6842 75.9833 72.6842 75.9794 72.6842 75.9755C72.6842 75.9717 72.6843 75.9678 72.6843 75.9639C72.6843 75.96 72.6843 75.9561 72.6843 75.9523C72.6844 75.9484 72.6844 75.9445 72.6844 75.9406C72.6844 75.9368 72.6844 75.9329 72.6844 75.929C72.6845 75.9251 72.6845 75.9213 72.6845 75.9174C72.6845 75.9135 72.6845 75.9096 72.6845 75.9058C72.6846 75.9019 72.6846 75.898 72.6846 75.8941C72.6846 75.8903 72.6846 75.8864 72.6847 75.8825L70.6847 75.8733C70.6847 75.8772 70.6846 75.8811 70.6846 75.885C70.6846 75.8888 70.6846 75.8927 70.6846 75.8966C70.6846 75.9005 70.6845 75.9043 70.6845 75.9082C70.6845 75.9121 70.6845 75.916 70.6845 75.9198C70.6844 75.9237 70.6844 75.9276 70.6844 75.9315C70.6844 75.9353 70.6844 75.9392 70.6844 75.9431C70.6843 75.947 70.6843 75.9508 70.6843 75.9547C70.6843 75.9586 70.6843 75.9625 70.6843 75.9664C70.6842 75.9702 70.6842 75.9741 70.6842 75.978C70.6842 75.9819 70.6842 75.9857 70.6841 75.9896C70.6841 75.9935 70.6841 75.9974 70.6841 76.0013C70.6841 76.0051 70.6841 76.009 70.684 76.0129C70.684 76.0168 70.684 76.0206 70.684 76.0245C70.684 76.0284 70.6839 76.0323 70.6839 76.0362C70.6839 76.04 70.6839 76.0439 70.6839 76.0478C70.6839 76.0517 70.6838 76.0556 70.6838 76.0594C70.6838 76.0633 70.6838 76.0672 70.6838 76.0711C70.6838 76.075 70.6837 76.0788 70.6837 76.0827C70.6837 76.0866 70.6837 76.0905 70.6837 76.0944C70.6836 76.0982 70.6836 76.1021 70.6836 76.106C70.6836 76.1099 70.6836 76.1138 70.6836 76.1177C70.6835 76.1215 70.6835 76.1254 70.6835 76.1293C70.6835 76.1332 70.6835 76.1371 70.6835 76.1409C70.6834 76.1448 70.6834 76.1487 70.6834 76.1526C70.6834 76.1565 70.6834 76.1604 70.6833 76.1642C70.6833 76.1681 70.6833 76.172 70.6833 76.1759C70.6833 76.1798 70.6833 76.1837 70.6832 76.1875C70.6832 76.1914 70.6832 76.1953 70.6832 76.1992C70.6832 76.2031 70.6831 76.207 70.6831 76.2108C70.6831 76.2147 70.6831 76.2186 70.6831 76.2225C70.6831 76.2264 70.683 76.2303 70.683 76.2341C70.683 76.238 70.683 76.2419 70.683 76.2458C70.683 76.2497 70.6829 76.2536 70.6829 76.2575C70.6829 76.2613 70.6829 76.2652 70.6829 76.2691C70.6828 76.273 70.6828 76.2769 70.6828 76.2808C70.6828 76.2847 70.6828 76.2886 70.6828 76.2924C70.6827 76.2963 70.6827 76.3002 70.6827 76.3041C70.6827 76.308 70.6827 76.3119 70.6826 76.3158C70.6826 76.3196 70.6826 76.3235 70.6826 76.3274C70.6826 76.3313 70.6826 76.3352 70.6825 76.3391C70.6825 76.343 70.6825 76.3469 70.6825 76.3508C70.6825 76.3546 70.6825 76.3585 70.6824 76.3624C70.6824 76.3663 70.6824 76.3702 70.6824 76.3741C70.6824 76.378 70.6823 76.3819 70.6823 76.3858C70.6823 76.3896 70.6823 76.3935 70.6823 76.3974C70.6823 76.4013 70.6822 76.4052 70.6822 76.4091C70.6822 76.413 70.6822 76.4169 70.6822 76.4208C70.6821 76.4247 70.6821 76.4285 70.6821 76.4324C70.6821 76.4363 70.6821 76.4402 70.6821 76.4441C70.682 76.448 70.682 76.4519 70.682 76.4558C70.682 76.4597 70.682 76.4636 70.682 76.4675C70.6819 76.4713 70.6819 76.4752 70.6819 76.4791C70.6819 76.483 70.6819 76.4869 70.6818 76.4908C70.6818 76.4947 70.6818 76.4986 70.6818 76.5025C70.6818 76.5064 70.6818 76.5103 70.6817 76.5142C70.6817 76.5181 70.6817 76.522 70.6817 76.5258C70.6817 76.5297 70.6816 76.5336 70.6816 76.5375C70.6816 76.5414 70.6816 76.5453 70.6816 76.5492C70.6816 76.5531 70.6815 76.557 70.6815 76.5609C70.6815 76.5648 70.6815 76.5687 70.6815 76.5726C70.6815 76.5765 70.6814 76.5804 70.6814 76.5843C70.6814 76.5882 70.6814 76.5921 70.6814 76.596C70.6813 76.5998 70.6813 76.6037 70.6813 76.6076C70.6813 76.6115 70.6813 76.6154 70.6813 76.6193C70.6812 76.6232 70.6812 76.6271 70.6812 76.631C70.6812 76.6349 70.6812 76.6388 70.6811 76.6427C70.6811 76.6466 70.6811 76.6505 70.6811 76.6544C70.6811 76.6583 70.6811 76.6622 70.681 76.6661C70.681 76.67 70.681 76.6739 70.681 76.6778C70.681 76.6817 70.681 76.6856 70.6809 76.6895C70.6809 76.6934 70.6809 76.6973 70.6809 76.7012C70.6809 76.7051 70.6808 76.709 70.6808 76.7129C70.6808 76.7168 70.6808 76.7207 70.6808 76.7246C70.6808 76.7285 70.6807 76.7324 70.6807 76.7363C70.6807 76.7402 70.6807 76.7441 70.6807 76.748C70.6806 76.7519 70.6806 76.7558 70.6806 76.7597C70.6806 76.7636 70.6806 76.7675 70.6806 76.7714C70.6805 76.7753 70.6805 76.7792 70.6805 76.7831C70.6805 76.787 70.6805 76.7909 70.6805 76.7948C70.6804 76.7987 70.6804 76.8026 70.6804 76.8065C70.6804 76.8104 70.6804 76.8143 70.6803 76.8182C70.6803 76.8221 70.6803 76.826 70.6803 76.8299C70.6803 76.8338 70.6803 76.8377 70.6802 76.8416C70.6802 76.8455 70.6802 76.8494 70.6802 76.8533C70.6802 76.8572 70.6801 76.8611 70.6801 76.865C70.6801 76.8689 70.6801 76.8728 70.6801 76.8767C70.6801 76.8806 70.68 76.8845 70.68 76.8885C70.68 76.8924 70.68 76.8963 70.68 76.9002C70.68 76.9041 70.6799 76.908 70.6799 76.9119C70.6799 76.9158 70.6799 76.9197 70.6799 76.9236C70.6798 76.9275 70.6798 76.9314 70.6798 76.9353C70.6798 76.9392 70.6798 76.9431 70.6798 76.947C70.6797 76.9509 70.6797 76.9548 70.6797 76.9587C70.6797 76.9627 70.6797 76.9666 70.6796 76.9705C70.6796 76.9744 70.6796 76.9783 70.6796 76.9822C70.6796 76.9861 70.6796 76.99 70.6795 76.9939C70.6795 76.9978 70.6795 77.0017 70.6795 77.0056C70.6795 77.0095 70.6794 77.0134 70.6794 77.0174C70.6794 77.0213 70.6794 77.0252 70.6794 77.0291C70.6794 77.033 70.6793 77.0369 70.6793 77.0408C70.6793 77.0447 70.6793 77.0486 70.6793 77.0525C70.6793 77.0564 70.6792 77.0603 70.6792 77.0643C70.6792 77.0682 70.6792 77.0721 70.6792 77.076C70.6791 77.0799 70.6791 77.0838 70.6791 77.0877C70.6791 77.0916 70.6791 77.0955 70.6791 77.0994C70.679 77.1034 70.679 77.1073 70.679 77.1112C70.679 77.1151 70.679 77.119 70.6789 77.1229C70.6789 77.1268 70.6789 77.1307 70.6789 77.1346C70.6789 77.1386 70.6789 77.1425 70.6788 77.1464C70.6788 77.1503 70.6788 77.1542 70.6788 77.1581C70.6788 77.162 70.6787 77.1659 70.6787 77.1699C70.6787 77.1738 70.6787 77.1777 70.6787 77.1816C70.6787 77.1855 70.6786 77.1894 70.6786 77.1933C70.6786 77.1972 70.6786 77.2012 70.6786 77.2051C70.6786 77.209 70.6785 77.2129 70.6785 77.2168C70.6785 77.2207 70.6785 77.2246 70.6785 77.2286C70.6784 77.2325 70.6784 77.2364 70.6784 77.2403C70.6784 77.2442 70.6784 77.2481 70.6784 77.252C70.6783 77.256 70.6783 77.2599 70.6783 77.2638C70.6783 77.2677 70.6783 77.2716 70.6782 77.2755C70.6782 77.2795 70.6782 77.2834 70.6782 77.2873C70.6782 77.2912 70.6782 77.2951 70.6781 77.299C70.6781 77.3029 70.6781 77.3069 70.6781 77.3108C70.6781 77.3147 70.678 77.3186 70.678 77.3225C70.678 77.3264 70.678 77.3304 70.678 77.3343C70.678 77.3382 70.6779 77.3421 70.6779 77.346C70.6779 77.35 70.6779 77.3539 70.6779 77.3578C70.6779 77.3617 70.6778 77.3656 70.6778 77.3695C70.6778 77.3735 70.6778 77.3774 70.6778 77.3813C70.6777 77.3852 70.6777 77.3891 70.6777 77.3931C70.6777 77.397 70.6777 77.4009 70.6777 77.4048C70.6776 77.4087 70.6776 77.4127 70.6776 77.4166C70.6776 77.4205 70.6776 77.4244 70.6775 77.4283C70.6775 77.4323 70.6775 77.4362 70.6775 77.4401C70.6775 77.444 70.6775 77.4479 70.6774 77.4519C70.6774 77.4558 70.6774 77.4597 70.6774 77.4636C70.6774 77.4675 70.6773 77.4715 70.6773 77.4754C70.6773 77.4793 70.6773 77.4832 70.6773 77.4871C70.6773 77.4911 70.6772 77.495 70.6772 77.4989C70.6772 77.5028 70.6772 77.5068 70.6772 77.5107C70.6772 77.5146 70.6771 77.5185 70.6771 77.5224C70.6771 77.5264 70.6771 77.5303 70.6771 77.5342C70.677 77.5381 70.677 77.5421 70.677 77.546C70.677 77.5499 70.677 77.5538 70.677 77.5578C70.6769 77.5617 70.6769 77.5656 70.6769 77.5695C70.6769 77.5735 70.6769 77.5774 70.6768 77.5813C70.6768 77.5852 70.6768 77.5892 70.6768 77.5931C70.6768 77.597 70.6768 77.6009 70.6767 77.6049C70.6767 77.6088 70.6767 77.6127 70.6767 77.6166C70.6767 77.6206 70.6766 77.6245 70.6766 77.6284C70.6766 77.6323 70.6766 77.6363 70.6766 77.6402C70.6766 77.6441 70.6765 77.648 70.6765 77.652C70.6765 77.6559 70.6765 77.6598 70.6765 77.6637C70.6764 77.6677 70.6764 77.6716 70.6764 77.6755C70.6764 77.6795 70.6764 77.6834 70.6764 77.6873C70.6763 77.6912 70.6763 77.6952 70.6763 77.6991C70.6763 77.703 70.6763 77.7069 70.6763 77.7109C70.6762 77.7148 70.6762 77.7187 70.6762 77.7227C70.6762 77.7266 70.6762 77.7305 70.6761 77.7344C70.6761 77.7384 70.6761 77.7423 70.6761 77.7462C70.6761 77.7502 70.6761 77.7541 70.676 77.758C70.676 77.762 70.676 77.7659 70.676 77.7698C70.676 77.7737 70.6759 77.7777 70.6759 77.7816C70.6759 77.7855 70.6759 77.7895 70.6759 77.7934C70.6759 77.7973 70.6758 77.8013 70.6758 77.8052C70.6758 77.8091 70.6758 77.8131 70.6758 77.817C70.6757 77.8209 70.6757 77.8248 70.6757 77.8288C70.6757 77.8327 70.6757 77.8366 70.6757 77.8406C70.6756 77.8445 70.6756 77.8484 70.6756 77.8524C70.6756 77.8563 70.6756 77.8602 70.6755 77.8642C70.6755 77.8681 70.6755 77.872 70.6755 77.876C70.6755 77.8799 70.6755 77.8838 70.6754 77.8878C70.6754 77.8917 70.6754 77.8956 70.6754 77.8996C70.6754 77.9035 70.6753 77.9074 70.6753 77.9114C70.6753 77.9153 70.6753 77.9192 70.6753 77.9232C70.6753 77.9271 70.6752 77.931 70.6752 77.935C70.6752 77.9389 70.6752 77.9428 70.6752 77.9468C70.6752 77.9507 70.6751 77.9547 70.6751 77.9586C70.6751 77.9625 70.6751 77.9665 70.6751 77.9704C70.675 77.9743 70.675 77.9783 70.675 77.9822C70.675 77.9861 70.675 77.9901 70.675 77.994C70.6749 77.998 70.6749 78.0019 70.6749 78.0058C70.6749 78.0098 70.6749 78.0137 70.6748 78.0176C70.6748 78.0216 70.6748 78.0255 70.6748 78.0294C70.6748 78.0334 70.6748 78.0373 70.6747 78.0413C70.6747 78.0452 70.6747 78.0491 70.6747 78.0531C70.6747 78.057 70.6746 78.061 70.6746 78.0649C70.6746 78.0688 70.6746 78.0728 70.6746 78.0767C70.6746 78.0806 70.6745 78.0846 70.6745 78.0885C70.6745 78.0925 70.6745 78.0964 70.6745 78.1003C70.6744 78.1043 70.6744 78.1082 70.6744 78.1122C70.6744 78.1161 70.6744 78.12 70.6744 78.124C70.6743 78.1279 70.6743 78.1319 70.6743 78.1358C70.6743 78.1397 70.6743 78.1437 70.6742 78.1476C70.6742 78.1516 70.6742 78.1555 70.6742 78.1595C70.6742 78.1634 70.6742 78.1673 70.6741 78.1713C70.6741 78.1752 70.6741 78.1792 70.6741 78.1831C70.6741 78.187 70.674 78.191 70.674 78.1949C70.674 78.1989 70.674 78.2028 70.674 78.2068C70.674 78.2107 70.6739 78.2146 70.6739 78.2186C70.6739 78.2225 70.6739 78.2265 70.6739 78.2304C70.6738 78.2344 70.6738 78.2383 70.6738 78.2422C70.6738 78.2462 70.6738 78.2501 70.6738 78.2541C70.6737 78.258 70.6737 78.262 70.6737 78.2659C70.6737 78.2699 70.6737 78.2738 70.6737 78.2777C70.6736 78.2817 70.6736 78.2856 70.6736 78.2896C70.6736 78.2935 70.6736 78.2975 70.6735 78.3014C70.6735 78.3054 70.6735 78.3093 70.6735 78.3133C70.6735 78.3172 70.6735 78.3211 70.6734 78.3251C70.6734 78.329 70.6734 78.333 70.6734 78.3369C70.6734 78.3409 70.6733 78.3448 70.6733 78.3488C70.6733 78.3527 70.6733 78.3567 70.6733 78.3606C70.6733 78.3646 70.6732 78.3685 70.6732 78.3725C70.6732 78.3764 70.6732 78.3804 70.6732 78.3843C70.6731 78.3882 70.6731 78.3922 70.6731 78.3961C70.6731 78.4001 70.6731 78.404 70.6731 78.408C70.673 78.4119 70.673 78.4159 70.673 78.4198C70.673 78.4238 70.673 78.4277 70.6729 78.4317C70.6729 78.4356 70.6729 78.4396 70.6729 78.4435C70.6729 78.4475 70.6729 78.4514 70.6728 78.4554C70.6728 78.4593 70.6728 78.4633 70.6728 78.4672C70.6728 78.4712 70.6727 78.4751 70.6727 78.4791C70.6727 78.483 70.6727 78.487 70.6727 78.4909C70.6727 78.4949 70.6726 78.4988 70.6726 78.5028C70.6726 78.5067 70.6726 78.5107 70.6726 78.5146C70.6725 78.5186 70.6725 78.5225 70.6725 78.5265C70.6725 78.5305 70.6725 78.5344 70.6725 78.5384C70.6724 78.5423 70.6724 78.5463 70.6724 78.5502C70.6724 78.5542 70.6724 78.5581 70.6723 78.5621C70.6723 78.566 70.6723 78.57 70.6723 78.5739C70.6723 78.5779 70.6723 78.5818 70.6722 78.5858C70.6722 78.5897 70.6722 78.5937 70.6722 78.5977C70.6722 78.6016 70.6721 78.6056 70.6721 78.6095C70.6721 78.6135 70.6721 78.6174 70.6721 78.6214C70.6721 78.6253 70.672 78.6293 70.672 78.6332C70.672 78.6372 70.672 78.6412 70.672 78.6451C70.6719 78.6491 70.6719 78.653 70.6719 78.657C70.6719 78.6609 70.6719 78.6649 70.6719 78.6689C70.6718 78.6728 70.6718 78.6768 70.6718 78.6807C70.6718 78.6847 70.6718 78.6886 70.6717 78.6926C70.6717 78.6965 70.6717 78.7005 70.6717 78.7045C70.6717 78.7084 70.6717 78.7124 70.6716 78.7163C70.6716 78.7203 70.6716 78.7242 70.6716 78.7282C70.6716 78.7322 70.6715 78.7361 70.6715 78.7401C70.6715 78.744 70.6715 78.748 70.6715 78.752C70.6715 78.7559 70.6714 78.7599 70.6714 78.7638C70.6714 78.7678 70.6714 78.7718 70.6714 78.7757C70.6713 78.7797 70.6713 78.7836 70.6713 78.7876C70.6713 78.7915 70.6713 78.7955 70.6713 78.7995C70.6712 78.8034 70.6712 78.8074 70.6712 78.8113C70.6712 78.8153 70.6712 78.8193 70.6711 78.8232C70.6711 78.8272 70.6711 78.8312 70.6711 78.8351C70.6711 78.8391 70.6711 78.843 70.671 78.847C70.671 78.851 70.671 78.8549 70.671 78.8589C70.671 78.8628 70.6709 78.8668 70.6709 78.8708C70.6709 78.8747 70.6709 78.8787 70.6709 78.8827C70.6709 78.8866 70.6708 78.8906 70.6708 78.8945C70.6708 78.8985 70.6708 78.9025 70.6708 78.9064C70.6707 78.9104 70.6707 78.9144 70.6707 78.9183C70.6707 78.9223 70.6707 78.9262 70.6707 78.9302C70.6706 78.9342 70.6706 78.9381 70.6706 78.9421C70.6706 78.9461 70.6706 78.95 70.6705 78.954C70.6705 78.958 70.6705 78.9619 70.6705 78.9659C70.6705 78.9699 70.6705 78.9738 70.6704 78.9778C70.6704 78.9817 70.6704 78.9857 70.6704 78.9897C70.6704 78.9936 70.6703 78.9976 70.6703 79.0016C70.6703 79.0055 70.6703 79.0095 70.6703 79.0135C70.6703 79.0174 70.6702 79.0214 70.6702 79.0254C70.6702 79.0293 70.6702 79.0333 70.6702 79.0373C70.6701 79.0412 70.6701 79.0452 70.6701 79.0492C70.6701 79.0531 70.6701 79.0571 70.6701 79.0611C70.67 79.065 70.67 79.069 70.67 79.073C70.67 79.0769 70.67 79.0809 70.6699 79.0849C70.6699 79.0889 70.6699 79.0928 70.6699 79.0968C70.6699 79.1008 70.6699 79.1047 70.6698 79.1087C70.6698 79.1127 70.6698 79.1166 70.6698 79.1206C70.6698 79.1246 70.6697 79.1285 70.6697 79.1325C70.6697 79.1365 70.6697 79.1405 70.6697 79.1444C70.6697 79.1484 70.6696 79.1524 70.6696 79.1563C70.6696 79.1603 70.6696 79.1643 70.6696 79.1682C70.6695 79.1722 70.6695 79.1762 70.6695 79.1802C70.6695 79.1841 70.6695 79.1881 70.6695 79.1921C70.6694 79.196 70.6694 79.2 70.6694 79.204C70.6694 79.208 70.6694 79.2119 70.6693 79.2159C70.6693 79.2199 70.6693 79.2238 70.6693 79.2278C70.6693 79.2318 70.6693 79.2358 70.6692 79.2397C70.6692 79.2437 70.6692 79.2477 70.6692 79.2517C70.6692 79.2556 70.6691 79.2596 70.6691 79.2636C70.6691 79.2675 70.6691 79.2715 70.6691 79.2755C70.6691 79.2795 70.669 79.2834 70.669 79.2874C70.669 79.2914 70.669 79.2954 70.669 79.2993C70.6689 79.3033 70.6689 79.3073 70.6689 79.3113C70.6689 79.3152 70.6689 79.3192 70.6689 79.3232C70.6688 79.3272 70.6688 79.3311 70.6688 79.3351C70.6688 79.3391 70.6688 79.3431 70.6687 79.347C70.6687 79.351 70.6687 79.355 70.6687 79.359C70.6687 79.3629 70.6687 79.3669 70.6686 79.3709C70.6686 79.3749 70.6686 79.3789 70.6686 79.3828C70.6686 79.3868 70.6685 79.3908 70.6685 79.3948C70.6685 79.3987 70.6685 79.4027 70.6685 79.4067C70.6685 79.4107 70.6684 79.4146 70.6684 79.4186C70.6684 79.4226 70.6684 79.4266 70.6684 79.4306C70.6683 79.4345 70.6683 79.4385 70.6683 79.4425C70.6683 79.4465 70.6683 79.4505 70.6683 79.4544C70.6682 79.4584 70.6682 79.4624 70.6682 79.4664C70.6682 79.4703 70.6682 79.4743 70.6681 79.4783C70.6681 79.4823 70.6681 79.4863 70.6681 79.4902C70.6681 79.4942 70.6681 79.4982 70.668 79.5022C70.668 79.5062 70.668 79.5101 70.668 79.5141C70.668 79.5181 70.6679 79.5221 70.6679 79.5261C70.6679 79.53 70.6679 79.534 70.6679 79.538C70.6679 79.542 70.6678 79.546 70.6678 79.55C70.6678 79.5539 70.6678 79.5579 70.6678 79.5619C70.6677 79.5659 70.6677 79.5699 70.6677 79.5738C70.6677 79.5778 70.6677 79.5818 70.6677 79.5858C70.6676 79.5898 70.6676 79.5938 70.6676 79.5977C70.6676 79.6017 70.6676 79.6057 70.6675 79.6097C70.6675 79.6137 70.6675 79.6177 70.6675 79.6216C70.6675 79.6256 70.6675 79.6296 70.6674 79.6336C70.6674 79.6376 70.6674 79.6416 70.6674 79.6455C70.6674 79.6495 70.6673 79.6535 70.6673 79.6575C70.6673 79.6615 70.6673 79.6655 70.6673 79.6695C70.6672 79.6734 70.6672 79.6774 70.6672 79.6814C70.6672 79.6854 70.6672 79.6894 70.6672 79.6934C70.6671 79.6974 70.6671 79.7013 70.6671 79.7053C70.6671 79.7093 70.6671 79.7133 70.667 79.7173C70.667 79.7213 70.667 79.7253 70.667 79.7292C70.667 79.7332 70.667 79.7372 70.6669 79.7412C70.6669 79.7452 70.6669 79.7492 70.6669 79.7532C70.6669 79.7572 70.6668 79.7611 70.6668 79.7651C70.6668 79.7691 70.6668 79.7731 70.6668 79.7771C70.6668 79.7811 70.6667 79.7851 70.6667 79.7891C70.6667 79.7931 70.6667 79.797 70.6667 79.801C70.6666 79.805 70.6666 79.809 70.6666 79.813C70.6666 79.817 70.6666 79.821 70.6666 79.825C70.6665 79.829 70.6665 79.8329 70.6665 79.8369C70.6665 79.8409 70.6665 79.8449 70.6664 79.8489C70.6664 79.8529 70.6664 79.8569 70.6664 79.8609C70.6664 79.8649 70.6664 79.8689 70.6663 79.8728C70.6663 79.8768 70.6663 79.8808 70.6663 79.8848C70.6663 79.8888 70.6662 79.8928 70.6662 79.8968C70.6662 79.9008 70.6662 79.9048 70.6662 79.9088C70.6662 79.9128 70.6661 79.9168 70.6661 79.9207C70.6661 79.9247 70.6661 79.9287 70.6661 79.9327C70.666 79.9367 70.666 79.9407 70.666 79.9447C70.666 79.9487 70.666 79.9527 70.666 79.9567C70.6659 79.9607 70.6659 79.9647 70.6659 79.9687C70.6659 79.9727 70.6659 79.9767 70.6658 79.9806C70.6658 79.9846 70.6658 79.9886 70.6658 79.9926C70.6658 79.9966 70.6657 80.0006 70.6657 80.0046C70.6657 80.0086 70.6657 80.0126 70.6657 80.0166C70.6657 80.0206 70.6656 80.0246 70.6656 80.0286C70.6656 80.0326 70.6656 80.0366 70.6656 80.0406C70.6655 80.0446 70.6655 80.0486 70.6655 80.0526C70.6655 80.0566 70.6655 80.0605 70.6655 80.0645C70.6654 80.0685 70.6654 80.0725 70.6654 80.0765C70.6654 80.0805 70.6654 80.0845 70.6653 80.0885C70.6653 80.0925 70.6653 80.0965 70.6653 80.1005C70.6653 80.1045 70.6653 80.1085 70.6652 80.1125C70.6652 80.1165 70.6652 80.1205 70.6652 80.1245C70.6652 80.1285 70.6651 80.1325 70.6651 80.1365C70.6651 80.1405 70.6651 80.1445 70.6651 80.1485C70.6651 80.1525 70.665 80.1565 70.665 80.1605C70.665 80.1645 70.665 80.1685 70.665 80.1725C70.6649 80.1765 70.6649 80.1805 70.6649 80.1845C70.6649 80.1885 70.6649 80.1925 70.6649 80.1965C70.6648 80.2005 70.6648 80.2045 70.6648 80.2085C70.6648 80.2125 70.6648 80.2165 70.6647 80.2205C70.6647 80.2245 70.6647 80.2285 70.6647 80.2325C70.6647 80.2365 70.6646 80.2405 70.6646 80.2445C70.6646 80.2485 70.6646 80.2525 70.6646 80.2565C70.6646 80.2605 70.6645 80.2645 70.6645 80.2685C70.6645 80.2725 70.6645 80.2765 70.6645 80.2805C70.6644 80.2845 70.6644 80.2885 70.6644 80.2925C70.6644 80.2965 70.6644 80.3005 70.6644 80.3045C70.6643 80.3085 70.6643 80.3125 70.6643 80.3165C70.6643 80.3206 70.6643 80.3246 70.6642 80.3286C70.6642 80.3326 70.6642 80.3366 70.6642 80.3406C70.6642 80.3446 70.6642 80.3486 70.6641 80.3526C70.6641 80.3566 70.6641 80.3606 70.6641 80.3646C70.6641 80.3686 70.664 80.3726 70.664 80.3766C70.664 80.3806 70.664 80.3846 70.664 80.3886C70.664 80.3926 70.6639 80.3966 70.6639 80.4007C70.6639 80.4047 70.6639 80.4087 70.6639 80.4127C70.6638 80.4167 70.6638 80.4207 70.6638 80.4247C70.6638 80.4287 70.6638 80.4327 70.6637 80.4367C70.6637 80.4407 70.6637 80.4447 70.6637 80.4487C70.6637 80.4527 70.6637 80.4567 70.6636 80.4608C70.6636 80.4648 70.6636 80.4688 70.6636 80.4728C70.6636 80.4768 70.6635 80.4808 70.6635 80.4848C70.6635 80.4888 70.6635 80.4928 70.6635 80.4968C70.6635 80.5008 70.6634 80.5048 70.6634 80.5089C70.6634 80.5129 70.6634 80.5169 70.6634 80.5209C70.6633 80.5249 70.6633 80.5289 70.6633 80.5329C70.6633 80.5369 70.6633 80.5409 70.6633 80.5449C70.6632 80.549 70.6632 80.553 70.6632 80.557C70.6632 80.561 70.6632 80.565 70.6631 80.569C70.6631 80.573 70.6631 80.577 70.6631 80.581C70.6631 80.5851 70.663 80.5891 70.663 80.5931C70.663 80.5971 70.663 80.6011 70.663 80.6051C70.663 80.6091 70.6629 80.6131 70.6629 80.6171C70.6629 80.6212 70.6629 80.6252 70.6629 80.6292C70.6628 80.6332 70.6628 80.6372 70.6628 80.6412C70.6628 80.6452 70.6628 80.6492 70.6628 80.6533C70.6627 80.6573 70.6627 80.6613 70.6627 80.6653C70.6627 80.6693 70.6627 80.6733 70.6626 80.6773C70.6626 80.6814 70.6626 80.6854 70.6626 80.6894C70.6626 80.6934 70.6626 80.6974 70.6625 80.7014C70.6625 80.7054 70.6625 80.7095 70.6625 80.7135C70.6625 80.7175 70.6624 80.7215 70.6624 80.7255C70.6624 80.7295 70.6624 80.7336 70.6624 80.7376C70.6624 80.7416 70.6623 80.7456 70.6623 80.7496C70.6623 80.7536 70.6623 80.7576 70.6623 80.7617C70.6622 80.7657 70.6622 80.7697 70.6622 80.7737C70.6622 80.7777 70.6622 80.7817 70.6621 80.7858C70.6621 80.7898 70.6621 80.7938 70.6621 80.7978C70.6621 80.8018 70.6621 80.8059 70.662 80.8099C70.662 80.8139 70.662 80.8179 70.662 80.8219C70.662 80.8259 70.6619 80.83 70.6619 80.834C70.6619 80.838 70.6619 80.842 70.6619 80.846C70.6619 80.8501 70.6618 80.8541 70.6618 80.8581C70.6618 80.8621 70.6618 80.8661 70.6618 80.8701C70.6617 80.8742 70.6617 80.8782 70.6617 80.8822C70.6617 80.8862 70.6617 80.8902 70.6617 80.8943C70.6616 80.8983 70.6616 80.9023 70.6616 80.9063C70.6616 80.9103 70.6616 80.9144 70.6615 80.9184C70.6615 80.9224 70.6615 80.9264 70.6615 80.9305C70.6615 80.9345 70.6614 80.9385 70.6614 80.9425C70.6614 80.9465 70.6614 80.9506 70.6614 80.9546C70.6614 80.9586 70.6613 80.9626 70.6613 80.9666C70.6613 80.9707 70.6613 80.9747 70.6613 80.9787C70.6612 80.9827 70.6612 80.9868 70.6612 80.9908C70.6612 80.9948 70.6612 80.9988 70.6612 81.0029C70.6611 81.0069 70.6611 81.0109 70.6611 81.0149C70.6611 81.0189 70.6611 81.023 70.661 81.027C70.661 81.031 70.661 81.035 70.661 81.0391C70.661 81.0431 70.6609 81.0471 70.6609 81.0511C70.6609 81.0552 70.6609 81.0592 70.6609 81.0632C70.6609 81.0672 70.6608 81.0713 70.6608 81.0753C70.6608 81.0793 70.6608 81.0833 70.6608 81.0874C70.6607 81.0914 70.6607 81.0954 70.6607 81.0994C70.6607 81.1035 70.6607 81.1075 70.6607 81.1115C70.6606 81.1156 70.6606 81.1196 70.6606 81.1236C70.6606 81.1276 70.6606 81.1317 70.6605 81.1357C70.6605 81.1397 70.6605 81.1437 70.6605 81.1478C70.6605 81.1518 70.6605 81.1558 70.6604 81.1598C70.6604 81.1639 70.6604 81.1679 70.6604 81.1719C70.6604 81.176 70.6603 81.18 70.6603 81.184C70.6603 81.188 70.6603 81.1921 70.6603 81.1961C70.6602 81.2001 70.6602 81.2042 70.6602 81.2082C70.6602 81.2122 70.6602 81.2162 70.6602 81.2203C70.6601 81.2243 70.6601 81.2283 70.6601 81.2324C70.6601 81.2364 70.6601 81.2404 70.66 81.2445C70.66 81.2485 70.66 81.2525 70.66 81.2565C70.66 81.2606 70.66 81.2646 70.6599 81.2686C70.6599 81.2727 70.6599 81.2767 70.6599 81.2807C70.6599 81.2848 70.6598 81.2888 70.6598 81.2928C70.6598 81.2969 70.6598 81.3009 70.6598 81.3049C70.6597 81.309 70.6597 81.313 70.6597 81.317C70.6597 81.3211 70.6597 81.3251 70.6597 81.3291C70.6596 81.3331 70.6596 81.3372 70.6596 81.3412C70.6596 81.3452 70.6596 81.3493 70.6595 81.3533C70.6595 81.3573 70.6595 81.3614 70.6595 81.3654C70.6595 81.3694 70.6595 81.3735 70.6594 81.3775C70.6594 81.3815 70.6594 81.3856 70.6594 81.3896C70.6594 81.3937 70.6593 81.3977 70.6593 81.4017C70.6593 81.4058 70.6593 81.4098 70.6593 81.4138C70.6592 81.4179 70.6592 81.4219 70.6592 81.4259C70.6592 81.43 70.6592 81.434 70.6592 81.438C70.6591 81.4421 70.6591 81.4461 70.6591 81.4501C70.6591 81.4542 70.6591 81.4582 70.659 81.4623C70.659 81.4663 70.659 81.4703 70.659 81.4744C70.659 81.4784 70.659 81.4824 70.6589 81.4865C70.6589 81.4905 70.6589 81.4945 70.6589 81.4986C70.6589 81.5026 70.6588 81.5067 70.6588 81.5107C70.6588 81.5147 70.6588 81.5188 70.6588 81.5228C70.6587 81.5269 70.6587 81.5309 70.6587 81.5349C70.6587 81.539 70.6587 81.543 70.6587 81.547C70.6586 81.5511 70.6586 81.5551 70.6586 81.5592C70.6586 81.5632 70.6586 81.5672 70.6585 81.5713C70.6585 81.5753 70.6585 81.5794 70.6585 81.5834C70.6585 81.5874 70.6585 81.5915 70.6584 81.5955C70.6584 81.5996 70.6584 81.6036 70.6584 81.6076C70.6584 81.6117 70.6583 81.6157 70.6583 81.6198C70.6583 81.6238 70.6583 81.6278 70.6583 81.6319C70.6582 81.6359 70.6582 81.64 70.6582 81.644C70.6582 81.648 70.6582 81.6521 70.6582 81.6561C70.6581 81.6602 70.6581 81.6642 70.6581 81.6683C70.6581 81.6723 70.6581 81.6763 70.658 81.6804C70.658 81.6844 70.658 81.6885 70.658 81.6925C70.658 81.6966 70.658 81.7006 70.6579 81.7046C70.6579 81.7087 70.6579 81.7127 70.6579 81.7168C70.6579 81.7208 70.6578 81.7249 70.6578 81.7289C70.6578 81.7329 70.6578 81.737 70.6578 81.741C70.6577 81.7451 70.6577 81.7491 70.6577 81.7532C70.6577 81.7572 70.6577 81.7613 70.6577 81.7653C70.6576 81.7693 70.6576 81.7734 70.6576 81.7774C70.6576 81.7815 70.6576 81.7855 70.6575 81.7896C70.6575 81.7936 70.6575 81.7977 70.6575 81.8017C70.6575 81.8058 70.6575 81.8098 70.6574 81.8139C70.6574 81.8179 70.6574 81.8219 70.6574 81.826C70.6574 81.83 70.6573 81.8341 70.6573 81.8381C70.6573 81.8422 70.6573 81.8462 70.6573 81.8503C70.6572 81.8543 70.6572 81.8584 70.6572 81.8624C70.6572 81.8665 70.6572 81.8705 70.6572 81.8746C70.6571 81.8786 70.6571 81.8827 70.6571 81.8867C70.6571 81.8908 70.6571 81.8948 70.657 81.8988C70.657 81.9029 70.657 81.9069 70.657 81.911C70.657 81.915 70.6569 81.9191 70.6569 81.9231C70.6569 81.9272 70.6569 81.9312 70.6569 81.9353C70.6569 81.9393 70.6568 81.9434 70.6568 81.9474C70.6568 81.9515 70.6568 81.9555 70.6568 81.9596L72.6567 81.9688ZM72.6847 75.8825C72.6943 73.7807 72.6138 71.4124 72.4444 68.7795L70.4485 68.9079C70.6157 71.5063 70.6941 73.8275 70.6847 75.8733L72.6847 75.8825ZM72.4463 68.8277C72.3041 59.9575 70.2311 53.2091 66.0394 48.7865L64.5878 50.1623C68.2928 54.0714 70.3083 60.2358 70.4466 68.8597L72.4463 68.8277ZM66.0468 48.7943C61.8222 44.24 54.8195 42.0694 45.3304 42.0258L45.3212 44.0258C54.5867 44.0683 60.9093 46.1967 64.5805 50.1545L66.0468 48.7943ZM45.3304 42.0258L25.4486 41.9347L25.4394 43.9346L45.3212 44.0258L45.3304 42.0258ZM24.444 42.9301L24.1153 114.613L26.1152 114.622L26.444 42.9392L24.444 42.9301Z" fill="#384D4B" mask="url(#path-26-outside-1_727_3)"/>
<path d="M50.4906 85.3545L50.4907 85.3547C50.5728 85.451 50.5729 85.5976 50.4982 85.6956L50.4632 85.7271C50.3641 85.8163 50.2203 85.8054 50.1364 85.706L50.1351 85.7044L48.6431 83.9507L48.6422 83.9496C48.6048 83.9059 48.5799 83.8416 48.5802 83.773L48.5881 82.0418L48.5889 81.8717L48.4859 81.7365L47.731 80.7455L46.84 79.5758L46.8333 81.0462L46.8242 83.018C46.823 83.295 46.5989 83.517 46.322 83.5157C46.045 83.5145 45.823 83.2904 45.8243 83.0135L45.8333 81.0416L45.84 79.5712L44.9384 80.7327L44.1745 81.7167L44.0702 81.851L44.0694 82.021L44.0615 83.7523C44.0612 83.8209 44.0357 83.8849 43.9979 83.9283L43.9969 83.9294L42.4911 85.6669C42.4908 85.6672 42.4906 85.6675 42.4903 85.6677C42.4009 85.7687 42.256 85.7755 42.1585 85.6872C42.0591 85.597 42.0437 85.4256 42.1407 85.312C42.1409 85.3118 42.1411 85.3116 42.1412 85.3114L43.4624 83.7879L43.5838 83.6479L43.5847 83.4626L43.5925 81.7532C43.5928 81.6907 43.6134 81.6325 43.6491 81.5863C43.6492 81.5862 43.6492 81.5861 43.6493 81.586L45.7394 78.8961L45.8438 78.7618L45.8445 78.5916L45.8446 78.5823L45.8498 77.4493L45.0093 78.209L40.8232 81.993L40.81 82.0049L40.7978 82.0176C39.357 83.5179 36.8266 82.4924 36.8369 80.2472C36.8427 78.9827 37.742 77.9523 38.8889 77.8054L38.8889 77.8055L38.9002 77.8038L43.6849 77.0788L44.6562 76.9317L43.9656 76.233L42.6964 74.949L42.696 74.9486C42.6147 74.8666 42.5936 74.7288 42.6566 74.6181C42.6568 74.6179 42.6569 74.6176 42.6571 74.6173L43.4087 73.3197L43.5737 73.0349L43.3774 72.7708L42.1919 71.176C42.1918 71.1759 42.1917 71.1757 42.1916 71.1755C42.1028 71.0547 42.1303 70.8851 42.2367 70.802C42.3387 70.7223 42.4819 70.7384 42.565 70.8493C42.5651 70.8494 42.5652 70.8495 42.5653 70.8496L44.0546 72.8513C44.0547 72.8514 44.0548 72.8516 44.0549 72.8517C44.1203 72.9404 44.127 73.0598 44.0727 73.1544C44.0726 73.1545 44.0726 73.1546 44.0725 73.1547L43.3611 74.385L43.1698 74.7158L43.4387 74.9872L45.0003 76.5632L45.8499 77.4206L45.8554 76.2135L45.8609 75.0229C45.862 74.7919 46.0211 74.5956 46.2393 74.5397L46.3633 74.508L46.4869 74.5408C46.7047 74.5987 46.862 74.7965 46.8609 75.0275L46.8554 76.2212L46.8499 77.43L47.7077 76.5784L49.2836 75.0137L49.5554 74.7439L49.3657 74.4113L48.6632 73.1789C48.6631 73.1786 48.6629 73.1783 48.6628 73.1781C48.6096 73.0831 48.6176 72.9639 48.6836 72.876C48.6837 72.8759 48.6838 72.8758 48.6839 72.8757L50.1922 70.8868L50.1929 70.8859C50.275 70.7771 50.4167 70.7605 50.5205 70.8431C50.629 70.9295 50.6523 71.0988 50.5637 71.2151L50.5629 71.2162L49.3619 72.8013L49.1635 73.0631L49.325 73.3491L50.0621 74.6544C50.0622 74.6546 50.0623 74.6548 50.0624 74.6549C50.1245 74.7662 50.1022 74.9039 50.0201 74.9853L50.0196 74.9857L48.7388 76.258L48.0418 76.9503L49.0117 77.1064L53.7895 77.8752L53.7895 77.8754L53.8022 77.8771C54.9532 78.032 55.8424 79.0702 55.8367 80.3344C55.8264 82.5796 53.2863 83.5821 51.8593 82.0711L51.8474 82.0585L51.8346 82.0468L47.6834 78.2214L46.8498 77.4533L46.8446 78.5868L46.8445 78.5962L46.8437 78.7664L46.947 78.9017L49.0153 81.6137C49.0153 81.6138 49.0154 81.6139 49.0154 81.6139C49.0508 81.6605 49.0709 81.7189 49.0706 81.7815L49.0627 83.4908L49.0619 83.6761L49.182 83.8172L50.4906 85.3545Z" fill="#384D4B" stroke="#384D4B"/>
</svg>
