<svg width="32" height="32" viewBox="0 0 32 32" fill="none" xmlns="http://www.w3.org/2000/svg">
<rect width="32" height="32" fill="#384D4B"/>
<line x1="10.6986" y1="12.5071" x2="16.0804" y2="7.82125" stroke="white" stroke-width="0.162431"/>
<line x1="10.3822" y1="10.8795" x2="14.1322" y2="7.81051" stroke="white" stroke-width="0.162431"/>
<line x1="10.5224" y1="14.9448" x2="17.3742" y2="8.47897" stroke="white" stroke-width="0.162431"/>
<line x1="10.5109" y1="16.8958" x2="18.7223" y2="8.66105" stroke="white" stroke-width="0.162431"/>
<line y1="-0.0812154" x2="14.2675" y2="-0.0812154" transform="matrix(0.70153 -0.71264 0.41751 0.908673 10.2559 19.3301)" stroke="white" stroke-width="0.162431"/>
<line y1="-0.0812154" x2="14.2675" y2="-0.0812154" transform="matrix(0.70153 -0.71264 0.41751 0.908673 10.9609 20.5664)" stroke="white" stroke-width="0.162431"/>
<line y1="-0.0812154" x2="14.2675" y2="-0.0812154" transform="matrix(0.70153 -0.71264 0.41751 0.908673 11.668 21.8027)" stroke="white" stroke-width="0.162431"/>
<line x1="13.1287" y1="21.7936" x2="21.4111" y2="13.6705" stroke="white" stroke-width="0.162431"/>
<line x1="14.8706" y1="22.4404" x2="21.7261" y2="15.1624" stroke="white" stroke-width="0.162431"/>
<line x1="16.493" y1="22.611" x2="21.5536" y2="17.1115" stroke="white" stroke-width="0.162431"/>
<line x1="11.2938" y1="7.78671" x2="21.9932" y2="12.3839" stroke="white" stroke-width="0.162431"/>
<line x1="10.3823" y1="8.26943" x2="21.5044" y2="13.1688" stroke="white" stroke-width="0.162431"/>
<line x1="11.1216" y1="9.89596" x2="21.9383" y2="14.4937" stroke="white" stroke-width="0.162431"/>
<line x1="10.7916" y1="10.8696" x2="21.5857" y2="15.4672" stroke="white" stroke-width="0.162431"/>
<line x1="10.6231" y1="12.0061" x2="21.2327" y2="16.4405" stroke="white" stroke-width="0.162431"/>
<line x1="11.4297" y1="13.4719" x2="20.882" y2="17.4136" stroke="white" stroke-width="0.162431"/>
<line x1="10.9412" y1="14.1192" x2="20.5316" y2="18.3864" stroke="white" stroke-width="0.162431"/>
<line x1="10.9353" y1="15.2568" x2="20.1788" y2="19.36" stroke="white" stroke-width="0.162431"/>
<line x1="11.0908" y1="16.5563" x2="19.826" y2="20.3323" stroke="white" stroke-width="0.162431"/>
<line x1="10.6" y1="17.3666" x2="19.5165" y2="21.1435" stroke="white" stroke-width="0.162431"/>
<line x1="10.7565" y1="18.5044" x2="18.0517" y2="21.6241" stroke="white" stroke-width="0.162431"/>
<line x1="10.2642" y1="19.4762" x2="16.9119" y2="22.1056" stroke="white" stroke-width="0.162431"/>
<path d="M10.4197 20.6135L15.2993 22.34" stroke="white" stroke-width="0.162431"/>
<mask id="path-25-outside-1_733_69" maskUnits="userSpaceOnUse" x="8.9987" y="7.00453" width="13.0778" height="17.0594" fill="black">
<rect fill="white" x="8.9987" y="7.00453" width="13.0778" height="17.0594"/>
<path d="M10.4199 23.0109C10.2588 23.0101 10.1345 22.9656 10.047 22.8773C9.95959 22.7744 9.91623 22.6497 9.9169 22.5033L9.98269 8.15766C9.98343 7.99656 10.0279 7.87227 10.1162 7.7848C10.2046 7.68268 10.3293 7.63199 10.4904 7.63273L15.4773 7.6556C16.9858 7.66252 18.2004 7.8951 19.121 8.35336C20.0416 8.81161 20.7122 9.48841 21.1328 10.3838C21.5535 11.2645 21.7683 12.3493 21.777 13.6382C21.7886 14.2973 21.7933 14.8758 21.791 15.3738C21.7887 15.8717 21.7788 16.4429 21.7612 17.0872C21.7257 18.4345 21.4936 19.5539 21.0647 20.4453C20.6506 21.3222 19.9885 21.9783 19.0785 22.4135C18.1831 22.8341 16.9958 23.041 15.5166 23.0342L10.4199 23.0109ZM12.0761 21.1511L15.4153 21.1664C16.4259 21.171 17.2321 21.0356 17.8338 20.7601C18.4356 20.4845 18.8697 20.0398 19.1361 19.4259C19.4172 18.8121 19.5674 17.9999 19.5867 16.9894C19.618 16.5502 19.6344 16.1694 19.6359 15.8472C19.6374 15.5104 19.6389 15.1808 19.6404 14.8586C19.6419 14.5218 19.629 14.1409 19.6017 13.7161C19.5789 12.2953 19.2469 11.2465 18.6055 10.5699C17.9643 9.87857 16.8821 9.52943 15.3589 9.52244L12.1295 9.50763L12.0761 21.1511Z"/>
</mask>
<path d="M10.4199 23.0109C10.2588 23.0101 10.1345 22.9656 10.047 22.8773C9.95959 22.7744 9.91623 22.6497 9.9169 22.5033L9.98269 8.15766C9.98343 7.99656 10.0279 7.87227 10.1162 7.7848C10.2046 7.68268 10.3293 7.63199 10.4904 7.63273L15.4773 7.6556C16.9858 7.66252 18.2004 7.8951 19.121 8.35336C20.0416 8.81161 20.7122 9.48841 21.1328 10.3838C21.5535 11.2645 21.7683 12.3493 21.777 13.6382C21.7886 14.2973 21.7933 14.8758 21.791 15.3738C21.7887 15.8717 21.7788 16.4429 21.7612 17.0872C21.7257 18.4345 21.4936 19.5539 21.0647 20.4453C20.6506 21.3222 19.9885 21.9783 19.0785 22.4135C18.1831 22.8341 16.9958 23.041 15.5166 23.0342L10.4199 23.0109ZM12.0761 21.1511L15.4153 21.1664C16.4259 21.171 17.2321 21.0356 17.8338 20.7601C18.4356 20.4845 18.8697 20.0398 19.1361 19.4259C19.4172 18.8121 19.5674 17.9999 19.5867 16.9894C19.618 16.5502 19.6344 16.1694 19.6359 15.8472C19.6374 15.5104 19.6389 15.1808 19.6404 14.8586C19.6419 14.5218 19.629 14.1409 19.6017 13.7161C19.5789 12.2953 19.2469 11.2465 18.6055 10.5699C17.9643 9.87857 16.8821 9.52943 15.3589 9.52244L12.1295 9.50763L12.0761 21.1511Z" fill="white"/>
<path d="M10.047 22.8773L9.92282 22.9828L9.93162 22.9917L10.047 22.8773ZM10.1162 7.7848L10.2309 7.90052L10.2391 7.89107L10.1162 7.7848ZM19.121 8.35336L19.0486 8.49877L19.0486 8.49877L19.121 8.35336ZM21.1328 10.3838L20.9858 10.4528L20.9863 10.4538L21.1328 10.3838ZM21.777 13.6382L21.6146 13.6393L21.6146 13.641L21.777 13.6382ZM21.7612 17.0872L21.5988 17.0828L21.5988 17.083L21.7612 17.0872ZM21.0647 20.4453L20.9184 20.3749L20.9179 20.376L21.0647 20.4453ZM19.0785 22.4135L19.1475 22.5605L19.1486 22.56L19.0785 22.4135ZM12.0761 21.1511L11.9137 21.1503L11.9129 21.3128L12.0753 21.3135L12.0761 21.1511ZM19.1361 19.4259L18.9884 19.3583L18.9871 19.3612L19.1361 19.4259ZM19.5867 16.9894L19.4244 16.9778L19.4243 16.9863L19.5867 16.9894ZM19.6017 13.7161L19.4391 13.7187L19.4396 13.7265L19.6017 13.7161ZM18.6055 10.5699L18.4864 10.6804L18.4876 10.6816L18.6055 10.5699ZM12.1295 9.50763L12.1302 9.3452L11.9678 9.34446L11.9671 9.50688L12.1295 9.50763ZM10.4206 22.8484C10.2893 22.8478 10.2113 22.8124 10.1624 22.763L9.93162 22.9917C10.0576 23.1189 10.2283 23.1724 10.4191 23.1733L10.4206 22.8484ZM10.1708 22.7722C10.1107 22.7014 10.0788 22.6152 10.0793 22.504L9.75447 22.5025C9.75364 22.6842 9.80848 22.8474 9.92319 22.9825L10.1708 22.7722ZM10.0793 22.504L10.1451 8.1584L9.82026 8.15691L9.75447 22.5025L10.0793 22.504ZM10.1451 8.1584C10.1457 8.02706 10.1812 7.94909 10.2305 7.90018L10.0019 7.66941C9.87469 7.79545 9.82114 7.96605 9.82026 8.15691L10.1451 8.1584ZM10.2391 7.89107C10.2903 7.83179 10.3659 7.79459 10.4896 7.79516L10.4911 7.4703C10.2927 7.46939 10.1188 7.53357 9.99338 7.67852L10.2391 7.89107ZM10.4896 7.79516L15.4766 7.81803L15.478 7.49317L10.4911 7.4703L10.4896 7.79516ZM15.4766 7.81803C16.9709 7.82488 18.1582 8.05554 19.0486 8.49877L19.1934 8.20794C18.2426 7.73466 17.0007 7.50015 15.478 7.49317L15.4766 7.81803ZM19.0486 8.49877C19.9378 8.94141 20.5814 9.59199 20.9858 10.4528L21.2799 10.3147C20.843 9.38482 20.1454 8.68181 19.1934 8.20794L19.0486 8.49877ZM20.9863 10.4538C21.394 11.3072 21.6059 12.3669 21.6146 13.6393L21.9394 13.6371C21.9306 12.3316 21.7131 11.2217 21.2794 10.3137L20.9863 10.4538ZM21.6146 13.641C21.6262 14.2993 21.6309 14.8766 21.6286 15.373L21.9534 15.3745C21.9557 14.8751 21.951 14.2953 21.9394 13.6353L21.6146 13.641ZM21.6286 15.373C21.6263 15.8695 21.6164 16.4394 21.5988 17.0828L21.9236 17.0917C21.9412 16.4464 21.9511 15.874 21.9534 15.3745L21.6286 15.373ZM21.5988 17.083C21.5637 18.4152 21.3343 19.5102 20.9184 20.3749L21.2111 20.5158C21.6528 19.5976 21.8877 18.4539 21.9236 17.0915L21.5988 17.083ZM20.9179 20.376C20.5204 21.2176 19.8862 21.8471 19.0084 22.2669L19.1486 22.56C20.0909 22.1094 20.7809 21.4268 21.2116 20.5147L20.9179 20.376ZM19.0094 22.2665C18.144 22.673 16.9834 22.8785 15.5174 22.8718L15.5159 23.1967C17.0083 23.2035 18.2223 22.9952 19.1475 22.5605L19.0094 22.2665ZM15.5174 22.8718L10.4206 22.8484L10.4191 23.1733L15.5159 23.1967L15.5174 22.8718ZM12.0753 21.3135L15.4146 21.3288L15.4161 21.004L12.0768 20.9886L12.0753 21.3135ZM15.4146 21.3288C16.4375 21.3335 17.2699 21.1969 17.9014 20.9078L17.7662 20.6124C17.1942 20.8743 16.4143 21.0085 15.4161 21.004L15.4146 21.3288ZM17.9014 20.9078C18.5401 20.6153 19.0029 20.1408 19.2851 19.4906L18.9871 19.3612C18.7364 19.9389 18.3311 20.3538 17.7662 20.6124L17.9014 20.9078ZM19.2838 19.4935C19.5776 18.8519 19.7296 18.0152 19.7491 16.9925L19.4243 16.9863C19.4052 17.9846 19.2568 18.7722 18.9884 19.3583L19.2838 19.4935ZM19.7487 17.0009C19.7802 16.5593 19.7968 16.1748 19.7983 15.848L19.4734 15.8465C19.472 16.1641 19.4558 16.541 19.4247 16.9779L19.7487 17.0009ZM19.7983 15.848C19.7983 15.8473 19.7983 15.8467 19.7983 15.846C19.7983 15.8453 19.7983 15.8447 19.7983 15.844C19.7983 15.8434 19.7983 15.8427 19.7983 15.842C19.7983 15.8414 19.7983 15.8407 19.7983 15.8401C19.7983 15.8394 19.7983 15.8388 19.7983 15.8381C19.7983 15.8374 19.7983 15.8368 19.7983 15.8361C19.7983 15.8355 19.7983 15.8348 19.7983 15.8342C19.7983 15.8335 19.7984 15.8328 19.7984 15.8322C19.7984 15.8315 19.7984 15.8309 19.7984 15.8302C19.7984 15.8296 19.7984 15.8289 19.7984 15.8282C19.7984 15.8276 19.7984 15.8269 19.7984 15.8263C19.7984 15.8256 19.7984 15.825 19.7984 15.8243C19.7984 15.8236 19.7984 15.823 19.7984 15.8223C19.7984 15.8217 19.7984 15.821 19.7984 15.8204C19.7984 15.8197 19.7984 15.819 19.7984 15.8184C19.7984 15.8177 19.7984 15.8171 19.7984 15.8164C19.7984 15.8158 19.7984 15.8151 19.7984 15.8144C19.7984 15.8138 19.7984 15.8131 19.7984 15.8125C19.7984 15.8118 19.7985 15.8112 19.7985 15.8105C19.7985 15.8098 19.7985 15.8092 19.7985 15.8085C19.7985 15.8079 19.7985 15.8072 19.7985 15.8066C19.7985 15.8059 19.7985 15.8052 19.7985 15.8046C19.7985 15.8039 19.7985 15.8033 19.7985 15.8026C19.7985 15.802 19.7985 15.8013 19.7985 15.8006C19.7985 15.8 19.7985 15.7993 19.7985 15.7987C19.7985 15.798 19.7985 15.7974 19.7985 15.7967C19.7985 15.7961 19.7985 15.7954 19.7985 15.7947C19.7985 15.7941 19.7985 15.7934 19.7985 15.7928C19.7985 15.7921 19.7985 15.7915 19.7985 15.7908C19.7985 15.7901 19.7986 15.7895 19.7986 15.7888C19.7986 15.7882 19.7986 15.7875 19.7986 15.7869C19.7986 15.7862 19.7986 15.7856 19.7986 15.7849C19.7986 15.7842 19.7986 15.7836 19.7986 15.7829C19.7986 15.7823 19.7986 15.7816 19.7986 15.781C19.7986 15.7803 19.7986 15.7796 19.7986 15.779C19.7986 15.7783 19.7986 15.7777 19.7986 15.777C19.7986 15.7764 19.7986 15.7757 19.7986 15.7751C19.7986 15.7744 19.7986 15.7737 19.7986 15.7731C19.7986 15.7724 19.7986 15.7718 19.7986 15.7711C19.7986 15.7705 19.7986 15.7698 19.7986 15.7692C19.7986 15.7685 19.7986 15.7678 19.7987 15.7672C19.7987 15.7665 19.7987 15.7659 19.7987 15.7652C19.7987 15.7646 19.7987 15.7639 19.7987 15.7633C19.7987 15.7626 19.7987 15.7619 19.7987 15.7613C19.7987 15.7606 19.7987 15.76 19.7987 15.7593C19.7987 15.7587 19.7987 15.758 19.7987 15.7574C19.7987 15.7567 19.7987 15.756 19.7987 15.7554C19.7987 15.7547 19.7987 15.7541 19.7987 15.7534C19.7987 15.7528 19.7987 15.7521 19.7987 15.7515C19.7987 15.7508 19.7987 15.7501 19.7987 15.7495C19.7987 15.7488 19.7987 15.7482 19.7987 15.7475C19.7987 15.7469 19.7987 15.7462 19.7988 15.7456C19.7988 15.7449 19.7988 15.7443 19.7988 15.7436C19.7988 15.7429 19.7988 15.7423 19.7988 15.7416C19.7988 15.741 19.7988 15.7403 19.7988 15.7397C19.7988 15.739 19.7988 15.7384 19.7988 15.7377C19.7988 15.737 19.7988 15.7364 19.7988 15.7357C19.7988 15.7351 19.7988 15.7344 19.7988 15.7338C19.7988 15.7331 19.7988 15.7325 19.7988 15.7318C19.7988 15.7312 19.7988 15.7305 19.7988 15.7298C19.7988 15.7292 19.7988 15.7285 19.7988 15.7279C19.7988 15.7272 19.7988 15.7266 19.7988 15.7259C19.7988 15.7253 19.7988 15.7246 19.7989 15.724C19.7989 15.7233 19.7989 15.7226 19.7989 15.722C19.7989 15.7213 19.7989 15.7207 19.7989 15.72C19.7989 15.7194 19.7989 15.7187 19.7989 15.7181C19.7989 15.7174 19.7989 15.7168 19.7989 15.7161C19.7989 15.7154 19.7989 15.7148 19.7989 15.7141C19.7989 15.7135 19.7989 15.7128 19.7989 15.7122C19.7989 15.7115 19.7989 15.7109 19.7989 15.7102C19.7989 15.7096 19.7989 15.7089 19.7989 15.7083C19.7989 15.7076 19.7989 15.7069 19.7989 15.7063C19.7989 15.7056 19.7989 15.705 19.7989 15.7043C19.7989 15.7037 19.7989 15.703 19.7989 15.7024C19.799 15.7017 19.799 15.7011 19.799 15.7004C19.799 15.6998 19.799 15.6991 19.799 15.6984C19.799 15.6978 19.799 15.6971 19.799 15.6965C19.799 15.6958 19.799 15.6952 19.799 15.6945C19.799 15.6939 19.799 15.6932 19.799 15.6926C19.799 15.6919 19.799 15.6913 19.799 15.6906C19.799 15.69 19.799 15.6893 19.799 15.6886C19.799 15.688 19.799 15.6873 19.799 15.6867C19.799 15.686 19.799 15.6854 19.799 15.6847C19.799 15.6841 19.799 15.6834 19.799 15.6828C19.799 15.6821 19.799 15.6815 19.799 15.6808C19.7991 15.6802 19.7991 15.6795 19.7991 15.6788C19.7991 15.6782 19.7991 15.6775 19.7991 15.6769C19.7991 15.6762 19.7991 15.6756 19.7991 15.6749C19.7991 15.6743 19.7991 15.6736 19.7991 15.673C19.7991 15.6723 19.7991 15.6717 19.7991 15.671C19.7991 15.6704 19.7991 15.6697 19.7991 15.6691C19.7991 15.6684 19.7991 15.6677 19.7991 15.6671C19.7991 15.6664 19.7991 15.6658 19.7991 15.6651C19.7991 15.6645 19.7991 15.6638 19.7991 15.6632C19.7991 15.6625 19.7991 15.6619 19.7991 15.6612C19.7991 15.6606 19.7991 15.6599 19.7991 15.6593C19.7992 15.6586 19.7992 15.658 19.7992 15.6573C19.7992 15.6567 19.7992 15.656 19.7992 15.6553C19.7992 15.6547 19.7992 15.654 19.7992 15.6534C19.7992 15.6527 19.7992 15.6521 19.7992 15.6514C19.7992 15.6508 19.7992 15.6501 19.7992 15.6495C19.7992 15.6488 19.7992 15.6482 19.7992 15.6475C19.7992 15.6469 19.7992 15.6462 19.7992 15.6456C19.7992 15.6449 19.7992 15.6443 19.7992 15.6436C19.7992 15.643 19.7992 15.6423 19.7992 15.6416C19.7992 15.641 19.7992 15.6403 19.7992 15.6397C19.7992 15.639 19.7992 15.6384 19.7992 15.6377C19.7992 15.6371 19.7993 15.6364 19.7993 15.6358C19.7993 15.6351 19.7993 15.6345 19.7993 15.6338C19.7993 15.6332 19.7993 15.6325 19.7993 15.6319C19.7993 15.6312 19.7993 15.6306 19.7993 15.6299C19.7993 15.6293 19.7993 15.6286 19.7993 15.628C19.7993 15.6273 19.7993 15.6267 19.7993 15.626C19.7993 15.6254 19.7993 15.6247 19.7993 15.624C19.7993 15.6234 19.7993 15.6227 19.7993 15.6221C19.7993 15.6214 19.7993 15.6208 19.7993 15.6201C19.7993 15.6195 19.7993 15.6188 19.7993 15.6182C19.7993 15.6175 19.7993 15.6169 19.7993 15.6162C19.7993 15.6156 19.7994 15.6149 19.7994 15.6143C19.7994 15.6136 19.7994 15.613 19.7994 15.6123C19.7994 15.6117 19.7994 15.611 19.7994 15.6104C19.7994 15.6097 19.7994 15.6091 19.7994 15.6084C19.7994 15.6078 19.7994 15.6071 19.7994 15.6065C19.7994 15.6058 19.7994 15.6052 19.7994 15.6045C19.7994 15.6039 19.7994 15.6032 19.7994 15.6026C19.7994 15.6019 19.7994 15.6013 19.7994 15.6006C19.7994 15.6 19.7994 15.5993 19.7994 15.5987C19.7994 15.598 19.7994 15.5974 19.7994 15.5967C19.7994 15.5961 19.7994 15.5954 19.7994 15.5947C19.7994 15.5941 19.7994 15.5934 19.7995 15.5928C19.7995 15.5921 19.7995 15.5915 19.7995 15.5908C19.7995 15.5902 19.7995 15.5895 19.7995 15.5889C19.7995 15.5882 19.7995 15.5876 19.7995 15.5869C19.7995 15.5863 19.7995 15.5856 19.7995 15.585C19.7995 15.5843 19.7995 15.5837 19.7995 15.583C19.7995 15.5824 19.7995 15.5817 19.7995 15.5811C19.7995 15.5804 19.7995 15.5798 19.7995 15.5791C19.7995 15.5785 19.7995 15.5778 19.7995 15.5772C19.7995 15.5765 19.7995 15.5759 19.7995 15.5752C19.7995 15.5746 19.7995 15.5739 19.7995 15.5733C19.7995 15.5726 19.7995 15.572 19.7996 15.5713C19.7996 15.5707 19.7996 15.57 19.7996 15.5694C19.7996 15.5687 19.7996 15.5681 19.7996 15.5674C19.7996 15.5668 19.7996 15.5661 19.7996 15.5655C19.7996 15.5648 19.7996 15.5642 19.7996 15.5635C19.7996 15.5629 19.7996 15.5622 19.7996 15.5616C19.7996 15.5609 19.7996 15.5603 19.7996 15.5596C19.7996 15.559 19.7996 15.5583 19.7996 15.5577C19.7996 15.557 19.7996 15.5564 19.7996 15.5557C19.7996 15.5551 19.7996 15.5544 19.7996 15.5538C19.7996 15.5531 19.7996 15.5525 19.7996 15.5518C19.7996 15.5512 19.7996 15.5505 19.7996 15.5499C19.7997 15.5492 19.7997 15.5486 19.7997 15.5479C19.7997 15.5473 19.7997 15.5466 19.7997 15.546C19.7997 15.5453 19.7997 15.5447 19.7997 15.5441C19.7997 15.5434 19.7997 15.5428 19.7997 15.5421C19.7997 15.5415 19.7997 15.5408 19.7997 15.5402C19.7997 15.5395 19.7997 15.5389 19.7997 15.5382C19.7997 15.5376 19.7997 15.5369 19.7997 15.5363C19.7997 15.5356 19.7997 15.535 19.7997 15.5343C19.7997 15.5337 19.7997 15.533 19.7997 15.5324C19.7997 15.5317 19.7997 15.5311 19.7997 15.5304C19.7997 15.5298 19.7997 15.5291 19.7997 15.5285C19.7998 15.5278 19.7998 15.5272 19.7998 15.5265C19.7998 15.5259 19.7998 15.5252 19.7998 15.5246C19.7998 15.5239 19.7998 15.5233 19.7998 15.5226C19.7998 15.522 19.7998 15.5213 19.7998 15.5207C19.7998 15.52 19.7998 15.5194 19.7998 15.5187C19.7998 15.5181 19.7998 15.5174 19.7998 15.5168C19.7998 15.5161 19.7998 15.5155 19.7998 15.5149C19.7998 15.5142 19.7998 15.5136 19.7998 15.5129C19.7998 15.5123 19.7998 15.5116 19.7998 15.511C19.7998 15.5103 19.7998 15.5097 19.7998 15.509C19.7998 15.5084 19.7998 15.5077 19.7998 15.5071C19.7998 15.5064 19.7999 15.5058 19.7999 15.5051C19.7999 15.5045 19.7999 15.5038 19.7999 15.5032C19.7999 15.5025 19.7999 15.5019 19.7999 15.5012C19.7999 15.5006 19.7999 15.4999 19.7999 15.4993C19.7999 15.4986 19.7999 15.498 19.7999 15.4974C19.7999 15.4967 19.7999 15.4961 19.7999 15.4954C19.7999 15.4948 19.7999 15.4941 19.7999 15.4935C19.7999 15.4928 19.7999 15.4922 19.7999 15.4915C19.7999 15.4909 19.7999 15.4902 19.7999 15.4896C19.7999 15.4889 19.7999 15.4883 19.7999 15.4876C19.7999 15.487 19.7999 15.4863 19.7999 15.4857C19.7999 15.485 19.7999 15.4844 19.8 15.4837C19.8 15.4831 19.8 15.4825 19.8 15.4818C19.8 15.4812 19.8 15.4805 19.8 15.4799C19.8 15.4792 19.8 15.4786 19.8 15.4779C19.8 15.4773 19.8 15.4766 19.8 15.476C19.8 15.4753 19.8 15.4747 19.8 15.474C19.8 15.4734 19.8 15.4727 19.8 15.4721C19.8 15.4714 19.8 15.4708 19.8 15.4702C19.8 15.4695 19.8 15.4689 19.8 15.4682C19.8 15.4676 19.8 15.4669 19.8 15.4663C19.8 15.4656 19.8 15.465 19.8 15.4643C19.8 15.4637 19.8 15.463 19.8001 15.4624C19.8001 15.4617 19.8001 15.4611 19.8001 15.4605C19.8001 15.4598 19.8001 15.4592 19.8001 15.4585C19.8001 15.4579 19.8001 15.4572 19.8001 15.4566C19.8001 15.4559 19.8001 15.4553 19.8001 15.4546C19.8001 15.454 19.8001 15.4533 19.8001 15.4527C19.8001 15.452 19.8001 15.4514 19.8001 15.4507C19.8001 15.4501 19.8001 15.4495 19.8001 15.4488C19.8001 15.4482 19.8001 15.4475 19.8001 15.4469C19.8001 15.4462 19.8001 15.4456 19.8001 15.4449C19.8001 15.4443 19.8001 15.4436 19.8001 15.443C19.8001 15.4423 19.8001 15.4417 19.8001 15.4411C19.8002 15.4404 19.8002 15.4398 19.8002 15.4391C19.8002 15.4385 19.8002 15.4378 19.8002 15.4372C19.8002 15.4365 19.8002 15.4359 19.8002 15.4352C19.8002 15.4346 19.8002 15.4339 19.8002 15.4333C19.8002 15.4327 19.8002 15.432 19.8002 15.4314C19.8002 15.4307 19.8002 15.4301 19.8002 15.4294C19.8002 15.4288 19.8002 15.4281 19.8002 15.4275C19.8002 15.4268 19.8002 15.4262 19.8002 15.4255C19.8002 15.4249 19.8002 15.4243 19.8002 15.4236C19.8002 15.423 19.8002 15.4223 19.8002 15.4217C19.8002 15.421 19.8002 15.4204 19.8002 15.4197C19.8002 15.4191 19.8003 15.4184 19.8003 15.4178C19.8003 15.4172 19.8003 15.4165 19.8003 15.4159C19.8003 15.4152 19.8003 15.4146 19.8003 15.4139C19.8003 15.4133 19.8003 15.4126 19.8003 15.412C19.8003 15.4113 19.8003 15.4107 19.8003 15.4101C19.8003 15.4094 19.8003 15.4088 19.8003 15.4081C19.8003 15.4075 19.8003 15.4068 19.8003 15.4062C19.8003 15.4055 19.8003 15.4049 19.8003 15.4042C19.8003 15.4036 19.8003 15.403 19.8003 15.4023C19.8003 15.4017 19.8003 15.401 19.8003 15.4004C19.8003 15.3997 19.8003 15.3991 19.8003 15.3984C19.8003 15.3978 19.8003 15.3971 19.8004 15.3965C19.8004 15.3959 19.8004 15.3952 19.8004 15.3946C19.8004 15.3939 19.8004 15.3933 19.8004 15.3926C19.8004 15.392 19.8004 15.3913 19.8004 15.3907C19.8004 15.3901 19.8004 15.3894 19.8004 15.3888C19.8004 15.3881 19.8004 15.3875 19.8004 15.3868C19.8004 15.3862 19.8004 15.3855 19.8004 15.3849C19.8004 15.3843 19.8004 15.3836 19.8004 15.383C19.8004 15.3823 19.8004 15.3817 19.8004 15.381C19.8004 15.3804 19.8004 15.3797 19.8004 15.3791C19.8004 15.3784 19.8004 15.3778 19.8004 15.3772C19.8004 15.3765 19.8004 15.3759 19.8005 15.3752C19.8005 15.3746 19.8005 15.3739 19.8005 15.3733C19.8005 15.3727 19.8005 15.372 19.8005 15.3714C19.8005 15.3707 19.8005 15.3701 19.8005 15.3694C19.8005 15.3688 19.8005 15.3681 19.8005 15.3675C19.8005 15.3669 19.8005 15.3662 19.8005 15.3656C19.8005 15.3649 19.8005 15.3643 19.8005 15.3636C19.8005 15.363 19.8005 15.3623 19.8005 15.3617C19.8005 15.3611 19.8005 15.3604 19.8005 15.3598C19.8005 15.3591 19.8005 15.3585 19.8005 15.3578C19.8005 15.3572 19.8005 15.3565 19.8005 15.3559C19.8005 15.3553 19.8005 15.3546 19.8005 15.354C19.8006 15.3533 19.8006 15.3527 19.8006 15.352C19.8006 15.3514 19.8006 15.3508 19.8006 15.3501C19.8006 15.3495 19.8006 15.3488 19.8006 15.3482C19.8006 15.3475 19.8006 15.3469 19.8006 15.3462C19.8006 15.3456 19.8006 15.345 19.8006 15.3443C19.8006 15.3437 19.8006 15.343 19.8006 15.3424C19.8006 15.3417 19.8006 15.3411 19.8006 15.3405C19.8006 15.3398 19.8006 15.3392 19.8006 15.3385C19.8006 15.3379 19.8006 15.3372 19.8006 15.3366C19.8006 15.336 19.8006 15.3353 19.8006 15.3347C19.8006 15.334 19.8006 15.3334 19.8006 15.3327C19.8006 15.3321 19.8007 15.3315 19.8007 15.3308C19.8007 15.3302 19.8007 15.3295 19.8007 15.3289C19.8007 15.3282 19.8007 15.3276 19.8007 15.327C19.8007 15.3263 19.8007 15.3257 19.8007 15.325C19.8007 15.3244 19.8007 15.3237 19.8007 15.3231C19.8007 15.3224 19.8007 15.3218 19.8007 15.3212C19.8007 15.3205 19.8007 15.3199 19.8007 15.3192C19.8007 15.3186 19.8007 15.3179 19.8007 15.3173C19.8007 15.3167 19.8007 15.316 19.8007 15.3154C19.8007 15.3147 19.8007 15.3141 19.8007 15.3135C19.8007 15.3128 19.8007 15.3122 19.8007 15.3115C19.8007 15.3109 19.8007 15.3102 19.8008 15.3096C19.8008 15.309 19.8008 15.3083 19.8008 15.3077C19.8008 15.307 19.8008 15.3064 19.8008 15.3057C19.8008 15.3051 19.8008 15.3045 19.8008 15.3038C19.8008 15.3032 19.8008 15.3025 19.8008 15.3019C19.8008 15.3012 19.8008 15.3006 19.8008 15.3C19.8008 15.2993 19.8008 15.2987 19.8008 15.298C19.8008 15.2974 19.8008 15.2967 19.8008 15.2961C19.8008 15.2955 19.8008 15.2948 19.8008 15.2942C19.8008 15.2935 19.8008 15.2929 19.8008 15.2923C19.8008 15.2916 19.8008 15.291 19.8008 15.2903C19.8008 15.2897 19.8008 15.289 19.8008 15.2884C19.8009 15.2878 19.8009 15.2871 19.8009 15.2865C19.8009 15.2858 19.8009 15.2852 19.8009 15.2846C19.8009 15.2839 19.8009 15.2833 19.8009 15.2826C19.8009 15.282 19.8009 15.2813 19.8009 15.2807C19.8009 15.2801 19.8009 15.2794 19.8009 15.2788C19.8009 15.2781 19.8009 15.2775 19.8009 15.2769C19.8009 15.2762 19.8009 15.2756 19.8009 15.2749C19.8009 15.2743 19.8009 15.2736 19.8009 15.273C19.8009 15.2724 19.8009 15.2717 19.8009 15.2711C19.8009 15.2704 19.8009 15.2698 19.8009 15.2692C19.8009 15.2685 19.8009 15.2679 19.8009 15.2672C19.8009 15.2666 19.801 15.2659 19.801 15.2653C19.801 15.2647 19.801 15.264 19.801 15.2634C19.801 15.2627 19.801 15.2621 19.801 15.2615C19.801 15.2608 19.801 15.2602 19.801 15.2595C19.801 15.2589 19.801 15.2583 19.801 15.2576C19.801 15.257 19.801 15.2563 19.801 15.2557C19.801 15.2551 19.801 15.2544 19.801 15.2538C19.801 15.2531 19.801 15.2525 19.801 15.2518C19.801 15.2512 19.801 15.2506 19.801 15.2499C19.801 15.2493 19.801 15.2486 19.801 15.248C19.801 15.2474 19.801 15.2467 19.801 15.2461C19.801 15.2454 19.801 15.2448 19.8011 15.2442C19.8011 15.2435 19.8011 15.2429 19.8011 15.2422C19.8011 15.2416 19.8011 15.241 19.8011 15.2403C19.8011 15.2397 19.8011 15.239 19.8011 15.2384C19.8011 15.2378 19.8011 15.2371 19.8011 15.2365C19.8011 15.2358 19.8011 15.2352 19.8011 15.2346C19.8011 15.2339 19.8011 15.2333 19.8011 15.2326C19.8011 15.232 19.8011 15.2313 19.8011 15.2307C19.8011 15.2301 19.8011 15.2294 19.8011 15.2288C19.8011 15.2281 19.8011 15.2275 19.8011 15.2269C19.8011 15.2262 19.8011 15.2256 19.8011 15.2249C19.8011 15.2243 19.8011 15.2237 19.8011 15.223C19.8012 15.2224 19.8012 15.2217 19.8012 15.2211C19.8012 15.2205 19.8012 15.2198 19.8012 15.2192C19.8012 15.2185 19.8012 15.2179 19.8012 15.2173C19.8012 15.2166 19.8012 15.216 19.8012 15.2153C19.8012 15.2147 19.8012 15.2141 19.8012 15.2134C19.8012 15.2128 19.8012 15.2122 19.8012 15.2115C19.8012 15.2109 19.8012 15.2102 19.8012 15.2096C19.8012 15.209 19.8012 15.2083 19.8012 15.2077C19.8012 15.207 19.8012 15.2064 19.8012 15.2058C19.8012 15.2051 19.8012 15.2045 19.8012 15.2038C19.8012 15.2032 19.8012 15.2026 19.8012 15.2019C19.8012 15.2013 19.8013 15.2006 19.8013 15.2C19.8013 15.1994 19.8013 15.1987 19.8013 15.1981C19.8013 15.1974 19.8013 15.1968 19.8013 15.1962C19.8013 15.1955 19.8013 15.1949 19.8013 15.1942C19.8013 15.1936 19.8013 15.193 19.8013 15.1923C19.8013 15.1917 19.8013 15.1911 19.8013 15.1904C19.8013 15.1898 19.8013 15.1891 19.8013 15.1885C19.8013 15.1879 19.8013 15.1872 19.8013 15.1866C19.8013 15.1859 19.8013 15.1853 19.8013 15.1847C19.8013 15.184 19.8013 15.1834 19.8013 15.1827C19.8013 15.1821 19.8013 15.1815 19.8013 15.1808C19.8013 15.1802 19.8013 15.1796 19.8014 15.1789C19.8014 15.1783 19.8014 15.1776 19.8014 15.177C19.8014 15.1764 19.8014 15.1757 19.8014 15.1751C19.8014 15.1744 19.8014 15.1738 19.8014 15.1732C19.8014 15.1725 19.8014 15.1719 19.8014 15.1713C19.8014 15.1706 19.8014 15.17 19.8014 15.1693C19.8014 15.1687 19.8014 15.1681 19.8014 15.1674C19.8014 15.1668 19.8014 15.1661 19.8014 15.1655C19.8014 15.1649 19.8014 15.1642 19.8014 15.1636C19.8014 15.163 19.8014 15.1623 19.8014 15.1617C19.8014 15.161 19.8014 15.1604 19.8014 15.1598C19.8014 15.1591 19.8014 15.1585 19.8014 15.1578C19.8014 15.1572 19.8015 15.1566 19.8015 15.1559C19.8015 15.1553 19.8015 15.1547 19.8015 15.154C19.8015 15.1534 19.8015 15.1527 19.8015 15.1521C19.8015 15.1515 19.8015 15.1508 19.8015 15.1502C19.8015 15.1496 19.8015 15.1489 19.8015 15.1483C19.8015 15.1476 19.8015 15.147 19.8015 15.1464C19.8015 15.1457 19.8015 15.1451 19.8015 15.1445C19.8015 15.1438 19.8015 15.1432 19.8015 15.1425C19.8015 15.1419 19.8015 15.1413 19.8015 15.1406C19.8015 15.14 19.8015 15.1394 19.8015 15.1387C19.8015 15.1381 19.8015 15.1374 19.8015 15.1368C19.8015 15.1362 19.8015 15.1355 19.8016 15.1349C19.8016 15.1343 19.8016 15.1336 19.8016 15.133C19.8016 15.1323 19.8016 15.1317 19.8016 15.1311C19.8016 15.1304 19.8016 15.1298 19.8016 15.1292C19.8016 15.1285 19.8016 15.1279 19.8016 15.1272C19.8016 15.1266 19.8016 15.126 19.8016 15.1253C19.8016 15.1247 19.8016 15.1241 19.8016 15.1234C19.8016 15.1228 19.8016 15.1221 19.8016 15.1215C19.8016 15.1209 19.8016 15.1202 19.8016 15.1196C19.8016 15.119 19.8016 15.1183 19.8016 15.1177C19.8016 15.117 19.8016 15.1164 19.8016 15.1158C19.8016 15.1151 19.8016 15.1145 19.8016 15.1139C19.8017 15.1132 19.8017 15.1126 19.8017 15.112C19.8017 15.1113 19.8017 15.1107 19.8017 15.11C19.8017 15.1094 19.8017 15.1088 19.8017 15.1081C19.8017 15.1075 19.8017 15.1069 19.8017 15.1062C19.8017 15.1056 19.8017 15.1049 19.8017 15.1043C19.8017 15.1037 19.8017 15.103 19.8017 15.1024C19.8017 15.1018 19.8017 15.1011 19.8017 15.1005C19.8017 15.0999 19.8017 15.0992 19.8017 15.0986C19.8017 15.0979 19.8017 15.0973 19.8017 15.0967C19.8017 15.096 19.8017 15.0954 19.8017 15.0948C19.8017 15.0941 19.8017 15.0935 19.8017 15.0929C19.8017 15.0922 19.8018 15.0916 19.8018 15.091C19.8018 15.0903 19.8018 15.0897 19.8018 15.089C19.8018 15.0884 19.8018 15.0878 19.8018 15.0871C19.8018 15.0865 19.8018 15.0859 19.8018 15.0852C19.8018 15.0846 19.8018 15.084 19.8018 15.0833C19.8018 15.0827 19.8018 15.082 19.8018 15.0814C19.8018 15.0808 19.8018 15.0801 19.8018 15.0795C19.8018 15.0789 19.8018 15.0782 19.8018 15.0776C19.8018 15.077 19.8018 15.0763 19.8018 15.0757C19.8018 15.0751 19.8018 15.0744 19.8018 15.0738C19.8018 15.0731 19.8018 15.0725 19.8018 15.0719C19.8018 15.0712 19.8018 15.0706 19.8019 15.07C19.8019 15.0693 19.8019 15.0687 19.8019 15.0681C19.8019 15.0674 19.8019 15.0668 19.8019 15.0662C19.8019 15.0655 19.8019 15.0649 19.8019 15.0642C19.8019 15.0636 19.8019 15.063 19.8019 15.0623C19.8019 15.0617 19.8019 15.0611 19.8019 15.0604C19.8019 15.0598 19.8019 15.0592 19.8019 15.0585C19.8019 15.0579 19.8019 15.0573 19.8019 15.0566C19.8019 15.056 19.8019 15.0554 19.8019 15.0547C19.8019 15.0541 19.8019 15.0535 19.8019 15.0528C19.8019 15.0522 19.8019 15.0515 19.8019 15.0509C19.8019 15.0503 19.8019 15.0496 19.8019 15.049C19.8019 15.0484 19.802 15.0477 19.802 15.0471C19.802 15.0465 19.802 15.0458 19.802 15.0452C19.802 15.0446 19.802 15.0439 19.802 15.0433C19.802 15.0427 19.802 15.042 19.802 15.0414C19.802 15.0408 19.802 15.0401 19.802 15.0395C19.802 15.0389 19.802 15.0382 19.802 15.0376C19.802 15.0369 19.802 15.0363 19.802 15.0357C19.802 15.035 19.802 15.0344 19.802 15.0338C19.802 15.0331 19.802 15.0325 19.802 15.0319C19.802 15.0312 19.802 15.0306 19.802 15.03C19.802 15.0293 19.802 15.0287 19.802 15.0281C19.802 15.0274 19.802 15.0268 19.8021 15.0262C19.8021 15.0255 19.8021 15.0249 19.8021 15.0243C19.8021 15.0236 19.8021 15.023 19.8021 15.0224C19.8021 15.0217 19.8021 15.0211 19.8021 15.0205C19.8021 15.0198 19.8021 15.0192 19.8021 15.0186C19.8021 15.0179 19.8021 15.0173 19.8021 15.0167C19.8021 15.016 19.8021 15.0154 19.8021 15.0147C19.8021 15.0141 19.8021 15.0135 19.8021 15.0128C19.8021 15.0122 19.8021 15.0116 19.8021 15.0109C19.8021 15.0103 19.8021 15.0097 19.8021 15.009C19.8021 15.0084 19.8021 15.0078 19.8021 15.0071C19.8021 15.0065 19.8021 15.0059 19.8021 15.0052C19.8021 15.0046 19.8022 15.004 19.8022 15.0033C19.8022 15.0027 19.8022 15.0021 19.8022 15.0014C19.8022 15.0008 19.8022 15.0002 19.8022 14.9995C19.8022 14.9989 19.8022 14.9983 19.8022 14.9976C19.8022 14.997 19.8022 14.9964 19.8022 14.9957C19.8022 14.9951 19.8022 14.9945 19.8022 14.9938C19.8022 14.9932 19.8022 14.9926 19.8022 14.9919C19.8022 14.9913 19.8022 14.9907 19.8022 14.99C19.8022 14.9894 19.8022 14.9888 19.8022 14.9881C19.8022 14.9875 19.8022 14.9869 19.8022 14.9862C19.8022 14.9856 19.8022 14.985 19.8022 14.9843C19.8022 14.9837 19.8022 14.9831 19.8023 14.9824C19.8023 14.9818 19.8023 14.9812 19.8023 14.9805C19.8023 14.9799 19.8023 14.9793 19.8023 14.9786C19.8023 14.978 19.8023 14.9774 19.8023 14.9767C19.8023 14.9761 19.8023 14.9755 19.8023 14.9749C19.8023 14.9742 19.8023 14.9736 19.8023 14.973C19.8023 14.9723 19.8023 14.9717 19.8023 14.9711C19.8023 14.9704 19.8023 14.9698 19.8023 14.9692C19.8023 14.9685 19.8023 14.9679 19.8023 14.9673C19.8023 14.9666 19.8023 14.966 19.8023 14.9654C19.8023 14.9647 19.8023 14.9641 19.8023 14.9635C19.8023 14.9628 19.8023 14.9622 19.8023 14.9616C19.8024 14.9609 19.8024 14.9603 19.8024 14.9597C19.8024 14.959 19.8024 14.9584 19.8024 14.9578C19.8024 14.9571 19.8024 14.9565 19.8024 14.9559C19.8024 14.9552 19.8024 14.9546 19.8024 14.954C19.8024 14.9533 19.8024 14.9527 19.8024 14.9521C19.8024 14.9515 19.8024 14.9508 19.8024 14.9502C19.8024 14.9496 19.8024 14.9489 19.8024 14.9483C19.8024 14.9477 19.8024 14.947 19.8024 14.9464C19.8024 14.9458 19.8024 14.9451 19.8024 14.9445C19.8024 14.9439 19.8024 14.9432 19.8024 14.9426C19.8024 14.942 19.8024 14.9413 19.8024 14.9407C19.8024 14.9401 19.8024 14.9394 19.8025 14.9388C19.8025 14.9382 19.8025 14.9376 19.8025 14.9369C19.8025 14.9363 19.8025 14.9357 19.8025 14.935C19.8025 14.9344 19.8025 14.9338 19.8025 14.9331C19.8025 14.9325 19.8025 14.9319 19.8025 14.9312C19.8025 14.9306 19.8025 14.93 19.8025 14.9293C19.8025 14.9287 19.8025 14.9281 19.8025 14.9274C19.8025 14.9268 19.8025 14.9262 19.8025 14.9256C19.8025 14.9249 19.8025 14.9243 19.8025 14.9237C19.8025 14.923 19.8025 14.9224 19.8025 14.9218C19.8025 14.9211 19.8025 14.9205 19.8025 14.9199C19.8025 14.9192 19.8025 14.9186 19.8025 14.918C19.8026 14.9173 19.8026 14.9167 19.8026 14.9161C19.8026 14.9155 19.8026 14.9148 19.8026 14.9142C19.8026 14.9136 19.8026 14.9129 19.8026 14.9123C19.8026 14.9117 19.8026 14.911 19.8026 14.9104C19.8026 14.9098 19.8026 14.9091 19.8026 14.9085C19.8026 14.9079 19.8026 14.9073 19.8026 14.9066C19.8026 14.906 19.8026 14.9054 19.8026 14.9047C19.8026 14.9041 19.8026 14.9035 19.8026 14.9028C19.8026 14.9022 19.8026 14.9016 19.8026 14.9009C19.8026 14.9003 19.8026 14.8997 19.8026 14.8991C19.8026 14.8984 19.8026 14.8978 19.8026 14.8972C19.8026 14.8965 19.8026 14.8959 19.8027 14.8953C19.8027 14.8946 19.8027 14.894 19.8027 14.8934C19.8027 14.8928 19.8027 14.8921 19.8027 14.8915C19.8027 14.8909 19.8027 14.8902 19.8027 14.8896C19.8027 14.889 19.8027 14.8883 19.8027 14.8877C19.8027 14.8871 19.8027 14.8865 19.8027 14.8858C19.8027 14.8852 19.8027 14.8846 19.8027 14.8839C19.8027 14.8833 19.8027 14.8827 19.8027 14.882C19.8027 14.8814 19.8027 14.8808 19.8027 14.8802C19.8027 14.8795 19.8027 14.8789 19.8027 14.8783C19.8027 14.8776 19.8027 14.877 19.8027 14.8764C19.8027 14.8757 19.8027 14.8751 19.8027 14.8745C19.8027 14.8739 19.8028 14.8732 19.8028 14.8726C19.8028 14.872 19.8028 14.8713 19.8028 14.8707C19.8028 14.8701 19.8028 14.8694 19.8028 14.8688C19.8028 14.8682 19.8028 14.8676 19.8028 14.8669C19.8028 14.8663 19.8028 14.8657 19.8028 14.865C19.8028 14.8644 19.8028 14.8638 19.8028 14.8632C19.8028 14.8625 19.8028 14.8619 19.8028 14.8613C19.8028 14.8606 19.8028 14.86 19.8028 14.8594L19.478 14.8579C19.478 14.8585 19.478 14.8591 19.4779 14.8598C19.4779 14.8604 19.4779 14.861 19.4779 14.8617C19.4779 14.8623 19.4779 14.8629 19.4779 14.8635C19.4779 14.8642 19.4779 14.8648 19.4779 14.8654C19.4779 14.8661 19.4779 14.8667 19.4779 14.8673C19.4779 14.868 19.4779 14.8686 19.4779 14.8692C19.4779 14.8698 19.4779 14.8705 19.4779 14.8711C19.4779 14.8717 19.4779 14.8724 19.4779 14.873C19.4779 14.8736 19.4779 14.8743 19.4779 14.8749C19.4779 14.8755 19.4779 14.8761 19.4779 14.8768C19.4779 14.8774 19.4779 14.878 19.4779 14.8787C19.4779 14.8793 19.4779 14.8799 19.4779 14.8806C19.4779 14.8812 19.4778 14.8818 19.4778 14.8824C19.4778 14.8831 19.4778 14.8837 19.4778 14.8843C19.4778 14.885 19.4778 14.8856 19.4778 14.8862C19.4778 14.8869 19.4778 14.8875 19.4778 14.8881C19.4778 14.8887 19.4778 14.8894 19.4778 14.89C19.4778 14.8906 19.4778 14.8913 19.4778 14.8919C19.4778 14.8925 19.4778 14.8932 19.4778 14.8938C19.4778 14.8944 19.4778 14.895 19.4778 14.8957C19.4778 14.8963 19.4778 14.8969 19.4778 14.8976C19.4778 14.8982 19.4778 14.8988 19.4778 14.8995C19.4778 14.9001 19.4778 14.9007 19.4778 14.9014C19.4778 14.902 19.4778 14.9026 19.4777 14.9032C19.4777 14.9039 19.4777 14.9045 19.4777 14.9051C19.4777 14.9058 19.4777 14.9064 19.4777 14.907C19.4777 14.9077 19.4777 14.9083 19.4777 14.9089C19.4777 14.9096 19.4777 14.9102 19.4777 14.9108C19.4777 14.9114 19.4777 14.9121 19.4777 14.9127C19.4777 14.9133 19.4777 14.914 19.4777 14.9146C19.4777 14.9152 19.4777 14.9159 19.4777 14.9165C19.4777 14.9171 19.4777 14.9178 19.4777 14.9184C19.4777 14.919 19.4777 14.9196 19.4777 14.9203C19.4777 14.9209 19.4777 14.9215 19.4777 14.9222C19.4777 14.9228 19.4777 14.9234 19.4777 14.9241C19.4777 14.9247 19.4776 14.9253 19.4776 14.926C19.4776 14.9266 19.4776 14.9272 19.4776 14.9279C19.4776 14.9285 19.4776 14.9291 19.4776 14.9297C19.4776 14.9304 19.4776 14.931 19.4776 14.9316C19.4776 14.9323 19.4776 14.9329 19.4776 14.9335C19.4776 14.9342 19.4776 14.9348 19.4776 14.9354C19.4776 14.9361 19.4776 14.9367 19.4776 14.9373C19.4776 14.938 19.4776 14.9386 19.4776 14.9392C19.4776 14.9399 19.4776 14.9405 19.4776 14.9411C19.4776 14.9417 19.4776 14.9424 19.4776 14.943C19.4776 14.9436 19.4776 14.9443 19.4776 14.9449C19.4776 14.9455 19.4776 14.9462 19.4776 14.9468C19.4775 14.9474 19.4775 14.9481 19.4775 14.9487C19.4775 14.9493 19.4775 14.95 19.4775 14.9506C19.4775 14.9512 19.4775 14.9519 19.4775 14.9525C19.4775 14.9531 19.4775 14.9538 19.4775 14.9544C19.4775 14.955 19.4775 14.9557 19.4775 14.9563C19.4775 14.9569 19.4775 14.9575 19.4775 14.9582C19.4775 14.9588 19.4775 14.9594 19.4775 14.9601C19.4775 14.9607 19.4775 14.9613 19.4775 14.962C19.4775 14.9626 19.4775 14.9632 19.4775 14.9639C19.4775 14.9645 19.4775 14.9651 19.4775 14.9658C19.4775 14.9664 19.4775 14.967 19.4775 14.9677C19.4775 14.9683 19.4774 14.9689 19.4774 14.9696C19.4774 14.9702 19.4774 14.9708 19.4774 14.9715C19.4774 14.9721 19.4774 14.9727 19.4774 14.9734C19.4774 14.974 19.4774 14.9746 19.4774 14.9753C19.4774 14.9759 19.4774 14.9765 19.4774 14.9772C19.4774 14.9778 19.4774 14.9784 19.4774 14.9791C19.4774 14.9797 19.4774 14.9803 19.4774 14.981C19.4774 14.9816 19.4774 14.9822 19.4774 14.9829C19.4774 14.9835 19.4774 14.9841 19.4774 14.9848C19.4774 14.9854 19.4774 14.986 19.4774 14.9867C19.4774 14.9873 19.4774 14.9879 19.4774 14.9886C19.4774 14.9892 19.4774 14.9898 19.4773 14.9905C19.4773 14.9911 19.4773 14.9917 19.4773 14.9924C19.4773 14.993 19.4773 14.9936 19.4773 14.9943C19.4773 14.9949 19.4773 14.9955 19.4773 14.9962C19.4773 14.9968 19.4773 14.9974 19.4773 14.9981C19.4773 14.9987 19.4773 14.9993 19.4773 15C19.4773 15.0006 19.4773 15.0012 19.4773 15.0019C19.4773 15.0025 19.4773 15.0031 19.4773 15.0038C19.4773 15.0044 19.4773 15.005 19.4773 15.0057C19.4773 15.0063 19.4773 15.0069 19.4773 15.0076C19.4773 15.0082 19.4773 15.0088 19.4773 15.0095C19.4773 15.0101 19.4773 15.0107 19.4773 15.0114C19.4773 15.012 19.4772 15.0126 19.4772 15.0133C19.4772 15.0139 19.4772 15.0145 19.4772 15.0152C19.4772 15.0158 19.4772 15.0164 19.4772 15.0171C19.4772 15.0177 19.4772 15.0183 19.4772 15.019C19.4772 15.0196 19.4772 15.0202 19.4772 15.0209C19.4772 15.0215 19.4772 15.0221 19.4772 15.0228C19.4772 15.0234 19.4772 15.024 19.4772 15.0247C19.4772 15.0253 19.4772 15.0259 19.4772 15.0266C19.4772 15.0272 19.4772 15.0278 19.4772 15.0285C19.4772 15.0291 19.4772 15.0297 19.4772 15.0304C19.4772 15.031 19.4772 15.0316 19.4772 15.0323C19.4772 15.0329 19.4772 15.0336 19.4771 15.0342C19.4771 15.0348 19.4771 15.0355 19.4771 15.0361C19.4771 15.0367 19.4771 15.0374 19.4771 15.038C19.4771 15.0386 19.4771 15.0393 19.4771 15.0399C19.4771 15.0405 19.4771 15.0412 19.4771 15.0418C19.4771 15.0424 19.4771 15.0431 19.4771 15.0437C19.4771 15.0443 19.4771 15.045 19.4771 15.0456C19.4771 15.0462 19.4771 15.0469 19.4771 15.0475C19.4771 15.0482 19.4771 15.0488 19.4771 15.0494C19.4771 15.0501 19.4771 15.0507 19.4771 15.0513C19.4771 15.052 19.4771 15.0526 19.4771 15.0532C19.4771 15.0539 19.4771 15.0545 19.4771 15.0551C19.4771 15.0558 19.477 15.0564 19.477 15.057C19.477 15.0577 19.477 15.0583 19.477 15.0589C19.477 15.0596 19.477 15.0602 19.477 15.0609C19.477 15.0615 19.477 15.0621 19.477 15.0628C19.477 15.0634 19.477 15.064 19.477 15.0647C19.477 15.0653 19.477 15.0659 19.477 15.0666C19.477 15.0672 19.477 15.0678 19.477 15.0685C19.477 15.0691 19.477 15.0697 19.477 15.0704C19.477 15.071 19.477 15.0717 19.477 15.0723C19.477 15.0729 19.477 15.0736 19.477 15.0742C19.477 15.0748 19.477 15.0755 19.477 15.0761C19.477 15.0767 19.477 15.0774 19.4769 15.078C19.4769 15.0786 19.4769 15.0793 19.4769 15.0799C19.4769 15.0806 19.4769 15.0812 19.4769 15.0818C19.4769 15.0825 19.4769 15.0831 19.4769 15.0837C19.4769 15.0844 19.4769 15.085 19.4769 15.0856C19.4769 15.0863 19.4769 15.0869 19.4769 15.0876C19.4769 15.0882 19.4769 15.0888 19.4769 15.0895C19.4769 15.0901 19.4769 15.0907 19.4769 15.0914C19.4769 15.092 19.4769 15.0926 19.4769 15.0933C19.4769 15.0939 19.4769 15.0946 19.4769 15.0952C19.4769 15.0958 19.4769 15.0965 19.4769 15.0971C19.4769 15.0977 19.4769 15.0984 19.4769 15.099C19.4768 15.0996 19.4768 15.1003 19.4768 15.1009C19.4768 15.1016 19.4768 15.1022 19.4768 15.1028C19.4768 15.1035 19.4768 15.1041 19.4768 15.1047C19.4768 15.1054 19.4768 15.106 19.4768 15.1066C19.4768 15.1073 19.4768 15.1079 19.4768 15.1086C19.4768 15.1092 19.4768 15.1098 19.4768 15.1105C19.4768 15.1111 19.4768 15.1117 19.4768 15.1124C19.4768 15.113 19.4768 15.1136 19.4768 15.1143C19.4768 15.1149 19.4768 15.1156 19.4768 15.1162C19.4768 15.1168 19.4768 15.1175 19.4768 15.1181C19.4768 15.1187 19.4768 15.1194 19.4768 15.12C19.4768 15.1207 19.4767 15.1213 19.4767 15.1219C19.4767 15.1226 19.4767 15.1232 19.4767 15.1238C19.4767 15.1245 19.4767 15.1251 19.4767 15.1258C19.4767 15.1264 19.4767 15.127 19.4767 15.1277C19.4767 15.1283 19.4767 15.1289 19.4767 15.1296C19.4767 15.1302 19.4767 15.1308 19.4767 15.1315C19.4767 15.1321 19.4767 15.1328 19.4767 15.1334C19.4767 15.134 19.4767 15.1347 19.4767 15.1353C19.4767 15.1359 19.4767 15.1366 19.4767 15.1372C19.4767 15.1379 19.4767 15.1385 19.4767 15.1391C19.4767 15.1398 19.4767 15.1404 19.4767 15.141C19.4767 15.1417 19.4767 15.1423 19.4767 15.143C19.4766 15.1436 19.4766 15.1442 19.4766 15.1449C19.4766 15.1455 19.4766 15.1461 19.4766 15.1468C19.4766 15.1474 19.4766 15.1481 19.4766 15.1487C19.4766 15.1493 19.4766 15.15 19.4766 15.1506C19.4766 15.1513 19.4766 15.1519 19.4766 15.1525C19.4766 15.1532 19.4766 15.1538 19.4766 15.1544C19.4766 15.1551 19.4766 15.1557 19.4766 15.1564C19.4766 15.157 19.4766 15.1576 19.4766 15.1583C19.4766 15.1589 19.4766 15.1595 19.4766 15.1602C19.4766 15.1608 19.4766 15.1615 19.4766 15.1621C19.4766 15.1627 19.4766 15.1634 19.4766 15.164C19.4766 15.1647 19.4765 15.1653 19.4765 15.1659C19.4765 15.1666 19.4765 15.1672 19.4765 15.1678C19.4765 15.1685 19.4765 15.1691 19.4765 15.1698C19.4765 15.1704 19.4765 15.171 19.4765 15.1717C19.4765 15.1723 19.4765 15.173 19.4765 15.1736C19.4765 15.1742 19.4765 15.1749 19.4765 15.1755C19.4765 15.1761 19.4765 15.1768 19.4765 15.1774C19.4765 15.1781 19.4765 15.1787 19.4765 15.1793C19.4765 15.18 19.4765 15.1806 19.4765 15.1813C19.4765 15.1819 19.4765 15.1825 19.4765 15.1832C19.4765 15.1838 19.4765 15.1845 19.4765 15.1851C19.4765 15.1857 19.4765 15.1864 19.4764 15.187C19.4764 15.1876 19.4764 15.1883 19.4764 15.1889C19.4764 15.1896 19.4764 15.1902 19.4764 15.1908C19.4764 15.1915 19.4764 15.1921 19.4764 15.1928C19.4764 15.1934 19.4764 15.194 19.4764 15.1947C19.4764 15.1953 19.4764 15.196 19.4764 15.1966C19.4764 15.1972 19.4764 15.1979 19.4764 15.1985C19.4764 15.1992 19.4764 15.1998 19.4764 15.2004C19.4764 15.2011 19.4764 15.2017 19.4764 15.2023C19.4764 15.203 19.4764 15.2036 19.4764 15.2043C19.4764 15.2049 19.4764 15.2055 19.4764 15.2062C19.4764 15.2068 19.4764 15.2075 19.4764 15.2081C19.4763 15.2087 19.4763 15.2094 19.4763 15.21C19.4763 15.2107 19.4763 15.2113 19.4763 15.2119C19.4763 15.2126 19.4763 15.2132 19.4763 15.2139C19.4763 15.2145 19.4763 15.2151 19.4763 15.2158C19.4763 15.2164 19.4763 15.2171 19.4763 15.2177C19.4763 15.2183 19.4763 15.219 19.4763 15.2196C19.4763 15.2203 19.4763 15.2209 19.4763 15.2215C19.4763 15.2222 19.4763 15.2228 19.4763 15.2235C19.4763 15.2241 19.4763 15.2247 19.4763 15.2254C19.4763 15.226 19.4763 15.2267 19.4763 15.2273C19.4763 15.2279 19.4763 15.2286 19.4763 15.2292C19.4763 15.2299 19.4762 15.2305 19.4762 15.2311C19.4762 15.2318 19.4762 15.2324 19.4762 15.2331C19.4762 15.2337 19.4762 15.2343 19.4762 15.235C19.4762 15.2356 19.4762 15.2363 19.4762 15.2369C19.4762 15.2375 19.4762 15.2382 19.4762 15.2388C19.4762 15.2395 19.4762 15.2401 19.4762 15.2407C19.4762 15.2414 19.4762 15.242 19.4762 15.2427C19.4762 15.2433 19.4762 15.2439 19.4762 15.2446C19.4762 15.2452 19.4762 15.2459 19.4762 15.2465C19.4762 15.2472 19.4762 15.2478 19.4762 15.2484C19.4762 15.2491 19.4762 15.2497 19.4762 15.2504C19.4762 15.251 19.4762 15.2516 19.4761 15.2523C19.4761 15.2529 19.4761 15.2536 19.4761 15.2542C19.4761 15.2548 19.4761 15.2555 19.4761 15.2561C19.4761 15.2568 19.4761 15.2574 19.4761 15.258C19.4761 15.2587 19.4761 15.2593 19.4761 15.26C19.4761 15.2606 19.4761 15.2613 19.4761 15.2619C19.4761 15.2625 19.4761 15.2632 19.4761 15.2638C19.4761 15.2645 19.4761 15.2651 19.4761 15.2657C19.4761 15.2664 19.4761 15.267 19.4761 15.2677C19.4761 15.2683 19.4761 15.2689 19.4761 15.2696C19.4761 15.2702 19.4761 15.2709 19.4761 15.2715C19.4761 15.2722 19.4761 15.2728 19.4761 15.2734C19.476 15.2741 19.476 15.2747 19.476 15.2754C19.476 15.276 19.476 15.2766 19.476 15.2773C19.476 15.2779 19.476 15.2786 19.476 15.2792C19.476 15.2799 19.476 15.2805 19.476 15.2811C19.476 15.2818 19.476 15.2824 19.476 15.2831C19.476 15.2837 19.476 15.2843 19.476 15.285C19.476 15.2856 19.476 15.2863 19.476 15.2869C19.476 15.2876 19.476 15.2882 19.476 15.2888C19.476 15.2895 19.476 15.2901 19.476 15.2908C19.476 15.2914 19.476 15.292 19.476 15.2927C19.476 15.2933 19.476 15.294 19.476 15.2946C19.476 15.2953 19.4759 15.2959 19.4759 15.2965C19.4759 15.2972 19.4759 15.2978 19.4759 15.2985C19.4759 15.2991 19.4759 15.2998 19.4759 15.3004C19.4759 15.301 19.4759 15.3017 19.4759 15.3023C19.4759 15.303 19.4759 15.3036 19.4759 15.3043C19.4759 15.3049 19.4759 15.3055 19.4759 15.3062C19.4759 15.3068 19.4759 15.3075 19.4759 15.3081C19.4759 15.3087 19.4759 15.3094 19.4759 15.31C19.4759 15.3107 19.4759 15.3113 19.4759 15.312C19.4759 15.3126 19.4759 15.3132 19.4759 15.3139C19.4759 15.3145 19.4759 15.3152 19.4759 15.3158C19.4759 15.3165 19.4759 15.3171 19.4758 15.3177C19.4758 15.3184 19.4758 15.319 19.4758 15.3197C19.4758 15.3203 19.4758 15.321 19.4758 15.3216C19.4758 15.3222 19.4758 15.3229 19.4758 15.3235C19.4758 15.3242 19.4758 15.3248 19.4758 15.3255C19.4758 15.3261 19.4758 15.3267 19.4758 15.3274C19.4758 15.328 19.4758 15.3287 19.4758 15.3293C19.4758 15.33 19.4758 15.3306 19.4758 15.3312C19.4758 15.3319 19.4758 15.3325 19.4758 15.3332C19.4758 15.3338 19.4758 15.3345 19.4758 15.3351C19.4758 15.3358 19.4758 15.3364 19.4758 15.337C19.4758 15.3377 19.4758 15.3383 19.4758 15.339C19.4757 15.3396 19.4757 15.3403 19.4757 15.3409C19.4757 15.3415 19.4757 15.3422 19.4757 15.3428C19.4757 15.3435 19.4757 15.3441 19.4757 15.3448C19.4757 15.3454 19.4757 15.346 19.4757 15.3467C19.4757 15.3473 19.4757 15.348 19.4757 15.3486C19.4757 15.3493 19.4757 15.3499 19.4757 15.3506C19.4757 15.3512 19.4757 15.3518 19.4757 15.3525C19.4757 15.3531 19.4757 15.3538 19.4757 15.3544C19.4757 15.3551 19.4757 15.3557 19.4757 15.3563C19.4757 15.357 19.4757 15.3576 19.4757 15.3583C19.4757 15.3589 19.4757 15.3596 19.4757 15.3602C19.4757 15.3609 19.4756 15.3615 19.4756 15.3621C19.4756 15.3628 19.4756 15.3634 19.4756 15.3641C19.4756 15.3647 19.4756 15.3654 19.4756 15.366C19.4756 15.3667 19.4756 15.3673 19.4756 15.3679C19.4756 15.3686 19.4756 15.3692 19.4756 15.3699C19.4756 15.3705 19.4756 15.3712 19.4756 15.3718C19.4756 15.3724 19.4756 15.3731 19.4756 15.3737C19.4756 15.3744 19.4756 15.375 19.4756 15.3757C19.4756 15.3763 19.4756 15.377 19.4756 15.3776C19.4756 15.3782 19.4756 15.3789 19.4756 15.3795C19.4756 15.3802 19.4756 15.3808 19.4756 15.3815C19.4756 15.3821 19.4756 15.3828 19.4755 15.3834C19.4755 15.3841 19.4755 15.3847 19.4755 15.3853C19.4755 15.386 19.4755 15.3866 19.4755 15.3873C19.4755 15.3879 19.4755 15.3886 19.4755 15.3892C19.4755 15.3899 19.4755 15.3905 19.4755 15.3911C19.4755 15.3918 19.4755 15.3924 19.4755 15.3931C19.4755 15.3937 19.4755 15.3944 19.4755 15.395C19.4755 15.3957 19.4755 15.3963 19.4755 15.3969C19.4755 15.3976 19.4755 15.3982 19.4755 15.3989C19.4755 15.3995 19.4755 15.4002 19.4755 15.4008C19.4755 15.4015 19.4755 15.4021 19.4755 15.4028C19.4755 15.4034 19.4755 15.404 19.4755 15.4047C19.4754 15.4053 19.4754 15.406 19.4754 15.4066C19.4754 15.4073 19.4754 15.4079 19.4754 15.4086C19.4754 15.4092 19.4754 15.4099 19.4754 15.4105C19.4754 15.4111 19.4754 15.4118 19.4754 15.4124C19.4754 15.4131 19.4754 15.4137 19.4754 15.4144C19.4754 15.415 19.4754 15.4157 19.4754 15.4163C19.4754 15.417 19.4754 15.4176 19.4754 15.4182C19.4754 15.4189 19.4754 15.4195 19.4754 15.4202C19.4754 15.4208 19.4754 15.4215 19.4754 15.4221C19.4754 15.4228 19.4754 15.4234 19.4754 15.4241C19.4754 15.4247 19.4754 15.4253 19.4754 15.426C19.4753 15.4266 19.4753 15.4273 19.4753 15.4279C19.4753 15.4286 19.4753 15.4292 19.4753 15.4299C19.4753 15.4305 19.4753 15.4312 19.4753 15.4318C19.4753 15.4325 19.4753 15.4331 19.4753 15.4337C19.4753 15.4344 19.4753 15.435 19.4753 15.4357C19.4753 15.4363 19.4753 15.437 19.4753 15.4376C19.4753 15.4383 19.4753 15.4389 19.4753 15.4396C19.4753 15.4402 19.4753 15.4409 19.4753 15.4415C19.4753 15.4421 19.4753 15.4428 19.4753 15.4434C19.4753 15.4441 19.4753 15.4447 19.4753 15.4454C19.4753 15.446 19.4753 15.4467 19.4753 15.4473C19.4753 15.448 19.4752 15.4486 19.4752 15.4493C19.4752 15.4499 19.4752 15.4506 19.4752 15.4512C19.4752 15.4518 19.4752 15.4525 19.4752 15.4531C19.4752 15.4538 19.4752 15.4544 19.4752 15.4551C19.4752 15.4557 19.4752 15.4564 19.4752 15.457C19.4752 15.4577 19.4752 15.4583 19.4752 15.459C19.4752 15.4596 19.4752 15.4603 19.4752 15.4609C19.4752 15.4615 19.4752 15.4622 19.4752 15.4628C19.4752 15.4635 19.4752 15.4641 19.4752 15.4648C19.4752 15.4654 19.4752 15.4661 19.4752 15.4667C19.4752 15.4674 19.4752 15.468 19.4752 15.4687C19.4752 15.4693 19.4752 15.47 19.4751 15.4706C19.4751 15.4713 19.4751 15.4719 19.4751 15.4725C19.4751 15.4732 19.4751 15.4738 19.4751 15.4745C19.4751 15.4751 19.4751 15.4758 19.4751 15.4764C19.4751 15.4771 19.4751 15.4777 19.4751 15.4784C19.4751 15.479 19.4751 15.4797 19.4751 15.4803C19.4751 15.481 19.4751 15.4816 19.4751 15.4823C19.4751 15.4829 19.4751 15.4836 19.4751 15.4842C19.4751 15.4848 19.4751 15.4855 19.4751 15.4861C19.4751 15.4868 19.4751 15.4874 19.4751 15.4881C19.4751 15.4887 19.4751 15.4894 19.4751 15.49C19.4751 15.4907 19.4751 15.4913 19.475 15.492C19.475 15.4926 19.475 15.4933 19.475 15.4939C19.475 15.4946 19.475 15.4952 19.475 15.4959C19.475 15.4965 19.475 15.4972 19.475 15.4978C19.475 15.4985 19.475 15.4991 19.475 15.4997C19.475 15.5004 19.475 15.501 19.475 15.5017C19.475 15.5023 19.475 15.503 19.475 15.5036C19.475 15.5043 19.475 15.5049 19.475 15.5056C19.475 15.5062 19.475 15.5069 19.475 15.5075C19.475 15.5082 19.475 15.5088 19.475 15.5095C19.475 15.5101 19.475 15.5108 19.475 15.5114C19.475 15.5121 19.475 15.5127 19.475 15.5134C19.4749 15.514 19.4749 15.5147 19.4749 15.5153C19.4749 15.516 19.4749 15.5166 19.4749 15.5173C19.4749 15.5179 19.4749 15.5186 19.4749 15.5192C19.4749 15.5198 19.4749 15.5205 19.4749 15.5211C19.4749 15.5218 19.4749 15.5224 19.4749 15.5231C19.4749 15.5237 19.4749 15.5244 19.4749 15.525C19.4749 15.5257 19.4749 15.5263 19.4749 15.527C19.4749 15.5276 19.4749 15.5283 19.4749 15.5289C19.4749 15.5296 19.4749 15.5302 19.4749 15.5309C19.4749 15.5315 19.4749 15.5322 19.4749 15.5328C19.4749 15.5335 19.4749 15.5341 19.4749 15.5348C19.4749 15.5354 19.4748 15.5361 19.4748 15.5367C19.4748 15.5374 19.4748 15.538 19.4748 15.5387C19.4748 15.5393 19.4748 15.54 19.4748 15.5406C19.4748 15.5413 19.4748 15.5419 19.4748 15.5426C19.4748 15.5432 19.4748 15.5439 19.4748 15.5445C19.4748 15.5452 19.4748 15.5458 19.4748 15.5465C19.4748 15.5471 19.4748 15.5478 19.4748 15.5484C19.4748 15.5491 19.4748 15.5497 19.4748 15.5504C19.4748 15.551 19.4748 15.5517 19.4748 15.5523C19.4748 15.553 19.4748 15.5536 19.4748 15.5542C19.4748 15.5549 19.4748 15.5555 19.4748 15.5562C19.4748 15.5568 19.4747 15.5575 19.4747 15.5581C19.4747 15.5588 19.4747 15.5594 19.4747 15.5601C19.4747 15.5607 19.4747 15.5614 19.4747 15.562C19.4747 15.5627 19.4747 15.5633 19.4747 15.564C19.4747 15.5646 19.4747 15.5653 19.4747 15.5659C19.4747 15.5666 19.4747 15.5672 19.4747 15.5679C19.4747 15.5685 19.4747 15.5692 19.4747 15.5698C19.4747 15.5705 19.4747 15.5711 19.4747 15.5718C19.4747 15.5724 19.4747 15.5731 19.4747 15.5737C19.4747 15.5744 19.4747 15.575 19.4747 15.5757C19.4747 15.5763 19.4747 15.577 19.4747 15.5776C19.4747 15.5783 19.4747 15.5789 19.4746 15.5796C19.4746 15.5802 19.4746 15.5809 19.4746 15.5815C19.4746 15.5822 19.4746 15.5828 19.4746 15.5835C19.4746 15.5842 19.4746 15.5848 19.4746 15.5855C19.4746 15.5861 19.4746 15.5868 19.4746 15.5874C19.4746 15.5881 19.4746 15.5887 19.4746 15.5894C19.4746 15.59 19.4746 15.5907 19.4746 15.5913C19.4746 15.592 19.4746 15.5926 19.4746 15.5933C19.4746 15.5939 19.4746 15.5946 19.4746 15.5952C19.4746 15.5959 19.4746 15.5965 19.4746 15.5972C19.4746 15.5978 19.4746 15.5985 19.4746 15.5991C19.4746 15.5998 19.4746 15.6004 19.4745 15.6011C19.4745 15.6017 19.4745 15.6024 19.4745 15.603C19.4745 15.6037 19.4745 15.6043 19.4745 15.605C19.4745 15.6056 19.4745 15.6063 19.4745 15.6069C19.4745 15.6076 19.4745 15.6082 19.4745 15.6089C19.4745 15.6095 19.4745 15.6102 19.4745 15.6108C19.4745 15.6115 19.4745 15.6121 19.4745 15.6128C19.4745 15.6134 19.4745 15.6141 19.4745 15.6147C19.4745 15.6154 19.4745 15.616 19.4745 15.6167C19.4745 15.6173 19.4745 15.618 19.4745 15.6187C19.4745 15.6193 19.4745 15.62 19.4745 15.6206C19.4745 15.6213 19.4745 15.6219 19.4745 15.6226C19.4744 15.6232 19.4744 15.6239 19.4744 15.6245C19.4744 15.6252 19.4744 15.6258 19.4744 15.6265C19.4744 15.6271 19.4744 15.6278 19.4744 15.6284C19.4744 15.6291 19.4744 15.6297 19.4744 15.6304C19.4744 15.631 19.4744 15.6317 19.4744 15.6323C19.4744 15.633 19.4744 15.6336 19.4744 15.6343C19.4744 15.6349 19.4744 15.6356 19.4744 15.6362C19.4744 15.6369 19.4744 15.6376 19.4744 15.6382C19.4744 15.6389 19.4744 15.6395 19.4744 15.6402C19.4744 15.6408 19.4744 15.6415 19.4744 15.6421C19.4744 15.6428 19.4744 15.6434 19.4744 15.6441C19.4743 15.6447 19.4743 15.6454 19.4743 15.646C19.4743 15.6467 19.4743 15.6473 19.4743 15.648C19.4743 15.6486 19.4743 15.6493 19.4743 15.6499C19.4743 15.6506 19.4743 15.6512 19.4743 15.6519C19.4743 15.6526 19.4743 15.6532 19.4743 15.6539C19.4743 15.6545 19.4743 15.6552 19.4743 15.6558C19.4743 15.6565 19.4743 15.6571 19.4743 15.6578C19.4743 15.6584 19.4743 15.6591 19.4743 15.6597C19.4743 15.6604 19.4743 15.661 19.4743 15.6617C19.4743 15.6623 19.4743 15.663 19.4743 15.6636C19.4743 15.6643 19.4743 15.6649 19.4743 15.6656C19.4743 15.6663 19.4742 15.6669 19.4742 15.6676C19.4742 15.6682 19.4742 15.6689 19.4742 15.6695C19.4742 15.6702 19.4742 15.6708 19.4742 15.6715C19.4742 15.6721 19.4742 15.6728 19.4742 15.6734C19.4742 15.6741 19.4742 15.6747 19.4742 15.6754C19.4742 15.676 19.4742 15.6767 19.4742 15.6774C19.4742 15.678 19.4742 15.6787 19.4742 15.6793C19.4742 15.68 19.4742 15.6806 19.4742 15.6813C19.4742 15.6819 19.4742 15.6826 19.4742 15.6832C19.4742 15.6839 19.4742 15.6845 19.4742 15.6852C19.4742 15.6858 19.4742 15.6865 19.4742 15.6872C19.4742 15.6878 19.4741 15.6885 19.4741 15.6891C19.4741 15.6898 19.4741 15.6904 19.4741 15.6911C19.4741 15.6917 19.4741 15.6924 19.4741 15.693C19.4741 15.6937 19.4741 15.6943 19.4741 15.695C19.4741 15.6957 19.4741 15.6963 19.4741 15.697C19.4741 15.6976 19.4741 15.6983 19.4741 15.6989C19.4741 15.6996 19.4741 15.7002 19.4741 15.7009C19.4741 15.7015 19.4741 15.7022 19.4741 15.7028C19.4741 15.7035 19.4741 15.7041 19.4741 15.7048C19.4741 15.7055 19.4741 15.7061 19.4741 15.7068C19.4741 15.7074 19.4741 15.7081 19.4741 15.7087C19.4741 15.7094 19.474 15.71 19.474 15.7107C19.474 15.7113 19.474 15.712 19.474 15.7127C19.474 15.7133 19.474 15.714 19.474 15.7146C19.474 15.7153 19.474 15.7159 19.474 15.7166C19.474 15.7172 19.474 15.7179 19.474 15.7185C19.474 15.7192 19.474 15.7198 19.474 15.7205C19.474 15.7212 19.474 15.7218 19.474 15.7225C19.474 15.7231 19.474 15.7238 19.474 15.7244C19.474 15.7251 19.474 15.7257 19.474 15.7264C19.474 15.727 19.474 15.7277 19.474 15.7284C19.474 15.729 19.474 15.7297 19.474 15.7303C19.474 15.731 19.474 15.7316 19.4739 15.7323C19.4739 15.7329 19.4739 15.7336 19.4739 15.7342C19.4739 15.7349 19.4739 15.7356 19.4739 15.7362C19.4739 15.7369 19.4739 15.7375 19.4739 15.7382C19.4739 15.7388 19.4739 15.7395 19.4739 15.7401C19.4739 15.7408 19.4739 15.7415 19.4739 15.7421C19.4739 15.7428 19.4739 15.7434 19.4739 15.7441C19.4739 15.7447 19.4739 15.7454 19.4739 15.746C19.4739 15.7467 19.4739 15.7473 19.4739 15.748C19.4739 15.7487 19.4739 15.7493 19.4739 15.75C19.4739 15.7506 19.4739 15.7513 19.4739 15.7519C19.4739 15.7526 19.4739 15.7532 19.4738 15.7539C19.4738 15.7546 19.4738 15.7552 19.4738 15.7559C19.4738 15.7565 19.4738 15.7572 19.4738 15.7578C19.4738 15.7585 19.4738 15.7591 19.4738 15.7598C19.4738 15.7605 19.4738 15.7611 19.4738 15.7618C19.4738 15.7624 19.4738 15.7631 19.4738 15.7637C19.4738 15.7644 19.4738 15.765 19.4738 15.7657C19.4738 15.7664 19.4738 15.767 19.4738 15.7677C19.4738 15.7683 19.4738 15.769 19.4738 15.7696C19.4738 15.7703 19.4738 15.7709 19.4738 15.7716C19.4738 15.7723 19.4738 15.7729 19.4738 15.7736C19.4738 15.7742 19.4738 15.7749 19.4737 15.7755C19.4737 15.7762 19.4737 15.7768 19.4737 15.7775C19.4737 15.7782 19.4737 15.7788 19.4737 15.7795C19.4737 15.7801 19.4737 15.7808 19.4737 15.7814C19.4737 15.7821 19.4737 15.7827 19.4737 15.7834C19.4737 15.7841 19.4737 15.7847 19.4737 15.7854C19.4737 15.786 19.4737 15.7867 19.4737 15.7873C19.4737 15.788 19.4737 15.7887 19.4737 15.7893C19.4737 15.79 19.4737 15.7906 19.4737 15.7913C19.4737 15.7919 19.4737 15.7926 19.4737 15.7932C19.4737 15.7939 19.4737 15.7946 19.4737 15.7952C19.4737 15.7959 19.4737 15.7965 19.4736 15.7972C19.4736 15.7978 19.4736 15.7985 19.4736 15.7992C19.4736 15.7998 19.4736 15.8005 19.4736 15.8011C19.4736 15.8018 19.4736 15.8024 19.4736 15.8031C19.4736 15.8038 19.4736 15.8044 19.4736 15.8051C19.4736 15.8057 19.4736 15.8064 19.4736 15.807C19.4736 15.8077 19.4736 15.8084 19.4736 15.809C19.4736 15.8097 19.4736 15.8103 19.4736 15.811C19.4736 15.8116 19.4736 15.8123 19.4736 15.8129C19.4736 15.8136 19.4736 15.8143 19.4736 15.8149C19.4736 15.8156 19.4736 15.8162 19.4736 15.8169C19.4736 15.8175 19.4736 15.8182 19.4736 15.8189C19.4735 15.8195 19.4735 15.8202 19.4735 15.8208C19.4735 15.8215 19.4735 15.8221 19.4735 15.8228C19.4735 15.8235 19.4735 15.8241 19.4735 15.8248C19.4735 15.8254 19.4735 15.8261 19.4735 15.8267C19.4735 15.8274 19.4735 15.8281 19.4735 15.8287C19.4735 15.8294 19.4735 15.83 19.4735 15.8307C19.4735 15.8314 19.4735 15.832 19.4735 15.8327C19.4735 15.8333 19.4735 15.834 19.4735 15.8346C19.4735 15.8353 19.4735 15.836 19.4735 15.8366C19.4735 15.8373 19.4735 15.8379 19.4735 15.8386C19.4735 15.8392 19.4735 15.8399 19.4735 15.8406C19.4734 15.8412 19.4734 15.8419 19.4734 15.8425C19.4734 15.8432 19.4734 15.8438 19.4734 15.8445C19.4734 15.8452 19.4734 15.8458 19.4734 15.8465L19.7983 15.848ZM19.8028 14.8594C19.8044 14.518 19.7913 14.1333 19.7638 13.7056L19.4396 13.7265C19.4668 14.1485 19.4795 14.5256 19.478 14.8579L19.8028 14.8594ZM19.7641 13.7134C19.741 12.2727 19.4043 11.1765 18.7234 10.4581L18.4876 10.6816C19.0894 11.3166 19.4168 12.3179 19.4393 13.7187L19.7641 13.7134ZM18.7246 10.4594C18.0384 9.71966 16.901 9.36708 15.3596 9.36001L15.3581 9.68487C16.8632 9.69177 17.8901 10.0375 18.4864 10.6803L18.7246 10.4594ZM15.3596 9.36001L12.1302 9.3452L12.1287 9.67006L15.3581 9.68487L15.3596 9.36001ZM11.9671 9.50688L11.9137 21.1503L12.2385 21.1518L12.2919 9.50837L11.9671 9.50688Z" fill="white" mask="url(#path-25-outside-1_733_69)"/>
<path d="M15.1259 15.202C15.1091 15.2238 15.0998 15.2506 15.0997 15.2785L15.0984 15.5562L14.8835 15.8039C14.8397 15.855 14.8439 15.9332 14.8934 15.9781C14.9429 16.023 15.0186 16.0188 15.063 15.9682L15.3079 15.6856C15.3273 15.6633 15.3381 15.6339 15.3383 15.604L15.3396 15.3228L15.3819 15.2682L15.3824 15.1626L15.4636 15.1629L15.5278 15.2127L15.463 15.2962L15.4622 15.4832C15.4618 15.5731 15.534 15.646 15.6239 15.6464C15.7137 15.6468 15.7866 15.5746 15.787 15.4847L15.7879 15.2977L15.7239 15.2136L15.7885 15.1644L15.8697 15.1648L15.8692 15.2704L15.9111 15.3254L15.9098 15.6066C15.9097 15.6366 15.9202 15.6661 15.9394 15.6885L16.1818 15.9733L16.3513 15.9848L16.2974 15.9249C16.2994 15.9232 16.3011 15.9213 16.3026 15.9193M15.1259 15.202L15.19 15.2518L15.1901 15.2517M15.1259 15.202L15.1901 15.2517M15.1259 15.202L15.1836 15.1277L15.5199 14.8237L15.4701 14.7686L15.4669 14.765L15.4655 14.7635L15.4635 14.7634L15.4013 14.7152L15.1239 15.0722L14.7855 15.3781C14.4948 15.6808 14.0003 15.4633 14.0023 15.0339C14.0034 14.7908 14.1769 14.5865 14.4065 14.5571L15.0844 14.4544L15.126 14.4964L15.1837 14.4393L15.1715 14.359L15.1131 14.3679L14.9776 14.2308C14.9382 14.191 14.9303 14.1285 14.9585 14.0794L16.0618 15.2563M15.1901 15.2517C15.1843 15.2593 15.1809 15.2687 15.1809 15.2789L15.1796 15.5566L15.1795 15.5867L15.1597 15.6094L14.9451 15.8569L14.8836 15.804L14.9449 15.8572L14.9451 15.857C14.9293 15.8754 14.9318 15.9033 14.9479 15.9179C14.9638 15.9323 14.9873 15.9312 15.0018 15.9148L15.0016 15.915L15.063 15.9682L15.002 15.9146L15.2466 15.6324L15.2467 15.6322C15.2529 15.6252 15.257 15.6148 15.2571 15.6036L15.2583 15.3224L15.2585 15.2948L15.2754 15.273L15.3995 15.1131L15.546 14.9245L15.5449 15.1633L15.5434 15.4836C15.5432 15.5286 15.5792 15.565 15.6242 15.5652C15.6692 15.5654 15.7056 15.5294 15.7058 15.4844L15.7073 15.1641L15.7084 14.9252L15.8531 15.1152L15.9757 15.2762L15.9925 15.2982L15.9923 15.3258L15.9911 15.607C15.991 15.6181 15.995 15.6286 16.0011 15.6357L16.0013 15.6359L16.2436 15.9207L16.2438 15.921C16.2575 15.9371 16.2808 15.9389 16.2969 15.9244L16.3026 15.9193M15.1901 15.2517L15.5296 14.8148L15.5466 14.793L15.5467 14.7654L15.5467 14.7638L15.5475 14.5798L15.411 14.7032L14.731 15.3179L14.7309 15.3177L14.7269 15.3219C14.4929 15.5656 14.0818 15.399 14.0835 15.0343C14.0845 14.8289 14.2306 14.6615 14.4168 14.6376L14.4168 14.6377L14.4187 14.6374L15.1959 14.5196L15.3537 14.4957L15.2415 14.3822L15.0353 14.1737L15.0353 14.1736C15.022 14.1603 15.0186 14.1379 15.0289 14.1199C15.0289 14.1199 15.0289 14.1198 15.0289 14.1198L15.151 13.909L15.1778 13.8627L15.1459 13.8198L14.9534 13.5608C14.9534 13.5608 14.9533 13.5607 14.9533 13.5607C14.9389 13.5411 14.9434 13.5135 14.9606 13.5C14.9772 13.4871 15.0005 13.4897 15.014 13.5078L15.2559 13.8329C15.256 13.8329 15.256 13.833 15.256 13.833C15.2666 13.8474 15.2677 13.8668 15.2589 13.8822L15.1433 14.0821L15.1122 14.1358L15.1559 14.1799L15.4096 14.4359L15.5476 14.5751L15.5485 14.3791L15.5493 14.1857C15.5495 14.1481 15.5754 14.1163 15.6108 14.1072L15.6309 14.102L15.651 14.1074C15.6864 14.1168 15.712 14.1489 15.7118 14.1864L15.7109 14.3803L15.71 14.5767L15.8493 14.4383L16.1053 14.1842L16.1495 14.1403L16.1187 14.0863L16.0045 13.8861C16.0045 13.8861 16.0045 13.886 16.0045 13.886C15.9958 13.8706 15.9971 13.8512 16.0078 13.8369C16.0079 13.8369 16.0079 13.8369 16.0079 13.8369L16.2529 13.5138L16.253 13.5137C16.2663 13.496 16.2894 13.4933 16.3062 13.5067C16.3239 13.5207 16.3276 13.5483 16.3133 13.5671L16.3131 13.5673L16.118 13.8248L16.0858 13.8673L16.112 13.9138L16.2318 14.1258C16.2318 14.1258 16.2318 14.1259 16.2318 14.1259C16.2419 14.144 16.2383 14.1663 16.2249 14.1796L16.2249 14.1796L16.0168 14.3863L15.9036 14.4987L16.0612 14.5241L16.8372 14.649L16.8372 14.649L16.8393 14.6493C17.0263 14.6745 17.1707 14.8431 17.1698 15.0484C17.1681 15.4131 16.7555 15.576 16.5237 15.3306L16.5238 15.3304L16.5197 15.3266L15.8454 14.7052L15.71 14.5804L15.7091 14.7646L15.7091 14.7661L15.709 14.7937L15.7258 14.8157L16.0617 15.2563C16.0618 15.2563 16.0618 15.2563 16.0618 15.2563M16.3026 15.9193C16.3147 15.9034 16.3147 15.8796 16.3014 15.8639L16.3014 15.8639L16.0888 15.6142L16.0693 15.5913L16.0694 15.5612L16.0707 15.2835C16.0708 15.2734 16.0675 15.2639 16.0618 15.2563M16.3026 15.9193L16.0618 15.2563" fill="white" stroke="white" stroke-width="0.162431"/>
</svg>
