<svg width="16" height="16" viewBox="0 0 16 16" fill="none" xmlns="http://www.w3.org/2000/svg">
<rect width="16" height="16" fill="#384D4B"/>
<line x1="5.35414" y1="7.26424" x2="8.05013" y2="4.91687" stroke="white" stroke-width="0.0813693"/>
<line x1="5.19494" y1="6.44996" x2="7.0735" y2="4.91254" stroke="white" stroke-width="0.0813693"/>
<line x1="5.26505" y1="8.48604" x2="8.69745" y2="5.24697" stroke="white" stroke-width="0.0813693"/>
<line x1="5.2583" y1="9.46248" x2="9.37179" y2="5.33731" stroke="white" stroke-width="0.0813693"/>
<line y1="-0.0406847" x2="7.14728" y2="-0.0406847" transform="matrix(0.70153 -0.71264 0.41751 0.908673 5.13281 10.6826)" stroke="white" stroke-width="0.0813693"/>
<line y1="-0.0406847" x2="7.14728" y2="-0.0406847" transform="matrix(0.70153 -0.71264 0.41751 0.908673 5.48438 11.3027)" stroke="white" stroke-width="0.0813693"/>
<line y1="-0.0406847" x2="7.14728" y2="-0.0406847" transform="matrix(0.70153 -0.71264 0.41751 0.908673 5.83984 11.9219)" stroke="white" stroke-width="0.0813693"/>
<line x1="6.57112" y1="11.9163" x2="10.7202" y2="7.847" stroke="white" stroke-width="0.0813693"/>
<path d="M8 12L10.8789 8.59512" stroke="white" stroke-width="0.0813693"/>
<path d="M8.5 11.5L10.7917 9.5716" stroke="white" stroke-width="0.0813693"/>
<path d="M5.65457 4.89944L10.0002 6.50047" stroke="white" stroke-width="0.0813693"/>
<line x1="5.19804" y1="5.14148" x2="10.7696" y2="7.59583" stroke="white" stroke-width="0.0813693"/>
<line x1="5.5667" y1="5.95572" x2="10.9853" y2="8.25894" stroke="white" stroke-width="0.0813693"/>
<line x1="5.40266" y1="6.44401" x2="10.81" y2="8.74718" stroke="white" stroke-width="0.0813693"/>
<line x1="5.31842" y1="7.01324" x2="10.6333" y2="9.23461" stroke="white" stroke-width="0.0813693"/>
<line x1="5.72269" y1="7.74761" x2="10.4578" y2="9.72221" stroke="white" stroke-width="0.0813693"/>
<line x1="5.47748" y1="8.0722" x2="10.2818" y2="10.2099" stroke="white" stroke-width="0.0813693"/>
<line x1="5.47549" y1="8.64153" x2="10.106" y2="10.697" stroke="white" stroke-width="0.0813693"/>
<line x1="5.5513" y1="9.29273" x2="9.92715" y2="11.1843" stroke="white" stroke-width="0.0813693"/>
<line x1="5.30688" y1="9.69887" x2="9.77357" y2="11.5909" stroke="white" stroke-width="0.0813693"/>
<line x1="5.38514" y1="10.2683" x2="9.03963" y2="11.8311" stroke="white" stroke-width="0.0813693"/>
<path d="M5.13651 10.7553L8.49988 11.9993" stroke="white" stroke-width="0.0813693"/>
<path d="M5.21624 11.3247L7.00014 11.9996" stroke="white" stroke-width="0.0813693"/>
<mask id="path-25-outside-1_733_70" maskUnits="userSpaceOnUse" x="4.00033" y="3.99998" width="7.0412" height="9.03201" fill="black">
<rect fill="white" x="4.00033" y="3.99998" width="7.0412" height="9.03201"/>
<path d="M5.21549 12.0054C5.13479 12.0051 5.07252 11.9828 5.02871 11.9386C4.98492 11.887 4.9632 11.8245 4.96353 11.7512L4.99649 4.56477C4.99686 4.48406 5.01916 4.4218 5.06338 4.37798C5.10764 4.32682 5.17012 4.30143 5.25082 4.3018L7.749 4.31326C8.5047 4.31672 9.11313 4.43324 9.5743 4.6628C10.0355 4.89236 10.3714 5.2314 10.5821 5.67992C10.7929 6.12111 10.9005 6.66453 10.9048 7.31021C10.9106 7.6404 10.913 7.93022 10.9118 8.17967C10.9107 8.42912 10.9057 8.71524 10.8969 9.03802C10.8791 9.71294 10.7628 10.2737 10.548 10.7203C10.3406 11.1595 10.0089 11.4882 9.55301 11.7062C9.10449 11.9169 8.50972 12.0206 7.7687 12.0172L5.21549 12.0054ZM6.04517 11.0738L7.71796 11.0815C8.2242 11.0838 8.62805 11.0159 8.9295 10.8779C9.23094 10.7399 9.44841 10.5171 9.58188 10.2096C9.72269 9.90207 9.79793 9.49521 9.80759 8.98901C9.82327 8.76897 9.83148 8.57825 9.83222 8.41684C9.833 8.24809 9.83375 8.08301 9.83449 7.9216C9.83527 7.75286 9.82881 7.56207 9.81511 7.34923C9.8037 6.63749 9.63736 6.11214 9.31609 5.77316C8.99485 5.42685 8.45272 5.25195 7.68969 5.24845L6.07192 5.24103L6.04517 11.0738Z"/>
</mask>
<path d="M5.21549 12.0054C5.13479 12.0051 5.07252 11.9828 5.02871 11.9386C4.98492 11.887 4.9632 11.8245 4.96353 11.7512L4.99649 4.56477C4.99686 4.48406 5.01916 4.4218 5.06338 4.37798C5.10764 4.32682 5.17012 4.30143 5.25082 4.3018L7.749 4.31326C8.5047 4.31672 9.11313 4.43324 9.5743 4.6628C10.0355 4.89236 10.3714 5.2314 10.5821 5.67992C10.7929 6.12111 10.9005 6.66453 10.9048 7.31021C10.9106 7.6404 10.913 7.93022 10.9118 8.17967C10.9107 8.42912 10.9057 8.71524 10.8969 9.03802C10.8791 9.71294 10.7628 10.2737 10.548 10.7203C10.3406 11.1595 10.0089 11.4882 9.55301 11.7062C9.10449 11.9169 8.50972 12.0206 7.7687 12.0172L5.21549 12.0054ZM6.04517 11.0738L7.71796 11.0815C8.2242 11.0838 8.62805 11.0159 8.9295 10.8779C9.23094 10.7399 9.44841 10.5171 9.58188 10.2096C9.72269 9.90207 9.79793 9.49521 9.80759 8.98901C9.82327 8.76897 9.83148 8.57825 9.83222 8.41684C9.833 8.24809 9.83375 8.08301 9.83449 7.9216C9.83527 7.75286 9.82881 7.56207 9.81511 7.34923C9.8037 6.63749 9.63736 6.11214 9.31609 5.77316C8.99485 5.42685 8.45272 5.25195 7.68969 5.24845L6.07192 5.24103L6.04517 11.0738Z" fill="white"/>
<path d="M5.02871 11.9386L4.9665 11.9914L4.97091 11.9958L5.02871 11.9386ZM5.06338 4.37798L5.12082 4.43595L5.12492 4.43122L5.06338 4.37798ZM9.5743 4.6628L9.53804 4.73564L9.53804 4.73564L9.5743 4.6628ZM10.5821 5.67992L10.5085 5.71452L10.5087 5.715L10.5821 5.67992ZM10.9048 7.31021L10.8235 7.31076L10.8235 7.31164L10.9048 7.31021ZM10.8969 9.03802L10.8156 9.0358L10.8156 9.03588L10.8969 9.03802ZM10.548 10.7203L10.4747 10.685L10.4744 10.6855L10.548 10.7203ZM9.55301 11.7062L9.58761 11.7798L9.58811 11.7796L9.55301 11.7062ZM6.04517 11.0738L5.9638 11.0734L5.96343 11.1548L6.0448 11.1552L6.04517 11.0738ZM9.58188 10.2096L9.50789 10.1757L9.50724 10.1772L9.58188 10.2096ZM9.80759 8.98901L9.72631 8.98321L9.72623 8.98745L9.80759 8.98901ZM9.81511 7.34923L9.73366 7.35054L9.73391 7.35446L9.81511 7.34923ZM9.31609 5.77316L9.25643 5.8285L9.25703 5.82914L9.31609 5.77316ZM6.07192 5.24103L6.0723 5.15966L5.99093 5.15929L5.99055 5.24066L6.07192 5.24103ZM5.21586 11.9241C5.15007 11.9238 5.11101 11.906 5.08651 11.8813L4.97091 11.9958C5.03404 12.0595 5.11951 12.0864 5.21512 12.0868L5.21586 11.9241ZM5.09073 11.8859C5.06062 11.8504 5.04465 11.8073 5.0449 11.7515L4.88216 11.7508C4.88175 11.8418 4.90922 11.9236 4.96668 11.9912L5.09073 11.8859ZM5.0449 11.7515L5.07786 4.56514L4.91512 4.56439L4.88216 11.7508L5.0449 11.7515ZM5.07786 4.56514C5.07816 4.49934 5.09593 4.46028 5.12065 4.43578L5.00611 4.32018C4.94239 4.38332 4.91556 4.46878 4.91512 4.56439L5.07786 4.56514ZM5.12492 4.43122C5.15061 4.40152 5.18845 4.38289 5.25045 4.38317L5.2512 4.22043C5.15178 4.21998 5.06466 4.25213 5.00184 4.32474L5.12492 4.43122ZM5.25045 4.38317L7.74863 4.39463L7.74938 4.23189L5.2512 4.22043L5.25045 4.38317ZM7.74863 4.39463C8.49723 4.39806 9.09199 4.51361 9.53804 4.73564L9.61056 4.58996C9.13426 4.35287 8.51216 4.23539 7.74938 4.23189L7.74863 4.39463ZM9.53804 4.73564C9.98351 4.95738 10.3059 5.28329 10.5085 5.71452L10.6558 5.64532C10.4369 5.17951 10.0875 4.82734 9.61056 4.58996L9.53804 4.73564ZM10.5087 5.715C10.7129 6.14252 10.8191 6.67338 10.8235 7.31076L10.9862 7.30966C10.9818 6.65569 10.8728 6.09969 10.6556 5.64485L10.5087 5.715ZM10.8235 7.31164C10.8293 7.64141 10.8316 7.9306 10.8305 8.1793L10.9932 8.18004C10.9944 7.92983 10.992 7.63939 10.9862 7.30877L10.8235 7.31164ZM10.8305 8.1793C10.8293 8.42798 10.8244 8.71346 10.8156 9.0358L10.9782 9.04025C10.9871 8.71701 10.9921 8.43026 10.9932 8.18004L10.8305 8.1793ZM10.8156 9.03588C10.798 9.70324 10.6831 10.2518 10.4747 10.685L10.6213 10.7555C10.8426 10.2956 10.9603 9.72265 10.9782 9.04017L10.8156 9.03588ZM10.4744 10.6855C10.2753 11.1071 9.95764 11.4225 9.5179 11.6328L9.58811 11.7796C10.0602 11.5538 10.4058 11.2119 10.6216 10.755L10.4744 10.6855ZM9.51841 11.6325C9.08488 11.8362 8.50347 11.9392 7.76907 11.9358L7.76833 12.0985C8.51596 12.102 9.12409 11.9976 9.58761 11.7798L9.51841 11.6325ZM7.76907 11.9358L5.21586 11.9241L5.21512 12.0868L7.76833 12.0985L7.76907 11.9358ZM6.0448 11.1552L7.71759 11.1628L7.71834 11.0001L6.04555 10.9924L6.0448 11.1552ZM7.71759 11.1628C8.23001 11.1652 8.64702 11.0967 8.96337 10.9519L8.89562 10.8039C8.60907 10.9351 8.21839 11.0024 7.71834 11.0001L7.71759 11.1628ZM8.96337 10.9519C9.2833 10.8054 9.51515 10.5677 9.65652 10.242L9.50724 10.1772C9.38166 10.4665 9.17859 10.6744 8.89562 10.8039L8.96337 10.9519ZM9.65586 10.2435C9.80305 9.92204 9.87917 9.50289 9.88894 8.99056L9.72623 8.98745C9.71669 9.48753 9.64234 9.8821 9.5079 10.1757L9.65586 10.2435ZM9.88875 8.99479C9.90452 8.77356 9.91284 8.58094 9.91359 8.41721L9.75085 8.41646C9.75013 8.57555 9.74202 8.76438 9.72642 8.98322L9.88875 8.99479ZM9.91359 8.41721C9.91359 8.41688 9.91359 8.41655 9.9136 8.41622C9.9136 8.41589 9.9136 8.41556 9.9136 8.41523C9.9136 8.4149 9.9136 8.41457 9.91361 8.41424C9.91361 8.41391 9.91361 8.41359 9.91361 8.41326C9.91361 8.41293 9.91361 8.4126 9.91361 8.41227C9.91362 8.41194 9.91362 8.41161 9.91362 8.41128C9.91362 8.41095 9.91362 8.41062 9.91362 8.41029C9.91362 8.40996 9.91363 8.40963 9.91363 8.4093C9.91363 8.40897 9.91363 8.40864 9.91363 8.40831C9.91363 8.40799 9.91364 8.40766 9.91364 8.40733C9.91364 8.407 9.91364 8.40667 9.91364 8.40634C9.91364 8.40601 9.91364 8.40568 9.91365 8.40535C9.91365 8.40502 9.91365 8.40469 9.91365 8.40436C9.91365 8.40403 9.91365 8.40371 9.91366 8.40338C9.91366 8.40305 9.91366 8.40272 9.91366 8.40239C9.91366 8.40206 9.91366 8.40173 9.91366 8.4014C9.91367 8.40107 9.91367 8.40074 9.91367 8.40041C9.91367 8.40008 9.91367 8.39976 9.91367 8.39943C9.91367 8.3991 9.91368 8.39877 9.91368 8.39844C9.91368 8.39811 9.91368 8.39778 9.91368 8.39745C9.91368 8.39712 9.91369 8.39679 9.91369 8.39646C9.91369 8.39614 9.91369 8.39581 9.91369 8.39548C9.91369 8.39515 9.91369 8.39482 9.9137 8.39449C9.9137 8.39416 9.9137 8.39383 9.9137 8.3935C9.9137 8.39318 9.9137 8.39285 9.9137 8.39252C9.91371 8.39219 9.91371 8.39186 9.91371 8.39153C9.91371 8.3912 9.91371 8.39087 9.91371 8.39054C9.91372 8.39022 9.91372 8.38989 9.91372 8.38956C9.91372 8.38923 9.91372 8.3889 9.91372 8.38857C9.91372 8.38824 9.91373 8.38791 9.91373 8.38759C9.91373 8.38726 9.91373 8.38693 9.91373 8.3866C9.91373 8.38627 9.91374 8.38594 9.91374 8.38561C9.91374 8.38528 9.91374 8.38496 9.91374 8.38463C9.91374 8.3843 9.91374 8.38397 9.91375 8.38364C9.91375 8.38331 9.91375 8.38298 9.91375 8.38266C9.91375 8.38233 9.91375 8.382 9.91375 8.38167C9.91376 8.38134 9.91376 8.38101 9.91376 8.38068C9.91376 8.38036 9.91376 8.38003 9.91376 8.3797C9.91377 8.37937 9.91377 8.37904 9.91377 8.37871C9.91377 8.37838 9.91377 8.37806 9.91377 8.37773C9.91377 8.3774 9.91378 8.37707 9.91378 8.37674C9.91378 8.37641 9.91378 8.37609 9.91378 8.37576C9.91378 8.37543 9.91378 8.3751 9.91379 8.37477C9.91379 8.37444 9.91379 8.37411 9.91379 8.37379C9.91379 8.37346 9.91379 8.37313 9.9138 8.3728C9.9138 8.37247 9.9138 8.37214 9.9138 8.37182C9.9138 8.37149 9.9138 8.37116 9.9138 8.37083C9.91381 8.3705 9.91381 8.37018 9.91381 8.36985C9.91381 8.36952 9.91381 8.36919 9.91381 8.36886C9.91381 8.36853 9.91382 8.36821 9.91382 8.36788C9.91382 8.36755 9.91382 8.36722 9.91382 8.36689C9.91382 8.36656 9.91383 8.36624 9.91383 8.36591C9.91383 8.36558 9.91383 8.36525 9.91383 8.36492C9.91383 8.3646 9.91383 8.36427 9.91384 8.36394C9.91384 8.36361 9.91384 8.36328 9.91384 8.36296C9.91384 8.36263 9.91384 8.3623 9.91384 8.36197C9.91385 8.36164 9.91385 8.36132 9.91385 8.36099C9.91385 8.36066 9.91385 8.36033 9.91385 8.36C9.91386 8.35968 9.91386 8.35935 9.91386 8.35902C9.91386 8.35869 9.91386 8.35836 9.91386 8.35804C9.91386 8.35771 9.91387 8.35738 9.91387 8.35705C9.91387 8.35672 9.91387 8.3564 9.91387 8.35607C9.91387 8.35574 9.91388 8.35541 9.91388 8.35509C9.91388 8.35476 9.91388 8.35443 9.91388 8.3541C9.91388 8.35377 9.91388 8.35345 9.91389 8.35312C9.91389 8.35279 9.91389 8.35246 9.91389 8.35214C9.91389 8.35181 9.91389 8.35148 9.91389 8.35115C9.9139 8.35082 9.9139 8.3505 9.9139 8.35017C9.9139 8.34984 9.9139 8.34951 9.9139 8.34919C9.91391 8.34886 9.91391 8.34853 9.91391 8.3482C9.91391 8.34788 9.91391 8.34755 9.91391 8.34722C9.91391 8.34689 9.91392 8.34657 9.91392 8.34624C9.91392 8.34591 9.91392 8.34558 9.91392 8.34526C9.91392 8.34493 9.91392 8.3446 9.91393 8.34427C9.91393 8.34395 9.91393 8.34362 9.91393 8.34329C9.91393 8.34296 9.91393 8.34264 9.91394 8.34231C9.91394 8.34198 9.91394 8.34165 9.91394 8.34133C9.91394 8.341 9.91394 8.34067 9.91394 8.34034C9.91395 8.34002 9.91395 8.33969 9.91395 8.33936C9.91395 8.33903 9.91395 8.33871 9.91395 8.33838C9.91395 8.33805 9.91396 8.33772 9.91396 8.3374C9.91396 8.33707 9.91396 8.33674 9.91396 8.33642C9.91396 8.33609 9.91397 8.33576 9.91397 8.33543C9.91397 8.33511 9.91397 8.33478 9.91397 8.33445C9.91397 8.33412 9.91397 8.3338 9.91398 8.33347C9.91398 8.33314 9.91398 8.33282 9.91398 8.33249C9.91398 8.33216 9.91398 8.33183 9.91398 8.33151C9.91399 8.33118 9.91399 8.33085 9.91399 8.33053C9.91399 8.3302 9.91399 8.32987 9.91399 8.32954C9.914 8.32922 9.914 8.32889 9.914 8.32856C9.914 8.32824 9.914 8.32791 9.914 8.32758C9.914 8.32725 9.91401 8.32693 9.91401 8.3266C9.91401 8.32627 9.91401 8.32595 9.91401 8.32562C9.91401 8.32529 9.91401 8.32497 9.91402 8.32464C9.91402 8.32431 9.91402 8.32398 9.91402 8.32366C9.91402 8.32333 9.91402 8.323 9.91403 8.32268C9.91403 8.32235 9.91403 8.32202 9.91403 8.3217C9.91403 8.32137 9.91403 8.32104 9.91403 8.32072C9.91404 8.32039 9.91404 8.32006 9.91404 8.31974C9.91404 8.31941 9.91404 8.31908 9.91404 8.31876C9.91404 8.31843 9.91405 8.3181 9.91405 8.31777C9.91405 8.31745 9.91405 8.31712 9.91405 8.31679C9.91405 8.31647 9.91406 8.31614 9.91406 8.31581C9.91406 8.31549 9.91406 8.31516 9.91406 8.31483C9.91406 8.31451 9.91406 8.31418 9.91407 8.31385C9.91407 8.31353 9.91407 8.3132 9.91407 8.31287C9.91407 8.31255 9.91407 8.31222 9.91407 8.31189C9.91408 8.31157 9.91408 8.31124 9.91408 8.31091C9.91408 8.31059 9.91408 8.31026 9.91408 8.30994C9.91409 8.30961 9.91409 8.30928 9.91409 8.30896C9.91409 8.30863 9.91409 8.3083 9.91409 8.30798C9.91409 8.30765 9.9141 8.30732 9.9141 8.307C9.9141 8.30667 9.9141 8.30634 9.9141 8.30602C9.9141 8.30569 9.9141 8.30536 9.91411 8.30504C9.91411 8.30471 9.91411 8.30439 9.91411 8.30406C9.91411 8.30373 9.91411 8.30341 9.91412 8.30308C9.91412 8.30275 9.91412 8.30243 9.91412 8.3021C9.91412 8.30177 9.91412 8.30145 9.91412 8.30112C9.91413 8.3008 9.91413 8.30047 9.91413 8.30014C9.91413 8.29982 9.91413 8.29949 9.91413 8.29916C9.91413 8.29884 9.91414 8.29851 9.91414 8.29819C9.91414 8.29786 9.91414 8.29753 9.91414 8.29721C9.91414 8.29688 9.91415 8.29656 9.91415 8.29623C9.91415 8.2959 9.91415 8.29558 9.91415 8.29525C9.91415 8.29492 9.91415 8.2946 9.91416 8.29427C9.91416 8.29395 9.91416 8.29362 9.91416 8.29329C9.91416 8.29297 9.91416 8.29264 9.91416 8.29232C9.91417 8.29199 9.91417 8.29166 9.91417 8.29134C9.91417 8.29101 9.91417 8.29069 9.91417 8.29036C9.91417 8.29003 9.91418 8.28971 9.91418 8.28938C9.91418 8.28906 9.91418 8.28873 9.91418 8.2884C9.91418 8.28808 9.91419 8.28775 9.91419 8.28743C9.91419 8.2871 9.91419 8.28677 9.91419 8.28645C9.91419 8.28612 9.91419 8.2858 9.9142 8.28547C9.9142 8.28515 9.9142 8.28482 9.9142 8.28449C9.9142 8.28417 9.9142 8.28384 9.9142 8.28352C9.91421 8.28319 9.91421 8.28287 9.91421 8.28254C9.91421 8.28221 9.91421 8.28189 9.91421 8.28156C9.91422 8.28124 9.91422 8.28091 9.91422 8.28059C9.91422 8.28026 9.91422 8.27993 9.91422 8.27961C9.91422 8.27928 9.91423 8.27896 9.91423 8.27863C9.91423 8.27831 9.91423 8.27798 9.91423 8.27765C9.91423 8.27733 9.91423 8.277 9.91424 8.27668C9.91424 8.27635 9.91424 8.27603 9.91424 8.2757C9.91424 8.27538 9.91424 8.27505 9.91425 8.27472C9.91425 8.2744 9.91425 8.27407 9.91425 8.27375C9.91425 8.27342 9.91425 8.2731 9.91425 8.27277C9.91426 8.27245 9.91426 8.27212 9.91426 8.27179C9.91426 8.27147 9.91426 8.27114 9.91426 8.27082C9.91426 8.27049 9.91427 8.27017 9.91427 8.26984C9.91427 8.26952 9.91427 8.26919 9.91427 8.26887C9.91427 8.26854 9.91427 8.26822 9.91428 8.26789C9.91428 8.26756 9.91428 8.26724 9.91428 8.26691C9.91428 8.26659 9.91428 8.26626 9.91429 8.26594C9.91429 8.26561 9.91429 8.26529 9.91429 8.26496C9.91429 8.26464 9.91429 8.26431 9.91429 8.26399C9.9143 8.26366 9.9143 8.26334 9.9143 8.26301C9.9143 8.26269 9.9143 8.26236 9.9143 8.26204C9.9143 8.26171 9.91431 8.26139 9.91431 8.26106C9.91431 8.26074 9.91431 8.26041 9.91431 8.26009C9.91431 8.25976 9.91432 8.25943 9.91432 8.25911C9.91432 8.25878 9.91432 8.25846 9.91432 8.25813C9.91432 8.25781 9.91432 8.25748 9.91433 8.25716C9.91433 8.25683 9.91433 8.25651 9.91433 8.25618C9.91433 8.25586 9.91433 8.25553 9.91433 8.25521C9.91434 8.25488 9.91434 8.25456 9.91434 8.25423C9.91434 8.25391 9.91434 8.25358 9.91434 8.25326C9.91435 8.25293 9.91435 8.25261 9.91435 8.25229C9.91435 8.25196 9.91435 8.25164 9.91435 8.25131C9.91435 8.25099 9.91436 8.25066 9.91436 8.25034C9.91436 8.25001 9.91436 8.24969 9.91436 8.24936C9.91436 8.24904 9.91436 8.24871 9.91437 8.24839C9.91437 8.24806 9.91437 8.24774 9.91437 8.24741C9.91437 8.24709 9.91437 8.24676 9.91437 8.24644C9.91438 8.24611 9.91438 8.24579 9.91438 8.24546C9.91438 8.24514 9.91438 8.24482 9.91438 8.24449C9.91439 8.24417 9.91439 8.24384 9.91439 8.24352C9.91439 8.24319 9.91439 8.24287 9.91439 8.24254C9.91439 8.24222 9.9144 8.24189 9.9144 8.24157C9.9144 8.24124 9.9144 8.24092 9.9144 8.2406C9.9144 8.24027 9.9144 8.23995 9.91441 8.23962C9.91441 8.2393 9.91441 8.23897 9.91441 8.23865C9.91441 8.23832 9.91441 8.238 9.91442 8.23767C9.91442 8.23735 9.91442 8.23703 9.91442 8.2367C9.91442 8.23638 9.91442 8.23605 9.91442 8.23573C9.91443 8.2354 9.91443 8.23508 9.91443 8.23476C9.91443 8.23443 9.91443 8.23411 9.91443 8.23378C9.91443 8.23346 9.91444 8.23313 9.91444 8.23281C9.91444 8.23248 9.91444 8.23216 9.91444 8.23184C9.91444 8.23151 9.91444 8.23119 9.91445 8.23086C9.91445 8.23054 9.91445 8.23021 9.91445 8.22989C9.91445 8.22957 9.91445 8.22924 9.91446 8.22892C9.91446 8.22859 9.91446 8.22827 9.91446 8.22795C9.91446 8.22762 9.91446 8.2273 9.91446 8.22697C9.91447 8.22665 9.91447 8.22632 9.91447 8.226C9.91447 8.22568 9.91447 8.22535 9.91447 8.22503C9.91447 8.2247 9.91448 8.22438 9.91448 8.22406C9.91448 8.22373 9.91448 8.22341 9.91448 8.22308C9.91448 8.22276 9.91448 8.22244 9.91449 8.22211C9.91449 8.22179 9.91449 8.22146 9.91449 8.22114C9.91449 8.22082 9.91449 8.22049 9.9145 8.22017C9.9145 8.21984 9.9145 8.21952 9.9145 8.2192C9.9145 8.21887 9.9145 8.21855 9.9145 8.21822C9.91451 8.2179 9.91451 8.21758 9.91451 8.21725C9.91451 8.21693 9.91451 8.2166 9.91451 8.21628C9.91451 8.21596 9.91452 8.21563 9.91452 8.21531C9.91452 8.21499 9.91452 8.21466 9.91452 8.21434C9.91452 8.21401 9.91453 8.21369 9.91453 8.21337C9.91453 8.21304 9.91453 8.21272 9.91453 8.2124C9.91453 8.21207 9.91453 8.21175 9.91454 8.21142C9.91454 8.2111 9.91454 8.21078 9.91454 8.21045C9.91454 8.21013 9.91454 8.20981 9.91454 8.20948C9.91455 8.20916 9.91455 8.20883 9.91455 8.20851C9.91455 8.20819 9.91455 8.20786 9.91455 8.20754C9.91455 8.20722 9.91456 8.20689 9.91456 8.20657C9.91456 8.20625 9.91456 8.20592 9.91456 8.2056C9.91456 8.20528 9.91457 8.20495 9.91457 8.20463C9.91457 8.2043 9.91457 8.20398 9.91457 8.20366C9.91457 8.20333 9.91457 8.20301 9.91458 8.20269C9.91458 8.20236 9.91458 8.20204 9.91458 8.20172C9.91458 8.20139 9.91458 8.20107 9.91458 8.20075C9.91459 8.20042 9.91459 8.2001 9.91459 8.19978C9.91459 8.19945 9.91459 8.19913 9.91459 8.19881C9.91459 8.19848 9.9146 8.19816 9.9146 8.19784C9.9146 8.19751 9.9146 8.19719 9.9146 8.19687C9.9146 8.19654 9.91461 8.19622 9.91461 8.1959C9.91461 8.19557 9.91461 8.19525 9.91461 8.19493C9.91461 8.1946 9.91461 8.19428 9.91462 8.19396C9.91462 8.19363 9.91462 8.19331 9.91462 8.19299C9.91462 8.19266 9.91462 8.19234 9.91462 8.19202C9.91463 8.1917 9.91463 8.19137 9.91463 8.19105C9.91463 8.19073 9.91463 8.1904 9.91463 8.19008C9.91463 8.18976 9.91464 8.18943 9.91464 8.18911C9.91464 8.18879 9.91464 8.18846 9.91464 8.18814C9.91464 8.18782 9.91465 8.1875 9.91465 8.18717C9.91465 8.18685 9.91465 8.18653 9.91465 8.1862C9.91465 8.18588 9.91465 8.18556 9.91466 8.18523C9.91466 8.18491 9.91466 8.18459 9.91466 8.18427C9.91466 8.18394 9.91466 8.18362 9.91466 8.1833C9.91467 8.18297 9.91467 8.18265 9.91467 8.18233C9.91467 8.18201 9.91467 8.18168 9.91467 8.18136C9.91467 8.18104 9.91468 8.18071 9.91468 8.18039C9.91468 8.18007 9.91468 8.17975 9.91468 8.17942C9.91468 8.1791 9.91469 8.17878 9.91469 8.17845C9.91469 8.17813 9.91469 8.17781 9.91469 8.17749C9.91469 8.17716 9.91469 8.17684 9.9147 8.17652C9.9147 8.1762 9.9147 8.17587 9.9147 8.17555C9.9147 8.17523 9.9147 8.17491 9.9147 8.17458C9.91471 8.17426 9.91471 8.17394 9.91471 8.17361C9.91471 8.17329 9.91471 8.17297 9.91471 8.17265C9.91471 8.17232 9.91472 8.172 9.91472 8.17168C9.91472 8.17136 9.91472 8.17103 9.91472 8.17071C9.91472 8.17039 9.91473 8.17007 9.91473 8.16974C9.91473 8.16942 9.91473 8.1691 9.91473 8.16878C9.91473 8.16845 9.91473 8.16813 9.91474 8.16781C9.91474 8.16749 9.91474 8.16716 9.91474 8.16684C9.91474 8.16652 9.91474 8.1662 9.91474 8.16587C9.91475 8.16555 9.91475 8.16523 9.91475 8.16491C9.91475 8.16458 9.91475 8.16426 9.91475 8.16394C9.91475 8.16362 9.91476 8.1633 9.91476 8.16297C9.91476 8.16265 9.91476 8.16233 9.91476 8.16201C9.91476 8.16168 9.91477 8.16136 9.91477 8.16104C9.91477 8.16072 9.91477 8.1604 9.91477 8.16007C9.91477 8.15975 9.91477 8.15943 9.91478 8.15911C9.91478 8.15878 9.91478 8.15846 9.91478 8.15814C9.91478 8.15782 9.91478 8.1575 9.91478 8.15717C9.91479 8.15685 9.91479 8.15653 9.91479 8.15621C9.91479 8.15588 9.91479 8.15556 9.91479 8.15524C9.91479 8.15492 9.9148 8.1546 9.9148 8.15427C9.9148 8.15395 9.9148 8.15363 9.9148 8.15331C9.9148 8.15299 9.9148 8.15266 9.91481 8.15234C9.91481 8.15202 9.91481 8.1517 9.91481 8.15138C9.91481 8.15105 9.91481 8.15073 9.91482 8.15041C9.91482 8.15009 9.91482 8.14977 9.91482 8.14944C9.91482 8.14912 9.91482 8.1488 9.91482 8.14848C9.91483 8.14816 9.91483 8.14784 9.91483 8.14751C9.91483 8.14719 9.91483 8.14687 9.91483 8.14655C9.91483 8.14623 9.91484 8.1459 9.91484 8.14558C9.91484 8.14526 9.91484 8.14494 9.91484 8.14462C9.91484 8.1443 9.91484 8.14397 9.91485 8.14365C9.91485 8.14333 9.91485 8.14301 9.91485 8.14269C9.91485 8.14236 9.91485 8.14204 9.91486 8.14172C9.91486 8.1414 9.91486 8.14108 9.91486 8.14076C9.91486 8.14043 9.91486 8.14011 9.91486 8.13979C9.91487 8.13947 9.91487 8.13915 9.91487 8.13883C9.91487 8.1385 9.91487 8.13818 9.91487 8.13786C9.91487 8.13754 9.91488 8.13722 9.91488 8.1369C9.91488 8.13658 9.91488 8.13625 9.91488 8.13593C9.91488 8.13561 9.91488 8.13529 9.91489 8.13497C9.91489 8.13465 9.91489 8.13432 9.91489 8.134C9.91489 8.13368 9.91489 8.13336 9.91489 8.13304C9.9149 8.13272 9.9149 8.1324 9.9149 8.13207C9.9149 8.13175 9.9149 8.13143 9.9149 8.13111C9.91491 8.13079 9.91491 8.13047 9.91491 8.13015C9.91491 8.12983 9.91491 8.1295 9.91491 8.12918C9.91491 8.12886 9.91492 8.12854 9.91492 8.12822C9.91492 8.1279 9.91492 8.12758 9.91492 8.12725C9.91492 8.12693 9.91492 8.12661 9.91493 8.12629C9.91493 8.12597 9.91493 8.12565 9.91493 8.12533C9.91493 8.12501 9.91493 8.12468 9.91493 8.12436C9.91494 8.12404 9.91494 8.12372 9.91494 8.1234C9.91494 8.12308 9.91494 8.12276 9.91494 8.12244C9.91495 8.12212 9.91495 8.12179 9.91495 8.12147C9.91495 8.12115 9.91495 8.12083 9.91495 8.12051C9.91495 8.12019 9.91496 8.11987 9.91496 8.11955C9.91496 8.11923 9.91496 8.1189 9.91496 8.11858C9.91496 8.11826 9.91496 8.11794 9.91497 8.11762C9.91497 8.1173 9.91497 8.11698 9.91497 8.11666C9.91497 8.11634 9.91497 8.11602 9.91497 8.1157C9.91498 8.11537 9.91498 8.11505 9.91498 8.11473C9.91498 8.11441 9.91498 8.11409 9.91498 8.11377C9.91498 8.11345 9.91499 8.11313 9.91499 8.11281C9.91499 8.11249 9.91499 8.11217 9.91499 8.11184C9.91499 8.11152 9.915 8.1112 9.915 8.11088C9.915 8.11056 9.915 8.11024 9.915 8.10992C9.915 8.1096 9.915 8.10928 9.91501 8.10896C9.91501 8.10864 9.91501 8.10832 9.91501 8.108C9.91501 8.10767 9.91501 8.10735 9.91501 8.10703C9.91502 8.10671 9.91502 8.10639 9.91502 8.10607C9.91502 8.10575 9.91502 8.10543 9.91502 8.10511C9.91502 8.10479 9.91503 8.10447 9.91503 8.10415C9.91503 8.10383 9.91503 8.10351 9.91503 8.10319C9.91503 8.10287 9.91503 8.10254 9.91504 8.10222C9.91504 8.1019 9.91504 8.10158 9.91504 8.10126C9.91504 8.10094 9.91504 8.10062 9.91505 8.1003C9.91505 8.09998 9.91505 8.09966 9.91505 8.09934C9.91505 8.09902 9.91505 8.0987 9.91505 8.09838C9.91506 8.09806 9.91506 8.09774 9.91506 8.09742C9.91506 8.0971 9.91506 8.09678 9.91506 8.09646C9.91506 8.09614 9.91507 8.09582 9.91507 8.09549C9.91507 8.09517 9.91507 8.09485 9.91507 8.09453C9.91507 8.09421 9.91507 8.09389 9.91508 8.09357C9.91508 8.09325 9.91508 8.09293 9.91508 8.09261C9.91508 8.09229 9.91508 8.09197 9.91508 8.09165C9.91509 8.09133 9.91509 8.09101 9.91509 8.09069C9.91509 8.09037 9.91509 8.09005 9.91509 8.08973C9.9151 8.08941 9.9151 8.08909 9.9151 8.08877C9.9151 8.08845 9.9151 8.08813 9.9151 8.08781C9.9151 8.08749 9.91511 8.08717 9.91511 8.08685C9.91511 8.08653 9.91511 8.08621 9.91511 8.08589C9.91511 8.08557 9.91511 8.08525 9.91512 8.08493C9.91512 8.08461 9.91512 8.08429 9.91512 8.08397C9.91512 8.08365 9.91512 8.08333 9.91512 8.08301C9.91513 8.08269 9.91513 8.08237 9.91513 8.08205C9.91513 8.08173 9.91513 8.08141 9.91513 8.08109C9.91513 8.08077 9.91514 8.08045 9.91514 8.08013C9.91514 8.07981 9.91514 8.07949 9.91514 8.07917C9.91514 8.07885 9.91514 8.07853 9.91515 8.07821C9.91515 8.07789 9.91515 8.07757 9.91515 8.07725C9.91515 8.07693 9.91515 8.07661 9.91516 8.07629C9.91516 8.07597 9.91516 8.07565 9.91516 8.07533C9.91516 8.07501 9.91516 8.07469 9.91516 8.07437C9.91517 8.07405 9.91517 8.07373 9.91517 8.07341C9.91517 8.07309 9.91517 8.07277 9.91517 8.07245C9.91517 8.07213 9.91518 8.07181 9.91518 8.07149C9.91518 8.07118 9.91518 8.07086 9.91518 8.07054C9.91518 8.07022 9.91518 8.0699 9.91519 8.06958C9.91519 8.06926 9.91519 8.06894 9.91519 8.06862C9.91519 8.0683 9.91519 8.06798 9.91519 8.06766C9.9152 8.06734 9.9152 8.06702 9.9152 8.0667C9.9152 8.06638 9.9152 8.06606 9.9152 8.06574C9.91521 8.06542 9.91521 8.0651 9.91521 8.06478C9.91521 8.06446 9.91521 8.06415 9.91521 8.06383C9.91521 8.06351 9.91522 8.06319 9.91522 8.06287C9.91522 8.06255 9.91522 8.06223 9.91522 8.06191C9.91522 8.06159 9.91522 8.06127 9.91523 8.06095C9.91523 8.06063 9.91523 8.06031 9.91523 8.05999C9.91523 8.05967 9.91523 8.05935 9.91523 8.05904C9.91524 8.05872 9.91524 8.0584 9.91524 8.05808C9.91524 8.05776 9.91524 8.05744 9.91524 8.05712C9.91524 8.0568 9.91525 8.05648 9.91525 8.05616C9.91525 8.05584 9.91525 8.05552 9.91525 8.0552C9.91525 8.05489 9.91525 8.05457 9.91526 8.05425C9.91526 8.05393 9.91526 8.05361 9.91526 8.05329C9.91526 8.05297 9.91526 8.05265 9.91527 8.05233C9.91527 8.05201 9.91527 8.05169 9.91527 8.05138C9.91527 8.05106 9.91527 8.05074 9.91527 8.05042C9.91528 8.0501 9.91528 8.04978 9.91528 8.04946C9.91528 8.04914 9.91528 8.04882 9.91528 8.0485C9.91528 8.04819 9.91529 8.04787 9.91529 8.04755C9.91529 8.04723 9.91529 8.04691 9.91529 8.04659C9.91529 8.04627 9.91529 8.04595 9.9153 8.04563C9.9153 8.04532 9.9153 8.045 9.9153 8.04468C9.9153 8.04436 9.9153 8.04404 9.9153 8.04372C9.91531 8.0434 9.91531 8.04308 9.91531 8.04276C9.91531 8.04245 9.91531 8.04213 9.91531 8.04181C9.91531 8.04149 9.91532 8.04117 9.91532 8.04085C9.91532 8.04053 9.91532 8.04021 9.91532 8.0399C9.91532 8.03958 9.91533 8.03926 9.91533 8.03894C9.91533 8.03862 9.91533 8.0383 9.91533 8.03798C9.91533 8.03766 9.91533 8.03735 9.91534 8.03703C9.91534 8.03671 9.91534 8.03639 9.91534 8.03607C9.91534 8.03575 9.91534 8.03543 9.91534 8.03512C9.91535 8.0348 9.91535 8.03448 9.91535 8.03416C9.91535 8.03384 9.91535 8.03352 9.91535 8.0332C9.91535 8.03289 9.91536 8.03257 9.91536 8.03225C9.91536 8.03193 9.91536 8.03161 9.91536 8.03129C9.91536 8.03097 9.91536 8.03066 9.91537 8.03034C9.91537 8.03002 9.91537 8.0297 9.91537 8.02938C9.91537 8.02906 9.91537 8.02875 9.91537 8.02843C9.91538 8.02811 9.91538 8.02779 9.91538 8.02747C9.91538 8.02715 9.91538 8.02684 9.91538 8.02652C9.91538 8.0262 9.91539 8.02588 9.91539 8.02556C9.91539 8.02524 9.91539 8.02493 9.91539 8.02461C9.91539 8.02429 9.9154 8.02397 9.9154 8.02365C9.9154 8.02333 9.9154 8.02302 9.9154 8.0227C9.9154 8.02238 9.9154 8.02206 9.91541 8.02174C9.91541 8.02143 9.91541 8.02111 9.91541 8.02079C9.91541 8.02047 9.91541 8.02015 9.91541 8.01983C9.91542 8.01952 9.91542 8.0192 9.91542 8.01888C9.91542 8.01856 9.91542 8.01824 9.91542 8.01793C9.91542 8.01761 9.91543 8.01729 9.91543 8.01697C9.91543 8.01665 9.91543 8.01634 9.91543 8.01602C9.91543 8.0157 9.91543 8.01538 9.91544 8.01506C9.91544 8.01475 9.91544 8.01443 9.91544 8.01411C9.91544 8.01379 9.91544 8.01347 9.91544 8.01316C9.91545 8.01284 9.91545 8.01252 9.91545 8.0122C9.91545 8.01188 9.91545 8.01157 9.91545 8.01125C9.91545 8.01093 9.91546 8.01061 9.91546 8.01029C9.91546 8.00998 9.91546 8.00966 9.91546 8.00934C9.91546 8.00902 9.91547 8.00871 9.91547 8.00839C9.91547 8.00807 9.91547 8.00775 9.91547 8.00743C9.91547 8.00712 9.91547 8.0068 9.91548 8.00648C9.91548 8.00616 9.91548 8.00585 9.91548 8.00553C9.91548 8.00521 9.91548 8.00489 9.91548 8.00457C9.91549 8.00426 9.91549 8.00394 9.91549 8.00362C9.91549 8.0033 9.91549 8.00299 9.91549 8.00267C9.91549 8.00235 9.9155 8.00203 9.9155 8.00172C9.9155 8.0014 9.9155 8.00108 9.9155 8.00076C9.9155 8.00045 9.9155 8.00013 9.91551 7.99981C9.91551 7.99949 9.91551 7.99918 9.91551 7.99886C9.91551 7.99854 9.91551 7.99822 9.91551 7.99791C9.91552 7.99759 9.91552 7.99727 9.91552 7.99695C9.91552 7.99664 9.91552 7.99632 9.91552 7.996C9.91552 7.99568 9.91553 7.99537 9.91553 7.99505C9.91553 7.99473 9.91553 7.99441 9.91553 7.9941C9.91553 7.99378 9.91554 7.99346 9.91554 7.99314C9.91554 7.99283 9.91554 7.99251 9.91554 7.99219C9.91554 7.99187 9.91554 7.99156 9.91555 7.99124C9.91555 7.99092 9.91555 7.99061 9.91555 7.99029C9.91555 7.98997 9.91555 7.98965 9.91555 7.98934C9.91556 7.98902 9.91556 7.9887 9.91556 7.98838C9.91556 7.98807 9.91556 7.98775 9.91556 7.98743C9.91556 7.98712 9.91557 7.9868 9.91557 7.98648C9.91557 7.98616 9.91557 7.98585 9.91557 7.98553C9.91557 7.98521 9.91557 7.9849 9.91558 7.98458C9.91558 7.98426 9.91558 7.98394 9.91558 7.98363C9.91558 7.98331 9.91558 7.98299 9.91558 7.98268C9.91559 7.98236 9.91559 7.98204 9.91559 7.98173C9.91559 7.98141 9.91559 7.98109 9.91559 7.98077C9.91559 7.98046 9.9156 7.98014 9.9156 7.97982C9.9156 7.97951 9.9156 7.97919 9.9156 7.97887C9.9156 7.97856 9.9156 7.97824 9.91561 7.97792C9.91561 7.9776 9.91561 7.97729 9.91561 7.97697C9.91561 7.97665 9.91561 7.97634 9.91562 7.97602C9.91562 7.9757 9.91562 7.97539 9.91562 7.97507C9.91562 7.97475 9.91562 7.97444 9.91562 7.97412C9.91563 7.9738 9.91563 7.97349 9.91563 7.97317C9.91563 7.97285 9.91563 7.97254 9.91563 7.97222C9.91563 7.9719 9.91564 7.97159 9.91564 7.97127C9.91564 7.97095 9.91564 7.97064 9.91564 7.97032C9.91564 7.97 9.91564 7.96969 9.91565 7.96937C9.91565 7.96905 9.91565 7.96874 9.91565 7.96842C9.91565 7.9681 9.91565 7.96779 9.91565 7.96747C9.91566 7.96715 9.91566 7.96684 9.91566 7.96652C9.91566 7.9662 9.91566 7.96589 9.91566 7.96557C9.91566 7.96525 9.91567 7.96494 9.91567 7.96462C9.91567 7.9643 9.91567 7.96399 9.91567 7.96367C9.91567 7.96335 9.91567 7.96304 9.91568 7.96272C9.91568 7.9624 9.91568 7.96209 9.91568 7.96177C9.91568 7.96146 9.91568 7.96114 9.91568 7.96082C9.91569 7.96051 9.91569 7.96019 9.91569 7.95987C9.91569 7.95956 9.91569 7.95924 9.91569 7.95892C9.91569 7.95861 9.9157 7.95829 9.9157 7.95798C9.9157 7.95766 9.9157 7.95734 9.9157 7.95703C9.9157 7.95671 9.91571 7.95639 9.91571 7.95608C9.91571 7.95576 9.91571 7.95544 9.91571 7.95513C9.91571 7.95481 9.91571 7.9545 9.91572 7.95418C9.91572 7.95386 9.91572 7.95355 9.91572 7.95323C9.91572 7.95292 9.91572 7.9526 9.91572 7.95228C9.91573 7.95197 9.91573 7.95165 9.91573 7.95133C9.91573 7.95102 9.91573 7.9507 9.91573 7.95039C9.91573 7.95007 9.91574 7.94975 9.91574 7.94944C9.91574 7.94912 9.91574 7.94881 9.91574 7.94849C9.91574 7.94817 9.91574 7.94786 9.91575 7.94754C9.91575 7.94723 9.91575 7.94691 9.91575 7.94659C9.91575 7.94628 9.91575 7.94596 9.91575 7.94565C9.91576 7.94533 9.91576 7.94501 9.91576 7.9447C9.91576 7.94438 9.91576 7.94407 9.91576 7.94375C9.91576 7.94343 9.91577 7.94312 9.91577 7.9428C9.91577 7.94249 9.91577 7.94217 9.91577 7.94186C9.91577 7.94154 9.91577 7.94122 9.91578 7.94091C9.91578 7.94059 9.91578 7.94028 9.91578 7.93996C9.91578 7.93964 9.91578 7.93933 9.91578 7.93901C9.91579 7.9387 9.91579 7.93838 9.91579 7.93807C9.91579 7.93775 9.91579 7.93743 9.91579 7.93712C9.91579 7.9368 9.9158 7.93649 9.9158 7.93617C9.9158 7.93586 9.9158 7.93554 9.9158 7.93522C9.9158 7.93491 9.91581 7.93459 9.91581 7.93428C9.91581 7.93396 9.91581 7.93365 9.91581 7.93333C9.91581 7.93302 9.91581 7.9327 9.91582 7.93238C9.91582 7.93207 9.91582 7.93175 9.91582 7.93144C9.91582 7.93112 9.91582 7.93081 9.91582 7.93049C9.91583 7.93018 9.91583 7.92986 9.91583 7.92954C9.91583 7.92923 9.91583 7.92891 9.91583 7.9286C9.91583 7.92828 9.91584 7.92797 9.91584 7.92765C9.91584 7.92734 9.91584 7.92702 9.91584 7.92671C9.91584 7.92639 9.91584 7.92607 9.91585 7.92576C9.91585 7.92544 9.91585 7.92513 9.91585 7.92481C9.91585 7.9245 9.91585 7.92418 9.91585 7.92387C9.91586 7.92355 9.91586 7.92324 9.91586 7.92292C9.91586 7.92261 9.91586 7.92229 9.91586 7.92198L9.75313 7.92123C9.75312 7.92154 9.75312 7.92186 9.75312 7.92218C9.75312 7.92249 9.75312 7.92281 9.75312 7.92312C9.75312 7.92344 9.75311 7.92375 9.75311 7.92407C9.75311 7.92438 9.75311 7.9247 9.75311 7.92501C9.75311 7.92533 9.75311 7.92564 9.7531 7.92596C9.7531 7.92627 9.7531 7.92659 9.7531 7.92691C9.7531 7.92722 9.7531 7.92754 9.7531 7.92785C9.75309 7.92817 9.75309 7.92848 9.75309 7.9288C9.75309 7.92911 9.75309 7.92943 9.75309 7.92974C9.75309 7.93006 9.75308 7.93038 9.75308 7.93069C9.75308 7.93101 9.75308 7.93132 9.75308 7.93164C9.75308 7.93195 9.75308 7.93227 9.75307 7.93258C9.75307 7.9329 9.75307 7.93322 9.75307 7.93353C9.75307 7.93385 9.75307 7.93416 9.75307 7.93448C9.75306 7.93479 9.75306 7.93511 9.75306 7.93543C9.75306 7.93574 9.75306 7.93606 9.75306 7.93637C9.75306 7.93669 9.75305 7.937 9.75305 7.93732C9.75305 7.93764 9.75305 7.93795 9.75305 7.93827C9.75305 7.93858 9.75304 7.9389 9.75304 7.93921C9.75304 7.93953 9.75304 7.93985 9.75304 7.94016C9.75304 7.94048 9.75304 7.94079 9.75303 7.94111C9.75303 7.94142 9.75303 7.94174 9.75303 7.94206C9.75303 7.94237 9.75303 7.94269 9.75303 7.943C9.75302 7.94332 9.75302 7.94364 9.75302 7.94395C9.75302 7.94427 9.75302 7.94458 9.75302 7.9449C9.75302 7.94522 9.75301 7.94553 9.75301 7.94585C9.75301 7.94616 9.75301 7.94648 9.75301 7.9468C9.75301 7.94711 9.75301 7.94743 9.753 7.94774C9.753 7.94806 9.753 7.94838 9.753 7.94869C9.753 7.94901 9.753 7.94932 9.753 7.94964C9.75299 7.94996 9.75299 7.95027 9.75299 7.95059C9.75299 7.9509 9.75299 7.95122 9.75299 7.95154C9.75299 7.95185 9.75298 7.95217 9.75298 7.95249C9.75298 7.9528 9.75298 7.95312 9.75298 7.95343C9.75298 7.95375 9.75298 7.95407 9.75297 7.95438C9.75297 7.9547 9.75297 7.95501 9.75297 7.95533C9.75297 7.95565 9.75297 7.95596 9.75297 7.95628C9.75296 7.9566 9.75296 7.95691 9.75296 7.95723C9.75296 7.95755 9.75296 7.95786 9.75296 7.95818C9.75296 7.95849 9.75295 7.95881 9.75295 7.95913C9.75295 7.95944 9.75295 7.95976 9.75295 7.96008C9.75295 7.96039 9.75294 7.96071 9.75294 7.96103C9.75294 7.96134 9.75294 7.96166 9.75294 7.96197C9.75294 7.96229 9.75294 7.96261 9.75293 7.96292C9.75293 7.96324 9.75293 7.96356 9.75293 7.96387C9.75293 7.96419 9.75293 7.96451 9.75293 7.96482C9.75292 7.96514 9.75292 7.96546 9.75292 7.96577C9.75292 7.96609 9.75292 7.96641 9.75292 7.96672C9.75292 7.96704 9.75291 7.96736 9.75291 7.96767C9.75291 7.96799 9.75291 7.96831 9.75291 7.96862C9.75291 7.96894 9.75291 7.96926 9.7529 7.96957C9.7529 7.96989 9.7529 7.97021 9.7529 7.97052C9.7529 7.97084 9.7529 7.97116 9.7529 7.97147C9.75289 7.97179 9.75289 7.97211 9.75289 7.97242C9.75289 7.97274 9.75289 7.97306 9.75289 7.97337C9.75289 7.97369 9.75288 7.97401 9.75288 7.97432C9.75288 7.97464 9.75288 7.97496 9.75288 7.97527C9.75288 7.97559 9.75288 7.97591 9.75287 7.97622C9.75287 7.97654 9.75287 7.97686 9.75287 7.97718C9.75287 7.97749 9.75287 7.97781 9.75287 7.97813C9.75286 7.97844 9.75286 7.97876 9.75286 7.97908C9.75286 7.97939 9.75286 7.97971 9.75286 7.98003C9.75285 7.98034 9.75285 7.98066 9.75285 7.98098C9.75285 7.9813 9.75285 7.98161 9.75285 7.98193C9.75285 7.98225 9.75284 7.98256 9.75284 7.98288C9.75284 7.9832 9.75284 7.98352 9.75284 7.98383C9.75284 7.98415 9.75284 7.98447 9.75283 7.98478C9.75283 7.9851 9.75283 7.98542 9.75283 7.98574C9.75283 7.98605 9.75283 7.98637 9.75283 7.98669C9.75282 7.987 9.75282 7.98732 9.75282 7.98764C9.75282 7.98796 9.75282 7.98827 9.75282 7.98859C9.75282 7.98891 9.75281 7.98922 9.75281 7.98954C9.75281 7.98986 9.75281 7.99018 9.75281 7.99049C9.75281 7.99081 9.75281 7.99113 9.7528 7.99145C9.7528 7.99176 9.7528 7.99208 9.7528 7.9924C9.7528 7.99271 9.7528 7.99303 9.7528 7.99335C9.75279 7.99367 9.75279 7.99398 9.75279 7.9943C9.75279 7.99462 9.75279 7.99494 9.75279 7.99525C9.75278 7.99557 9.75278 7.99589 9.75278 7.99621C9.75278 7.99652 9.75278 7.99684 9.75278 7.99716C9.75278 7.99748 9.75277 7.99779 9.75277 7.99811C9.75277 7.99843 9.75277 7.99875 9.75277 7.99906C9.75277 7.99938 9.75277 7.9997 9.75276 8.00002C9.75276 8.00033 9.75276 8.00065 9.75276 8.00097C9.75276 8.00129 9.75276 8.0016 9.75276 8.00192C9.75275 8.00224 9.75275 8.00256 9.75275 8.00288C9.75275 8.00319 9.75275 8.00351 9.75275 8.00383C9.75275 8.00415 9.75274 8.00446 9.75274 8.00478C9.75274 8.0051 9.75274 8.00542 9.75274 8.00573C9.75274 8.00605 9.75274 8.00637 9.75273 8.00669C9.75273 8.00701 9.75273 8.00732 9.75273 8.00764C9.75273 8.00796 9.75273 8.00828 9.75273 8.00859C9.75272 8.00891 9.75272 8.00923 9.75272 8.00955C9.75272 8.00987 9.75272 8.01018 9.75272 8.0105C9.75272 8.01082 9.75271 8.01114 9.75271 8.01146C9.75271 8.01177 9.75271 8.01209 9.75271 8.01241C9.75271 8.01273 9.7527 8.01305 9.7527 8.01336C9.7527 8.01368 9.7527 8.014 9.7527 8.01432C9.7527 8.01464 9.7527 8.01495 9.75269 8.01527C9.75269 8.01559 9.75269 8.01591 9.75269 8.01623C9.75269 8.01654 9.75269 8.01686 9.75269 8.01718C9.75268 8.0175 9.75268 8.01782 9.75268 8.01813C9.75268 8.01845 9.75268 8.01877 9.75268 8.01909C9.75268 8.01941 9.75267 8.01972 9.75267 8.02004C9.75267 8.02036 9.75267 8.02068 9.75267 8.021C9.75267 8.02132 9.75267 8.02163 9.75266 8.02195C9.75266 8.02227 9.75266 8.02259 9.75266 8.02291C9.75266 8.02322 9.75266 8.02354 9.75266 8.02386C9.75265 8.02418 9.75265 8.0245 9.75265 8.02482C9.75265 8.02513 9.75265 8.02545 9.75265 8.02577C9.75265 8.02609 9.75264 8.02641 9.75264 8.02673C9.75264 8.02704 9.75264 8.02736 9.75264 8.02768C9.75264 8.028 9.75263 8.02832 9.75263 8.02864C9.75263 8.02895 9.75263 8.02927 9.75263 8.02959C9.75263 8.02991 9.75263 8.03023 9.75262 8.03055C9.75262 8.03087 9.75262 8.03118 9.75262 8.0315C9.75262 8.03182 9.75262 8.03214 9.75262 8.03246C9.75261 8.03278 9.75261 8.0331 9.75261 8.03341C9.75261 8.03373 9.75261 8.03405 9.75261 8.03437C9.75261 8.03469 9.7526 8.03501 9.7526 8.03533C9.7526 8.03564 9.7526 8.03596 9.7526 8.03628C9.7526 8.0366 9.7526 8.03692 9.75259 8.03724C9.75259 8.03756 9.75259 8.03787 9.75259 8.03819C9.75259 8.03851 9.75259 8.03883 9.75259 8.03915C9.75258 8.03947 9.75258 8.03979 9.75258 8.04011C9.75258 8.04042 9.75258 8.04074 9.75258 8.04106C9.75257 8.04138 9.75257 8.0417 9.75257 8.04202C9.75257 8.04234 9.75257 8.04266 9.75257 8.04297C9.75257 8.04329 9.75256 8.04361 9.75256 8.04393C9.75256 8.04425 9.75256 8.04457 9.75256 8.04489C9.75256 8.04521 9.75256 8.04553 9.75255 8.04584C9.75255 8.04616 9.75255 8.04648 9.75255 8.0468C9.75255 8.04712 9.75255 8.04744 9.75255 8.04776C9.75254 8.04808 9.75254 8.0484 9.75254 8.04872C9.75254 8.04903 9.75254 8.04935 9.75254 8.04967C9.75254 8.04999 9.75253 8.05031 9.75253 8.05063C9.75253 8.05095 9.75253 8.05127 9.75253 8.05159C9.75253 8.05191 9.75253 8.05222 9.75252 8.05254C9.75252 8.05286 9.75252 8.05318 9.75252 8.0535C9.75252 8.05382 9.75252 8.05414 9.75251 8.05446C9.75251 8.05478 9.75251 8.0551 9.75251 8.05542C9.75251 8.05574 9.75251 8.05605 9.75251 8.05637C9.7525 8.05669 9.7525 8.05701 9.7525 8.05733C9.7525 8.05765 9.7525 8.05797 9.7525 8.05829C9.7525 8.05861 9.75249 8.05893 9.75249 8.05925C9.75249 8.05957 9.75249 8.05989 9.75249 8.06021C9.75249 8.06052 9.75249 8.06084 9.75248 8.06116C9.75248 8.06148 9.75248 8.0618 9.75248 8.06212C9.75248 8.06244 9.75248 8.06276 9.75248 8.06308C9.75247 8.0634 9.75247 8.06372 9.75247 8.06404C9.75247 8.06436 9.75247 8.06468 9.75247 8.065C9.75247 8.06532 9.75246 8.06564 9.75246 8.06595C9.75246 8.06627 9.75246 8.06659 9.75246 8.06691C9.75246 8.06723 9.75245 8.06755 9.75245 8.06787C9.75245 8.06819 9.75245 8.06851 9.75245 8.06883C9.75245 8.06915 9.75245 8.06947 9.75244 8.06979C9.75244 8.07011 9.75244 8.07043 9.75244 8.07075C9.75244 8.07107 9.75244 8.07139 9.75244 8.07171C9.75243 8.07203 9.75243 8.07235 9.75243 8.07267C9.75243 8.07299 9.75243 8.07331 9.75243 8.07363C9.75243 8.07395 9.75242 8.07427 9.75242 8.07458C9.75242 8.0749 9.75242 8.07522 9.75242 8.07554C9.75242 8.07586 9.75242 8.07618 9.75241 8.0765C9.75241 8.07682 9.75241 8.07714 9.75241 8.07746C9.75241 8.07778 9.75241 8.0781 9.75241 8.07842C9.7524 8.07874 9.7524 8.07906 9.7524 8.07938C9.7524 8.0797 9.7524 8.08002 9.7524 8.08034C9.75239 8.08066 9.75239 8.08098 9.75239 8.0813C9.75239 8.08162 9.75239 8.08194 9.75239 8.08226C9.75239 8.08258 9.75238 8.0829 9.75238 8.08322C9.75238 8.08354 9.75238 8.08386 9.75238 8.08418C9.75238 8.0845 9.75238 8.08482 9.75237 8.08514C9.75237 8.08546 9.75237 8.08578 9.75237 8.0861C9.75237 8.08642 9.75237 8.08674 9.75237 8.08706C9.75236 8.08738 9.75236 8.0877 9.75236 8.08802C9.75236 8.08834 9.75236 8.08866 9.75236 8.08898C9.75236 8.0893 9.75235 8.08962 9.75235 8.08994C9.75235 8.09026 9.75235 8.09058 9.75235 8.0909C9.75235 8.09123 9.75234 8.09155 9.75234 8.09187C9.75234 8.09219 9.75234 8.09251 9.75234 8.09283C9.75234 8.09315 9.75234 8.09347 9.75233 8.09379C9.75233 8.09411 9.75233 8.09443 9.75233 8.09475C9.75233 8.09507 9.75233 8.09539 9.75233 8.09571C9.75232 8.09603 9.75232 8.09635 9.75232 8.09667C9.75232 8.09699 9.75232 8.09731 9.75232 8.09763C9.75232 8.09795 9.75231 8.09827 9.75231 8.09859C9.75231 8.09891 9.75231 8.09923 9.75231 8.09955C9.75231 8.09988 9.75231 8.1002 9.7523 8.10052C9.7523 8.10084 9.7523 8.10116 9.7523 8.10148C9.7523 8.1018 9.7523 8.10212 9.75229 8.10244C9.75229 8.10276 9.75229 8.10308 9.75229 8.1034C9.75229 8.10372 9.75229 8.10404 9.75229 8.10436C9.75228 8.10468 9.75228 8.105 9.75228 8.10532C9.75228 8.10565 9.75228 8.10597 9.75228 8.10629C9.75228 8.10661 9.75227 8.10693 9.75227 8.10725C9.75227 8.10757 9.75227 8.10789 9.75227 8.10821C9.75227 8.10853 9.75227 8.10885 9.75226 8.10917C9.75226 8.10949 9.75226 8.10981 9.75226 8.11014C9.75226 8.11046 9.75226 8.11078 9.75226 8.1111C9.75225 8.11142 9.75225 8.11174 9.75225 8.11206C9.75225 8.11238 9.75225 8.1127 9.75225 8.11302C9.75224 8.11334 9.75224 8.11367 9.75224 8.11399C9.75224 8.11431 9.75224 8.11463 9.75224 8.11495C9.75224 8.11527 9.75223 8.11559 9.75223 8.11591C9.75223 8.11623 9.75223 8.11655 9.75223 8.11687C9.75223 8.1172 9.75223 8.11752 9.75222 8.11784C9.75222 8.11816 9.75222 8.11848 9.75222 8.1188C9.75222 8.11912 9.75222 8.11944 9.75222 8.11976C9.75221 8.12008 9.75221 8.12041 9.75221 8.12073C9.75221 8.12105 9.75221 8.12137 9.75221 8.12169C9.75221 8.12201 9.7522 8.12233 9.7522 8.12265C9.7522 8.12297 9.7522 8.1233 9.7522 8.12362C9.7522 8.12394 9.75219 8.12426 9.75219 8.12458C9.75219 8.1249 9.75219 8.12522 9.75219 8.12554C9.75219 8.12587 9.75219 8.12619 9.75218 8.12651C9.75218 8.12683 9.75218 8.12715 9.75218 8.12747C9.75218 8.12779 9.75218 8.12811 9.75218 8.12844C9.75217 8.12876 9.75217 8.12908 9.75217 8.1294C9.75217 8.12972 9.75217 8.13004 9.75217 8.13036C9.75217 8.13069 9.75216 8.13101 9.75216 8.13133C9.75216 8.13165 9.75216 8.13197 9.75216 8.13229C9.75216 8.13261 9.75216 8.13294 9.75215 8.13326C9.75215 8.13358 9.75215 8.1339 9.75215 8.13422C9.75215 8.13454 9.75215 8.13486 9.75214 8.13519C9.75214 8.13551 9.75214 8.13583 9.75214 8.13615C9.75214 8.13647 9.75214 8.13679 9.75214 8.13712C9.75213 8.13744 9.75213 8.13776 9.75213 8.13808C9.75213 8.1384 9.75213 8.13872 9.75213 8.13905C9.75213 8.13937 9.75212 8.13969 9.75212 8.14001C9.75212 8.14033 9.75212 8.14065 9.75212 8.14098C9.75212 8.1413 9.75212 8.14162 9.75211 8.14194C9.75211 8.14226 9.75211 8.14258 9.75211 8.14291C9.75211 8.14323 9.75211 8.14355 9.7521 8.14387C9.7521 8.14419 9.7521 8.14451 9.7521 8.14484C9.7521 8.14516 9.7521 8.14548 9.7521 8.1458C9.75209 8.14612 9.75209 8.14645 9.75209 8.14677C9.75209 8.14709 9.75209 8.14741 9.75209 8.14773C9.75209 8.14805 9.75208 8.14838 9.75208 8.1487C9.75208 8.14902 9.75208 8.14934 9.75208 8.14966C9.75208 8.14999 9.75208 8.15031 9.75207 8.15063C9.75207 8.15095 9.75207 8.15127 9.75207 8.1516C9.75207 8.15192 9.75207 8.15224 9.75206 8.15256C9.75206 8.15288 9.75206 8.15321 9.75206 8.15353C9.75206 8.15385 9.75206 8.15417 9.75206 8.15449C9.75205 8.15482 9.75205 8.15514 9.75205 8.15546C9.75205 8.15578 9.75205 8.1561 9.75205 8.15643C9.75205 8.15675 9.75204 8.15707 9.75204 8.15739C9.75204 8.15772 9.75204 8.15804 9.75204 8.15836C9.75204 8.15868 9.75204 8.159 9.75203 8.15933C9.75203 8.15965 9.75203 8.15997 9.75203 8.16029C9.75203 8.16062 9.75203 8.16094 9.75203 8.16126C9.75202 8.16158 9.75202 8.1619 9.75202 8.16223C9.75202 8.16255 9.75202 8.16287 9.75202 8.16319C9.75201 8.16352 9.75201 8.16384 9.75201 8.16416C9.75201 8.16448 9.75201 8.16481 9.75201 8.16513C9.75201 8.16545 9.752 8.16577 9.752 8.1661C9.752 8.16642 9.752 8.16674 9.752 8.16706C9.752 8.16739 9.752 8.16771 9.75199 8.16803C9.75199 8.16835 9.75199 8.16867 9.75199 8.169C9.75199 8.16932 9.75199 8.16964 9.75199 8.16996C9.75198 8.17029 9.75198 8.17061 9.75198 8.17093C9.75198 8.17126 9.75198 8.17158 9.75198 8.1719C9.75197 8.17222 9.75197 8.17255 9.75197 8.17287C9.75197 8.17319 9.75197 8.17351 9.75197 8.17384C9.75197 8.17416 9.75196 8.17448 9.75196 8.1748C9.75196 8.17513 9.75196 8.17545 9.75196 8.17577C9.75196 8.17609 9.75196 8.17642 9.75195 8.17674C9.75195 8.17706 9.75195 8.17739 9.75195 8.17771C9.75195 8.17803 9.75195 8.17835 9.75195 8.17868C9.75194 8.179 9.75194 8.17932 9.75194 8.17965C9.75194 8.17997 9.75194 8.18029 9.75194 8.18061C9.75193 8.18094 9.75193 8.18126 9.75193 8.18158C9.75193 8.1819 9.75193 8.18223 9.75193 8.18255C9.75193 8.18287 9.75192 8.1832 9.75192 8.18352C9.75192 8.18384 9.75192 8.18417 9.75192 8.18449C9.75192 8.18481 9.75192 8.18513 9.75191 8.18546C9.75191 8.18578 9.75191 8.1861 9.75191 8.18643C9.75191 8.18675 9.75191 8.18707 9.75191 8.1874C9.7519 8.18772 9.7519 8.18804 9.7519 8.18836C9.7519 8.18869 9.7519 8.18901 9.7519 8.18933C9.75189 8.18966 9.75189 8.18998 9.75189 8.1903C9.75189 8.19063 9.75189 8.19095 9.75189 8.19127C9.75189 8.1916 9.75188 8.19192 9.75188 8.19224C9.75188 8.19256 9.75188 8.19289 9.75188 8.19321C9.75188 8.19353 9.75188 8.19386 9.75187 8.19418C9.75187 8.1945 9.75187 8.19483 9.75187 8.19515C9.75187 8.19547 9.75187 8.1958 9.75187 8.19612C9.75186 8.19644 9.75186 8.19677 9.75186 8.19709C9.75186 8.19741 9.75186 8.19774 9.75186 8.19806C9.75185 8.19838 9.75185 8.19871 9.75185 8.19903C9.75185 8.19935 9.75185 8.19968 9.75185 8.2C9.75185 8.20032 9.75184 8.20065 9.75184 8.20097C9.75184 8.20129 9.75184 8.20162 9.75184 8.20194C9.75184 8.20226 9.75184 8.20259 9.75183 8.20291C9.75183 8.20324 9.75183 8.20356 9.75183 8.20388C9.75183 8.20421 9.75183 8.20453 9.75183 8.20485C9.75182 8.20518 9.75182 8.2055 9.75182 8.20582C9.75182 8.20615 9.75182 8.20647 9.75182 8.20679C9.75181 8.20712 9.75181 8.20744 9.75181 8.20776C9.75181 8.20809 9.75181 8.20841 9.75181 8.20874C9.75181 8.20906 9.7518 8.20938 9.7518 8.20971C9.7518 8.21003 9.7518 8.21035 9.7518 8.21068C9.7518 8.211 9.7518 8.21133 9.75179 8.21165C9.75179 8.21197 9.75179 8.2123 9.75179 8.21262C9.75179 8.21294 9.75179 8.21327 9.75179 8.21359C9.75178 8.21392 9.75178 8.21424 9.75178 8.21456C9.75178 8.21489 9.75178 8.21521 9.75178 8.21553C9.75177 8.21586 9.75177 8.21618 9.75177 8.21651C9.75177 8.21683 9.75177 8.21715 9.75177 8.21748C9.75177 8.2178 9.75176 8.21813 9.75176 8.21845C9.75176 8.21877 9.75176 8.2191 9.75176 8.21942C9.75176 8.21975 9.75176 8.22007 9.75175 8.22039C9.75175 8.22072 9.75175 8.22104 9.75175 8.22137C9.75175 8.22169 9.75175 8.22201 9.75174 8.22234C9.75174 8.22266 9.75174 8.22299 9.75174 8.22331C9.75174 8.22363 9.75174 8.22396 9.75174 8.22428C9.75173 8.22461 9.75173 8.22493 9.75173 8.22525C9.75173 8.22558 9.75173 8.2259 9.75173 8.22623C9.75173 8.22655 9.75172 8.22687 9.75172 8.2272C9.75172 8.22752 9.75172 8.22785 9.75172 8.22817C9.75172 8.2285 9.75172 8.22882 9.75171 8.22914C9.75171 8.22947 9.75171 8.22979 9.75171 8.23012C9.75171 8.23044 9.75171 8.23077 9.7517 8.23109C9.7517 8.23141 9.7517 8.23174 9.7517 8.23206C9.7517 8.23239 9.7517 8.23271 9.7517 8.23304C9.75169 8.23336 9.75169 8.23368 9.75169 8.23401C9.75169 8.23433 9.75169 8.23466 9.75169 8.23498C9.75169 8.23531 9.75168 8.23563 9.75168 8.23596C9.75168 8.23628 9.75168 8.2366 9.75168 8.23693C9.75168 8.23725 9.75168 8.23758 9.75167 8.2379C9.75167 8.23823 9.75167 8.23855 9.75167 8.23888C9.75167 8.2392 9.75167 8.23952 9.75166 8.23985C9.75166 8.24017 9.75166 8.2405 9.75166 8.24082C9.75166 8.24115 9.75166 8.24147 9.75166 8.2418C9.75165 8.24212 9.75165 8.24245 9.75165 8.24277C9.75165 8.2431 9.75165 8.24342 9.75165 8.24374C9.75165 8.24407 9.75164 8.24439 9.75164 8.24472C9.75164 8.24504 9.75164 8.24537 9.75164 8.24569C9.75164 8.24602 9.75163 8.24634 9.75163 8.24667C9.75163 8.24699 9.75163 8.24732 9.75163 8.24764C9.75163 8.24797 9.75163 8.24829 9.75162 8.24862C9.75162 8.24894 9.75162 8.24926 9.75162 8.24959C9.75162 8.24991 9.75162 8.25024 9.75162 8.25056C9.75161 8.25089 9.75161 8.25121 9.75161 8.25154C9.75161 8.25186 9.75161 8.25219 9.75161 8.25251C9.75161 8.25284 9.7516 8.25316 9.7516 8.25349C9.7516 8.25381 9.7516 8.25414 9.7516 8.25446C9.7516 8.25479 9.75159 8.25511 9.75159 8.25544C9.75159 8.25576 9.75159 8.25609 9.75159 8.25641C9.75159 8.25674 9.75159 8.25706 9.75158 8.25739C9.75158 8.25771 9.75158 8.25804 9.75158 8.25836C9.75158 8.25869 9.75158 8.25901 9.75158 8.25934C9.75157 8.25966 9.75157 8.25999 9.75157 8.26031C9.75157 8.26064 9.75157 8.26096 9.75157 8.26129C9.75156 8.26161 9.75156 8.26194 9.75156 8.26226C9.75156 8.26259 9.75156 8.26292 9.75156 8.26324C9.75156 8.26357 9.75155 8.26389 9.75155 8.26422C9.75155 8.26454 9.75155 8.26487 9.75155 8.26519C9.75155 8.26552 9.75155 8.26584 9.75154 8.26617C9.75154 8.26649 9.75154 8.26682 9.75154 8.26714C9.75154 8.26747 9.75154 8.26779 9.75154 8.26812C9.75153 8.26845 9.75153 8.26877 9.75153 8.2691C9.75153 8.26942 9.75153 8.26975 9.75153 8.27007C9.75152 8.2704 9.75152 8.27072 9.75152 8.27105C9.75152 8.27137 9.75152 8.2717 9.75152 8.27202C9.75152 8.27235 9.75151 8.27268 9.75151 8.273C9.75151 8.27333 9.75151 8.27365 9.75151 8.27398C9.75151 8.2743 9.75151 8.27463 9.7515 8.27495C9.7515 8.27528 9.7515 8.27561 9.7515 8.27593C9.7515 8.27626 9.7515 8.27658 9.75149 8.27691C9.75149 8.27723 9.75149 8.27756 9.75149 8.27788C9.75149 8.27821 9.75149 8.27854 9.75149 8.27886C9.75148 8.27919 9.75148 8.27951 9.75148 8.27984C9.75148 8.28016 9.75148 8.28049 9.75148 8.28082C9.75148 8.28114 9.75147 8.28147 9.75147 8.28179C9.75147 8.28212 9.75147 8.28244 9.75147 8.28277C9.75147 8.2831 9.75146 8.28342 9.75146 8.28375C9.75146 8.28407 9.75146 8.2844 9.75146 8.28473C9.75146 8.28505 9.75146 8.28538 9.75145 8.2857C9.75145 8.28603 9.75145 8.28635 9.75145 8.28668C9.75145 8.28701 9.75145 8.28733 9.75145 8.28766C9.75144 8.28798 9.75144 8.28831 9.75144 8.28864C9.75144 8.28896 9.75144 8.28929 9.75144 8.28961C9.75143 8.28994 9.75143 8.29027 9.75143 8.29059C9.75143 8.29092 9.75143 8.29124 9.75143 8.29157C9.75143 8.2919 9.75142 8.29222 9.75142 8.29255C9.75142 8.29287 9.75142 8.2932 9.75142 8.29353C9.75142 8.29385 9.75142 8.29418 9.75141 8.2945C9.75141 8.29483 9.75141 8.29516 9.75141 8.29548C9.75141 8.29581 9.75141 8.29614 9.75141 8.29646C9.7514 8.29679 9.7514 8.29711 9.7514 8.29744C9.7514 8.29777 9.7514 8.29809 9.7514 8.29842C9.75139 8.29874 9.75139 8.29907 9.75139 8.2994C9.75139 8.29972 9.75139 8.30005 9.75139 8.30038C9.75139 8.3007 9.75138 8.30103 9.75138 8.30135C9.75138 8.30168 9.75138 8.30201 9.75138 8.30233C9.75138 8.30266 9.75138 8.30299 9.75137 8.30331C9.75137 8.30364 9.75137 8.30397 9.75137 8.30429C9.75137 8.30462 9.75137 8.30494 9.75136 8.30527C9.75136 8.3056 9.75136 8.30592 9.75136 8.30625C9.75136 8.30658 9.75136 8.3069 9.75136 8.30723C9.75135 8.30756 9.75135 8.30788 9.75135 8.30821C9.75135 8.30854 9.75135 8.30886 9.75135 8.30919C9.75135 8.30952 9.75134 8.30984 9.75134 8.31017C9.75134 8.3105 9.75134 8.31082 9.75134 8.31115C9.75134 8.31147 9.75133 8.3118 9.75133 8.31213C9.75133 8.31245 9.75133 8.31278 9.75133 8.31311C9.75133 8.31343 9.75133 8.31376 9.75132 8.31409C9.75132 8.31441 9.75132 8.31474 9.75132 8.31507C9.75132 8.31539 9.75132 8.31572 9.75132 8.31605C9.75131 8.31637 9.75131 8.3167 9.75131 8.31703C9.75131 8.31736 9.75131 8.31768 9.75131 8.31801C9.7513 8.31834 9.7513 8.31866 9.7513 8.31899C9.7513 8.31932 9.7513 8.31964 9.7513 8.31997C9.7513 8.3203 9.75129 8.32062 9.75129 8.32095C9.75129 8.32128 9.75129 8.3216 9.75129 8.32193C9.75129 8.32226 9.75129 8.32258 9.75128 8.32291C9.75128 8.32324 9.75128 8.32357 9.75128 8.32389C9.75128 8.32422 9.75128 8.32455 9.75127 8.32487C9.75127 8.3252 9.75127 8.32553 9.75127 8.32585C9.75127 8.32618 9.75127 8.32651 9.75127 8.32684C9.75126 8.32716 9.75126 8.32749 9.75126 8.32782C9.75126 8.32814 9.75126 8.32847 9.75126 8.3288C9.75126 8.32912 9.75125 8.32945 9.75125 8.32978C9.75125 8.33011 9.75125 8.33043 9.75125 8.33076C9.75125 8.33109 9.75124 8.33141 9.75124 8.33174C9.75124 8.33207 9.75124 8.3324 9.75124 8.33272C9.75124 8.33305 9.75124 8.33338 9.75123 8.33371C9.75123 8.33403 9.75123 8.33436 9.75123 8.33469C9.75123 8.33501 9.75123 8.33534 9.75123 8.33567C9.75122 8.336 9.75122 8.33632 9.75122 8.33665C9.75122 8.33698 9.75122 8.33731 9.75122 8.33763C9.75121 8.33796 9.75121 8.33829 9.75121 8.33861C9.75121 8.33894 9.75121 8.33927 9.75121 8.3396C9.75121 8.33992 9.7512 8.34025 9.7512 8.34058C9.7512 8.34091 9.7512 8.34123 9.7512 8.34156C9.7512 8.34189 9.7512 8.34222 9.75119 8.34254C9.75119 8.34287 9.75119 8.3432 9.75119 8.34353C9.75119 8.34385 9.75119 8.34418 9.75118 8.34451C9.75118 8.34484 9.75118 8.34516 9.75118 8.34549C9.75118 8.34582 9.75118 8.34615 9.75118 8.34647C9.75117 8.3468 9.75117 8.34713 9.75117 8.34746C9.75117 8.34778 9.75117 8.34811 9.75117 8.34844C9.75117 8.34877 9.75116 8.3491 9.75116 8.34942C9.75116 8.34975 9.75116 8.35008 9.75116 8.35041C9.75116 8.35073 9.75115 8.35106 9.75115 8.35139C9.75115 8.35172 9.75115 8.35204 9.75115 8.35237C9.75115 8.3527 9.75115 8.35303 9.75114 8.35336C9.75114 8.35368 9.75114 8.35401 9.75114 8.35434C9.75114 8.35467 9.75114 8.35499 9.75114 8.35532C9.75113 8.35565 9.75113 8.35598 9.75113 8.35631C9.75113 8.35663 9.75113 8.35696 9.75113 8.35729C9.75112 8.35762 9.75112 8.35795 9.75112 8.35827C9.75112 8.3586 9.75112 8.35893 9.75112 8.35926C9.75112 8.35959 9.75111 8.35991 9.75111 8.36024C9.75111 8.36057 9.75111 8.3609 9.75111 8.36123C9.75111 8.36155 9.7511 8.36188 9.7511 8.36221C9.7511 8.36254 9.7511 8.36287 9.7511 8.36319C9.7511 8.36352 9.7511 8.36385 9.75109 8.36418C9.75109 8.36451 9.75109 8.36483 9.75109 8.36516C9.75109 8.36549 9.75109 8.36582 9.75109 8.36615C9.75108 8.36647 9.75108 8.3668 9.75108 8.36713C9.75108 8.36746 9.75108 8.36779 9.75108 8.36812C9.75107 8.36844 9.75107 8.36877 9.75107 8.3691C9.75107 8.36943 9.75107 8.36976 9.75107 8.37009C9.75107 8.37041 9.75106 8.37074 9.75106 8.37107C9.75106 8.3714 9.75106 8.37173 9.75106 8.37206C9.75106 8.37238 9.75106 8.37271 9.75105 8.37304C9.75105 8.37337 9.75105 8.3737 9.75105 8.37403C9.75105 8.37435 9.75105 8.37468 9.75104 8.37501C9.75104 8.37534 9.75104 8.37567 9.75104 8.376C9.75104 8.37632 9.75104 8.37665 9.75104 8.37698C9.75103 8.37731 9.75103 8.37764 9.75103 8.37797C9.75103 8.37829 9.75103 8.37862 9.75103 8.37895C9.75103 8.37928 9.75102 8.37961 9.75102 8.37994C9.75102 8.38027 9.75102 8.38059 9.75102 8.38092C9.75102 8.38125 9.75101 8.38158 9.75101 8.38191C9.75101 8.38224 9.75101 8.38257 9.75101 8.38289C9.75101 8.38322 9.75101 8.38355 9.751 8.38388C9.751 8.38421 9.751 8.38454 9.751 8.38487C9.751 8.3852 9.751 8.38552 9.751 8.38585C9.75099 8.38618 9.75099 8.38651 9.75099 8.38684C9.75099 8.38717 9.75099 8.3875 9.75099 8.38783C9.75098 8.38815 9.75098 8.38848 9.75098 8.38881C9.75098 8.38914 9.75098 8.38947 9.75098 8.3898C9.75098 8.39013 9.75097 8.39046 9.75097 8.39078C9.75097 8.39111 9.75097 8.39144 9.75097 8.39177C9.75097 8.3921 9.75096 8.39243 9.75096 8.39276C9.75096 8.39309 9.75096 8.39342 9.75096 8.39374C9.75096 8.39407 9.75096 8.3944 9.75095 8.39473C9.75095 8.39506 9.75095 8.39539 9.75095 8.39572C9.75095 8.39605 9.75095 8.39638 9.75095 8.39671C9.75094 8.39703 9.75094 8.39736 9.75094 8.39769C9.75094 8.39802 9.75094 8.39835 9.75094 8.39868C9.75093 8.39901 9.75093 8.39934 9.75093 8.39967C9.75093 8.4 9.75093 8.40033 9.75093 8.40065C9.75093 8.40098 9.75092 8.40131 9.75092 8.40164C9.75092 8.40197 9.75092 8.4023 9.75092 8.40263C9.75092 8.40296 9.75092 8.40329 9.75091 8.40362C9.75091 8.40395 9.75091 8.40428 9.75091 8.4046C9.75091 8.40493 9.75091 8.40526 9.7509 8.40559C9.7509 8.40592 9.7509 8.40625 9.7509 8.40658C9.7509 8.40691 9.7509 8.40724 9.7509 8.40757C9.75089 8.4079 9.75089 8.40823 9.75089 8.40856C9.75089 8.40889 9.75089 8.40922 9.75089 8.40954C9.75088 8.40987 9.75088 8.4102 9.75088 8.41053C9.75088 8.41086 9.75088 8.41119 9.75088 8.41152C9.75088 8.41185 9.75087 8.41218 9.75087 8.41251C9.75087 8.41284 9.75087 8.41317 9.75087 8.4135C9.75087 8.41383 9.75087 8.41416 9.75086 8.41449C9.75086 8.41482 9.75086 8.41515 9.75086 8.41548C9.75086 8.4158 9.75086 8.41613 9.75085 8.41646L9.91359 8.41721ZM9.91586 7.92198C9.91665 7.75095 9.9101 7.55824 9.89631 7.344L9.73391 7.35446C9.74751 7.56589 9.75389 7.75476 9.75313 7.92123L9.91586 7.92198ZM9.89647 7.34793C9.8849 6.62617 9.71622 6.07706 9.37515 5.71719L9.25703 5.82914C9.5585 6.14722 9.7225 6.64882 9.73375 7.35054L9.89647 7.34793ZM9.37574 5.71783C9.03199 5.34725 8.46219 5.17062 7.69006 5.16708L7.68932 5.32982C8.44324 5.33328 8.95771 5.50646 9.25643 5.8285L9.37574 5.71783ZM7.69006 5.16708L6.0723 5.15966L6.07155 5.3224L7.68932 5.32982L7.69006 5.16708ZM5.99055 5.24066L5.9638 11.0734L6.12654 11.0742L6.15329 5.2414L5.99055 5.24066Z" fill="white" mask="url(#path-25-outside-1_733_70)"/>
<path d="M8.15969 8.94501L8.15971 8.94503C8.16638 8.95286 8.16639 8.9648 8.16032 8.97277L8.15747 8.97534C8.1494 8.9826 8.1377 8.98171 8.13087 8.97362L8.13076 8.97349L8.00936 8.83078L8.00928 8.83069C8.00624 8.82714 8.00421 8.82191 8.00424 8.81632L8.00489 8.67545L8.00495 8.66162L7.99657 8.65061L7.93514 8.56997L7.86264 8.47479L7.86209 8.59444L7.86136 8.75489C7.86126 8.77743 7.84302 8.7955 7.82049 8.79539C7.79795 8.79529 7.77988 8.77706 7.77999 8.75452L7.78072 8.59407L7.78127 8.47442L7.7079 8.56893L7.64574 8.649L7.63726 8.65993L7.63719 8.67376L7.63655 8.81464C7.63652 8.82022 7.63445 8.82543 7.63137 8.82896L7.6313 8.82905L7.50876 8.97044C7.50874 8.97046 7.50872 8.97048 7.5087 8.97051C7.50142 8.97872 7.48963 8.97927 7.4817 8.97208C7.47359 8.96474 7.47235 8.95074 7.48029 8.9415L7.5878 8.81753L7.59768 8.80614L7.59775 8.79106L7.59838 8.65197C7.59841 8.64688 7.60009 8.64213 7.60301 8.63836L7.77308 8.41948L7.78157 8.40855L7.78164 8.39471L7.78164 8.39394L7.78206 8.30176L7.71367 8.36358L7.37304 8.67148L7.37297 8.67141L7.37098 8.67349C7.25373 8.79557 7.04783 8.71212 7.04866 8.52943C7.04914 8.42653 7.12232 8.34268 7.21564 8.33073L7.21564 8.33074L7.21657 8.3306L7.6059 8.27161L7.68494 8.25963L7.62874 8.20278L7.52547 8.0983L7.52544 8.09827C7.5188 8.09158 7.5171 8.08033 7.52226 8.07131L7.58343 7.96572L7.59685 7.94254L7.58088 7.92105L7.48442 7.79129C7.48441 7.79127 7.4844 7.79126 7.48439 7.79124C7.47716 7.78141 7.4794 7.76761 7.48806 7.76085C7.49637 7.75436 7.50804 7.75568 7.5148 7.76472L7.63599 7.92761C7.636 7.92762 7.63601 7.92763 7.63601 7.92764C7.64134 7.93486 7.64188 7.9446 7.63745 7.95229L7.57955 8.05241L7.56399 8.07932L7.58587 8.10141L7.71294 8.22965L7.78207 8.29942L7.78252 8.2012L7.78297 8.10431C7.78305 8.08552 7.796 8.06954 7.81376 8.06499L7.82385 8.06241L7.83391 8.06509C7.85163 8.0698 7.86443 8.08589 7.86434 8.10469L7.8639 8.20182L7.86344 8.30018L7.93324 8.23088L8.06148 8.10356L8.08359 8.08161L8.06816 8.05454L8.011 7.95426C8.01098 7.95424 8.01097 7.95422 8.01096 7.95419C8.00663 7.94645 8.00728 7.93674 8.01268 7.92959L8.13541 7.76775L8.13547 7.76768C8.14215 7.75883 8.15368 7.75747 8.16213 7.7642C8.17096 7.77122 8.17286 7.785 8.16564 7.79447L8.16558 7.79455L8.06785 7.92354L8.05171 7.94484L8.06485 7.96811L8.12483 8.07433C8.12483 8.07434 8.12484 8.07435 8.12485 8.07436C8.12991 8.08342 8.12809 8.09463 8.12141 8.10126L8.12137 8.10129L8.01715 8.20482L7.96043 8.26115L8.03936 8.27385L8.42813 8.33641L8.42813 8.33642L8.42917 8.33656C8.52282 8.34917 8.59519 8.43365 8.59472 8.53652C8.59388 8.71922 8.38719 8.80079 8.27107 8.67784L8.27114 8.67778L8.26906 8.67586L7.93127 8.36459L7.86344 8.30208L7.86301 8.39432L7.86301 8.39508L7.86295 8.40893L7.87134 8.41994L8.03965 8.64062C8.03965 8.64063 8.03966 8.64064 8.03967 8.64064C8.04254 8.64443 8.04417 8.64919 8.04415 8.65427L8.04351 8.79336L8.04344 8.80844L8.05321 8.81992L8.15969 8.94501Z" fill="white" stroke="white" stroke-width="0.0813693"/>
</svg>
